//Event file generated from Sappy .s format.
	

	#define	DW2Death_grp  voicegroup000
	#define	DW2Death_pri  0
	#define	DW2Death_rev  0
	#define	DW2Death_mvl  80
	#define	DW2Death_key  0
	#define	DW2Death_tbs  1
	#define	DW2Death_exg  0
	#define	DW2Death_cmp  1

	// .rodata
	//	DW2Death
	ALIGN 4

//**************** Track 1 (Midi-Chn.1) ****************//

DW2Death_1:
	BYTE	KEYSH   DW2Death_key+0
DW2Death_1_B1:
// 000   ----------------------------------------
	BYTE	TEMPO   93*DW2Death_tbs/2
	BYTE		VOICE   74
	BYTE		MODT    0
	BYTE		LFOS    44
	BYTE		VOL     85*DW2Death_mvl/mxv
	BYTE		PAN     c_v+0
	BYTE		N96     An3   v100
	BYTE	W96
// 001   ----------------------------------------
DW2Death_1_001:
	BYTE		N24     An3   v100
	BYTE	W24
	BYTE		        Dn4 
	BYTE	W24
	BYTE		        En4 
	BYTE	W24
	BYTE		        An4 
	BYTE	W24
	BYTE	PEND
// 002   ----------------------------------------
DW2Death_1_002:
	BYTE		N48     Dn4   v100
	BYTE	W48
	BYTE		        En4 
	BYTE	W48
	BYTE	PEND
// 003   ----------------------------------------
DW2Death_1_003:
	BYTE		N48     Fn4   v100
	BYTE	W48
	BYTE		        En4 
	BYTE	W48
	BYTE	PEND
// 004   ----------------------------------------
	BYTE		N96     Dn4 
	BYTE	W96
// 005   ----------------------------------------
DW2Death_1_005:
	BYTE		N48     Dn4   v100
	BYTE	W48
	BYTE		N24     Cn4 
	BYTE	W24
	BYTE		        As3 
	BYTE	W24
	BYTE	PEND
// 006   ----------------------------------------
	BYTE		N96     An3 
	BYTE	W96
// 007   ----------------------------------------
DW2Death_1_007:
	BYTE		N24     An3   v100
	BYTE	W24
	BYTE		        En4 
	BYTE	W24
	BYTE		N48     An4 
	BYTE	W48
	BYTE	PEND
// 008   ----------------------------------------
	BYTE		N96     An3 
	BYTE	W96
// 009   ----------------------------------------
	BYTE	PATT
	 POIN2	DW2Death_1_001
// 010   ----------------------------------------
	BYTE	PATT
	 POIN2	DW2Death_1_002
// 011   ----------------------------------------
	BYTE	PATT
	 POIN2	DW2Death_1_003
// 012   ----------------------------------------
	BYTE		N96     Dn4   v100
	BYTE	W96
// 013   ----------------------------------------
	BYTE	PATT
	 POIN2	DW2Death_1_005
// 014   ----------------------------------------
	BYTE		N96     An3   v100
	BYTE	W96
// 015   ----------------------------------------
	BYTE	PATT
	 POIN2	DW2Death_1_007
	BYTE	GoTo
	 POIN2	DW2Death_1_B1
DW2Death_1_B2:
// 016   ----------------------------------------
	BYTE	FINE

//**************** Track 2 (Midi-Chn.2) ****************//

DW2Death_2:
	BYTE	KEYSH   DW2Death_key+0
DW2Death_2_B1:
// 000   ----------------------------------------
	BYTE		VOICE   6
	BYTE		MODT    0
	BYTE		LFOS    44
	BYTE		VOL     47*DW2Death_mvl/mxv
	BYTE		PAN     c_v-32
	BYTE		N96     Dn3   v100
	BYTE		N48     Gn3 
	BYTE	W48
	BYTE		        Fn3 
	BYTE	W48
// 001   ----------------------------------------
DW2Death_2_001:
	BYTE		N48     Dn3   v100
	BYTE		N96     En3 
	BYTE	W48
	BYTE		N48     Cs3 
	BYTE	W48
	BYTE	PEND
// 002   ----------------------------------------
DW2Death_2_002:
	BYTE		N96     As2   v100
	BYTE		N24     Fn3 
	BYTE	W24
	BYTE		        Gs3 
	BYTE	W24
	BYTE		        Dn3 
	BYTE	W24
	BYTE		        Gs3 
	BYTE	W24
	BYTE	PEND
// 003   ----------------------------------------
DW2Death_2_003:
	BYTE		N24     Bn2   v100
	BYTE		N72     An3 
	BYTE	W24
	BYTE		        Cs3 
	BYTE	W48
	BYTE		N24     Gn3 
	BYTE	W24
	BYTE	PEND
// 004   ----------------------------------------
DW2Death_2_004:
	BYTE		N48     Gn3   v100
	BYTE		N96     An3 
	BYTE	W48
	BYTE		N48     Fn3 
	BYTE	W48
	BYTE	PEND
// 005   ----------------------------------------
	BYTE		N96     En3 
	BYTE		N24     An3 
	BYTE	W24
	BYTE		N48     Gn3   v088
	BYTE	W48
	BYTE		N24     Fn3 
	BYTE	W24
// 006   ----------------------------------------
DW2Death_2_006:
	BYTE		N48     Dn3   v100
	BYTE		N96     En3 
	BYTE	W48
	BYTE		N48     Bn2 
	BYTE	W48
	BYTE	PEND
// 007   ----------------------------------------
	BYTE		N96     Cs3 
	BYTE		N96     En3 
	BYTE	W96
// 008   ----------------------------------------
	BYTE		        Dn3 
	BYTE		N48     Gn3 
	BYTE	W48
	BYTE		        Fn3 
	BYTE	W48
// 009   ----------------------------------------
	BYTE	PATT
	 POIN2	DW2Death_2_001
// 010   ----------------------------------------
	BYTE	PATT
	 POIN2	DW2Death_2_002
// 011   ----------------------------------------
	BYTE	PATT
	 POIN2	DW2Death_2_003
// 012   ----------------------------------------
	BYTE	PATT
	 POIN2	DW2Death_2_004
// 013   ----------------------------------------
	BYTE		N96     En3   v100
	BYTE		N24     An3 
	BYTE	W24
	BYTE		N72     Gn3 
	BYTE	W72
// 014   ----------------------------------------
	BYTE	PATT
	 POIN2	DW2Death_2_006
// 015   ----------------------------------------
	BYTE		N96     Cs3   v100
	BYTE		N96     En3 
	BYTE	W96
	BYTE	GoTo
	 POIN2	DW2Death_2_B1
DW2Death_2_B2:
// 016   ----------------------------------------
	BYTE	FINE

//**************** Track 3 (Midi-Chn.3) ****************//

DW2Death_3:
	BYTE	KEYSH   DW2Death_key+0
DW2Death_3_B1:
// 000   ----------------------------------------
	BYTE		VOICE   6
	BYTE		MODT    0
	BYTE		LFOS    44
	BYTE		VOL     47*DW2Death_mvl/mxv
	BYTE		PAN     c_v-22
	BYTE		TIE     Dn1   v088
	BYTE		N96     Dn2   v100
	BYTE	W96
// 001   ----------------------------------------
	BYTE		N48   
	BYTE	W24
	BYTE		EOT     Dn1 
	BYTE		N24     Dn1   v088
	BYTE	W24
	BYTE		        Cs1 
	BYTE		N48     Cs2   v100
	BYTE	W24
	BYTE		N24     An0   v088
	BYTE	W24
// 002   ----------------------------------------
DW2Death_3_002:
	BYTE		N96     As0   v088
	BYTE		N96     As1   v100
	BYTE	W96
	BYTE	PEND
// 003   ----------------------------------------
DW2Death_3_003:
	BYTE		N48     En1   v088
	BYTE		N24     Bn1   v100
	BYTE	W24
	BYTE		N72     Cs2 
	BYTE	W24
	BYTE		N24     Cs1   v088
	BYTE	W24
	BYTE		        En1 
	BYTE	W24
	BYTE	PEND
// 004   ----------------------------------------
DW2Death_3_004:
	BYTE		TIE     An1   v088
	BYTE		N48     Gn2   v100
	BYTE	W48
	BYTE		        Fn2 
	BYTE	W48
	BYTE	PEND
// 005   ----------------------------------------
	BYTE		N96     En2 
	BYTE	W24
	BYTE		EOT     An1 
	BYTE		N24     An1   v088
	BYTE	W24
	BYTE		        Gn1 
	BYTE	W24
	BYTE		        Fn1 
	BYTE	W24
// 006   ----------------------------------------
DW2Death_3_006:
	BYTE		TIE     En1   v088
	BYTE		N48     Dn2   v100
	BYTE	W48
	BYTE		        Bn1 
	BYTE	W48
	BYTE	PEND
// 007   ----------------------------------------
	BYTE		N96     Cs2 
	BYTE	W96
	BYTE		EOT     En1 
// 008   ----------------------------------------
	BYTE		TIE     Dn1   v088
	BYTE		N96     Dn2   v100
	BYTE	W96
// 009   ----------------------------------------
	BYTE		N48   
	BYTE	W24
	BYTE		EOT     Dn1 
	BYTE		N24     Dn1   v088
	BYTE	W24
	BYTE		        Cs1 
	BYTE		N48     Cs2   v100
	BYTE	W24
	BYTE		N24     An0   v088
	BYTE	W24
// 010   ----------------------------------------
	BYTE	PATT
	 POIN2	DW2Death_3_002
// 011   ----------------------------------------
	BYTE	PATT
	 POIN2	DW2Death_3_003
// 012   ----------------------------------------
	BYTE	PATT
	 POIN2	DW2Death_3_004
// 013   ----------------------------------------
	BYTE		N96     En2   v100
	BYTE	W24
	BYTE		EOT     An1 
	BYTE		N24     An1   v088
	BYTE	W24
	BYTE		        Gn1 
	BYTE	W24
	BYTE		        Fn1 
	BYTE	W24
// 014   ----------------------------------------
	BYTE	PATT
	 POIN2	DW2Death_3_006
// 015   ----------------------------------------
	BYTE		N96     Cs2   v100
	BYTE	W96
	BYTE		EOT     En1 
	BYTE	GoTo
	 POIN2	DW2Death_3_B1
DW2Death_3_B2:
// 016   ----------------------------------------
	BYTE	FINE

//**************** Track 4 (Midi-Chn.4) ****************//

DW2Death_4:
	BYTE	KEYSH   DW2Death_key+0
DW2Death_4_B1:
// 000   ----------------------------------------
	BYTE		VOICE   49
	BYTE		MODT    0
	BYTE		LFOS    44
	BYTE		VOL     84*DW2Death_mvl/mxv
	BYTE		PAN     c_v-51
	BYTE		N48     Gn3   v100
	BYTE	W48
	BYTE		        Fn3 
	BYTE	W48
// 001   ----------------------------------------
	BYTE		N96     En3 
	BYTE	W96
// 002   ----------------------------------------
DW2Death_4_002:
	BYTE		N24     Fn3   v100
	BYTE	W24
	BYTE		        Gs3 
	BYTE	W24
	BYTE		        Dn3 
	BYTE	W24
	BYTE		        Gs3 
	BYTE	W24
	BYTE	PEND
// 003   ----------------------------------------
DW2Death_4_003:
	BYTE		N72     An3   v100
	BYTE	W72
	BYTE		N24     Gn3 
	BYTE	W24
	BYTE	PEND
// 004   ----------------------------------------
	BYTE		N96     An3 
	BYTE	W96
// 005   ----------------------------------------
DW2Death_4_005:
	BYTE		N24     An3   v100
	BYTE	W24
	BYTE		N72     Gn3 
	BYTE	W72
	BYTE	PEND
// 006   ----------------------------------------
	BYTE		N96     En3 
	BYTE	W96
// 007   ----------------------------------------
	BYTE		N96   
	BYTE	W96
// 008   ----------------------------------------
	BYTE		N48     Gn3 
	BYTE	W48
	BYTE		        Fn3 
	BYTE	W48
// 009   ----------------------------------------
	BYTE		N96     En3 
	BYTE	W96
// 010   ----------------------------------------
	BYTE	PATT
	 POIN2	DW2Death_4_002
// 011   ----------------------------------------
	BYTE	PATT
	 POIN2	DW2Death_4_003
// 012   ----------------------------------------
	BYTE		N96     An3   v100
	BYTE	W96
// 013   ----------------------------------------
	BYTE	PATT
	 POIN2	DW2Death_4_005
// 014   ----------------------------------------
	BYTE		N96     En3   v100
	BYTE	W96
// 015   ----------------------------------------
	BYTE		N96   
	BYTE	W96
	BYTE	GoTo
	 POIN2	DW2Death_4_B1
DW2Death_4_B2:
// 016   ----------------------------------------
	BYTE	FINE

//**************** Track 5 (Midi-Chn.5) ****************//

DW2Death_5:
	BYTE	KEYSH   DW2Death_key+0
DW2Death_5_B1:
// 000   ----------------------------------------
	BYTE		VOICE   40
	BYTE		MODT    0
	BYTE		LFOS    44
	BYTE		VOL     70*DW2Death_mvl/mxv
	BYTE		PAN     c_v-41
	BYTE		N48     Gn3   v100
	BYTE	W48
	BYTE		        Fn3 
	BYTE	W48
// 001   ----------------------------------------
	BYTE		N96     En3 
	BYTE	W96
// 002   ----------------------------------------
DW2Death_5_002:
	BYTE		N24     Fn3   v100
	BYTE	W24
	BYTE		        Gs3 
	BYTE	W24
	BYTE		        Dn3 
	BYTE	W24
	BYTE		        Gs3 
	BYTE	W24
	BYTE	PEND
// 003   ----------------------------------------
DW2Death_5_003:
	BYTE		N72     An3   v100
	BYTE	W72
	BYTE		N24     Gn3 
	BYTE	W24
	BYTE	PEND
// 004   ----------------------------------------
	BYTE		N96     An3 
	BYTE	W96
// 005   ----------------------------------------
DW2Death_5_005:
	BYTE		N24     An3   v100
	BYTE	W24
	BYTE		N72     Gn3 
	BYTE	W72
	BYTE	PEND
// 006   ----------------------------------------
	BYTE		N96     En3 
	BYTE	W96
// 007   ----------------------------------------
	BYTE		N96   
	BYTE	W96
// 008   ----------------------------------------
	BYTE		N48     Gn3 
	BYTE	W48
	BYTE		        Fn3 
	BYTE	W48
// 009   ----------------------------------------
	BYTE		N96     En3 
	BYTE	W96
// 010   ----------------------------------------
	BYTE	PATT
	 POIN2	DW2Death_5_002
// 011   ----------------------------------------
	BYTE	PATT
	 POIN2	DW2Death_5_003
// 012   ----------------------------------------
	BYTE		N96     An3   v100
	BYTE	W96
// 013   ----------------------------------------
	BYTE	PATT
	 POIN2	DW2Death_5_005
// 014   ----------------------------------------
	BYTE		N96     En3   v100
	BYTE	W96
// 015   ----------------------------------------
	BYTE		N96   
	BYTE	W96
	BYTE	GoTo
	 POIN2	DW2Death_5_B1
DW2Death_5_B2:
// 016   ----------------------------------------
	BYTE	FINE

//**************** Track 6 (Midi-Chn.6) ****************//

DW2Death_6:
	BYTE	KEYSH   DW2Death_key+0
DW2Death_6_B1:
// 000   ----------------------------------------
	BYTE		VOICE   49
	BYTE		MODT    0
	BYTE		LFOS    44
	BYTE		VOL     78*DW2Death_mvl/mxv
	BYTE		PAN     c_v+49
	BYTE		N96     Dn2   v100
	BYTE	W96
// 001   ----------------------------------------
DW2Death_6_001:
	BYTE		N48     Dn2   v100
	BYTE	W48
	BYTE		        Cs2 
	BYTE	W48
	BYTE	PEND
// 002   ----------------------------------------
	BYTE		N96     As1 
	BYTE	W96
// 003   ----------------------------------------
DW2Death_6_003:
	BYTE		N24     Bn1   v100
	BYTE	W24
	BYTE		N72     Cs2 
	BYTE	W72
	BYTE	PEND
// 004   ----------------------------------------
DW2Death_6_004:
	BYTE		N48     Gn2   v100
	BYTE	W48
	BYTE		        Fn2 
	BYTE	W48
	BYTE	PEND
// 005   ----------------------------------------
	BYTE		N96     En2 
	BYTE	W96
// 006   ----------------------------------------
DW2Death_6_006:
	BYTE		N48     Dn2   v100
	BYTE	W48
	BYTE		        Bn1 
	BYTE	W48
	BYTE	PEND
// 007   ----------------------------------------
	BYTE		N96     Cs2 
	BYTE	W96
// 008   ----------------------------------------
	BYTE		        Dn2 
	BYTE	W96
// 009   ----------------------------------------
	BYTE	PATT
	 POIN2	DW2Death_6_001
// 010   ----------------------------------------
	BYTE		N96     As1   v100
	BYTE	W96
// 011   ----------------------------------------
	BYTE	PATT
	 POIN2	DW2Death_6_003
// 012   ----------------------------------------
	BYTE	PATT
	 POIN2	DW2Death_6_004
// 013   ----------------------------------------
	BYTE		N96     En2   v100
	BYTE	W96
// 014   ----------------------------------------
	BYTE	PATT
	 POIN2	DW2Death_6_006
// 015   ----------------------------------------
	BYTE		N96     Cs2   v100
	BYTE	W96
	BYTE	GoTo
	 POIN2	DW2Death_6_B1
DW2Death_6_B2:
// 016   ----------------------------------------
	BYTE	FINE

//**************** Track 7 (Midi-Chn.7) ****************//

DW2Death_7:
	BYTE	KEYSH   DW2Death_key+0
DW2Death_7_B1:
// 000   ----------------------------------------
	BYTE		VOICE   42
	BYTE		MODT    0
	BYTE		LFOS    44
	BYTE		VOL     65*DW2Death_mvl/mxv
	BYTE		PAN     c_v+39
	BYTE		N96     Dn2   v100
	BYTE	W96
// 001   ----------------------------------------
DW2Death_7_001:
	BYTE		N48     Dn2   v100
	BYTE	W48
	BYTE		        Cs2 
	BYTE	W48
	BYTE	PEND
// 002   ----------------------------------------
	BYTE		N96     As1 
	BYTE	W96
// 003   ----------------------------------------
DW2Death_7_003:
	BYTE		N24     Bn1   v100
	BYTE	W24
	BYTE		N72     Cs2 
	BYTE	W72
	BYTE	PEND
// 004   ----------------------------------------
DW2Death_7_004:
	BYTE		N48     Gn2   v100
	BYTE	W48
	BYTE		        Fn2 
	BYTE	W48
	BYTE	PEND
// 005   ----------------------------------------
	BYTE		N96     En2 
	BYTE	W96
// 006   ----------------------------------------
DW2Death_7_006:
	BYTE		N48     Dn2   v100
	BYTE	W48
	BYTE		        Bn1 
	BYTE	W48
	BYTE	PEND
// 007   ----------------------------------------
	BYTE		N96     Cs2 
	BYTE	W96
// 008   ----------------------------------------
	BYTE		        Dn2 
	BYTE	W96
// 009   ----------------------------------------
	BYTE	PATT
	 POIN2	DW2Death_7_001
// 010   ----------------------------------------
	BYTE		N96     As1   v100
	BYTE	W96
// 011   ----------------------------------------
	BYTE	PATT
	 POIN2	DW2Death_7_003
// 012   ----------------------------------------
	BYTE	PATT
	 POIN2	DW2Death_7_004
// 013   ----------------------------------------
	BYTE		N96     En2   v100
	BYTE	W96
// 014   ----------------------------------------
	BYTE	PATT
	 POIN2	DW2Death_7_006
// 015   ----------------------------------------
	BYTE		N96     Cs2   v100
	BYTE	W96
	BYTE	GoTo
	 POIN2	DW2Death_7_B1
DW2Death_7_B2:
// 016   ----------------------------------------
	BYTE	FINE

//**************** Track 8 (Midi-Chn.8) ****************//

DW2Death_8:
	BYTE	KEYSH   DW2Death_key+0
DW2Death_8_B1:
// 000   ----------------------------------------
	BYTE		VOICE   49
	BYTE		MODT    0
	BYTE		LFOS    44
	BYTE		VOL     70*DW2Death_mvl/mxv
	BYTE		PAN     c_v+9
	BYTE		TIE     Dn1   v088
	BYTE	W96
// 001   ----------------------------------------
	BYTE	W24
	BYTE		EOT   
	BYTE		N24     Dn2 
	BYTE	W24
	BYTE		        Cs2 
	BYTE	W24
	BYTE		        An1 
	BYTE	W24
// 002   ----------------------------------------
DW2Death_8_002:
	BYTE		N48     As1   v088
	BYTE	W48
	BYTE		        Dn2 
	BYTE	W48
	BYTE	PEND
// 003   ----------------------------------------
DW2Death_8_003:
	BYTE		N24     Dn2   v088
	BYTE	W24
	BYTE		N72     Cs2 
	BYTE	W72
	BYTE	PEND
// 004   ----------------------------------------
	BYTE		TIE     Dn1 
	BYTE	W96
// 005   ----------------------------------------
	BYTE	W24
	BYTE		EOT   
	BYTE		N24     Dn2 
	BYTE	W24
	BYTE		        Cn2 
	BYTE	W24
	BYTE		        As1 
	BYTE	W24
// 006   ----------------------------------------
	BYTE		TIE     An1 
	BYTE	W96
// 007   ----------------------------------------
	BYTE	W96
	BYTE		EOT   
// 008   ----------------------------------------
	BYTE		TIE     Dn1 
	BYTE	W96
// 009   ----------------------------------------
	BYTE	W24
	BYTE		EOT   
	BYTE		N24     Dn2 
	BYTE	W24
	BYTE		        Cs2 
	BYTE	W24
	BYTE		        An1 
	BYTE	W24
// 010   ----------------------------------------
	BYTE	PATT
	 POIN2	DW2Death_8_002
// 011   ----------------------------------------
	BYTE	PATT
	 POIN2	DW2Death_8_003
// 012   ----------------------------------------
	BYTE		TIE     Dn1   v088
	BYTE	W96
// 013   ----------------------------------------
	BYTE	W24
	BYTE		EOT   
	BYTE		N24     Dn2 
	BYTE	W24
	BYTE		        Cn2 
	BYTE	W24
	BYTE		        As1 
	BYTE	W24
// 014   ----------------------------------------
	BYTE		TIE     An1 
	BYTE	W96
// 015   ----------------------------------------
	BYTE	W96
	BYTE		EOT   
	BYTE	GoTo
	 POIN2	DW2Death_8_B1
DW2Death_8_B2:
// 016   ----------------------------------------
	BYTE	FINE

//**************** Track 9 (Midi-Chn.9) ****************//

DW2Death_9:
	BYTE	KEYSH   DW2Death_key+0
DW2Death_9_B1:
// 000   ----------------------------------------
	BYTE		VOICE   42
	BYTE		MODT    0
	BYTE		LFOS    44
	BYTE		VOL     58*DW2Death_mvl/mxv
	BYTE		PAN     c_v+19
	BYTE		TIE     Dn1   v088
	BYTE	W96
// 001   ----------------------------------------
	BYTE	W24
	BYTE		EOT   
	BYTE		N24     Dn2 
	BYTE	W24
	BYTE		        Cs2 
	BYTE	W24
	BYTE		        An1 
	BYTE	W24
// 002   ----------------------------------------
DW2Death_9_002:
	BYTE		N48     As1   v088
	BYTE	W48
	BYTE		        Dn2 
	BYTE	W48
	BYTE	PEND
// 003   ----------------------------------------
DW2Death_9_003:
	BYTE		N24     Dn2   v088
	BYTE	W24
	BYTE		N72     Cs2 
	BYTE	W72
	BYTE	PEND
// 004   ----------------------------------------
	BYTE		TIE     Dn1 
	BYTE	W96
// 005   ----------------------------------------
	BYTE	W24
	BYTE		EOT   
	BYTE		N24     Dn2 
	BYTE	W24
	BYTE		        Cn2 
	BYTE	W24
	BYTE		        As1 
	BYTE	W24
// 006   ----------------------------------------
	BYTE		TIE     An1 
	BYTE	W96
// 007   ----------------------------------------
	BYTE	W96
	BYTE		EOT   
// 008   ----------------------------------------
	BYTE		TIE     Dn1 
	BYTE	W96
// 009   ----------------------------------------
	BYTE	W24
	BYTE		EOT   
	BYTE		N24     Dn2 
	BYTE	W24
	BYTE		        Cs2 
	BYTE	W24
	BYTE		        An1 
	BYTE	W24
// 010   ----------------------------------------
	BYTE	PATT
	 POIN2	DW2Death_9_002
// 011   ----------------------------------------
	BYTE	PATT
	 POIN2	DW2Death_9_003
// 012   ----------------------------------------
	BYTE		TIE     Dn1   v088
	BYTE	W96
// 013   ----------------------------------------
	BYTE	W24
	BYTE		EOT   
	BYTE		N24     Dn2 
	BYTE	W24
	BYTE		        Cn2 
	BYTE	W24
	BYTE		        As1 
	BYTE	W24
// 014   ----------------------------------------
	BYTE		TIE     An1 
	BYTE	W96
// 015   ----------------------------------------
	BYTE	W96
	BYTE		EOT   
	BYTE	GoTo
	 POIN2	DW2Death_9_B1
DW2Death_9_B2:
// 016   ----------------------------------------
	BYTE	FINE

//**************** Track 10 (Midi-Chn.11) ****************//

DW2Death_10:
	BYTE	KEYSH   DW2Death_key+0
DW2Death_10_B1:
// 000   ----------------------------------------
	BYTE		VOICE   43
	BYTE		MODT    0
	BYTE		LFOS    44
	BYTE		VOL     41*DW2Death_mvl/mxv
	BYTE		PAN     c_v+0
	BYTE		TIE     Dn1   v088
	BYTE	W96
// 001   ----------------------------------------
	BYTE	W24
	BYTE		EOT   
	BYTE		N24     Dn2 
	BYTE	W24
	BYTE		        Cs2 
	BYTE	W24
	BYTE		        An1 
	BYTE	W24
// 002   ----------------------------------------
	BYTE		N96     As1 
	BYTE	W96
// 003   ----------------------------------------
DW2Death_10_003:
	BYTE		N48     Bn1   v088
	BYTE	W48
	BYTE		N24     Cs2 
	BYTE	W24
	BYTE		        An1 
	BYTE	W24
	BYTE	PEND
// 004   ----------------------------------------
	BYTE		TIE     Dn1 
	BYTE	W96
// 005   ----------------------------------------
	BYTE	W24
	BYTE		EOT   
	BYTE		N24     Dn2 
	BYTE	W24
	BYTE		        Cn2 
	BYTE	W24
	BYTE		        As1 
	BYTE	W24
// 006   ----------------------------------------
	BYTE		TIE     An1 
	BYTE	W96
// 007   ----------------------------------------
	BYTE	W96
	BYTE		EOT   
// 008   ----------------------------------------
	BYTE		TIE     Dn1 
	BYTE	W96
// 009   ----------------------------------------
	BYTE	W24
	BYTE		EOT   
	BYTE		N24     Dn2 
	BYTE	W24
	BYTE		        Cs2 
	BYTE	W24
	BYTE		        An1 
	BYTE	W24
// 010   ----------------------------------------
	BYTE		N96     As1 
	BYTE	W96
// 011   ----------------------------------------
	BYTE	PATT
	 POIN2	DW2Death_10_003
// 012   ----------------------------------------
	BYTE		TIE     Dn1   v088
	BYTE	W96
// 013   ----------------------------------------
	BYTE	W24
	BYTE		EOT   
	BYTE		N24     Dn2 
	BYTE	W24
	BYTE		        Cn2 
	BYTE	W24
	BYTE		        As1 
	BYTE	W24
// 014   ----------------------------------------
	BYTE		TIE     An1 
	BYTE	W96
// 015   ----------------------------------------
	BYTE	W96
	BYTE		EOT   
	BYTE	GoTo
	 POIN2	DW2Death_10_B1
DW2Death_10_B2:
// 016   ----------------------------------------
	BYTE	FINE

//******************************************************//
	ALIGN 4

DW2Death:
	BYTE	10	// NumTrks
	BYTE	0	// NumBlks
	BYTE	DW2Death_pri	// Priority
	BYTE	DW2Death_rev	// Reverb.

	POIN2	DW2Death_grp

	POIN2	DW2Death_1
	POIN2	DW2Death_2
	POIN2	DW2Death_3
	POIN2	DW2Death_4
	POIN2	DW2Death_5
	POIN2	DW2Death_6
	POIN2	DW2Death_7
	POIN2	DW2Death_8
	POIN2	DW2Death_9
	POIN2	DW2Death_10

	
