//Event file generated from Sappy .s format.
	

	#define	FE4GirlFromTheSpiritForest_grp  voicegroup000
	#define	FE4GirlFromTheSpiritForest_pri  0
	#define	FE4GirlFromTheSpiritForest_rev  0
	#define	FE4GirlFromTheSpiritForest_mvl  127
	#define	FE4GirlFromTheSpiritForest_key  0
	#define	FE4GirlFromTheSpiritForest_tbs  1
	#define	FE4GirlFromTheSpiritForest_exg  0
	#define	FE4GirlFromTheSpiritForest_cmp  1

	// .rodata
	//	FE4GirlFromTheSpiritForest
	ALIGN 4


//**************** Track 1 (Midi-Chn.0) ****************//

FE4GirlFromTheSpiritForest_001:
//  #01 //000   ----------------------------------------
 BYTE   KEYSH   FE4GirlFromTheSpiritForest_key+0
 BYTE   TEMPO   62*FE4GirlFromTheSpiritForest_tbs/2
 BYTE   VOICE   4
 BYTE   MODT 0
 BYTE   LFOS 44
 BYTE   PAN   c_v+0
 BYTE   VOL   40*FE4GirlFromTheSpiritForest_mvl/mxv
 BYTE   VOL   37*FE4GirlFromTheSpiritForest_mvl/mxv
 BYTE   N52  Bn1  v080
 BYTE   W52
 BYTE   W01
 BYTE   N48  Bn1  v048
 BYTE   W42
 BYTE   W01
//  #01 //001   ----------------------------------------
Label_01197931:
 BYTE   W08
 BYTE   N02  En2  v028
 BYTE   W06
 BYTE   N07  En2  v036
 BYTE   W12
 BYTE   N05
 BYTE   W12
 BYTE   N05
 BYTE   W12
 BYTE   N01
 BYTE   W06
 BYTE   N02  Fs2
 BYTE   W06
 BYTE   N07
 BYTE   W12
 BYTE   N05
 BYTE   W12
 BYTE   Fs2  v040
 BYTE   W10
//  #01 //002   ----------------------------------------
 BYTE   W02
 BYTE   N01  Fs2  v036
 BYTE   W06
 BYTE   N02  Dn2  v040
 BYTE   W06
 BYTE   N05
 BYTE   W12
 BYTE   Dn2  v048
 BYTE   W12
 BYTE   N05
 BYTE   W12
 BYTE   N01
 BYTE   W06
 BYTE   N02  En2  v028
 BYTE   W06
 BYTE   N07  En2  v036
 BYTE   W12
 BYTE   N05
 BYTE   W12
 BYTE   N05
 BYTE   W10
//  #01 //003   ----------------------------------------
 BYTE   W02
 BYTE   N01
 BYTE   W06
 BYTE   N02  En2  v028
 BYTE   W06
 BYTE   N07  En2  v036
 BYTE   W12
 BYTE   N05
 BYTE   W12
 BYTE   N05
 BYTE   W12
 BYTE   N01
 BYTE   W06
 BYTE   N02  Dn2  v040
 BYTE   W06
 BYTE   N05
 BYTE   W12
 BYTE   Dn2  v048
 BYTE   W12
 BYTE   N05
 BYTE   W10
//  #01 //004   ----------------------------------------
 BYTE   W02
 BYTE   N01
 BYTE   W06
 BYTE   N02  Gn2  v028
 BYTE   W06
 BYTE   N07  Gn2  v036
 BYTE   W12
 BYTE   N05  Gn2  v032
 BYTE   W12
 BYTE   N08  Gn2  v028
 BYTE   W12
 BYTE   N01  Gn2  v036
 BYTE   W06
 BYTE   N02  Bn2  v028
 BYTE   W06
 BYTE   N07  Bn2  v036
 BYTE   W12
 BYTE   N05
 BYTE   W12
 BYTE   N08  Bn2  v028
 BYTE   W10
//  #01 //005   ----------------------------------------
 BYTE   W02
 BYTE   N01  Bn2  v036
 BYTE   W06
 BYTE   N02  Cn3  v028
 BYTE   W06
 BYTE   N07  Cn3  v036
 BYTE   W12
 BYTE   N05
 BYTE   W12
 BYTE   N09  Cn3  v028
 BYTE   W12
 BYTE   N01
 BYTE   W06
 BYTE   N02  Bn2
 BYTE   W06
 BYTE   N07  Bn2  v036
 BYTE   W12
 BYTE   N05
 BYTE   W12
 BYTE   N08  Bn2  v028
 BYTE   W10
//  #01 //006   ----------------------------------------
 BYTE   W02
 BYTE   N01  Bn2  v036
 BYTE   W06
 BYTE   N02  Bn2  v028
 BYTE   W06
 BYTE   N07  Bn2  v036
 BYTE   W12
 BYTE   N05
 BYTE   W12
 BYTE   N08  Bn2  v028
 BYTE   W12
 BYTE   N01  Bn2  v036
 BYTE   W06
 BYTE   N02  An2  v040
 BYTE   W06
 BYTE   N07  An2  v036
 BYTE   W12
 BYTE   N05
 BYTE   W12
 BYTE   N08  An2  v028
 BYTE   W10
//  #01 //007   ----------------------------------------
 BYTE   W02
 BYTE   N01  An2  v036
 BYTE   W06
 BYTE   N02  An2  v040
 BYTE   W06
 BYTE   N07  An2  v036
 BYTE   W12
 BYTE   N05
 BYTE   W12
 BYTE   N08  An2  v028
 BYTE   W12
 BYTE   N01  An2  v036
 BYTE   W06
 BYTE   N02  Gn2  v028
 BYTE   W06
 BYTE   N07  Gn2  v036
 BYTE   W12
 BYTE   N05  Gn2  v032
 BYTE   W12
 BYTE   N08  Gn2  v028
 BYTE   W10
//  #01 //008   ----------------------------------------
 BYTE   W02
 BYTE   N01  Gn2  v036
 BYTE   W06
 BYTE   N02  Gn2  v028
 BYTE   W06
 BYTE   N07  Gn2  v040
 BYTE   W12
 BYTE   N01
 BYTE   W06
 BYTE   N02
 BYTE   W06
 BYTE   N08  Gn2  v028
 BYTE   W12
 BYTE   N01  Gn2  v036
 BYTE   W06
 BYTE   N02  Gn2  v028
 BYTE   W06
 BYTE   N07  Gn2  v040
 BYTE   W12
 BYTE   N01
 BYTE   W06
 BYTE   N02
 BYTE   W06
 BYTE   N08  Gn2  v028
 BYTE   W10
//  #01 //009   ----------------------------------------
 BYTE   W02
 BYTE   N01  Gn2  v036
 BYTE   W06
 BYTE   N02  An2
 BYTE   W06
 BYTE   N07
 BYTE   W12
 BYTE   N01
 BYTE   W06
 BYTE   N02  An2  v028
 BYTE   W06
 BYTE   N08
 BYTE   W12
 BYTE   N01  An2  v024
 BYTE   W06
 BYTE   N02  Gn2  v028
 BYTE   W06
 BYTE   N07  Gn2  v040
 BYTE   W12
 BYTE   N01
 BYTE   W06
 BYTE   N02
 BYTE   W06
 BYTE   N08  Gn2  v028
 BYTE   W10
//  #01 //010   ----------------------------------------
 BYTE   W02
 BYTE   N01  Gn2  v036
 BYTE   W06
 BYTE   N02  Bn2
 BYTE   W06
 BYTE   N08
 BYTE   W12
 BYTE   N01
 BYTE   W06
 BYTE   N02  Bn2  v028
 BYTE   W06
 BYTE   N07
 BYTE   W12
 BYTE   N01  Bn2  v024
 BYTE   W06
 BYTE   N02  Cn3  v028
 BYTE   W06
 BYTE   N07  Cn3  v040
 BYTE   W12
 BYTE   N01
 BYTE   W06
 BYTE   N02
 BYTE   W06
 BYTE   N08  Cn3  v028
 BYTE   W10
//  #01 //011   ----------------------------------------
 BYTE   W02
 BYTE   N01  Cn3  v036
 BYTE   W06
 BYTE   N02  Cn3  v028
 BYTE   W06
 BYTE   N07  Cn3  v040
 BYTE   W12
 BYTE   N01
 BYTE   W06
 BYTE   N02
 BYTE   W06
 BYTE   N08  Cn3  v028
 BYTE   W12
 BYTE   N01  Cn3  v036
 BYTE   W06
 BYTE   Dn3  v028
 BYTE   W06
 BYTE   N07  Dn3  v036
 BYTE   W12
 BYTE   N01  Dn3  v028
 BYTE   W06
 BYTE   N01
 BYTE   W06
 BYTE   N05
 BYTE   W10
//  #01 //012   ----------------------------------------
 BYTE   W02
 BYTE   N01  Dn3  v020
 BYTE   W06
 BYTE   N02  En3  v028
 BYTE   W06
 BYTE   N08  En3  v040
 BYTE   W12
 BYTE   N01
 BYTE   W06
 BYTE   N02  En3  v036
 BYTE   W06
 BYTE   N07  En3  v028
 BYTE   W12
 BYTE   N01  En3  v036
 BYTE   W06
 BYTE   N02  En3  v028
 BYTE   W06
 BYTE   N08  En3  v040
 BYTE   W12
 BYTE   N01
 BYTE   W06
 BYTE   N02  En3  v036
 BYTE   W06
 BYTE   N07  En3  v028
 BYTE   W10
//  #01 //013   ----------------------------------------
 BYTE   W02
 BYTE   N01  En3  v036
 BYTE   W06
 BYTE   VOL   37*FE4GirlFromTheSpiritForest_mvl/mxv
 BYTE   N03  An2
 BYTE   W06
 BYTE   An2  v040
 BYTE   W06
 BYTE   N04  An2  v036
 BYTE   W24
 BYTE   N01  Fs3  v028
 BYTE   W12
 BYTE   N03  Gs2
 BYTE   W06
 BYTE   Gs2  v036
 BYTE   W06
 BYTE   N04  Gs2  v040
 BYTE   W24
 BYTE   N01  En3  v024
 BYTE   W04
//  #01 //014   ----------------------------------------
 BYTE   W08
 BYTE   N04  Fs2  v036
 BYTE   W06
 BYTE   Fs2  v028
 BYTE   W06
 BYTE   Fs2  v036
 BYTE   W24
 BYTE   N01  Dn3  v028
 BYTE   W12
 BYTE   N04  En2
 BYTE   W06
 BYTE   En2  v024
 BYTE   W06
 BYTE   En2  v028
 BYTE   W12
 BYTE   N02  Cs3  v024
 BYTE   W12
 BYTE   N02
 BYTE   W04
//  #01 //015   ----------------------------------------
 BYTE   W11
 BYTE   VOL   38*FE4GirlFromTheSpiritForest_mvl/mxv
 BYTE   N02  Cs3  v028
 BYTE   W06
 BYTE   Cs3  v036
 BYTE   W06
 BYTE   Cs3  v028
 BYTE   W06
 BYTE   Cs3  v024
 BYTE   W06
 BYTE   Cs3  v028
 BYTE   W06
 BYTE   Cs3  v036
 BYTE   W06
 BYTE   Cs3  v028
 BYTE   W06
 BYTE   Cs3  v024
 BYTE   W06
 BYTE   Cs3  v028
 BYTE   W06
 BYTE   Cs3  v036
 BYTE   W06
 BYTE   Cs3  v028
 BYTE   W06
 BYTE   Cs3  v024
 BYTE   W06
 BYTE   Cs3  v028
 BYTE   W06
 BYTE   Cs3  v036
 BYTE   W06
 BYTE   Cs3  v028
 BYTE   W01
//  #01 //016   ----------------------------------------
 BYTE   W05
 BYTE   Cs3  v024
 BYTE   W06
 BYTE   Cs3  v028
 BYTE   W06
 BYTE   Cs3  v036
 BYTE   W06
 BYTE   Cs3  v028
 BYTE   W06
 BYTE   Cs3  v024
 BYTE   W06
 BYTE   Cs3  v028
 BYTE   W06
 BYTE   Cs3  v036
 BYTE   W06
 BYTE   Cs3  v028
 BYTE   W06
 BYTE   Cs3  v024
 BYTE   W06
 BYTE   Cs3  v028
 BYTE   W06
 BYTE   Cs3  v036
 BYTE   W06
 BYTE   Cs3  v028
 BYTE   W06
 BYTE   Cs3  v036
 BYTE   W06
 BYTE   Cs3  v028
 BYTE   W06
 BYTE   En3  v036
 BYTE   W06
 BYTE   Gn3  v040
 BYTE   W01
//  #01 //017   ----------------------------------------
 BYTE   W05
 BYTE   Bn3  v056
 BYTE   W03
 BYTE   VOL   37*FE4GirlFromTheSpiritForest_mvl/mxv
 BYTE   N44  En3
 BYTE   W44
 BYTE   W03
 BYTE   GoTo
  POIN2 Label_01197931
 BYTE   FINE

//**************** Track 2 (Midi-Chn.1) ****************//

FE4GirlFromTheSpiritForest_002:
//  #02 //000   ----------------------------------------
 BYTE   KEYSH   FE4GirlFromTheSpiritForest_key+0
 BYTE   VOICE   4
 BYTE   MODT 0
 BYTE   LFOS 44
 BYTE   VOL   22*FE4GirlFromTheSpiritForest_mvl/mxv
 BYTE   PAN   c_v+0
 BYTE   VOL   20*FE4GirlFromTheSpiritForest_mvl/mxv
 BYTE   N52  An2  v080
 BYTE   W52
 BYTE   W01
 BYTE   N48  An2  v040
 BYTE   W42
 BYTE   W01
//  #02 //001   ----------------------------------------
Label_01196CFC:
 BYTE   W11
 BYTE   N22  Cs3  v080
 BYTE   W24
 BYTE   N10  Dn3  v056
 BYTE   W12
 BYTE   N11  En3  v068
 BYTE   W12
 BYTE   N22  En3  v064
 BYTE   W24
 BYTE   N10  Fs3  v056
 BYTE   W12
 BYTE   N09  Cs3  v068
 BYTE   W01
//  #02 //002   ----------------------------------------
 BYTE   W11
 BYTE   N11  Cs3  v072
 BYTE   W12
 BYTE   N10  Bn2  v064
 BYTE   W12
 BYTE   N08  Bn2  v068
 BYTE   W09
 BYTE   An2  v064
 BYTE   W09
 BYTE   N05  Bn2  v056
 BYTE   W06
 BYTE   N36  Cs3  v072
 BYTE   W36
 BYTE   W01
//  #02 //003   ----------------------------------------
 BYTE   W11
 BYTE   N22  Cs3  v080
 BYTE   W24
 BYTE   N10  Dn3  v072
 BYTE   W12
 BYTE   N11  En3  v064
 BYTE   W12
 BYTE   N28  Fs3  v056
 BYTE   W30
 BYTE   N05  Fs3  v076
 BYTE   W06
 BYTE   Gn3  v052
 BYTE   W01
//  #02 //004   ----------------------------------------
 BYTE   W05
 BYTE   An3
 BYTE   W06
 BYTE   N32  Bn3  v080
 BYTE   W36
 BYTE   N03  Cs4  v072
 BYTE   W04
 BYTE   Bn3  v068
 BYTE   W04
 BYTE   An3
 BYTE   W04
 BYTE   N28  Bn3  v080
 BYTE   W30
 BYTE   N05  Gn3  v072
 BYTE   W06
 BYTE   Bn3  v064
 BYTE   W01
//  #02 //005   ----------------------------------------
 BYTE   W05
 BYTE   Dn4  v068
 BYTE   W06
 BYTE   N22  En4  v064
 BYTE   W24
 BYTE   N30  An3
 BYTE   W36
 BYTE   N10  Bn3  v040
 BYTE   W12
 BYTE   Cn4  v064
 BYTE   W12
 BYTE   N07  Dn4  v056
 BYTE   W01
//  #02 //006   ----------------------------------------
 BYTE   W11
 BYTE   N23  Dn4  v064
 BYTE   W24
 BYTE   N11  Gn3
 BYTE   W12
 BYTE   N10  Dn4  v048
 BYTE   W12
 BYTE   N10
 BYTE   W12
 BYTE   N11  Cn4  v056
 BYTE   W12
 BYTE   N10  Bn3  v048
 BYTE   W12
 BYTE   An3
 BYTE   W01
//  #02 //007   ----------------------------------------
 BYTE   W11
 BYTE   N22  Cn4  v056
 BYTE   W24
 BYTE   N10  Fn3
 BYTE   W12
 BYTE   Cn4  v040
 BYTE   W12
 BYTE   N09  Cn4  v056
 BYTE   W12
 BYTE   N10  Bn3  v048
 BYTE   W12
 BYTE   An3  v040
 BYTE   W12
 BYTE   Gn3
 BYTE   W01
//  #02 //008   ----------------------------------------
 BYTE   W11
 BYTE   N22  Bn3  v064
 BYTE   W24
 BYTE   N44  En3  v056
 BYTE   W54
 BYTE   N05  En3  v072
 BYTE   W06
 BYTE   Dn3  v056
 BYTE   W01
//  #02 //009   ----------------------------------------
 BYTE   W05
 BYTE   En3  v064
 BYTE   W06
 BYTE   N21  Fn3  v072
 BYTE   W24
 BYTE   N04  Fn3  v056
 BYTE   W06
 BYTE   N05  An3
 BYTE   W06
 BYTE   N04  Gn4  v048
 BYTE   W06
 BYTE   N05  Fn4
 BYTE   W06
 BYTE   N11  En4  v056
 BYTE   W12
 BYTE   N22  Dn4
 BYTE   W24
 BYTE   N11  Bn3
 BYTE   W01
//  #02 //010   ----------------------------------------
 BYTE   W11
 BYTE   N28  An3  v072
 BYTE   W30
 BYTE   N05  Gn3  v048
 BYTE   W06
 BYTE   An3
 BYTE   W06
 BYTE   Bn3
 BYTE   W06
 BYTE   N10  Dn4  v064
 BYTE   W12
 BYTE   Cn4
 BYTE   W12
 BYTE   Bn3  v056
 BYTE   W12
 BYTE   Cn4  v072
 BYTE   W01
//  #02 //011   ----------------------------------------
 BYTE   W11
 BYTE   N13  An3  v048
 BYTE   W15
 BYTE   N02  Bn3  v040
 BYTE   W03
 BYTE   An3  v056
 BYTE   W03
 BYTE   Gn3  v040
 BYTE   W03
 BYTE   N15  An3  v064
 BYTE   W18
 BYTE   N02  An3  v056
 BYTE   W06
 BYTE   N11  Cn4  v072
 BYTE   W12
 BYTE   N21  Bn3
 BYTE   W24
 BYTE   N05  An3  v064
 BYTE   W01
//  #02 //012   ----------------------------------------
 BYTE   W05
 BYTE   Bn3  v056
 BYTE   W06
 BYTE   N90  Cs4  v072
 BYTE   W84
 BYTE   W01
//  #02 //013   ----------------------------------------
 BYTE   W96
//  #02 //014   ----------------------------------------
 BYTE   W96
//  #02 //015   ----------------------------------------
 BYTE   W10
 BYTE   VOL   21*FE4GirlFromTheSpiritForest_mvl/mxv
 BYTE   N13  Dn4  v060
 BYTE   W18
 BYTE   N01  Dn4  v068
 BYTE   W03
 BYTE   Cs4  v052
 BYTE   W03
 BYTE   N13  Dn4  v064
 BYTE   W18
 BYTE   N01  Dn4  v068
 BYTE   W03
 BYTE   Cs4  v052
 BYTE   W03
 BYTE   N11  Dn4  v056
 BYTE   W12
 BYTE   N10  Dn4  v052
 BYTE   W12
 BYTE   Gn4  v056
 BYTE   W12
 BYTE   N11  Bn4  v060
 BYTE   W02
//  #02 //016   ----------------------------------------
 BYTE   W10
 BYTE   N13  Gn4  v064
 BYTE   W18
 BYTE   N01  Gn4  v060
 BYTE   W03
 BYTE   Fs4  v032
 BYTE   W03
 BYTE   N14  Gn4  v068
 BYTE   W18
 BYTE   N01
 BYTE   W03
 BYTE   Fs4  v052
 BYTE   W03
 BYTE   N11  Gn4  v060
 BYTE   W12
 BYTE   N10  Gn4  v068
 BYTE   W12
 BYTE   Bn4  v056
 BYTE   W12
 BYTE   N08  Dn5  v060
 BYTE   W02
//  #02 //017   ----------------------------------------
 BYTE   W08
 BYTE   VOL   20*FE4GirlFromTheSpiritForest_mvl/mxv
 BYTE   N44  An3  v064
 BYTE   W44
 BYTE   W03
 BYTE   GoTo
  POIN2 Label_01196CFC
 BYTE   FINE

//**************** Track 3 (Midi-Chn.2) ****************//

FE4GirlFromTheSpiritForest_003:
//  #03 //000   ----------------------------------------
 BYTE   KEYSH   FE4GirlFromTheSpiritForest_key+0
 BYTE   VOICE   4
 BYTE   MODT 0
 BYTE   LFOS 44
 BYTE   PAN   c_v+0
 BYTE   VOL   27*FE4GirlFromTheSpiritForest_mvl/mxv
 BYTE   W02
 BYTE   N02  En3  v040
 BYTE   W05
 BYTE   Dn3  v048
 BYTE   W05
 BYTE   Fs3  v056
 BYTE   W05
 BYTE   En3
 BYTE   W05
 BYTE   Gs3  v064
 BYTE   W05
 BYTE   Bn3  v072
 BYTE   W05
 BYTE   An3  v040
 BYTE   W05
 BYTE   Cs4  v064
 BYTE   W05
 BYTE   Bn3  v048
 BYTE   W05
 BYTE   Dn4
 BYTE   W05
 BYTE   VOL   73*FE4GirlFromTheSpiritForest_mvl/mxv
 BYTE   W01
 BYTE   VOL   73*FE4GirlFromTheSpiritForest_mvl/mxv
 BYTE   N48  Fs3  v072
 BYTE   W42
 BYTE   W01
//  #03 //001   ----------------------------------------
Label_01198FF7:
 BYTE   W08
 BYTE   N22  Cs3  v080
 BYTE   W24
 BYTE   N10  Dn3  v056
 BYTE   W12
 BYTE   N11  En3  v068
 BYTE   W12
 BYTE   N22  En3  v064
 BYTE   W24
 BYTE   N10  Fs3  v056
 BYTE   W12
 BYTE   Cs3  v068
 BYTE   W04
//  #03 //002   ----------------------------------------
 BYTE   W08
 BYTE   N11  Cs3  v072
 BYTE   W12
 BYTE   N10  Bn2  v064
 BYTE   W12
 BYTE   N08  Bn2  v068
 BYTE   W09
 BYTE   An2  v064
 BYTE   W09
 BYTE   N05  Bn2  v056
 BYTE   W06
 BYTE   N36  Cs3  v072
 BYTE   W40
//  #03 //003   ----------------------------------------
 BYTE   W08
 BYTE   N22  Cs3  v080
 BYTE   W24
 BYTE   N10  Dn3  v072
 BYTE   W12
 BYTE   N11  En3  v064
 BYTE   W12
 BYTE   N28  Fs3  v056
 BYTE   W30
 BYTE   N05  Fs3  v076
 BYTE   W06
 BYTE   Gn3  v052
 BYTE   W04
//  #03 //004   ----------------------------------------
 BYTE   W02
 BYTE   An3
 BYTE   W06
 BYTE   N32  Bn3  v080
 BYTE   W36
 BYTE   N03  Cs4  v072
 BYTE   W04
 BYTE   Bn3  v068
 BYTE   W04
 BYTE   An3
 BYTE   W04
 BYTE   VOL   59*FE4GirlFromTheSpiritForest_mvl/mxv
 BYTE   N28  Bn3  v080
 BYTE   W01
 BYTE   VOL   59*FE4GirlFromTheSpiritForest_mvl/mxv
 BYTE   W01
 BYTE   VOL   61*FE4GirlFromTheSpiritForest_mvl/mxv
 BYTE   W01
 BYTE   VOL   61*FE4GirlFromTheSpiritForest_mvl/mxv
 BYTE   W01
 BYTE   VOL   62*FE4GirlFromTheSpiritForest_mvl/mxv
 BYTE   W01
 BYTE   VOL   63*FE4GirlFromTheSpiritForest_mvl/mxv
 BYTE   W01
 BYTE   VOL   64*FE4GirlFromTheSpiritForest_mvl/mxv
 BYTE   W01
 BYTE   VOL   66*FE4GirlFromTheSpiritForest_mvl/mxv
 BYTE   W01
 BYTE   VOL   66*FE4GirlFromTheSpiritForest_mvl/mxv
 BYTE   W01
 BYTE   VOL   68*FE4GirlFromTheSpiritForest_mvl/mxv
 BYTE   W01
 BYTE   VOL   68*FE4GirlFromTheSpiritForest_mvl/mxv
 BYTE   W01
 BYTE   VOL   69*FE4GirlFromTheSpiritForest_mvl/mxv
 BYTE   W01
 BYTE   VOL   70*FE4GirlFromTheSpiritForest_mvl/mxv
 BYTE   W01
 BYTE   VOL   71*FE4GirlFromTheSpiritForest_mvl/mxv
 BYTE   W01
 BYTE   VOL   73*FE4GirlFromTheSpiritForest_mvl/mxv
 BYTE   W16
 BYTE   N05  Gn3  v072
 BYTE   W06
 BYTE   Bn3  v064
 BYTE   W04
//  #03 //005   ----------------------------------------
 BYTE   W02
 BYTE   Dn4  v068
 BYTE   W06
 BYTE   VOL   45*FE4GirlFromTheSpiritForest_mvl/mxv
 BYTE   N22  En4  v064
 BYTE   W01
 BYTE   VOL   45*FE4GirlFromTheSpiritForest_mvl/mxv
 BYTE   W01
 BYTE   VOL   46*FE4GirlFromTheSpiritForest_mvl/mxv
 BYTE   W01
 BYTE   VOL   47*FE4GirlFromTheSpiritForest_mvl/mxv
 BYTE   W01
 BYTE   VOL   48*FE4GirlFromTheSpiritForest_mvl/mxv
 BYTE   W01
 BYTE   VOL   49*FE4GirlFromTheSpiritForest_mvl/mxv
 BYTE   W01
 BYTE   VOL   50*FE4GirlFromTheSpiritForest_mvl/mxv
 BYTE   W01
 BYTE   VOL   51*FE4GirlFromTheSpiritForest_mvl/mxv
 BYTE   W01
 BYTE   VOL   52*FE4GirlFromTheSpiritForest_mvl/mxv
 BYTE   W01
 BYTE   VOL   53*FE4GirlFromTheSpiritForest_mvl/mxv
 BYTE   W01
 BYTE   VOL   54*FE4GirlFromTheSpiritForest_mvl/mxv
 BYTE   W01
 BYTE   VOL   55*FE4GirlFromTheSpiritForest_mvl/mxv
 BYTE   W01
 BYTE   VOL   55*FE4GirlFromTheSpiritForest_mvl/mxv
 BYTE   W01
 BYTE   VOL   56*FE4GirlFromTheSpiritForest_mvl/mxv
 BYTE   W01
 BYTE   VOL   57*FE4GirlFromTheSpiritForest_mvl/mxv
 BYTE   W01
 BYTE   VOL   57*FE4GirlFromTheSpiritForest_mvl/mxv
 BYTE   W01
 BYTE   VOL   59*FE4GirlFromTheSpiritForest_mvl/mxv
 BYTE   W01
 BYTE   VOL   59*FE4GirlFromTheSpiritForest_mvl/mxv
 BYTE   W01
 BYTE   VOL   61*FE4GirlFromTheSpiritForest_mvl/mxv
 BYTE   W01
 BYTE   VOL   61*FE4GirlFromTheSpiritForest_mvl/mxv
 BYTE   W01
 BYTE   VOL   62*FE4GirlFromTheSpiritForest_mvl/mxv
 BYTE   W01
 BYTE   VOL   63*FE4GirlFromTheSpiritForest_mvl/mxv
 BYTE   W01
 BYTE   VOL   66*FE4GirlFromTheSpiritForest_mvl/mxv
 BYTE   W01
 BYTE   VOL   66*FE4GirlFromTheSpiritForest_mvl/mxv
 BYTE   W01
 BYTE   VOL   68*FE4GirlFromTheSpiritForest_mvl/mxv
 BYTE   N30  An3
 BYTE   W01
 BYTE   VOL   68*FE4GirlFromTheSpiritForest_mvl/mxv
 BYTE   W01
 BYTE   VOL   69*FE4GirlFromTheSpiritForest_mvl/mxv
 BYTE   W01
 BYTE   VOL   70*FE4GirlFromTheSpiritForest_mvl/mxv
 BYTE   W01
 BYTE   VOL   71*FE4GirlFromTheSpiritForest_mvl/mxv
 BYTE   W01
 BYTE   VOL   73*FE4GirlFromTheSpiritForest_mvl/mxv
 BYTE   W30
 BYTE   W01
 BYTE   N10  Bn3  v040
 BYTE   W12
 BYTE   Cn4  v064
 BYTE   W12
 BYTE   N07  Dn4  v056
 BYTE   W04
//  #03 //006   ----------------------------------------
 BYTE   W08
 BYTE   N23  Dn4  v064
 BYTE   W24
 BYTE   N11  Gn3
 BYTE   W12
 BYTE   N10  Dn4  v048
 BYTE   W12
 BYTE   N10
 BYTE   W12
 BYTE   N11  Cn4  v056
 BYTE   W12
 BYTE   N10  Bn3  v048
 BYTE   W12
 BYTE   An3
 BYTE   W04
//  #03 //007   ----------------------------------------
 BYTE   W08
 BYTE   N22  Cn4  v056
 BYTE   W24
 BYTE   N10  Fn3
 BYTE   W12
 BYTE   Cn4  v040
 BYTE   W12
 BYTE   N09  Cn4  v056
 BYTE   W12
 BYTE   N10  Bn3  v048
 BYTE   W12
 BYTE   An3  v040
 BYTE   W12
 BYTE   Gn3
 BYTE   W04
//  #03 //008   ----------------------------------------
 BYTE   W08
 BYTE   N22  Bn3  v064
 BYTE   W24
 BYTE   N44  En3  v056
 BYTE   W54
 BYTE   N05  En3  v072
 BYTE   W06
 BYTE   Dn3  v056
 BYTE   W04
//  #03 //009   ----------------------------------------
 BYTE   W02
 BYTE   En3  v064
 BYTE   W06
 BYTE   N21  Fn3  v072
 BYTE   W24
 BYTE   N04  Fn3  v056
 BYTE   W06
 BYTE   N05  An3
 BYTE   W06
 BYTE   N04  Gn4  v048
 BYTE   W06
 BYTE   N05  Fn4
 BYTE   W06
 BYTE   N11  En4  v056
 BYTE   W12
 BYTE   N22  Dn4
 BYTE   W24
 BYTE   N11  Bn3
 BYTE   W04
//  #03 //010   ----------------------------------------
 BYTE   W08
 BYTE   VOL   59*FE4GirlFromTheSpiritForest_mvl/mxv
 BYTE   N28  An3  v072
 BYTE   W01
 BYTE   VOL   59*FE4GirlFromTheSpiritForest_mvl/mxv
 BYTE   W01
 BYTE   VOL   61*FE4GirlFromTheSpiritForest_mvl/mxv
 BYTE   W01
 BYTE   VOL   61*FE4GirlFromTheSpiritForest_mvl/mxv
 BYTE   W01
 BYTE   VOL   62*FE4GirlFromTheSpiritForest_mvl/mxv
 BYTE   W01
 BYTE   VOL   63*FE4GirlFromTheSpiritForest_mvl/mxv
 BYTE   W01
 BYTE   VOL   64*FE4GirlFromTheSpiritForest_mvl/mxv
 BYTE   W01
 BYTE   VOL   66*FE4GirlFromTheSpiritForest_mvl/mxv
 BYTE   W01
 BYTE   VOL   66*FE4GirlFromTheSpiritForest_mvl/mxv
 BYTE   W01
 BYTE   VOL   68*FE4GirlFromTheSpiritForest_mvl/mxv
 BYTE   W01
 BYTE   VOL   68*FE4GirlFromTheSpiritForest_mvl/mxv
 BYTE   W01
 BYTE   VOL   69*FE4GirlFromTheSpiritForest_mvl/mxv
 BYTE   W01
 BYTE   VOL   70*FE4GirlFromTheSpiritForest_mvl/mxv
 BYTE   W01
 BYTE   VOL   71*FE4GirlFromTheSpiritForest_mvl/mxv
 BYTE   W01
 BYTE   VOL   73*FE4GirlFromTheSpiritForest_mvl/mxv
 BYTE   W16
 BYTE   N05  Gn3  v048
 BYTE   W06
 BYTE   An3
 BYTE   W06
 BYTE   Bn3
 BYTE   W06
 BYTE   N10  Dn4  v064
 BYTE   W12
 BYTE   Cn4
 BYTE   W12
 BYTE   Bn3  v056
 BYTE   W12
 BYTE   Cn4  v072
 BYTE   W04
//  #03 //011   ----------------------------------------
 BYTE   W08
 BYTE   N13  An3  v048
 BYTE   W15
 BYTE   N02  Bn3  v040
 BYTE   W03
 BYTE   An3  v056
 BYTE   W03
 BYTE   Gn3  v040
 BYTE   W03
 BYTE   N15  An3  v064
 BYTE   W18
 BYTE   N02  An3  v056
 BYTE   W06
 BYTE   N11  Cn4  v072
 BYTE   W12
 BYTE   N21  Bn3
 BYTE   W24
 BYTE   N05  An3  v064
 BYTE   W04
//  #03 //012   ----------------------------------------
 BYTE   W02
 BYTE   Bn3  v056
 BYTE   W06
 BYTE   N92  Cs4  v072
 BYTE   W42
 BYTE   VOL   70*FE4GirlFromTheSpiritForest_mvl/mxv
 BYTE   W01
 BYTE   VOL   68*FE4GirlFromTheSpiritForest_mvl/mxv
 BYTE   W01
 BYTE   VOL   66*FE4GirlFromTheSpiritForest_mvl/mxv
 BYTE   W01
 BYTE   VOL   64*FE4GirlFromTheSpiritForest_mvl/mxv
 BYTE   W01
 BYTE   VOL   62*FE4GirlFromTheSpiritForest_mvl/mxv
 BYTE   W01
 BYTE   VOL   61*FE4GirlFromTheSpiritForest_mvl/mxv
 BYTE   W01
 BYTE   VOL   59*FE4GirlFromTheSpiritForest_mvl/mxv
 BYTE   W01
 BYTE   VOL   57*FE4GirlFromTheSpiritForest_mvl/mxv
 BYTE   W01
 BYTE   VOL   55*FE4GirlFromTheSpiritForest_mvl/mxv
 BYTE   W01
 BYTE   VOL   54*FE4GirlFromTheSpiritForest_mvl/mxv
 BYTE   W01
 BYTE   VOL   52*FE4GirlFromTheSpiritForest_mvl/mxv
 BYTE   W01
 BYTE   VOL   51*FE4GirlFromTheSpiritForest_mvl/mxv
 BYTE   W01
 BYTE   VOL   48*FE4GirlFromTheSpiritForest_mvl/mxv
 BYTE   W01
 BYTE   VOL   46*FE4GirlFromTheSpiritForest_mvl/mxv
 BYTE   W01
 BYTE   VOL   45*FE4GirlFromTheSpiritForest_mvl/mxv
 BYTE   W01
 BYTE   VOL   43*FE4GirlFromTheSpiritForest_mvl/mxv
 BYTE   W01
 BYTE   VOL   41*FE4GirlFromTheSpiritForest_mvl/mxv
 BYTE   W01
 BYTE   VOL   40*FE4GirlFromTheSpiritForest_mvl/mxv
 BYTE   W01
 BYTE   VOL   39*FE4GirlFromTheSpiritForest_mvl/mxv
 BYTE   W01
 BYTE   VOL   37*FE4GirlFromTheSpiritForest_mvl/mxv
 BYTE   W01
 BYTE   VOL   36*FE4GirlFromTheSpiritForest_mvl/mxv
 BYTE   W01
 BYTE   VOL   34*FE4GirlFromTheSpiritForest_mvl/mxv
 BYTE   W01
 BYTE   VOL   33*FE4GirlFromTheSpiritForest_mvl/mxv
 BYTE   W01
 BYTE   VOL   31*FE4GirlFromTheSpiritForest_mvl/mxv
 BYTE   W01
 BYTE   VOL   30*FE4GirlFromTheSpiritForest_mvl/mxv
 BYTE   W01
 BYTE   VOL   28*FE4GirlFromTheSpiritForest_mvl/mxv
 BYTE   W01
 BYTE   VOL   28*FE4GirlFromTheSpiritForest_mvl/mxv
 BYTE   W01
 BYTE   VOL   27*FE4GirlFromTheSpiritForest_mvl/mxv
 BYTE   W01
 BYTE   VOL   25*FE4GirlFromTheSpiritForest_mvl/mxv
 BYTE   W01
 BYTE   VOL   23*FE4GirlFromTheSpiritForest_mvl/mxv
 BYTE   W01
 BYTE   VOL   22*FE4GirlFromTheSpiritForest_mvl/mxv
 BYTE   W01
 BYTE   VOL   21*FE4GirlFromTheSpiritForest_mvl/mxv
 BYTE   W01
 BYTE   VOL   20*FE4GirlFromTheSpiritForest_mvl/mxv
 BYTE   W01
 BYTE   VOL   19*FE4GirlFromTheSpiritForest_mvl/mxv
 BYTE   W01
 BYTE   VOL   18*FE4GirlFromTheSpiritForest_mvl/mxv
 BYTE   W01
 BYTE   VOL   17*FE4GirlFromTheSpiritForest_mvl/mxv
 BYTE   W01
 BYTE   VOL   16*FE4GirlFromTheSpiritForest_mvl/mxv
 BYTE   W01
 BYTE   VOL   14*FE4GirlFromTheSpiritForest_mvl/mxv
 BYTE   W01
 BYTE   VOL   13*FE4GirlFromTheSpiritForest_mvl/mxv
 BYTE   W01
 BYTE   VOL   12*FE4GirlFromTheSpiritForest_mvl/mxv
 BYTE   W01
 BYTE   VOL   11*FE4GirlFromTheSpiritForest_mvl/mxv
 BYTE   W01
 BYTE   VOL   10*FE4GirlFromTheSpiritForest_mvl/mxv
 BYTE   W01
 BYTE   VOL   10*FE4GirlFromTheSpiritForest_mvl/mxv
 BYTE   W01
 BYTE   VOL   8*FE4GirlFromTheSpiritForest_mvl/mxv
 BYTE   W01
 BYTE   VOL   8*FE4GirlFromTheSpiritForest_mvl/mxv
 BYTE   W01
 BYTE   VOL   7*FE4GirlFromTheSpiritForest_mvl/mxv
 BYTE   W01
//  #03 //013   ----------------------------------------
 BYTE   VOL   6*FE4GirlFromTheSpiritForest_mvl/mxv
 BYTE   W01
 BYTE   VOL   6*FE4GirlFromTheSpiritForest_mvl/mxv
 BYTE   W01
 BYTE   VOL   5*FE4GirlFromTheSpiritForest_mvl/mxv
 BYTE   W01
 BYTE   VOL   4*FE4GirlFromTheSpiritForest_mvl/mxv
 BYTE   W05
 BYTE   VOL   73*FE4GirlFromTheSpiritForest_mvl/mxv
 BYTE   W03
 BYTE   N05  An3  v044
 BYTE   W06
 BYTE   Dn3  v052
 BYTE   W06
 BYTE   N05
 BYTE   W06
 BYTE   N20  An3
 BYTE   W21
 BYTE   N08  Cs4  v032
 BYTE   W09
 BYTE   N05  Gs3
 BYTE   W06
 BYTE   Cs3  v044
 BYTE   W06
 BYTE   N05
 BYTE   W06
 BYTE   N20  Gs3  v032
 BYTE   W19
//  #03 //014   ----------------------------------------
 BYTE   W02
 BYTE   N08  Bn3
 BYTE   W09
 BYTE   N05  Fs3
 BYTE   W06
 BYTE   Bn2  v044
 BYTE   W06
 BYTE   N05
 BYTE   W06
 BYTE   N08  Fs3  v032
 BYTE   W09
 BYTE   N11  Bn2  v060
 BYTE   W12
 BYTE   N17  An3
 BYTE   W18
 BYTE   N32  En3  v052
 BYTE   W28
//  #03 //015   ----------------------------------------
 BYTE   W08
 BYTE   VOL   73*FE4GirlFromTheSpiritForest_mvl/mxv
 BYTE   N13  Dn4  v060
 BYTE   W18
 BYTE   N01  Dn4  v068
 BYTE   W03
 BYTE   Cs4  v052
 BYTE   W03
 BYTE   N13  Dn4  v064
 BYTE   W18
 BYTE   N01  Dn4  v068
 BYTE   W03
 BYTE   Cs4  v052
 BYTE   W03
 BYTE   N11  Dn4  v056
 BYTE   W12
 BYTE   N10  Dn4  v052
 BYTE   W12
 BYTE   Gn4  v056
 BYTE   W12
 BYTE   N11  Bn4  v060
 BYTE   W04
//  #03 //016   ----------------------------------------
 BYTE   W02
 BYTE   VOL   69*FE4GirlFromTheSpiritForest_mvl/mxv
 BYTE   W01
 BYTE   VOL   66*FE4GirlFromTheSpiritForest_mvl/mxv
 BYTE   W01
 BYTE   VOL   63*FE4GirlFromTheSpiritForest_mvl/mxv
 BYTE   W01
 BYTE   VOL   61*FE4GirlFromTheSpiritForest_mvl/mxv
 BYTE   W01
 BYTE   VOL   57*FE4GirlFromTheSpiritForest_mvl/mxv
 BYTE   W01
 BYTE   VOL   55*FE4GirlFromTheSpiritForest_mvl/mxv
 BYTE   W01
 BYTE   VOL   73*FE4GirlFromTheSpiritForest_mvl/mxv
 BYTE   N13  Gn4  v064
 BYTE   W18
 BYTE   N01  Gn4  v060
 BYTE   W03
 BYTE   Fs4  v032
 BYTE   W03
 BYTE   N14  Gn4  v068
 BYTE   W18
 BYTE   N01
 BYTE   W03
 BYTE   Fs4  v052
 BYTE   W03
 BYTE   N11  Gn4  v060
 BYTE   W12
 BYTE   N10  Gn4  v068
 BYTE   W12
 BYTE   Bn4  v056
 BYTE   W12
 BYTE   Dn5  v060
 BYTE   W04
//  #03 //017   ----------------------------------------
 BYTE   W08
 BYTE   N44  Cs5  v036
 BYTE   W44
 BYTE   W03
 BYTE   GoTo
  POIN2 Label_01198FF7
 BYTE   FINE

//**************** Track 4 (Midi-Chn.3) ****************//

FE4GirlFromTheSpiritForest_004:
//  #04 //000   ----------------------------------------
 BYTE   KEYSH   FE4GirlFromTheSpiritForest_key+0
 BYTE   VOICE   4
 BYTE   MODT 0
 BYTE   LFOS 44
 BYTE   VOL   48*FE4GirlFromTheSpiritForest_mvl/mxv
 BYTE   PAN   c_v+0
 BYTE   VOL   43*FE4GirlFromTheSpiritForest_mvl/mxv
 BYTE   W03
 BYTE   N02  Cs3  v056
 BYTE   W05
 BYTE   En3  v048
 BYTE   W05
 BYTE   Gs3  v072
 BYTE   W05
 BYTE   Fs3  v056
 BYTE   W05
 BYTE   An3
 BYTE   W05
 BYTE   Gs3
 BYTE   W05
 BYTE   Bn3  v040
 BYTE   W05
 BYTE   Dn4  v072
 BYTE   W05
 BYTE   Cs4  v064
 BYTE   W05
 BYTE   En4  v048
 BYTE   W05
 BYTE   PAN   c_v+0
 BYTE   VOL   43*FE4GirlFromTheSpiritForest_mvl/mxv
 BYTE   N48  Cs4  v072
 BYTE   W42
 BYTE   W01
//  #04 //001   ----------------------------------------
Label_011986F1:
 BYTE   PAN   c_v+0
 BYTE   W08
 BYTE   N02  An2  v028
 BYTE   W06
 BYTE   N07  An2  v036
 BYTE   W12
 BYTE   N05
 BYTE   W12
 BYTE   An2  v040
 BYTE   W12
 BYTE   N01  An2  v028
 BYTE   W06
 BYTE   N02
 BYTE   W06
 BYTE   N07  An2  v036
 BYTE   W12
 BYTE   N05
 BYTE   W12
 BYTE   An2  v040
 BYTE   W10
//  #04 //002   ----------------------------------------
 BYTE   W02
 BYTE   N01  An2  v028
 BYTE   W06
 BYTE   N02  Gn2  v040
 BYTE   W06
 BYTE   N07  Gn2  v036
 BYTE   W12
 BYTE   N05  Gn2  v028
 BYTE   W12
 BYTE   Gn2  v036
 BYTE   W12
 BYTE   N01  Gn2  v028
 BYTE   W06
 BYTE   N02  An2
 BYTE   W06
 BYTE   N07  An2  v036
 BYTE   W12
 BYTE   N05
 BYTE   W12
 BYTE   An2  v040
 BYTE   W10
//  #04 //003   ----------------------------------------
 BYTE   W02
 BYTE   N01  An2  v028
 BYTE   W06
 BYTE   N02
 BYTE   W06
 BYTE   N07  An2  v036
 BYTE   W12
 BYTE   N05
 BYTE   W12
 BYTE   An2  v040
 BYTE   W12
 BYTE   N01  An2  v028
 BYTE   W06
 BYTE   N02
 BYTE   W06
 BYTE   N07  An2  v036
 BYTE   W12
 BYTE   N05
 BYTE   W12
 BYTE   An2  v040
 BYTE   W10
//  #04 //004   ----------------------------------------
 BYTE   W02
 BYTE   N01  An2  v028
 BYTE   W06
 BYTE   N02  Bn2  v040
 BYTE   W06
 BYTE   N07  Bn2  v028
 BYTE   W12
 BYTE   N05  Bn2  v036
 BYTE   W12
 BYTE   N05
 BYTE   W12
 BYTE   N01
 BYTE   W06
 BYTE   N02  En3  v028
 BYTE   W06
 BYTE   N05  En3  v036
 BYTE   W12
 BYTE   N05
 BYTE   W12
 BYTE   N05
 BYTE   W10
//  #04 //005   ----------------------------------------
 BYTE   W02
 BYTE   N01
 BYTE   W06
 BYTE   N02  An3  v028
 BYTE   W06
 BYTE   N07  An3  v036
 BYTE   W12
 BYTE   N05
 BYTE   W12
 BYTE   N09  An3  v028
 BYTE   W12
 BYTE   N01  An3  v036
 BYTE   W06
 BYTE   N02  An3  v028
 BYTE   W06
 BYTE   N07  An3  v036
 BYTE   W12
 BYTE   N05
 BYTE   W12
 BYTE   N08  An3  v028
 BYTE   W10
//  #04 //006   ----------------------------------------
 BYTE   W02
 BYTE   N01  Gs3  v036
 BYTE   W06
 BYTE   N02  Gn3  v028
 BYTE   W06
 BYTE   N07  Gn3  v036
 BYTE   W12
 BYTE   N05  Gn3  v032
 BYTE   W12
 BYTE   N08  Gn3  v028
 BYTE   W12
 BYTE   N01  Gn3  v036
 BYTE   W06
 BYTE   N02  Fs3  v028
 BYTE   W06
 BYTE   N07  Fs3  v036
 BYTE   W12
 BYTE   N05
 BYTE   W12
 BYTE   N08  Fs3  v028
 BYTE   W10
//  #04 //007   ----------------------------------------
 BYTE   W02
 BYTE   N01  Fs3  v036
 BYTE   W06
 BYTE   N02  Fn3
 BYTE   W06
 BYTE   N07  Fn3  v024
 BYTE   W12
 BYTE   N05  Fn3  v028
 BYTE   W12
 BYTE   Fn3  v040
 BYTE   W12
 BYTE   N01  Fn3  v028
 BYTE   W06
 BYTE   N02  Fn3  v036
 BYTE   W06
 BYTE   N07  Fn3  v024
 BYTE   W12
 BYTE   N05  Fn3  v028
 BYTE   W12
 BYTE   Fn3  v040
 BYTE   W10
//  #04 //008   ----------------------------------------
 BYTE   W02
 BYTE   N01  Fn3  v028
 BYTE   W06
 BYTE   N02  En3
 BYTE   W06
 BYTE   N08  En3  v040
 BYTE   W12
 BYTE   N01
 BYTE   W06
 BYTE   N02
 BYTE   W06
 BYTE   N08  En3  v028
 BYTE   W12
 BYTE   N01  En3  v036
 BYTE   W06
 BYTE   N02  En3  v028
 BYTE   W06
 BYTE   N08  En3  v040
 BYTE   W12
 BYTE   N01
 BYTE   W06
 BYTE   N02
 BYTE   W06
 BYTE   N08  En3  v028
 BYTE   W10
//  #04 //009   ----------------------------------------
 BYTE   W02
 BYTE   N01  En3  v036
 BYTE   W06
 BYTE   N02  Fn3
 BYTE   W06
 BYTE   N07  Fn3  v024
 BYTE   W12
 BYTE   N01  Fn3  v028
 BYTE   W06
 BYTE   N02
 BYTE   W06
 BYTE   N08
 BYTE   W12
 BYTE   N01
 BYTE   W06
 BYTE   N02  Dn3
 BYTE   W06
 BYTE   N08
 BYTE   W12
 BYTE   N01
 BYTE   W06
 BYTE   N02
 BYTE   W06
 BYTE   N07
 BYTE   W10
//  #04 //010   ----------------------------------------
 BYTE   W02
 BYTE   N01
 BYTE   W06
 BYTE   N02  En3
 BYTE   W06
 BYTE   N08  En3  v040
 BYTE   W12
 BYTE   N01
 BYTE   W06
 BYTE   N02
 BYTE   W06
 BYTE   N08  En3  v028
 BYTE   W12
 BYTE   N01  En3  v036
 BYTE   W06
 BYTE   N02  En3  v028
 BYTE   W06
 BYTE   N08  En3  v040
 BYTE   W12
 BYTE   N01
 BYTE   W06
 BYTE   N02
 BYTE   W06
 BYTE   N08  En3  v028
 BYTE   W10
//  #04 //011   ----------------------------------------
 BYTE   W02
 BYTE   N01  En3  v036
 BYTE   W06
 BYTE   N02  Fn3  v024
 BYTE   W06
 BYTE   N08
 BYTE   W12
 BYTE   N02
 BYTE   W06
 BYTE   N02
 BYTE   W06
 BYTE   N08  Fn3  v028
 BYTE   W12
 BYTE   N01  Fn3  v008
 BYTE   W06
 BYTE   Gn3  v028
 BYTE   W06
 BYTE   N07  Gn3  v024
 BYTE   W12
 BYTE   N01  Gn3  v028
 BYTE   W06
 BYTE   Gn3  v024
 BYTE   W06
 BYTE   N06
 BYTE   W10
//  #04 //012   ----------------------------------------
 BYTE   W02
 BYTE   N01  Gn3  v020
 BYTE   W06
 BYTE   N02  An3  v028
 BYTE   W06
 BYTE   N07  An3  v040
 BYTE   W12
 BYTE   N02
 BYTE   W06
 BYTE   N02
 BYTE   W06
 BYTE   N08  An3  v028
 BYTE   W12
 BYTE   N02  An3  v036
 BYTE   W06
 BYTE   An3  v028
 BYTE   W06
 BYTE   N07  An3  v040
 BYTE   W12
 BYTE   N02
 BYTE   W06
 BYTE   N02
 BYTE   W06
 BYTE   N08  An3  v028
 BYTE   W10
//  #04 //013   ----------------------------------------
 BYTE   W02
 BYTE   N02  An3  v036
 BYTE   W06
 BYTE   PAN   c_v-34
 BYTE   VOL   44*FE4GirlFromTheSpiritForest_mvl/mxv
 BYTE   N03  Fs3
 BYTE   W06
 BYTE   Fs3  v040
 BYTE   W06
 BYTE   N04  Fs3  v036
 BYTE   W24
 BYTE   N01  Cs4  v028
 BYTE   W12
 BYTE   N03  En3
 BYTE   W06
 BYTE   En3  v036
 BYTE   W06
 BYTE   N04  En3  v040
 BYTE   W24
 BYTE   N01  Bn3  v024
 BYTE   W04
//  #04 //014   ----------------------------------------
 BYTE   W08
 BYTE   N04  Dn3  v036
 BYTE   W06
 BYTE   Dn3  v028
 BYTE   W06
 BYTE   Dn3  v036
 BYTE   W24
 BYTE   N01  An3  v028
 BYTE   W12
 BYTE   N04  Cs3
 BYTE   W06
 BYTE   Cs3  v024
 BYTE   W06
 BYTE   Cs3  v028
 BYTE   W12
 BYTE   N02  Gs3  v024
 BYTE   W12
 BYTE   N02
 BYTE   W04
//  #04 //015   ----------------------------------------
 BYTE   W08
 BYTE   PAN   c_v-43
 BYTE   VOL   45*FE4GirlFromTheSpiritForest_mvl/mxv
 BYTE   N02  Bn2  v056
 BYTE   W06
 BYTE   Dn3  v040
 BYTE   W06
 BYTE   Bn2  v048
 BYTE   W06
 BYTE   Dn3  v036
 BYTE   W06
 BYTE   Bn2  v048
 BYTE   W06
 BYTE   Dn3  v040
 BYTE   W06
 BYTE   Bn2
 BYTE   W06
 BYTE   Dn3  v036
 BYTE   W06
 BYTE   Bn2  v056
 BYTE   W06
 BYTE   Dn3  v040
 BYTE   W06
 BYTE   Bn2  v048
 BYTE   W06
 BYTE   Dn3  v036
 BYTE   W06
 BYTE   Bn2  v048
 BYTE   W06
 BYTE   Dn3  v040
 BYTE   W06
 BYTE   Bn2
 BYTE   W04
//  #04 //016   ----------------------------------------
 BYTE   W02
 BYTE   Dn3  v036
 BYTE   W06
 BYTE   Bn2  v056
 BYTE   W06
 BYTE   Dn3  v040
 BYTE   W06
 BYTE   Bn2  v048
 BYTE   W06
 BYTE   Dn3  v036
 BYTE   W06
 BYTE   Bn2  v048
 BYTE   W06
 BYTE   Dn3  v040
 BYTE   W06
 BYTE   Bn2
 BYTE   W06
 BYTE   Dn3  v036
 BYTE   W06
 BYTE   Bn2  v056
 BYTE   W06
 BYTE   Dn3  v040
 BYTE   W06
 BYTE   Bn2  v048
 BYTE   W06
 BYTE   Dn3  v040
 BYTE   W06
 BYTE   Bn2  v048
 BYTE   W06
 BYTE   Dn3  v040
 BYTE   W06
 BYTE   Fs3  v048
 BYTE   W04
//  #04 //017   ----------------------------------------
 BYTE   W02
 BYTE   An3  v056
 BYTE   W06
 BYTE   PAN   c_v+0
 BYTE   VOL   43*FE4GirlFromTheSpiritForest_mvl/mxv
 BYTE   PAN   c_v+25
 BYTE   VOL   43*FE4GirlFromTheSpiritForest_mvl/mxv
 BYTE   N44  Cs4  v080
 BYTE   W44
 BYTE   W03
 BYTE   GoTo
  POIN2 Label_011986F1
 BYTE   FINE

//**************** Track 5 (Midi-Chn.4) ****************//

FE4GirlFromTheSpiritForest_005:
//  #05 //000   ----------------------------------------
 BYTE   KEYSH   FE4GirlFromTheSpiritForest_key+0
 BYTE   VOICE   4
 BYTE   MODT 0
 BYTE   LFOS 44
 BYTE   VOL   48*FE4GirlFromTheSpiritForest_mvl/mxv
 BYTE   PAN   c_v+0
 BYTE   VOL   43*FE4GirlFromTheSpiritForest_mvl/mxv
 BYTE   W01
 BYTE   N02  En3  v040
 BYTE   W05
 BYTE   Dn3  v048
 BYTE   W05
 BYTE   Fs3  v056
 BYTE   W05
 BYTE   En3
 BYTE   W05
 BYTE   Gs3  v064
 BYTE   W05
 BYTE   Bn3  v072
 BYTE   W05
 BYTE   An3  v040
 BYTE   W05
 BYTE   Cs4  v064
 BYTE   W05
 BYTE   Bn3  v048
 BYTE   W05
 BYTE   Dn4
 BYTE   W05
 BYTE   Fs4  v040
 BYTE   W03
 BYTE   PAN   c_v+0
 BYTE   VOL   43*FE4GirlFromTheSpiritForest_mvl/mxv
 BYTE   N44  Gs4  v056
 BYTE   W42
//  #05 //001   ----------------------------------------
Label_01198997:
 BYTE   PAN   c_v+0
 BYTE   W08
 BYTE   N14  An2  v064
 BYTE   W18
 BYTE   N02  An2  v048
 BYTE   W06
 BYTE   N14
 BYTE   W18
 BYTE   N01  An2  v056
 BYTE   W06
 BYTE   N14  Dn2
 BYTE   W18
 BYTE   N02  Dn2  v064
 BYTE   W06
 BYTE   N16  Dn2  v056
 BYTE   W16
//  #05 //002   ----------------------------------------
 BYTE   W02
 BYTE   N01  Fs2  v048
 BYTE   W06
 BYTE   N12  Gn2  v064
 BYTE   W18
 BYTE   N01  Gn2  v048
 BYTE   W06
 BYTE   N14  Gn2  v056
 BYTE   W18
 BYTE   N01  Gn2  v048
 BYTE   W06
 BYTE   N14  An2  v056
 BYTE   W18
 BYTE   N10  An2  v048
 BYTE   W12
 BYTE   N04  En2
 BYTE   W06
 BYTE   N05  An2  v040
 BYTE   W04
//  #05 //003   ----------------------------------------
 BYTE   W02
 BYTE   N04  En2  v056
 BYTE   W06
 BYTE   N13  An2  v064
 BYTE   W18
 BYTE   N19  An2  v048
 BYTE   W24
 BYTE   N05
 BYTE   W06
 BYTE   N12  Dn2  v064
 BYTE   W18
 BYTE   N22
 BYTE   W22
//  #05 //004   ----------------------------------------
 BYTE   W02
 BYTE   N05  Fs2  v048
 BYTE   W06
 BYTE   N14  Gn2  v056
 BYTE   W18
 BYTE   N23
 BYTE   W24
 BYTE   N04  Fs2
 BYTE   W06
 BYTE   N14  En2
 BYTE   W18
 BYTE   N19  En2  v064
 BYTE   W22
//  #05 //005   ----------------------------------------
 BYTE   W02
 BYTE   N01  En2  v072
 BYTE   W06
 BYTE   N03  Fn2  v056
 BYTE   W06
 BYTE   N08
 BYTE   W12
 BYTE   N09  Fn2  v064
 BYTE   W12
 BYTE   N11  Cn3  v048
 BYTE   W12
 BYTE   N05  Fn2  v056
 BYTE   W06
 BYTE   N03
 BYTE   W06
 BYTE   N08
 BYTE   W12
 BYTE   N10  Fn2  v064
 BYTE   W12
 BYTE   N04  Cn3  v056
 BYTE   W06
 BYTE   N05  Fn2  v064
 BYTE   W04
//  #05 //006   ----------------------------------------
 BYTE   W02
 BYTE   Cn3  v040
 BYTE   W06
 BYTE   N03  En2  v048
 BYTE   W06
 BYTE   N08  En2  v056
 BYTE   W12
 BYTE   N11  En2  v064
 BYTE   W12
 BYTE   N10  Bn2  v056
 BYTE   W12
 BYTE   N05  En2  v048
 BYTE   W06
 BYTE   N02  Ds2  v056
 BYTE   W06
 BYTE   N08  Ds2  v064
 BYTE   W12
 BYTE   N15  Ds2  v056
 BYTE   W18
 BYTE   N05  An2
 BYTE   W04
//  #05 //007   ----------------------------------------
 BYTE   W02
 BYTE   N04  Ds2
 BYTE   W06
 BYTE   N02  Dn2
 BYTE   W06
 BYTE   N08  Dn2  v064
 BYTE   W12
 BYTE   N09  Dn2  v080
 BYTE   W12
 BYTE   N08  An2  v056
 BYTE   W12
 BYTE   N05  Gs2  v048
 BYTE   W06
 BYTE   N03  Gn2
 BYTE   W06
 BYTE   N08
 BYTE   W12
 BYTE   N09
 BYTE   W12
 BYTE   N04
 BYTE   W06
 BYTE   N05  An2  v056
 BYTE   W04
//  #05 //008   ----------------------------------------
 BYTE   W02
 BYTE   Bn2  v048
 BYTE   W06
 BYTE   N02  Cn3  v064
 BYTE   W06
 BYTE   N07
 BYTE   W12
 BYTE   N09  Cn3  v056
 BYTE   W12
 BYTE   N11
 BYTE   W12
 BYTE   N05  Dn3  v040
 BYTE   W06
 BYTE   N03  Cn3  v056
 BYTE   W06
 BYTE   N08
 BYTE   W12
 BYTE   Cn3  v048
 BYTE   W12
 BYTE   N04
 BYTE   W06
 BYTE   N05  Gn2  v040
 BYTE   W04
//  #05 //009   ----------------------------------------
 BYTE   W02
 BYTE   En2  v056
 BYTE   W06
 BYTE   N14  Dn2
 BYTE   W18
 BYTE   N08
 BYTE   W12
 BYTE   N04  Dn2  v064
 BYTE   W06
 BYTE   N05  En2  v040
 BYTE   W06
 BYTE   Fn2  v048
 BYTE   W06
 BYTE   N14  Gn2  v056
 BYTE   W18
 BYTE   N08
 BYTE   W12
 BYTE   N10  Gn2  v048
 BYTE   W10
//  #05 //010   ----------------------------------------
 BYTE   W02
 BYTE   N05  Fn2  v040
 BYTE   W06
 BYTE   N14  En2  v056
 BYTE   W18
 BYTE   N08
 BYTE   W12
 BYTE   N04  En2  v064
 BYTE   W06
 BYTE   Fn2  v048
 BYTE   W06
 BYTE   N05  Gn2  v040
 BYTE   W06
 BYTE   N02  An2
 BYTE   W06
 BYTE   N08  An2  v056
 BYTE   W12
 BYTE   N08
 BYTE   W12
 BYTE   N03  An2  v064
 BYTE   W06
 BYTE   N05  An2  v040
 BYTE   W04
//  #05 //011   ----------------------------------------
 BYTE   W02
 BYTE   Gn2
 BYTE   W06
 BYTE   N14  Fn2  v064
 BYTE   W18
 BYTE   N07
 BYTE   W12
 BYTE   N08
 BYTE   W12
 BYTE   N05
 BYTE   W06
 BYTE   N14  Gn2
 BYTE   W18
 BYTE   N07
 BYTE   W12
 BYTE   N04
 BYTE   W06
 BYTE   N05  Fn2
 BYTE   W04
//  #05 //012   ----------------------------------------
 BYTE   W02
 BYTE   Gn2  v056
 BYTE   W06
 BYTE   N02  An2  v072
 BYTE   W06
 BYTE   N07  An2  v064
 BYTE   W12
 BYTE   N05
 BYTE   W12
 BYTE   N05
 BYTE   W06
 BYTE   En2  v056
 BYTE   W06
 BYTE   N04  An2  v048
 BYTE   W06
 BYTE   N02  An2  v072
 BYTE   W06
 BYTE   N07  An2  v056
 BYTE   W12
 BYTE   N05  An2  v064
 BYTE   W12
 BYTE   En2  v056
 BYTE   W06
 BYTE   An2
 BYTE   W04
//  #05 //013   ----------------------------------------
 BYTE   W02
 BYTE   N04  En2  v048
 BYTE   W06
 BYTE   N02  Dn2  v064
 BYTE   W06
 BYTE   Dn2  v048
 BYTE   W06
 BYTE   N04  Dn2  v056
 BYTE   W06
 BYTE   N10  Dn3  v048
 BYTE   W12
 BYTE   N09  An2
 BYTE   W12
 BYTE   N04  Dn2  v056
 BYTE   W06
 BYTE   N02  Cs2  v048
 BYTE   W06
 BYTE   N02
 BYTE   W06
 BYTE   N05  Cs2  v056
 BYTE   W06
 BYTE   N10  Gs2  v040
 BYTE   W12
 BYTE   N11  Bn2  v028
 BYTE   W10
//  #05 //014   ----------------------------------------
 BYTE   W02
 BYTE   N04  Cs3  v036
 BYTE   W06
 BYTE   N02  Bn1  v072
 BYTE   W06
 BYTE   Bn1  v056
 BYTE   W06
 BYTE   N05
 BYTE   W06
 BYTE   N10  Dn2
 BYTE   W12
 BYTE   N05  Fs2  v036
 BYTE   W06
 BYTE   An2
 BYTE   W06
 BYTE   Bn2  v056
 BYTE   W06
 BYTE   N36  An2  v064
 BYTE   W36
 BYTE   W01
 BYTE   PAN   c_v+0
 BYTE   VOL   43*FE4GirlFromTheSpiritForest_mvl/mxv
 BYTE   W03
//  #05 //015   ----------------------------------------
 BYTE   W08
 BYTE   N02  Gn3  v072
 BYTE   W06
 BYTE   N05  Gn3  v064
 BYTE   W12
 BYTE   N04  Gn3  v056
 BYTE   W12
 BYTE   N04
 BYTE   W12
 BYTE   Gn3  v064
 BYTE   W12
 BYTE   N05
 BYTE   W12
 BYTE   N04  Gn3  v056
 BYTE   W12
 BYTE   N04
 BYTE   W10
//  #05 //016   ----------------------------------------
 BYTE   W02
 BYTE   N04
 BYTE   W06
 BYTE   N02  An3  v072
 BYTE   W06
 BYTE   N05  An3  v056
 BYTE   W12
 BYTE   N04
 BYTE   W12
 BYTE   N04
 BYTE   W12
 BYTE   An3  v064
 BYTE   W12
 BYTE   N05  An3  v056
 BYTE   W12
 BYTE   N04
 BYTE   W12
 BYTE   N05
 BYTE   W10
//  #05 //017   ----------------------------------------
 BYTE   W02
 BYTE   N02  An2  v080
 BYTE   W06
 BYTE   PAN   c_v+14
 BYTE   VOL   43*FE4GirlFromTheSpiritForest_mvl/mxv
 BYTE   N44  Bn2  v072
 BYTE   W44
 BYTE   W03
 BYTE   GoTo
  POIN2 Label_01198997
 BYTE   FINE

//**************** Track 6 (Midi-Chn.5) ****************//

FE4GirlFromTheSpiritForest_006:
//  #06 //000   ----------------------------------------
 BYTE   VOL   80*FE4GirlFromTheSpiritForest_mvl/mxv
 BYTE   KEYSH   FE4GirlFromTheSpiritForest_key+0
 BYTE   VOICE   121
 BYTE   MODT 0
 BYTE   LFOS 44
 BYTE   W01
 BYTE   N11  Cn1  v056
 BYTE   W13
 BYTE   Cn1  v048
 BYTE   W13
 BYTE   Cn1  v056
 BYTE   W13
 BYTE   N12  Cn1  v048
 BYTE   W13
 BYTE   N11
 BYTE   W13
 BYTE   Cn1  v040
 BYTE   W12
 BYTE   Cn1  v048
 BYTE   W13
 BYTE   Cn1  v056
 BYTE   W05
//  #06 //001   ----------------------------------------
Label_01199574:
 BYTE   W08
 BYTE   N11  Cn1  v056
 BYTE   N11  Dn1  v072
 BYTE   W12
 BYTE   Cn1
 BYTE   N11  Fs1  v064
 BYTE   W12
 BYTE   Cn1  v052
 BYTE   N11  Dn1  v064
 BYTE   W12
 BYTE   Cn1  v068
 BYTE   N11  Fs1  v072
 BYTE   W12
 BYTE   Cn1  v056
 BYTE   N11  Dn1  v072
 BYTE   W12
 BYTE   Cn1
 BYTE   N11  Fs1  v064
 BYTE   W12
 BYTE   Cn1  v052
 BYTE   N11  Dn1  v064
 BYTE   W12
 BYTE   Cn1  v068
 BYTE   N05  Fs1  v072
 BYTE   W04
//  #06 //002   ----------------------------------------
 BYTE   W02
 BYTE   An1  v036
 BYTE   W06
 BYTE   N11  Cn1  v056
 BYTE   N11  Dn1  v072
 BYTE   W12
 BYTE   Cn1
 BYTE   N11  Fs1
 BYTE   W12
 BYTE   Cn1  v052
 BYTE   N11  Dn1  v072
 BYTE   W12
 BYTE   Cn1  v068
 BYTE   N11  Fs1  v064
 BYTE   W12
 BYTE   Cn1  v040
 BYTE   N11  Dn1  v064
 BYTE   W12
 BYTE   Cn1  v056
 BYTE   N11  Fs1  v064
 BYTE   W12
 BYTE   Cn1
 BYTE   N02  Dn1
 BYTE   W03
 BYTE   N05  Gn1  v048
 BYTE   W06
 BYTE   N08  Dn2  v056
 BYTE   W03
 BYTE   N05  An1  v036
 BYTE   W04
//  #06 //003   ----------------------------------------
 BYTE   W02
 BYTE   Cn1
 BYTE   N04  An1  v064
 BYTE   W06
 BYTE   N11  Cn1  v056
 BYTE   N11  Dn1  v072
 BYTE   W12
 BYTE   Cn1
 BYTE   N11  Fs1  v064
 BYTE   W12
 BYTE   Cn1  v052
 BYTE   N11  Dn1  v064
 BYTE   W12
 BYTE   Cn1  v068
 BYTE   N11  Fs1  v072
 BYTE   W12
 BYTE   Cn1  v056
 BYTE   N11  Dn1  v072
 BYTE   W12
 BYTE   Cn1
 BYTE   N11  Fs1
 BYTE   W12
 BYTE   Cn1  v052
 BYTE   N11  Dn1  v072
 BYTE   W12
 BYTE   Cn1  v068
 BYTE   N11  Fs1  v064
 BYTE   W04
//  #06 //004   ----------------------------------------
 BYTE   W08
 BYTE   Cn1  v056
 BYTE   N11  Dn1  v072
 BYTE   W12
 BYTE   Cn1
 BYTE   N11  Fs1  v064
 BYTE   W12
 BYTE   Cn1  v052
 BYTE   N11  Dn1  v064
 BYTE   W12
 BYTE   Cn1  v068
 BYTE   N11  Fs1  v072
 BYTE   W12
 BYTE   Cn1  v056
 BYTE   N11  Dn1  v072
 BYTE   W12
 BYTE   Cn1
 BYTE   N11  Fs1
 BYTE   W12
 BYTE   N05  Cn1  v056
 BYTE   N05  Dn1  v072
 BYTE   W06
 BYTE   N11  Cn1  v048
 BYTE   N05  Fs1  v056
 BYTE   W06
 BYTE   An1  v036
 BYTE   W04
//  #06 //005   ----------------------------------------
 BYTE   W02
 BYTE   Cn1  v040
 BYTE   N04  An1  v072
 BYTE   W06
 BYTE   N05  Cn1  v064
 BYTE   N11  Dn1  v072
 BYTE   W06
 BYTE   N02  Cn1  v040
 BYTE   W03
 BYTE   N02
 BYTE   W03
 BYTE   N05  Cn1  v056
 BYTE   N11  Fs1  v064
 BYTE   W06
 BYTE   N02  Cn1  v048
 BYTE   W03
 BYTE   N02
 BYTE   W03
 BYTE   N05  Cn1  v064
 BYTE   N11  Dn1
 BYTE   W06
 BYTE   N02  Cn1  v048
 BYTE   W03
 BYTE   Cn1  v040
 BYTE   W03
 BYTE   N05  Cn1  v056
 BYTE   N11  Fs1  v072
 BYTE   W06
 BYTE   N02  Cn1  v040
 BYTE   W03
 BYTE   Cn1  v048
 BYTE   W03
 BYTE   N05  Cn1  v064
 BYTE   N11  Dn1
 BYTE   W06
 BYTE   N02  Cn1  v040
 BYTE   W03
 BYTE   N02
 BYTE   W03
 BYTE   N05  Cn1  v056
 BYTE   N11  Fs1  v072
 BYTE   W06
 BYTE   N02  Cn1  v048
 BYTE   W03
 BYTE   N02
 BYTE   W03
 BYTE   N05  Cn1  v064
 BYTE   N11  Dn1
 BYTE   W06
 BYTE   N02  Cn1  v048
 BYTE   W03
 BYTE   Cn1  v040
 BYTE   W03
 BYTE   N05  Fs1  v064
 BYTE   N05  An1  v040
 BYTE   W04
//  #06 //006   ----------------------------------------
 BYTE   W02
 BYTE   N02  Cn1
 BYTE   N04  An1  v072
 BYTE   W03
 BYTE   N02  Cn1  v048
 BYTE   W03
 BYTE   N05  Cn1  v064
 BYTE   N11  Dn1  v072
 BYTE   W06
 BYTE   N02  Cn1  v040
 BYTE   W03
 BYTE   N02
 BYTE   W03
 BYTE   N05  Cn1  v056
 BYTE   N11  Fs1  v072
 BYTE   W06
 BYTE   N02  Cn1  v048
 BYTE   W03
 BYTE   N02
 BYTE   W03
 BYTE   N05  Cn1  v064
 BYTE   N11  Dn1  v072
 BYTE   W06
 BYTE   N02  Cn1  v048
 BYTE   W03
 BYTE   Cn1  v040
 BYTE   W03
 BYTE   N05  Cn1  v056
 BYTE   N11  Fs1  v064
 BYTE   W06
 BYTE   N02  Cn1  v040
 BYTE   W03
 BYTE   Cn1  v048
 BYTE   W03
 BYTE   N05  Cn1  v064
 BYTE   N11  Dn1
 BYTE   W06
 BYTE   N02  Cn1  v040
 BYTE   W03
 BYTE   N02
 BYTE   W03
 BYTE   N05  Cn1  v056
 BYTE   N17  Fs1  v064
 BYTE   W06
 BYTE   N02  Cn1  v048
 BYTE   W03
 BYTE   N02
 BYTE   W03
 BYTE   N05  Cn1  v064
 BYTE   W06
 BYTE   N02  Cn1  v048
 BYTE   N05  Dn1  v064
 BYTE   W03
 BYTE   N02  Cn1  v040
 BYTE   W03
 BYTE   N11  Cn1  v064
 BYTE   N05  Fs1  v072
 BYTE   W04
//  #06 //007   ----------------------------------------
 BYTE   W02
 BYTE   N04  An1  v080
 BYTE   W06
 BYTE   N05  Cn1  v064
 BYTE   N11  Dn1  v072
 BYTE   W06
 BYTE   N02  Cn1  v040
 BYTE   W03
 BYTE   N02
 BYTE   W03
 BYTE   N05  Cn1  v056
 BYTE   N11  Fs1  v064
 BYTE   W06
 BYTE   N02  Cn1  v048
 BYTE   W03
 BYTE   N02
 BYTE   W03
 BYTE   N05  Cn1  v064
 BYTE   N11  Dn1
 BYTE   W06
 BYTE   N02  Cn1  v048
 BYTE   W03
 BYTE   Cn1  v040
 BYTE   W03
 BYTE   N05  Cn1  v056
 BYTE   N11  Fs1  v072
 BYTE   W06
 BYTE   N02  Cn1  v040
 BYTE   W03
 BYTE   Cn1  v048
 BYTE   W03
 BYTE   N05  Cn1  v064
 BYTE   N11  Dn1  v072
 BYTE   W06
 BYTE   N02  Cn1  v040
 BYTE   W03
 BYTE   N02
 BYTE   W03
 BYTE   N05  Cn1  v056
 BYTE   N11  Fs1  v072
 BYTE   W06
 BYTE   N02  Cn1  v048
 BYTE   W03
 BYTE   N02
 BYTE   W03
 BYTE   N05  Cn1  v064
 BYTE   N11  Dn1  v072
 BYTE   W06
 BYTE   N02  Cn1  v048
 BYTE   W03
 BYTE   Cn1  v040
 BYTE   W03
 BYTE   N05  Cn1  v056
 BYTE   N11  Fs1  v064
 BYTE   W04
//  #06 //008   ----------------------------------------
 BYTE   W02
 BYTE   N02  Cn1  v040
 BYTE   W03
 BYTE   Cn1  v048
 BYTE   W03
 BYTE   N05  Cn1  v064
 BYTE   N11  Dn1
 BYTE   W06
 BYTE   N02  Cn1  v040
 BYTE   W03
 BYTE   N02
 BYTE   W03
 BYTE   N05  Cn1  v056
 BYTE   N11  Fs1  v072
 BYTE   W06
 BYTE   N02  Cn1  v048
 BYTE   W03
 BYTE   N02
 BYTE   W03
 BYTE   N05  Cn1  v064
 BYTE   N11  Dn1
 BYTE   W06
 BYTE   N02  Cn1  v048
 BYTE   W03
 BYTE   Cn1  v040
 BYTE   W03
 BYTE   N05  Cn1  v056
 BYTE   N08  Fs1  v064
 BYTE   W06
 BYTE   N02  Cn1  v040
 BYTE   W03
 BYTE   Cn1  v048
 BYTE   N02  Dn1  v072
 BYTE   W03
 BYTE   N05  Cn1  v056
 BYTE   W06
 BYTE   N02  Cn1  v040
 BYTE   W03
 BYTE   Cn1  v048
 BYTE   W03
 BYTE   N05  Cn1  v064
 BYTE   N11  Fs1
 BYTE   W06
 BYTE   N02  Cn1  v040
 BYTE   W03
 BYTE   Cn1  v048
 BYTE   W03
 BYTE   N23  Cn1  v072
 BYTE   W06
 BYTE   N11  Dn2  v056
 BYTE   W10
//  #06 //009   ----------------------------------------
 BYTE   W02
 BYTE   N04  An1  v072
 BYTE   W06
 BYTE   N05  Cn1  v064
 BYTE   N11  Dn1
 BYTE   W06
 BYTE   N02  Cn1  v040
 BYTE   W03
 BYTE   N02
 BYTE   W03
 BYTE   N05  Cn1  v056
 BYTE   N11  Fs1  v064
 BYTE   W06
 BYTE   N02  Cn1  v048
 BYTE   W03
 BYTE   N02
 BYTE   W03
 BYTE   N05  Cn1  v064
 BYTE   N11  Dn1
 BYTE   W06
 BYTE   N02  Cn1  v048
 BYTE   W03
 BYTE   Cn1  v040
 BYTE   W03
 BYTE   N05  Cn1  v056
 BYTE   N11  Fs1  v072
 BYTE   W06
 BYTE   N02  Cn1  v040
 BYTE   W03
 BYTE   Cn1  v048
 BYTE   W03
 BYTE   N05  Cn1  v064
 BYTE   N11  Dn1
 BYTE   W06
 BYTE   N02  Cn1  v040
 BYTE   W03
 BYTE   N02
 BYTE   W03
 BYTE   N05  Cn1  v056
 BYTE   N11  Fs1  v072
 BYTE   W06
 BYTE   N02  Cn1  v048
 BYTE   W03
 BYTE   N02
 BYTE   W03
 BYTE   N05  Cn1  v064
 BYTE   N11  Dn1  v072
 BYTE   W06
 BYTE   N02  Cn1  v048
 BYTE   W03
 BYTE   Cn1  v040
 BYTE   W03
 BYTE   N05  Cn1  v056
 BYTE   N05  Fs1  v064
 BYTE   W04
//  #06 //010   ----------------------------------------
 BYTE   W02
 BYTE   N02  Cn1  v040
 BYTE   N05  Fs1  v048
 BYTE   W03
 BYTE   N02  Cn1
 BYTE   W03
 BYTE   N05  Cn1  v064
 BYTE   N11  Dn1  v072
 BYTE   W06
 BYTE   N02  Cn1  v040
 BYTE   W03
 BYTE   N02
 BYTE   W03
 BYTE   N05  Cn1  v056
 BYTE   N11  Fs1  v072
 BYTE   W06
 BYTE   N02  Cn1  v048
 BYTE   W03
 BYTE   N02
 BYTE   W03
 BYTE   N05  Cn1  v064
 BYTE   N11  Dn1  v072
 BYTE   W06
 BYTE   N02  Cn1  v048
 BYTE   W03
 BYTE   Cn1  v040
 BYTE   W03
 BYTE   N05  Cn1  v056
 BYTE   N11  Fs1  v064
 BYTE   W06
 BYTE   N02  Cn1  v040
 BYTE   W03
 BYTE   Cn1  v048
 BYTE   W03
 BYTE   N05  Cn1  v040
 BYTE   N11  Dn1  v072
 BYTE   W06
 BYTE   N02  Cn1  v040
 BYTE   W03
 BYTE   Cn1  v036
 BYTE   W03
 BYTE   N05  Cn1  v048
 BYTE   N11  Fs1  v064
 BYTE   W06
 BYTE   N02  Cn1  v040
 BYTE   W03
 BYTE   N02
 BYTE   W03
 BYTE   N11  Cn1  v056
 BYTE   N05  Dn1  v064
 BYTE   W06
 BYTE   Fs1
 BYTE   W06
 BYTE   Gn1  v056
 BYTE   N06  Dn2  v064
 BYTE   W04
//  #06 //011   ----------------------------------------
 BYTE   W02
 BYTE   N05
 BYTE   W06
 BYTE   Cn1
 BYTE   N11  Fs1
 BYTE   W06
 BYTE   N02  Cn1  v040
 BYTE   W03
 BYTE   N02
 BYTE   W03
 BYTE   N05  Cn1  v056
 BYTE   N08  Fs1
 BYTE   W06
 BYTE   N02  Cn1  v048
 BYTE   W03
 BYTE   N02
 BYTE   N14  Dn1  v072
 BYTE   W03
 BYTE   N05  Cn1  v064
 BYTE   W06
 BYTE   N02  Cn1  v048
 BYTE   W03
 BYTE   Cn1  v040
 BYTE   W03
 BYTE   N05  Cn1  v056
 BYTE   N05  Fs1  v068
 BYTE   W06
 BYTE   N02  Cn1  v040
 BYTE   N05  Fs1  v048
 BYTE   W03
 BYTE   N02  Cn1
 BYTE   W03
 BYTE   N05
 BYTE   N11  Dn1  v064
 BYTE   W06
 BYTE   N02  Cn1  v028
 BYTE   W03
 BYTE   Cn1  v036
 BYTE   W03
 BYTE   N05  Cn1  v048
 BYTE   N11  Fs1  v072
 BYTE   W06
 BYTE   N02  Cn1  v040
 BYTE   W03
 BYTE   N02
 BYTE   W03
 BYTE   N05  Cn1  v056
 BYTE   N11  Dn1  v072
 BYTE   W06
 BYTE   N02  Cn1  v040
 BYTE   W03
 BYTE   Cn1  v036
 BYTE   W03
 BYTE   N05  Cn1  v048
 BYTE   N05  Fs1  v068
 BYTE   W04
//  #06 //012   ----------------------------------------
 BYTE   W02
 BYTE   Cn1  v040
 BYTE   N05  Fs1  v048
 BYTE   W06
 BYTE   Cn1
 BYTE   N11  Dn1  v064
 BYTE   W06
 BYTE   N02  Cn1  v024
 BYTE   W03
 BYTE   Cn1  v036
 BYTE   W03
 BYTE   N05  Cn1  v048
 BYTE   N11  Fs1  v064
 BYTE   W06
 BYTE   N02  Cn1  v040
 BYTE   W03
 BYTE   N02
 BYTE   W03
 BYTE   N05  Cn1  v056
 BYTE   N11  Dn1  v072
 BYTE   W06
 BYTE   N02  Cn1  v036
 BYTE   W03
 BYTE   N02
 BYTE   W03
 BYTE   N05  Cn1  v048
 BYTE   N05  Fs1  v072
 BYTE   W06
 BYTE   N02  Cn1  v040
 BYTE   N05  Fs1  v048
 BYTE   W03
 BYTE   N02  Cn1  v040
 BYTE   W03
 BYTE   N05  Cn1  v048
 BYTE   N11  Dn1  v072
 BYTE   W06
 BYTE   N02  Cn1  v036
 BYTE   W03
 BYTE   Cn1  v040
 BYTE   W03
 BYTE   N05  Cn1  v048
 BYTE   N11  Fs1  v064
 BYTE   W06
 BYTE   N02  Cn1  v040
 BYTE   W03
 BYTE   N02
 BYTE   W03
 BYTE   N23
 BYTE   W06
 BYTE   N11  Dn2  v048
 BYTE   W10
//  #06 //013   ----------------------------------------
 BYTE   W02
 BYTE   N04  An1  v056
 BYTE   W92
 BYTE   W02
//  #06 //014   ----------------------------------------
 BYTE   W92
 BYTE   N11  Dn0  v088
 BYTE   W04
//  #06 //015   ----------------------------------------
 BYTE   W08
 BYTE   N05  Dn0  v080
 BYTE   W06
 BYTE   N02  Dn0  v048
 BYTE   W03
 BYTE   Dn0  v040
 BYTE   W03
 BYTE   N05  Dn0  v072
 BYTE   W06
 BYTE   N02  Dn0  v048
 BYTE   W03
 BYTE   Dn0  v040
 BYTE   W03
 BYTE   N05  Dn0  v076
 BYTE   W06
 BYTE   N02  Dn0  v052
 BYTE   W03
 BYTE   Dn0  v048
 BYTE   W03
 BYTE   N05  Dn0  v076
 BYTE   W06
 BYTE   N02  Dn0  v056
 BYTE   W03
 BYTE   Dn0  v040
 BYTE   W03
 BYTE   N05  Dn0  v080
 BYTE   W06
 BYTE   N02  Dn0  v040
 BYTE   W03
 BYTE   N02
 BYTE   W03
 BYTE   N05  Dn0  v072
 BYTE   W06
 BYTE   N02  Dn0  v048
 BYTE   W03
 BYTE   Dn0  v040
 BYTE   W03
 BYTE   N05  Dn0  v080
 BYTE   W06
 BYTE   N02  Dn0  v036
 BYTE   W03
 BYTE   Dn0  v040
 BYTE   W03
 BYTE   Dn0  v056
 BYTE   W03
 BYTE   Dn0  v048
 BYTE   W01
//  #06 //016   ----------------------------------------
 BYTE   W02
 BYTE   Dn0  v072
 BYTE   W03
 BYTE   Dn0  v056
 BYTE   W03
 BYTE   N05  Dn0  v080
 BYTE   W06
 BYTE   N02  Dn0  v048
 BYTE   W03
 BYTE   Dn0  v040
 BYTE   W03
 BYTE   N05  Dn0  v072
 BYTE   W06
 BYTE   N02  Dn0  v048
 BYTE   W03
 BYTE   Dn0  v040
 BYTE   W03
 BYTE   N05  Dn0  v076
 BYTE   W06
 BYTE   N02  Dn0  v052
 BYTE   W03
 BYTE   Dn0  v048
 BYTE   W03
 BYTE   N05  Dn0  v076
 BYTE   W06
 BYTE   N02  Dn0  v056
 BYTE   W03
 BYTE   Dn0  v040
 BYTE   W03
 BYTE   N05  Dn0  v080
 BYTE   W06
 BYTE   N02  Dn0  v040
 BYTE   W03
 BYTE   N02
 BYTE   W03
 BYTE   N05  Dn0  v072
 BYTE   W06
 BYTE   N02  Dn0  v048
 BYTE   W03
 BYTE   Dn0  v040
 BYTE   W03
 BYTE   N05  Dn0  v080
 BYTE   W06
 BYTE   N02  Dn0  v036
 BYTE   W03
 BYTE   Dn0  v040
 BYTE   W03
 BYTE   Dn0  v056
 BYTE   W03
 BYTE   Dn0  v048
 BYTE   W01
//  #06 //017   ----------------------------------------
 BYTE   W02
 BYTE   Dn0  v072
 BYTE   W03
 BYTE   Dn0  v056
 BYTE   W03
 BYTE   N05  Dn0  v072
 BYTE   W06
 BYTE   N02  Dn0  v056
 BYTE   W03
 BYTE   Dn0  v040
 BYTE   W03
 BYTE   N05  Dn0  v080
 BYTE   W06
 BYTE   N02  Dn0  v056
 BYTE   W03
 BYTE   Dn0  v040
 BYTE   W03
 BYTE   N11  Dn0  v056
 BYTE   W12
 BYTE   Dn0  v064
 BYTE   W11
 BYTE   GoTo
  POIN2 Label_01199574
 BYTE   FINE

//******************************************************//
	ALIGN 4

FE4GirlFromTheSpiritForest:
	BYTE	6	// NumTrks
	BYTE	0	// NumBlks
	BYTE	FE4GirlFromTheSpiritForest_pri	// Priority
	BYTE	FE4GirlFromTheSpiritForest_rev	// Reverb.
    
	POIN2	FE4GirlFromTheSpiritForest_grp
    
	POIN2	FE4GirlFromTheSpiritForest_001
	POIN2	FE4GirlFromTheSpiritForest_002
	POIN2	FE4GirlFromTheSpiritForest_003
	POIN2	FE4GirlFromTheSpiritForest_004
	POIN2	FE4GirlFromTheSpiritForest_005
	POIN2	FE4GirlFromTheSpiritForest_006

	
