//Event file generated from Sappy .s format.
	

	#define	LoZTotKRitoVillageNight_grp  voicegroup000
	#define	LoZTotKRitoVillageNight_pri  0
	#define	LoZTotKRitoVillageNight_rev  0
	#define	LoZTotKRitoVillageNight_mvl  127
	#define	LoZTotKRitoVillageNight_key  0
	#define	LoZTotKRitoVillageNight_tbs  1
	#define	LoZTotKRitoVillageNight_exg  0
	#define	LoZTotKRitoVillageNight_cmp  1

	// .rodata
	//	LoZTotKRitoVillageNight
	ALIGN 4


//**************** Track 1 (Midi-Chn.0) ****************//

LoZTotKRitoVillageNight_001:
//  #01 //000   ----------------------------------------
 BYTE   KEYSH   LoZTotKRitoVillageNight_key+0
 BYTE   TEMPO   100*LoZTotKRitoVillageNight_tbs/2
 BYTE   VOICE   4
 BYTE   MODT 0
 BYTE   LFOS 44
 BYTE   VOL   39*LoZTotKRitoVillageNight_mvl/mxv
 BYTE   PAN   c_v+0
 BYTE   VOL   53*LoZTotKRitoVillageNight_mvl/mxv
 BYTE   PAN   c_v+0
 BYTE   N11  Bn2  v060
 BYTE   W12
 BYTE   TEMPO   108*LoZTotKRitoVillageNight_tbs/2
 BYTE   N05  Fs3
 BYTE   W06
 BYTE   An3
 BYTE   W06
 BYTE   Cs4
 BYTE   W06
 BYTE   Dn4
 BYTE   W06
 BYTE   An4
 BYTE   W06
 BYTE   N48  En4
 BYTE   W54
//  #01 //001   ----------------------------------------
 BYTE   W48
 BYTE   TEMPO   100*LoZTotKRitoVillageNight_tbs/2
 BYTE   N22  Fs4  v044
 BYTE   W24
 BYTE   N44  Cs5
 BYTE   W24
//  #01 //002   ----------------------------------------
 BYTE   W24
 BYTE   TEMPO   104*LoZTotKRitoVillageNight_tbs/2
 BYTE   N22  An4
 BYTE   W24
 BYTE   N44  En5
 BYTE   W48
//  #01 //003   ----------------------------------------
 BYTE   W72
 BYTE   TEMPO   100*LoZTotKRitoVillageNight_tbs/2
 BYTE   N11  Cn3  v060
 BYTE   W12
 BYTE   TEMPO   108*LoZTotKRitoVillageNight_tbs/2
 BYTE   N05  Gn3
 BYTE   W06
 BYTE   Bn3
 BYTE   W06
//  #01 //004   ----------------------------------------
 BYTE   Dn4
 BYTE   W06
 BYTE   Fs4
 BYTE   W06
 BYTE   An4
 BYTE   W06
 BYTE   N48  En4
 BYTE   W78
//  #01 //005   ----------------------------------------
 BYTE   W24
 BYTE   TEMPO   78*LoZTotKRitoVillageNight_tbs/2
 BYTE   N22  Bn4  v044
 BYTE   W24
 BYTE   N44  Fs5
 BYTE   W48
//  #01 //006   ----------------------------------------
 BYTE   TEMPO   60*LoZTotKRitoVillageNight_tbs/2
 BYTE   N68  Fs4  v028
 BYTE   W48
Label_01004744:
 BYTE   W24
 BYTE   TEMPO   84*LoZTotKRitoVillageNight_tbs/2
 BYTE   W24
//  #01 //007   ----------------------------------------
 BYTE   W48
 BYTE   N68  An4  v028
 BYTE   W48
//  #01 //008   ----------------------------------------
 BYTE   W24
 BYTE   TEMPO   78*LoZTotKRitoVillageNight_tbs/2
 BYTE   N22  Gn4  v044
 BYTE   W24
 BYTE   Fn4
 BYTE   W24
 BYTE   Cn5
 BYTE   W24
//  #01 //009   ----------------------------------------
 BYTE   TEMPO   84*LoZTotKRitoVillageNight_tbs/2
 BYTE   N68  Gn4
 BYTE   W96
//  #01 //010   ----------------------------------------
 BYTE   W96
//  #01 //011   ----------------------------------------
 BYTE   TEMPO   78*LoZTotKRitoVillageNight_tbs/2
 BYTE   W24
 BYTE   TEMPO   88*LoZTotKRitoVillageNight_tbs/2
 BYTE   W72
//  #01 //012   ----------------------------------------
 BYTE   N07  An3  v060
 BYTE   N07  Dn4
 BYTE   N07  An4
 BYTE   W07
 BYTE   N60  An5
 BYTE   W64
 BYTE   W01
 BYTE   TEMPO   88*LoZTotKRitoVillageNight_tbs/2
 BYTE   W24
//  #01 //013   ----------------------------------------
 BYTE   W48
 BYTE   TEMPO   84*LoZTotKRitoVillageNight_tbs/2
 BYTE   N11  Ds1
 BYTE   W12
 BYTE   TEMPO   88*LoZTotKRitoVillageNight_tbs/2
 BYTE   Gn1
 BYTE   W12
 BYTE   Ds2
 BYTE   W12
 BYTE   Gn2
 BYTE   W12
//  #01 //014   ----------------------------------------
 BYTE   Dn3
 BYTE   W12
 BYTE   Gn2
 BYTE   W12
 BYTE   N68
 BYTE   N68  Dn4
 BYTE   W72
//  #01 //015   ----------------------------------------
 BYTE   Dn1
 BYTE   W48
 BYTE   N11  Cn3
 BYTE   W12
 BYTE   Fn3
 BYTE   W12
 BYTE   Cn4
 BYTE   W12
 BYTE   Fn4
 BYTE   W12
//  #01 //016   ----------------------------------------
 BYTE   N44  Cn5
 BYTE   W48
 BYTE   N68  Cs1  v080
 BYTE   N68  Fs1
 BYTE   N68  Cs2
 BYTE   N68  Fs2
 BYTE   W48
//  #01 //017   ----------------------------------------
 BYTE   N11  Gs2
 BYTE   W12
 BYTE   Cs3
 BYTE   W12
 BYTE   Fs3
 BYTE   W12
 BYTE   Ds3
 BYTE   W12
 BYTE   Fs3
 BYTE   W12
 BYTE   Bn3
 BYTE   W12
 BYTE   Fs3
 BYTE   N11  An3
 BYTE   N22  Ds4
 BYTE   W12
 BYTE   N11  Gs3
 BYTE   W12
//  #01 //018   ----------------------------------------
 BYTE   N56  Dn3
 BYTE   W02
 BYTE   Fs3
 BYTE   W03
 BYTE   N54  An3
 BYTE   W02
 BYTE   N48  Dn4
 BYTE   W52
 BYTE   W01
 BYTE   N11  Dn5
 BYTE   W12
 BYTE   N44  Cs5
 BYTE   W24
//  #01 //019   ----------------------------------------
 BYTE   W24
 BYTE   N22  Cs1  v044
 BYTE   W12
 BYTE   N11  Cs3  v060
 BYTE   W12
 BYTE   N32  An3  v080
 BYTE   W36
 BYTE   N11  Gs3
 BYTE   W12
//  #01 //020   ----------------------------------------
 BYTE   N22  An3
 BYTE   W24
 BYTE   N32  Bn3
 BYTE   W36
 BYTE   Gs3
 BYTE   W36
//  #01 //021   ----------------------------------------
 BYTE   N68  Fs3
 BYTE   W72
 BYTE   N44  Cs3
 BYTE   W24
//  #01 //022   ----------------------------------------
 BYTE   W24
 BYTE   N11  En3
 BYTE   W12
 BYTE   Cs3
 BYTE   W12
 BYTE   N32  An3
 BYTE   W36
 BYTE   N11  Gs3
 BYTE   W12
//  #01 //023   ----------------------------------------
 BYTE   An3
 BYTE   W12
 BYTE   Fs3
 BYTE   W12
 BYTE   N32  Bn3
 BYTE   W36
 BYTE   En4
 BYTE   W36
//  #01 //024   ----------------------------------------
 BYTE   TIE  Cs4  v104
 BYTE   W96
//  #01 //025   ----------------------------------------
 BYTE   W28
 BYTE   W01
 BYTE   EOT
 BYTE   W07
 BYTE   N11  An3
 BYTE   W12
 BYTE   N28  Bn3
 BYTE   W30
 BYTE   N05  Cs4
 BYTE   W06
 BYTE   N90  Bn3
 BYTE   W12
//  #01 //026   ----------------------------------------
 BYTE   W84
 BYTE   N11
 BYTE   W12
//  #01 //027   ----------------------------------------
 BYTE   N32  An3
 BYTE   W36
 BYTE   N90  Fs3
 BYTE   W60
//  #01 //028   ----------------------------------------
 BYTE   W36
 BYTE   N11  An3
 BYTE   W12
 BYTE   N28  Bn3
 BYTE   W30
 BYTE   N05  Cs4
 BYTE   W06
 BYTE   N90  Bn3
 BYTE   W12
//  #01 //029   ----------------------------------------
 BYTE   W84
 BYTE   N11  An3
 BYTE   W12
//  #01 //030   ----------------------------------------
 BYTE   N32  Fs3
 BYTE   W36
 BYTE   N05  En3
 BYTE   W12
 BYTE   N78  Fs3
 BYTE   W48
//  #01 //031   ----------------------------------------
 BYTE   W36
 BYTE   N05  En3
 BYTE   W12
 BYTE   N32  Fs3
 BYTE   W36
 BYTE   N11  En3
 BYTE   W12
//  #01 //032   ----------------------------------------
 BYTE   N84  Fs3
 BYTE   W90
 BYTE   N05
 BYTE   W06
//  #01 //033   ----------------------------------------
 BYTE   N44
 BYTE   N44  An3
 BYTE   N44  Dn4
 BYTE   W48
 BYTE   Gn4
 BYTE   W48
//  #01 //034   ----------------------------------------
 BYTE   N36  Dn5
 BYTE   W42
 BYTE   N02  An4
 BYTE   W03
 BYTE   Dn5
 BYTE   W03
 BYTE   Fs5
 BYTE   W03
 BYTE   Gn5
 BYTE   W03
 BYTE   N28  Fs5
 BYTE   W30
 BYTE   N11  Dn5
 BYTE   W12
//  #01 //035   ----------------------------------------
 BYTE   N22  An4
 BYTE   W24
 BYTE   W72
//  #01 //036   ----------------------------------------
 BYTE   N11  Cn2  v044
 BYTE   N11  En2
 BYTE   N11  Bn2
 BYTE   W12
 BYTE   En2
 BYTE   W12
 BYTE   Gn2
 BYTE   W12
 BYTE   Bn2
 BYTE   W12
 BYTE   En3
 BYTE   W12
 BYTE   Gn3
 BYTE   W36
//  #01 //037   ----------------------------------------
 BYTE   W12
 BYTE   N32  En2
 BYTE   N32  Gn2
 BYTE   W36
 BYTE   Dn2
 BYTE   N32  Fs2
 BYTE   W48
//  #01 //038   ----------------------------------------
 BYTE   W24
 BYTE   N44  Dn4
 BYTE   W48
 BYTE   N23  As1  v060
 BYTE   N22  En3
 BYTE   W03
 BYTE   N20  En2
 BYTE   W03
 BYTE   N17  Gn2
 BYTE   W18
//  #01 //039   ----------------------------------------
 BYTE   N68  An1
 BYTE   N68  Ds2
 BYTE   N68  Fs2
 BYTE   N32  Ds3
 BYTE   W36
 BYTE   N11  Cn3
 BYTE   W12
 BYTE   Ds3
 BYTE   W12
 BYTE   Gn3
 BYTE   W12
 BYTE   N22  Fs3
 BYTE   W24
//  #01 //040   ----------------------------------------
 BYTE   W24
 BYTE   N11  Ds3  v028
 BYTE   W12
 BYTE   N11
 BYTE   W12
 BYTE   N44  Gn2  v060
 BYTE   N44  Dn3
 BYTE   W48
//  #01 //041   ----------------------------------------
 BYTE   N22  Bn3
 BYTE   W24
 BYTE   Dn4
 BYTE   W24
 BYTE   An3
 BYTE   W24
 BYTE   Bn3
 BYTE   W24
//  #01 //042   ----------------------------------------
 BYTE   N11  Gn3  v044
 BYTE   W12
 BYTE   N22
 BYTE   W24
 BYTE   N11  En3  v056
 BYTE   W12
 BYTE   Gn3  v064
 BYTE   W12
 BYTE   Bn3  v072
 BYTE   W12
 BYTE   Dn4  v080
 BYTE   W12
 BYTE   Gn3
 BYTE   W12
//  #01 //043   ----------------------------------------
 BYTE   Bn3
 BYTE   W12
 BYTE   Gn4  v108
 BYTE   N11  Bn4
 BYTE   W12
 BYTE   En4  v080
 BYTE   W12
 BYTE   Gn4
 BYTE   W12
 BYTE   N32  Fs4  v108
 BYTE   N32  An4
 BYTE   W48
//  #01 //044   ----------------------------------------
 BYTE   N11  Dn5  v060
 BYTE   W12
 BYTE   Dn4
 BYTE   W12
 BYTE   N23  Fs4  v080
 BYTE   N23  An4
 BYTE   N23  Dn5
 BYTE   W36
 BYTE   N11  Bn3  v060
 BYTE   W12
 BYTE   N22  Dn4
 BYTE   W24
//  #01 //045   ----------------------------------------
 BYTE   N44  An3
 BYTE   N44  Cs4
 BYTE   W72
 BYTE   N02  Cn4
 BYTE   W02
 BYTE   N30  An3
 BYTE   N30  Cs4
 BYTE   W22
//  #01 //046   ----------------------------------------
 BYTE   W12
 BYTE   N11  An3
 BYTE   W12
 BYTE   En3
 BYTE   W12
 BYTE   Cs4
 BYTE   W12
 BYTE   N44  Gn4  v080
 BYTE   W48
//  #01 //047   ----------------------------------------
 BYTE   W12
 BYTE   N11  Fn4
 BYTE   W12
 BYTE   N22
 BYTE   N22  Gn4
 BYTE   N22  Cn5
 BYTE   W36
 BYTE   N11  Cn4  v028
 BYTE   W12
 BYTE   Gn3
 BYTE   W12
 BYTE   Cn4
 BYTE   W12
//  #01 //048   ----------------------------------------
 BYTE   Fn4  v056
 BYTE   N11  Gn4
 BYTE   W12
 BYTE   Gn3  v044
 BYTE   W12
 BYTE   Cn4
 BYTE   W12
 BYTE   Gn4  v056
 BYTE   W12
 BYTE   Cn4  v044
 BYTE   W12
 BYTE   Fn4
 BYTE   W12
 BYTE   N11
 BYTE   N11  Gn4
 BYTE   N11  Cn5
 BYTE   W12
 BYTE   Cn4
 BYTE   W12
//  #01 //049   ----------------------------------------
 BYTE   Fn4
 BYTE   W12
 BYTE   Cn5
 BYTE   W12
 BYTE   Gn4
 BYTE   W12
 BYTE   Cn5
 BYTE   W12
 BYTE   N44  Gn5
 BYTE   W48
//  #01 //050   ----------------------------------------
 BYTE   Fn5
 BYTE   W48
 BYTE   Fn4
 BYTE   N44  Gn4
 BYTE   N44  Cn5
 BYTE   W48
//  #01 //051   ----------------------------------------
 BYTE   TEMPO   84*LoZTotKRitoVillageNight_tbs/2
 BYTE   W72
 BYTE   N68  An4  v028
 BYTE   W24
//  #01 //052   ----------------------------------------
 BYTE   W48
 BYTE   TEMPO   78*LoZTotKRitoVillageNight_tbs/2
 BYTE   N22  Gn4  v044
 BYTE   W24
 BYTE   Fn4
 BYTE   W24
//  #01 //053   ----------------------------------------
 BYTE   Cn5
 BYTE   W24
 BYTE   TEMPO   84*LoZTotKRitoVillageNight_tbs/2
 BYTE   N68  Gn4
 BYTE   W72
//  #01 //054   ----------------------------------------
 BYTE   W96
//  #01 //055   ----------------------------------------
 BYTE   W24
 BYTE   TEMPO   78*LoZTotKRitoVillageNight_tbs/2
 BYTE   W24
 BYTE   TEMPO   88*LoZTotKRitoVillageNight_tbs/2
 BYTE   W48
//  #01 //056   ----------------------------------------
 BYTE   W24
 BYTE   N07  An3  v060
 BYTE   N07  Dn4
 BYTE   N07  An4
 BYTE   W07
 BYTE   N60  An5
 BYTE   W64
 BYTE   W01
//  #01 //057   ----------------------------------------
 BYTE   TEMPO   88*LoZTotKRitoVillageNight_tbs/2
 BYTE   W72
 BYTE   TEMPO   84*LoZTotKRitoVillageNight_tbs/2
 BYTE   N11  Ds1
 BYTE   W12
 BYTE   TEMPO   88*LoZTotKRitoVillageNight_tbs/2
 BYTE   Gn1
 BYTE   W12
//  #01 //058   ----------------------------------------
 BYTE   Ds2
 BYTE   W12
 BYTE   Gn2
 BYTE   W12
 BYTE   Dn3
 BYTE   W12
 BYTE   Gn2
 BYTE   W12
 BYTE   N68
 BYTE   N68  Dn4
 BYTE   W48
//  #01 //059   ----------------------------------------
 BYTE   W24
 BYTE   Dn1
 BYTE   W48
 BYTE   N11  Cn3
 BYTE   W12
 BYTE   Fn3
 BYTE   W12
//  #01 //060   ----------------------------------------
 BYTE   Cn4
 BYTE   W12
 BYTE   Fn4
 BYTE   W12
 BYTE   N44  Cn5
 BYTE   W48
 BYTE   N68  Cs1  v080
 BYTE   N68  Fs1
 BYTE   N68  Cs2
 BYTE   N68  Fs2
 BYTE   W24
//  #01 //061   ----------------------------------------
 BYTE   W24
 BYTE   N11  Gs2
 BYTE   W12
 BYTE   Cs3
 BYTE   W12
 BYTE   Fs3
 BYTE   W12
 BYTE   Ds3
 BYTE   W12
 BYTE   Fs3
 BYTE   W12
 BYTE   Bn3
 BYTE   W12
//  #01 //062   ----------------------------------------
 BYTE   Fs3
 BYTE   N11  An3
 BYTE   N22  Ds4
 BYTE   W12
 BYTE   N11  Gs3
 BYTE   W12
 BYTE   N56  Dn3
 BYTE   W02
 BYTE   Fs3
 BYTE   W03
 BYTE   N54  An3
 BYTE   W02
 BYTE   N48  Dn4
 BYTE   W52
 BYTE   W01
 BYTE   N11  Dn5
 BYTE   W12
//  #01 //063   ----------------------------------------
 BYTE   N44  Cs5
 BYTE   W48
 BYTE   N22  Cs1  v044
 BYTE   W12
 BYTE   N11  Cs3  v060
 BYTE   W12
 BYTE   N32  An3  v080
 BYTE   W24
//  #01 //064   ----------------------------------------
 BYTE   W12
 BYTE   N11  Gs3
 BYTE   W12
 BYTE   N22  An3
 BYTE   W24
 BYTE   N32  Bn3
 BYTE   W36
 BYTE   Gs3
 BYTE   W12
//  #01 //065   ----------------------------------------
 BYTE   W24
 BYTE   N68  Fs3
 BYTE   W72
//  #01 //066   ----------------------------------------
 BYTE   N44  Cs3
 BYTE   W48
 BYTE   N11  En3
 BYTE   W12
 BYTE   Cs3
 BYTE   W12
 BYTE   N32  An3
 BYTE   W24
//  #01 //067   ----------------------------------------
 BYTE   W12
 BYTE   N11  Gs3
 BYTE   W12
 BYTE   An3
 BYTE   W12
 BYTE   Fs3
 BYTE   W12
 BYTE   N32  Bn3
 BYTE   W36
 BYTE   En4
 BYTE   W12
//  #01 //068   ----------------------------------------
 BYTE   W24
 BYTE   TIE  Cs4  v104
 BYTE   W72
//  #01 //069   ----------------------------------------
 BYTE   W52
 BYTE   W01
 BYTE   EOT
 BYTE   W07
 BYTE   N11  An3
 BYTE   W12
 BYTE   N28  Bn3
 BYTE   W24
//  #01 //070   ----------------------------------------
Label_01004A12:
 BYTE   W06
 BYTE   N05  Cs4  v104
 BYTE   W06
 BYTE   N90  Bn3
 BYTE   W84
 BYTE   PEND 
//  #01 //071   ----------------------------------------
 BYTE   W12
 BYTE   N11
 BYTE   W12
 BYTE   N32  An3
 BYTE   W36
 BYTE   N90  Fs3
 BYTE   W36
//  #01 //072   ----------------------------------------
 BYTE   W60
 BYTE   N11  An3
 BYTE   W12
 BYTE   N28  Bn3
 BYTE   W24
//  #01 //073   ----------------------------------------
 BYTE   PATT
  POIN2 Label_01004A12
//  #01 //074   ----------------------------------------
 BYTE   W12
 BYTE   N11  An3  v104
 BYTE   W12
 BYTE   N32  Fs3
 BYTE   W36
 BYTE   N05  En3
 BYTE   W12
 BYTE   N78  Fs3
 BYTE   W24
//  #01 //075   ----------------------------------------
 BYTE   W60
 BYTE   N05  En3
 BYTE   W12
 BYTE   N32  Fs3
 BYTE   W24
//  #01 //076   ----------------------------------------
 BYTE   W12
 BYTE   N11  En3
 BYTE   W12
 BYTE   N84  Fs3
 BYTE   W72
//  #01 //077   ----------------------------------------
 BYTE   W18
 BYTE   N05
 BYTE   W06
 BYTE   N44
 BYTE   N44  An3
 BYTE   N44  Dn4
 BYTE   W48
 BYTE   Gn4
 BYTE   W24
//  #01 //078   ----------------------------------------
 BYTE   W24
 BYTE   N36  Dn5
 BYTE   W42
 BYTE   N02  An4
 BYTE   W03
 BYTE   Dn5
 BYTE   W03
 BYTE   Fs5
 BYTE   W03
 BYTE   Gn5
 BYTE   W03
 BYTE   N28  Fs5
 BYTE   W18
//  #01 //079   ----------------------------------------
 BYTE   W12
 BYTE   N11  Dn5
 BYTE   W12
 BYTE   N22  An4
 BYTE   W24
 BYTE   W48
//  #01 //080   ----------------------------------------
 BYTE   W24
 BYTE   N11  Cn2  v044
 BYTE   N11  En2
 BYTE   N11  Bn2
 BYTE   W12
 BYTE   En2
 BYTE   W12
 BYTE   Gn2
 BYTE   W12
 BYTE   Bn2
 BYTE   W12
 BYTE   En3
 BYTE   W12
 BYTE   Gn3
 BYTE   W12
//  #01 //081   ----------------------------------------
 BYTE   W36
 BYTE   N32  En2
 BYTE   N32  Gn2
 BYTE   W36
 BYTE   Dn2
 BYTE   N32  Fs2
 BYTE   W24
//  #01 //082   ----------------------------------------
 BYTE   W48
 BYTE   N44  Dn4
 BYTE   W48
//  #01 //083   ----------------------------------------
 BYTE   N23  As1  v060
 BYTE   N22  En3
 BYTE   W03
 BYTE   N20  En2
 BYTE   W03
 BYTE   N17  Gn2
 BYTE   W18
 BYTE   N68  An1
 BYTE   N68  Ds2
 BYTE   N68  Fs2
 BYTE   N32  Ds3
 BYTE   W36
 BYTE   N11  Cn3
 BYTE   W12
 BYTE   Ds3
 BYTE   W12
 BYTE   Gn3
 BYTE   W12
//  #01 //084   ----------------------------------------
 BYTE   N22  Fs3
 BYTE   W48
 BYTE   N11  Ds3  v028
 BYTE   W12
 BYTE   N11
 BYTE   W12
 BYTE   N44  Gn2  v060
 BYTE   N44  Dn3
 BYTE   W24
//  #01 //085   ----------------------------------------
 BYTE   W24
 BYTE   N22  Bn3
 BYTE   W24
 BYTE   Dn4
 BYTE   W24
 BYTE   An3
 BYTE   W24
//  #01 //086   ----------------------------------------
 BYTE   Bn3
 BYTE   W24
 BYTE   N11  Gn3  v044
 BYTE   W12
 BYTE   N22
 BYTE   W24
 BYTE   N11  En3  v056
 BYTE   W12
 BYTE   Gn3  v064
 BYTE   W12
 BYTE   Bn3  v072
 BYTE   W12
//  #01 //087   ----------------------------------------
 BYTE   Dn4  v080
 BYTE   W12
 BYTE   Gn3
 BYTE   W12
 BYTE   Bn3
 BYTE   W12
 BYTE   Gn4  v108
 BYTE   N11  Bn4
 BYTE   W12
 BYTE   En4  v080
 BYTE   W12
 BYTE   Gn4
 BYTE   W12
 BYTE   N32  Fs4  v108
 BYTE   N32  An4
 BYTE   W24
//  #01 //088   ----------------------------------------
 BYTE   W24
 BYTE   N11  Dn5  v060
 BYTE   W12
 BYTE   Dn4
 BYTE   W12
 BYTE   N23  Fs4  v080
 BYTE   N23  An4
 BYTE   N23  Dn5
 BYTE   W36
 BYTE   N11  Bn3  v060
 BYTE   W12
//  #01 //089   ----------------------------------------
 BYTE   N22  Dn4
 BYTE   W24
 BYTE   N44  An3
 BYTE   N44  Cs4
 BYTE   W72
//  #01 //090   ----------------------------------------
 BYTE   N02  Cn4
 BYTE   W02
 BYTE   N30  An3
 BYTE   N30  Cs4
 BYTE   W32
 BYTE   W02
 BYTE   N11  An3
 BYTE   W12
 BYTE   En3
 BYTE   W12
 BYTE   Cs4
 BYTE   W12
 BYTE   N44  Gn4  v080
 BYTE   W24
//  #01 //091   ----------------------------------------
 BYTE   W36
 BYTE   N11  Fn4
 BYTE   W12
 BYTE   N22
 BYTE   N22  Gn4
 BYTE   N22  Cn5
 BYTE   W36
 BYTE   N11  Cn4  v028
 BYTE   W12
//  #01 //092   ----------------------------------------
 BYTE   Gn3
 BYTE   W12
 BYTE   Cn4
 BYTE   W12
 BYTE   Fn4  v056
 BYTE   N11  Gn4
 BYTE   W12
 BYTE   Gn3  v044
 BYTE   W12
 BYTE   Cn4
 BYTE   W12
 BYTE   Gn4  v056
 BYTE   W12
 BYTE   Cn4  v044
 BYTE   W12
 BYTE   Fn4
 BYTE   W12
//  #01 //093   ----------------------------------------
 BYTE   N11
 BYTE   N11  Gn4
 BYTE   N11  Cn5
 BYTE   W12
 BYTE   Cn4
 BYTE   W12
 BYTE   Fn4
 BYTE   W12
 BYTE   Cn5
 BYTE   W12
 BYTE   Gn4
 BYTE   W12
 BYTE   Cn5
 BYTE   W12
 BYTE   N44  Gn5
 BYTE   W24
//  #01 //094   ----------------------------------------
 BYTE   W24
 BYTE   Fn5
 BYTE   W48
 BYTE   Fn4
 BYTE   N44  Gn4
 BYTE   N44  Cn5
 BYTE   W24
//  #01 //095   ----------------------------------------
 BYTE   W24
 BYTE   GoTo
  POIN2 Label_01004744
 BYTE   FINE

//**************** Track 2 (Midi-Chn.1) ****************//

LoZTotKRitoVillageNight_002:
//  #02 //000   ----------------------------------------
 BYTE   KEYSH   LoZTotKRitoVillageNight_key+0
 BYTE   VOICE   0
 BYTE   MODT 0
 BYTE   LFOS 44
 BYTE   VOL   30*LoZTotKRitoVillageNight_mvl/mxv
 BYTE   PAN   c_v+0
 BYTE   VOL   53*LoZTotKRitoVillageNight_mvl/mxv
 BYTE   PAN   c_v+0
 BYTE   W96
//  #02 //001   ----------------------------------------
 BYTE   W96
//  #02 //002   ----------------------------------------
 BYTE   W96
//  #02 //003   ----------------------------------------
 BYTE   W96
//  #02 //004   ----------------------------------------
 BYTE   W96
//  #02 //005   ----------------------------------------
 BYTE   W96
//  #02 //006   ----------------------------------------
 BYTE   W48
Label_01004E3F:
 BYTE   W36
 BYTE   N44  Dn3  v016
 BYTE   W12
//  #02 //007   ----------------------------------------
 BYTE   W96
//  #02 //008   ----------------------------------------
 BYTE   W96
//  #02 //009   ----------------------------------------
 BYTE   W78
 BYTE   N02  Cn3  v028
 BYTE   W02
 BYTE   N21  Ds3
 BYTE   W16
//  #02 //010   ----------------------------------------
 BYTE   W96
//  #02 //011   ----------------------------------------
 BYTE   W96
//  #02 //012   ----------------------------------------
 BYTE   W96
//  #02 //013   ----------------------------------------
 BYTE   W96
//  #02 //014   ----------------------------------------
 BYTE   W48
 BYTE   N44  As2  v044
 BYTE   W48
//  #02 //015   ----------------------------------------
 BYTE   W72
 BYTE   N68  Dn4  v028
 BYTE   W24
//  #02 //016   ----------------------------------------
 BYTE   W96
//  #02 //017   ----------------------------------------
 BYTE   W96
//  #02 //018   ----------------------------------------
 BYTE   W96
//  #02 //019   ----------------------------------------
 BYTE   W48
 BYTE   W12
 BYTE   N11  Fs2  v044
 BYTE   W12
 BYTE   An2
 BYTE   N11  Cs3
 BYTE   W12
 BYTE   Fs2
 BYTE   W12
//  #02 //020   ----------------------------------------
 BYTE   An2
 BYTE   N11  Cs3
 BYTE   W12
 BYTE   Fs2
 BYTE   W12
 BYTE   W12
 BYTE   En2
 BYTE   W12
 BYTE   Gs2
 BYTE   N11  Cs3
 BYTE   W12
 BYTE   En2
 BYTE   W12
 BYTE   Gs2
 BYTE   N11  Cs3
 BYTE   W12
 BYTE   En2
 BYTE   W12
//  #02 //021   ----------------------------------------
 BYTE   W12
 BYTE   Dn2
 BYTE   W12
 BYTE   Fs2
 BYTE   N11  An2
 BYTE   N11  Dn3
 BYTE   W12
 BYTE   Dn2
 BYTE   W12
 BYTE   Fs2
 BYTE   N11  An2
 BYTE   N11  Dn3
 BYTE   W12
 BYTE   Dn2
 BYTE   W12
 BYTE   W12
 BYTE   En2
 BYTE   W12
//  #02 //022   ----------------------------------------
 BYTE   Gs2
 BYTE   N11  Cs3
 BYTE   W12
 BYTE   En2
 BYTE   W12
 BYTE   Gs2
 BYTE   N11  Cs3
 BYTE   W12
 BYTE   En2
 BYTE   W12
 BYTE   W12
 BYTE   Fs2
 BYTE   W12
 BYTE   An2
 BYTE   N11  Cs3
 BYTE   W12
 BYTE   Fs2
 BYTE   W12
//  #02 //023   ----------------------------------------
 BYTE   An2
 BYTE   N11  Cs3
 BYTE   W12
 BYTE   Fs2
 BYTE   W12
 BYTE   W12
 BYTE   En2
 BYTE   W12
 BYTE   Cs3
 BYTE   N11  En3
 BYTE   W12
 BYTE   En2
 BYTE   W12
 BYTE   Cs3
 BYTE   N11  En3
 BYTE   W12
 BYTE   En2
 BYTE   W12
//  #02 //024   ----------------------------------------
 BYTE   W12
 BYTE   N11
 BYTE   W12
 BYTE   An2
 BYTE   N11  Cs3
 BYTE   W12
 BYTE   En2
 BYTE   W12
 BYTE   An2  v060
 BYTE   N11  Cs3
 BYTE   W12
 BYTE   An2
 BYTE   N11  Dn3
 BYTE   W12
 BYTE   An2
 BYTE   N11  Cs3
 BYTE   W12
 BYTE   En2  v044
 BYTE   W12
//  #02 //025   ----------------------------------------
 BYTE   N11
 BYTE   N11  An2
 BYTE   W12
 BYTE   En2
 BYTE   W12
 BYTE   N11
 BYTE   N11  An2
 BYTE   W12
 BYTE   En2
 BYTE   W12
 BYTE   W12
 BYTE   Dn2  v060
 BYTE   W12
 BYTE   An2
 BYTE   W12
 BYTE   Dn2
 BYTE   W12
//  #02 //026   ----------------------------------------
 BYTE   Bn2
 BYTE   W12
 BYTE   Dn2
 BYTE   W12
 BYTE   W12
 BYTE   N11
 BYTE   W12
 BYTE   An2
 BYTE   W12
 BYTE   Dn2
 BYTE   W12
 BYTE   Bn2
 BYTE   W12
 BYTE   Dn2
 BYTE   W12
//  #02 //027   ----------------------------------------
 BYTE   W12
 BYTE   Fs2
 BYTE   W12
 BYTE   An2
 BYTE   W12
 BYTE   Fs2
 BYTE   W12
 BYTE   Cs3
 BYTE   W12
 BYTE   Fs2
 BYTE   W12
 BYTE   W12
 BYTE   N11
 BYTE   W12
//  #02 //028   ----------------------------------------
 BYTE   An2
 BYTE   W12
 BYTE   Fs2
 BYTE   W12
 BYTE   Cs3
 BYTE   W12
 BYTE   Fs2
 BYTE   W12
 BYTE   W12
 BYTE   En2
 BYTE   W12
 BYTE   Gs2
 BYTE   W12
 BYTE   En2
 BYTE   W12
//  #02 //029   ----------------------------------------
 BYTE   Bn2
 BYTE   W12
 BYTE   En2
 BYTE   W12
 BYTE   W12
 BYTE   N11
 BYTE   W12
 BYTE   Gs2
 BYTE   W12
 BYTE   En2
 BYTE   W12
 BYTE   Bn2
 BYTE   W12
 BYTE   En2
 BYTE   W12
//  #02 //030   ----------------------------------------
 BYTE   W12
 BYTE   An2
 BYTE   W12
 BYTE   Dn3
 BYTE   W12
 BYTE   An2
 BYTE   W12
 BYTE   En3
 BYTE   W12
 BYTE   An2
 BYTE   W12
 BYTE   N05  En3
 BYTE   W06
 BYTE   N11  Fs3
 BYTE   W06
 BYTE   An2
 BYTE   W12
//  #02 //031   ----------------------------------------
 BYTE   Dn3
 BYTE   W12
 BYTE   An2
 BYTE   W12
 BYTE   Dn2
 BYTE   W12
 BYTE   Cs2
 BYTE   W12
 BYTE   Bn1
 BYTE   W12
 BYTE   Fs2
 BYTE   W12
 BYTE   Bn2
 BYTE   W12
 BYTE   Fs2
 BYTE   W12
//  #02 //032   ----------------------------------------
 BYTE   Ds3
 BYTE   W12
 BYTE   Bn2
 BYTE   W12
 BYTE   Bn1
 BYTE   W12
 BYTE   Fs2
 BYTE   W12
 BYTE   Bn2
 BYTE   W12
 BYTE   Ds3
 BYTE   W12
 BYTE   Bn1
 BYTE   W12
 BYTE   An1
 BYTE   W12
//  #02 //033   ----------------------------------------
 BYTE   W12
 BYTE   Dn2
 BYTE   W12
 BYTE   Gn2
 BYTE   W12
 BYTE   Bn2
 BYTE   W12
 BYTE   Gn2
 BYTE   W12
 BYTE   Dn2
 BYTE   W12
 BYTE   Fs3
 BYTE   W12
 BYTE   Gn2
 BYTE   W12
//  #02 //034   ----------------------------------------
 BYTE   Dn2
 BYTE   W12
 BYTE   Bn2
 BYTE   W12
 BYTE   Gn2
 BYTE   W12
 BYTE   Dn2
 BYTE   W12
 BYTE   An3  v080
 BYTE   W12
 BYTE   Gn2  v060
 BYTE   W12
 BYTE   Bn2
 BYTE   W12
 BYTE   Dn3  v080
 BYTE   W12
//  #02 //035   ----------------------------------------
 BYTE   Gn3
 BYTE   W12
 BYTE   Bn2  v060
 BYTE   W12
 BYTE   Gn2
 BYTE   W12
 BYTE   Bn2
 BYTE   W12
 BYTE   Dn3  v080
 BYTE   W12
 BYTE   Bn2  v060
 BYTE   W12
 BYTE   Gn2
 BYTE   W12
 BYTE   Bn2
 BYTE   W12
//  #02 //036   ----------------------------------------
 BYTE   Cn2  v044
 BYTE   W12
 BYTE   En2
 BYTE   W12
 BYTE   Gn2
 BYTE   W12
 BYTE   N32  Bn2
 BYTE   W36
 BYTE   N23  En3
 BYTE   W24
//  #02 //037   ----------------------------------------
 BYTE   W12
 BYTE   Cn2
 BYTE   W03
 BYTE   N20  Gn2
 BYTE   W03
 BYTE   N17  Ds3
 BYTE   W30
 BYTE   N11  Bn1
 BYTE   N11  Bn2
 BYTE   N11  Dn3
 BYTE   W12
 BYTE   Fs2
 BYTE   W12
 BYTE   An2
 BYTE   W12
 BYTE   Dn3
 BYTE   W12
//  #02 //038   ----------------------------------------
 BYTE   Fs3
 BYTE   W12
 BYTE   Fs2
 BYTE   W12
 BYTE   N44  Fs3
 BYTE   W48
 BYTE   N23  En3
 BYTE   W24
//  #02 //039   ----------------------------------------
 BYTE   N11  Ds3
 BYTE   W12
 BYTE   Ds2
 BYTE   W12
 BYTE   Gn2
 BYTE   W12
 BYTE   Cn3
 BYTE   W12
 BYTE   Ds3
 BYTE   W12
 BYTE   Gn3
 BYTE   W12
 BYTE   Fs3
 BYTE   W12
 BYTE   Fs2
 BYTE   W12
//  #02 //040   ----------------------------------------
 BYTE   Cn3
 BYTE   W12
 BYTE   Cn3  v048
 BYTE   W12
 BYTE   Ds3  v052
 BYTE   W12
 BYTE   Ds3  v060
 BYTE   W12
 BYTE   Gn2  v044
 BYTE   W12
 BYTE   Dn2
 BYTE   W12
 BYTE   Gn2
 BYTE   W12
 BYTE   N32  Bn2
 BYTE   W12
//  #02 //041   ----------------------------------------
 BYTE   W24
 BYTE   Fs3
 BYTE   W36
 BYTE   Bn2  v028
 BYTE   W36
//  #02 //042   ----------------------------------------
 BYTE   N11  Cn2  v044
 BYTE   W12
 BYTE   En2
 BYTE   W12
 BYTE   Gn2
 BYTE   W12
 BYTE   Bn2
 BYTE   W12
 BYTE   Gn2
 BYTE   W12
 BYTE   En2
 BYTE   W12
 BYTE   N32  En3  v028
 BYTE   W24
//  #02 //043   ----------------------------------------
 BYTE   W12
 BYTE   Bn2
 BYTE   W36
 BYTE   N11  Bn1  v060
 BYTE   W12
 BYTE   Fs2
 BYTE   W12
 BYTE   An2
 BYTE   W12
 BYTE   Dn3
 BYTE   W12
//  #02 //044   ----------------------------------------
 BYTE   N23  An2
 BYTE   W24
 BYTE   N11  Dn3  v044
 BYTE   N11  Fs3
 BYTE   W12
 BYTE   Gn3
 BYTE   W12
 BYTE   N44  Dn3
 BYTE   N44  Fs3
 BYTE   W48
//  #02 //045   ----------------------------------------
 BYTE   N11  An1  v060
 BYTE   W12
 BYTE   En2
 BYTE   W12
 BYTE   Gn2
 BYTE   W12
 BYTE   Cs3
 BYTE   W12
 BYTE   N23  En3
 BYTE   W24
 BYTE   N02  Cn3  v044
 BYTE   W02
 BYTE   N32  Cs3
 BYTE   N32  En3
 BYTE   W22
//  #02 //046   ----------------------------------------
 BYTE   W12
 BYTE   Gn3
 BYTE   W36
 BYTE   Gn3  v028
 BYTE   W36
 BYTE   Cn3
 BYTE   W12
//  #02 //047   ----------------------------------------
 BYTE   W24
 BYTE   N11  En3
 BYTE   W12
 BYTE   An2
 BYTE   W12
 BYTE   En2
 BYTE   W12
 BYTE   Cn3
 BYTE   W12
 BYTE   An2
 BYTE   W12
 BYTE   En2
 BYTE   W12
//  #02 //048   ----------------------------------------
 BYTE   W36
 BYTE   N32  Cn3
 BYTE   W36
 BYTE   En3
 BYTE   W24
//  #02 //049   ----------------------------------------
 BYTE   W12
 BYTE   Cn3
 BYTE   W36
 BYTE   N01  Fn2  v044
 BYTE   W01
 BYTE   Gn2
 BYTE   W02
 BYTE   N36  An2
 BYTE   W01
 BYTE   N32  Gn3
 BYTE   W44
//  #02 //050   ----------------------------------------
 BYTE   N44  Fn3
 BYTE   W24
 BYTE   W24
 BYTE   Cn3
 BYTE   W48
//  #02 //051   ----------------------------------------
 BYTE   W12
 BYTE   Dn3  v016
 BYTE   W84
//  #02 //052   ----------------------------------------
 BYTE   W96
//  #02 //053   ----------------------------------------
 BYTE   W96
//  #02 //054   ----------------------------------------
 BYTE   W06
 BYTE   N02  Cn3  v028
 BYTE   W02
 BYTE   N21  Ds3
 BYTE   W88
//  #02 //055   ----------------------------------------
 BYTE   W96
//  #02 //056   ----------------------------------------
 BYTE   W96
//  #02 //057   ----------------------------------------
 BYTE   W96
//  #02 //058   ----------------------------------------
 BYTE   W72
 BYTE   N44  As2  v044
 BYTE   W24
//  #02 //059   ----------------------------------------
 BYTE   W96
//  #02 //060   ----------------------------------------
 BYTE   N68  Dn4  v028
 BYTE   W96
//  #02 //061   ----------------------------------------
 BYTE   W96
//  #02 //062   ----------------------------------------
 BYTE   W96
//  #02 //063   ----------------------------------------
 BYTE   W72
 BYTE   W12
 BYTE   N11  Fs2  v044
 BYTE   W12
//  #02 //064   ----------------------------------------
 BYTE   An2
 BYTE   N11  Cs3
 BYTE   W12
 BYTE   Fs2
 BYTE   W12
 BYTE   An2
 BYTE   N11  Cs3
 BYTE   W12
 BYTE   Fs2
 BYTE   W12
 BYTE   W12
 BYTE   En2
 BYTE   W12
 BYTE   Gs2
 BYTE   N11  Cs3
 BYTE   W12
 BYTE   En2
 BYTE   W12
//  #02 //065   ----------------------------------------
 BYTE   Gs2
 BYTE   N11  Cs3
 BYTE   W12
 BYTE   En2
 BYTE   W12
 BYTE   W12
 BYTE   Dn2
 BYTE   W12
 BYTE   Fs2
 BYTE   N11  An2
 BYTE   N11  Dn3
 BYTE   W12
 BYTE   Dn2
 BYTE   W12
 BYTE   Fs2
 BYTE   N11  An2
 BYTE   N11  Dn3
 BYTE   W12
 BYTE   Dn2
 BYTE   W12
//  #02 //066   ----------------------------------------
 BYTE   W12
 BYTE   En2
 BYTE   W12
 BYTE   Gs2
 BYTE   N11  Cs3
 BYTE   W12
 BYTE   En2
 BYTE   W12
 BYTE   Gs2
 BYTE   N11  Cs3
 BYTE   W12
 BYTE   En2
 BYTE   W12
 BYTE   W12
 BYTE   Fs2
 BYTE   W12
//  #02 //067   ----------------------------------------
 BYTE   An2
 BYTE   N11  Cs3
 BYTE   W12
 BYTE   Fs2
 BYTE   W12
 BYTE   An2
 BYTE   N11  Cs3
 BYTE   W12
 BYTE   Fs2
 BYTE   W12
 BYTE   W12
 BYTE   En2
 BYTE   W12
 BYTE   Cs3
 BYTE   N11  En3
 BYTE   W12
 BYTE   En2
 BYTE   W12
//  #02 //068   ----------------------------------------
 BYTE   Cs3
 BYTE   N11  En3
 BYTE   W12
 BYTE   En2
 BYTE   W12
 BYTE   W12
 BYTE   N11
 BYTE   W12
 BYTE   An2
 BYTE   N11  Cs3
 BYTE   W12
 BYTE   En2
 BYTE   W12
 BYTE   An2  v060
 BYTE   N11  Cs3
 BYTE   W12
 BYTE   An2
 BYTE   N11  Dn3
 BYTE   W12
//  #02 //069   ----------------------------------------
 BYTE   An2
 BYTE   N11  Cs3
 BYTE   W12
 BYTE   En2  v044
 BYTE   W12
 BYTE   N11
 BYTE   N11  An2
 BYTE   W12
 BYTE   En2
 BYTE   W12
 BYTE   N11
 BYTE   N11  An2
 BYTE   W12
 BYTE   En2
 BYTE   W12
 BYTE   W12
 BYTE   Dn2  v060
 BYTE   W12
//  #02 //070   ----------------------------------------
 BYTE   An2
 BYTE   W12
 BYTE   Dn2
 BYTE   W12
 BYTE   Bn2
 BYTE   W12
 BYTE   Dn2
 BYTE   W12
 BYTE   W12
 BYTE   N11
 BYTE   W12
 BYTE   An2
 BYTE   W12
 BYTE   Dn2
 BYTE   W12
//  #02 //071   ----------------------------------------
 BYTE   Bn2
 BYTE   W12
 BYTE   Dn2
 BYTE   W12
 BYTE   W12
 BYTE   Fs2
 BYTE   W12
 BYTE   An2
 BYTE   W12
 BYTE   Fs2
 BYTE   W12
 BYTE   Cs3
 BYTE   W12
 BYTE   Fs2
 BYTE   W12
//  #02 //072   ----------------------------------------
 BYTE   W12
 BYTE   N11
 BYTE   W12
 BYTE   An2
 BYTE   W12
 BYTE   Fs2
 BYTE   W12
 BYTE   Cs3
 BYTE   W12
 BYTE   Fs2
 BYTE   W12
 BYTE   W12
 BYTE   En2
 BYTE   W12
//  #02 //073   ----------------------------------------
 BYTE   Gs2
 BYTE   W12
 BYTE   En2
 BYTE   W12
 BYTE   Bn2
 BYTE   W12
 BYTE   En2
 BYTE   W12
 BYTE   W12
 BYTE   N11
 BYTE   W12
 BYTE   Gs2
 BYTE   W12
 BYTE   En2
 BYTE   W12
//  #02 //074   ----------------------------------------
 BYTE   Bn2
 BYTE   W12
 BYTE   En2
 BYTE   W12
 BYTE   W12
 BYTE   An2
 BYTE   W12
 BYTE   Dn3
 BYTE   W12
 BYTE   An2
 BYTE   W12
 BYTE   En3
 BYTE   W12
 BYTE   An2
 BYTE   W12
//  #02 //075   ----------------------------------------
 BYTE   N05  En3
 BYTE   W06
 BYTE   N11  Fs3
 BYTE   W06
 BYTE   An2
 BYTE   W12
 BYTE   Dn3
 BYTE   W12
 BYTE   An2
 BYTE   W12
 BYTE   Dn2
 BYTE   W12
 BYTE   Cs2
 BYTE   W12
 BYTE   Bn1
 BYTE   W12
 BYTE   Fs2
 BYTE   W12
//  #02 //076   ----------------------------------------
 BYTE   Bn2
 BYTE   W12
 BYTE   Fs2
 BYTE   W12
 BYTE   Ds3
 BYTE   W12
 BYTE   Bn2
 BYTE   W12
 BYTE   Bn1
 BYTE   W12
 BYTE   Fs2
 BYTE   W12
 BYTE   Bn2
 BYTE   W12
 BYTE   Ds3
 BYTE   W12
//  #02 //077   ----------------------------------------
 BYTE   Bn1
 BYTE   W12
 BYTE   An1
 BYTE   W12
 BYTE   W12
 BYTE   Dn2
 BYTE   W12
 BYTE   Gn2
 BYTE   W12
 BYTE   Bn2
 BYTE   W12
 BYTE   Gn2
 BYTE   W12
 BYTE   Dn2
 BYTE   W12
//  #02 //078   ----------------------------------------
 BYTE   Fs3
 BYTE   W12
 BYTE   Gn2
 BYTE   W12
 BYTE   Dn2
 BYTE   W12
 BYTE   Bn2
 BYTE   W12
 BYTE   Gn2
 BYTE   W12
 BYTE   Dn2
 BYTE   W12
 BYTE   An3  v080
 BYTE   W12
 BYTE   Gn2  v060
 BYTE   W12
//  #02 //079   ----------------------------------------
 BYTE   Bn2
 BYTE   W12
 BYTE   Dn3  v080
 BYTE   W12
 BYTE   Gn3
 BYTE   W12
 BYTE   Bn2  v060
 BYTE   W12
 BYTE   Gn2
 BYTE   W12
 BYTE   Bn2
 BYTE   W12
 BYTE   Dn3  v080
 BYTE   W12
 BYTE   Bn2  v060
 BYTE   W12
//  #02 //080   ----------------------------------------
 BYTE   Gn2
 BYTE   W12
 BYTE   Bn2
 BYTE   W12
 BYTE   Cn2  v044
 BYTE   W12
 BYTE   En2
 BYTE   W12
 BYTE   Gn2
 BYTE   W12
 BYTE   N32  Bn2
 BYTE   W36
//  #02 //081   ----------------------------------------
 BYTE   N23  En3
 BYTE   W36
 BYTE   Cn2
 BYTE   W03
 BYTE   N20  Gn2
 BYTE   W03
 BYTE   N17  Ds3
 BYTE   W30
 BYTE   N11  Bn1
 BYTE   N11  Bn2
 BYTE   N11  Dn3
 BYTE   W12
 BYTE   Fs2
 BYTE   W12
//  #02 //082   ----------------------------------------
 BYTE   An2
 BYTE   W12
 BYTE   Dn3
 BYTE   W12
 BYTE   Fs3
 BYTE   W12
 BYTE   Fs2
 BYTE   W12
 BYTE   N44  Fs3
 BYTE   W48
//  #02 //083   ----------------------------------------
 BYTE   N23  En3
 BYTE   W24
 BYTE   N11  Ds3
 BYTE   W12
 BYTE   Ds2
 BYTE   W12
 BYTE   Gn2
 BYTE   W12
 BYTE   Cn3
 BYTE   W12
 BYTE   Ds3
 BYTE   W12
 BYTE   Gn3
 BYTE   W12
//  #02 //084   ----------------------------------------
 BYTE   Fs3
 BYTE   W12
 BYTE   Fs2
 BYTE   W12
 BYTE   Cn3
 BYTE   W12
 BYTE   Cn3  v048
 BYTE   W12
 BYTE   Ds3  v052
 BYTE   W12
 BYTE   Ds3  v060
 BYTE   W12
 BYTE   Gn2  v044
 BYTE   W12
 BYTE   Dn2
 BYTE   W12
//  #02 //085   ----------------------------------------
 BYTE   Gn2
 BYTE   W12
 BYTE   N32  Bn2
 BYTE   W36
 BYTE   Fs3
 BYTE   W36
 BYTE   Bn2  v028
 BYTE   W12
//  #02 //086   ----------------------------------------
 BYTE   W24
 BYTE   N11  Cn2  v044
 BYTE   W12
 BYTE   En2
 BYTE   W12
 BYTE   Gn2
 BYTE   W12
 BYTE   Bn2
 BYTE   W12
 BYTE   Gn2
 BYTE   W12
 BYTE   En2
 BYTE   W12
//  #02 //087   ----------------------------------------
 BYTE   N32  En3  v028
 BYTE   W36
 BYTE   Bn2
 BYTE   W36
 BYTE   N11  Bn1  v060
 BYTE   W12
 BYTE   Fs2
 BYTE   W12
//  #02 //088   ----------------------------------------
 BYTE   An2
 BYTE   W12
 BYTE   Dn3
 BYTE   W12
 BYTE   N23  An2
 BYTE   W24
 BYTE   N11  Dn3  v044
 BYTE   N11  Fs3
 BYTE   W12
 BYTE   Gn3
 BYTE   W12
 BYTE   N44  Dn3
 BYTE   N44  Fs3
 BYTE   W24
//  #02 //089   ----------------------------------------
 BYTE   W24
 BYTE   N11  An1  v060
 BYTE   W12
 BYTE   En2
 BYTE   W12
 BYTE   Gn2
 BYTE   W12
 BYTE   Cs3
 BYTE   W12
 BYTE   N23  En3
 BYTE   W24
//  #02 //090   ----------------------------------------
 BYTE   N02  Cn3  v044
 BYTE   W02
 BYTE   N32  Cs3
 BYTE   N32  En3
 BYTE   W32
 BYTE   W02
 BYTE   Gn3
 BYTE   W36
 BYTE   Gn3  v028
 BYTE   W24
//  #02 //091   ----------------------------------------
 BYTE   W12
 BYTE   Cn3
 BYTE   W36
 BYTE   N11  En3
 BYTE   W12
 BYTE   An2
 BYTE   W12
 BYTE   En2
 BYTE   W12
 BYTE   Cn3
 BYTE   W12
//  #02 //092   ----------------------------------------
 BYTE   An2
 BYTE   W12
 BYTE   En2
 BYTE   W12
 BYTE   W36
 BYTE   N32  Cn3
 BYTE   W36
//  #02 //093   ----------------------------------------
 BYTE   En3
 BYTE   W36
 BYTE   Cn3
 BYTE   W36
 BYTE   N01  Fn2  v044
 BYTE   W01
 BYTE   Gn2
 BYTE   W02
 BYTE   N36  An2
 BYTE   W01
 BYTE   N32  Gn3
 BYTE   W20
//  #02 //094   ----------------------------------------
 BYTE   W24
 BYTE   N44  Fn3
 BYTE   W24
 BYTE   W24
 BYTE   Cn3
 BYTE   W24
//  #02 //095   ----------------------------------------
 BYTE   W24
 BYTE   GoTo
  POIN2 Label_01004E3F
 BYTE   FINE

//**************** Track 3 (Midi-Chn.2) ****************//

LoZTotKRitoVillageNight_003:
//  #03 //000   ----------------------------------------
 BYTE   KEYSH   LoZTotKRitoVillageNight_key+0
 BYTE   VOICE   0
 BYTE   MODT 0
 BYTE   LFOS 44
 BYTE   VOL   53*LoZTotKRitoVillageNight_mvl/mxv
 BYTE   PAN   c_v+0
 BYTE   W96
//  #03 //001   ----------------------------------------
 BYTE   W96
//  #03 //002   ----------------------------------------
 BYTE   W96
//  #03 //003   ----------------------------------------
 BYTE   W96
//  #03 //004   ----------------------------------------
 BYTE   W96
//  #03 //005   ----------------------------------------
 BYTE   W96
//  #03 //006   ----------------------------------------
 BYTE   W48
Label_5451E3:
 BYTE   W48
//  #03 //007   ----------------------------------------
 BYTE   W96
//  #03 //008   ----------------------------------------
 BYTE   W96
//  #03 //009   ----------------------------------------
 BYTE   W96
//  #03 //010   ----------------------------------------
 BYTE   W96
//  #03 //011   ----------------------------------------
 BYTE   W96
//  #03 //012   ----------------------------------------
 BYTE   W96
//  #03 //013   ----------------------------------------
 BYTE   W96
//  #03 //014   ----------------------------------------
 BYTE   W96
//  #03 //015   ----------------------------------------
 BYTE   W96
//  #03 //016   ----------------------------------------
 BYTE   W96
//  #03 //017   ----------------------------------------
 BYTE   W96
//  #03 //018   ----------------------------------------
 BYTE   W96
//  #03 //019   ----------------------------------------
 BYTE   W96
//  #03 //020   ----------------------------------------
 BYTE   W96
//  #03 //021   ----------------------------------------
 BYTE   W96
//  #03 //022   ----------------------------------------
 BYTE   W96
//  #03 //023   ----------------------------------------
 BYTE   W96
//  #03 //024   ----------------------------------------
 BYTE   W96
//  #03 //025   ----------------------------------------
 BYTE   W96
//  #03 //026   ----------------------------------------
 BYTE   W96
//  #03 //027   ----------------------------------------
 BYTE   W96
//  #03 //028   ----------------------------------------
 BYTE   W96
//  #03 //029   ----------------------------------------
 BYTE   W96
//  #03 //030   ----------------------------------------
 BYTE   W96
//  #03 //031   ----------------------------------------
 BYTE   W96
//  #03 //032   ----------------------------------------
 BYTE   N23  Bn2  v028
 BYTE   W60
 BYTE   N11
 BYTE   W36
//  #03 //033   ----------------------------------------
 BYTE   W72
 BYTE   Dn3
 BYTE   W24
//  #03 //034   ----------------------------------------
 BYTE   W12
 BYTE   Gn2
 BYTE   W84
//  #03 //035   ----------------------------------------
 BYTE   W96
//  #03 //036   ----------------------------------------
 BYTE   W96
//  #03 //037   ----------------------------------------
 BYTE   W84
 BYTE   An2
 BYTE   W12
//  #03 //038   ----------------------------------------
 BYTE   W96
//  #03 //039   ----------------------------------------
 BYTE   W96
//  #03 //040   ----------------------------------------
 BYTE   W96
//  #03 //041   ----------------------------------------
 BYTE   W24
 BYTE   N32  Bn2
 BYTE   W36
 BYTE   N11  Fs2
 BYTE   W12
 BYTE   Dn2
 BYTE   W12
 BYTE   Bn1
 BYTE   W12
//  #03 //042   ----------------------------------------
 BYTE   W36
 BYTE   En3
 BYTE   W60
//  #03 //043   ----------------------------------------
 BYTE   W96
//  #03 //044   ----------------------------------------
 BYTE   W96
//  #03 //045   ----------------------------------------
 BYTE   W96
//  #03 //046   ----------------------------------------
 BYTE   W96
//  #03 //047   ----------------------------------------
 BYTE   W96
//  #03 //048   ----------------------------------------
 BYTE   W96
//  #03 //049   ----------------------------------------
 BYTE   W96
//  #03 //050   ----------------------------------------
 BYTE   W96
//  #03 //051   ----------------------------------------
 BYTE   W96
//  #03 //052   ----------------------------------------
 BYTE   W96
//  #03 //053   ----------------------------------------
 BYTE   W96
//  #03 //054   ----------------------------------------
 BYTE   W96
//  #03 //055   ----------------------------------------
 BYTE   W96
//  #03 //056   ----------------------------------------
 BYTE   W96
//  #03 //057   ----------------------------------------
 BYTE   W96
//  #03 //058   ----------------------------------------
 BYTE   W96
//  #03 //059   ----------------------------------------
 BYTE   W96
//  #03 //060   ----------------------------------------
 BYTE   W96
//  #03 //061   ----------------------------------------
 BYTE   W96
//  #03 //062   ----------------------------------------
 BYTE   W96
//  #03 //063   ----------------------------------------
 BYTE   W96
//  #03 //064   ----------------------------------------
 BYTE   W96
//  #03 //065   ----------------------------------------
 BYTE   W96
//  #03 //066   ----------------------------------------
 BYTE   W96
//  #03 //067   ----------------------------------------
 BYTE   W96
//  #03 //068   ----------------------------------------
 BYTE   W96
//  #03 //069   ----------------------------------------
 BYTE   W96
//  #03 //070   ----------------------------------------
 BYTE   W96
//  #03 //071   ----------------------------------------
 BYTE   W96
//  #03 //072   ----------------------------------------
 BYTE   W96
//  #03 //073   ----------------------------------------
 BYTE   W96
//  #03 //074   ----------------------------------------
 BYTE   W96
//  #03 //075   ----------------------------------------
 BYTE   W96
//  #03 //076   ----------------------------------------
 BYTE   W24
 BYTE   N23  Bn2
 BYTE   W60
 BYTE   N11
 BYTE   W12
//  #03 //077   ----------------------------------------
 BYTE   W96
//  #03 //078   ----------------------------------------
 BYTE   Dn3
 BYTE   W36
 BYTE   Gn2
 BYTE   W60
//  #03 //079   ----------------------------------------
 BYTE   W96
//  #03 //080   ----------------------------------------
 BYTE   W96
//  #03 //081   ----------------------------------------
 BYTE   W96
//  #03 //082   ----------------------------------------
 BYTE   W12
 BYTE   An2
 BYTE   W84
//  #03 //083   ----------------------------------------
 BYTE   W96
//  #03 //084   ----------------------------------------
 BYTE   W96
//  #03 //085   ----------------------------------------
 BYTE   W48
 BYTE   N32  Bn2
 BYTE   W36
 BYTE   N11  Fs2
 BYTE   W12
//  #03 //086   ----------------------------------------
 BYTE   Dn2
 BYTE   W12
 BYTE   Bn1
 BYTE   W12
 BYTE   W36
 BYTE   En3
 BYTE   W36
//  #03 //087   ----------------------------------------
 BYTE   W96
//  #03 //088   ----------------------------------------
 BYTE   W96
//  #03 //089   ----------------------------------------
 BYTE   W96
//  #03 //090   ----------------------------------------
 BYTE   W96
//  #03 //091   ----------------------------------------
 BYTE   W96
//  #03 //092   ----------------------------------------
 BYTE   W96
//  #03 //093   ----------------------------------------
 BYTE   W96
//  #03 //094   ----------------------------------------
 BYTE   W96
//  #03 //095   ----------------------------------------
 BYTE   W24
 BYTE   GoTo
  POIN2 Label_5451E3
 BYTE   FINE

//**************** Track 4 (Midi-Chn.3) ****************//

LoZTotKRitoVillageNight_004:
//  #04 //000   ----------------------------------------
 BYTE   KEYSH   LoZTotKRitoVillageNight_key+0
 BYTE   VOICE   32
 BYTE   MODT 0
 BYTE   LFOS 44
 BYTE   VOL   40*LoZTotKRitoVillageNight_mvl/mxv
 BYTE   PAN   c_v+0
 BYTE   W96
//  #04 //001   ----------------------------------------
 BYTE   W96
//  #04 //002   ----------------------------------------
 BYTE   W96
//  #04 //003   ----------------------------------------
 BYTE   W96
//  #04 //004   ----------------------------------------
 BYTE   W96
//  #04 //005   ----------------------------------------
 BYTE   W96
//  #04 //006   ----------------------------------------
 BYTE   W48
Label_01004B77:
 BYTE   W24
 BYTE   N02  As1  v060
 BYTE   W02
 BYTE   Dn2
 BYTE   W02
 BYTE   N66  Fn2
 BYTE   W20
//  #04 //007   ----------------------------------------
 BYTE   W96
//  #04 //008   ----------------------------------------
 BYTE   W24
 BYTE   N64  An1
 BYTE   W06
 BYTE   N56  En2
 BYTE   W06
 BYTE   N52  An2
 BYTE   W06
 BYTE   N44  Cn3
 BYTE   W54
//  #04 //009   ----------------------------------------
 BYTE   W72
 BYTE   N02  Gn1
 BYTE   W02
 BYTE   N68  As1
 BYTE   W22
//  #04 //010   ----------------------------------------
 BYTE   W96
//  #04 //011   ----------------------------------------
 BYTE   W24
 BYTE   N17  Fs1
 BYTE   W18
 BYTE   N52  Dn2
 BYTE   W09
 BYTE   N08  An2
 BYTE   W09
 BYTE   N32  Dn3
 BYTE   W36
//  #04 //012   ----------------------------------------
 BYTE   W96
//  #04 //013   ----------------------------------------
 BYTE   W96
//  #04 //014   ----------------------------------------
 BYTE   W24
 BYTE   N68  Ds1
 BYTE   W72
//  #04 //015   ----------------------------------------
 BYTE   N23  Dn1
 BYTE   N23  Dn2
 BYTE   W24
 BYTE   N44  Fn1
 BYTE   N44  Fn2
 BYTE   W72
//  #04 //016   ----------------------------------------
 BYTE   W96
//  #04 //017   ----------------------------------------
 BYTE   W96
//  #04 //018   ----------------------------------------
 BYTE   N23  Cs2
 BYTE   W24
 BYTE   N44  Fs2
 BYTE   W48
 BYTE   N23  Fn2
 BYTE   W24
//  #04 //019   ----------------------------------------
Label_01004BBF:
 BYTE   W48
 BYTE   N68  Fs1  v080
 BYTE   W48
 BYTE   PEND 
//  #04 //020   ----------------------------------------
Label_01004BC5:
 BYTE   W24
 BYTE   N68  Fs1  v080
 BYTE   W72
 BYTE   PEND 
//  #04 //021   ----------------------------------------
Label_01004BCB:
 BYTE   N68  Fs1  v080
 BYTE   W72
 BYTE   N68
 BYTE   W24
 BYTE   PEND 
//  #04 //022   ----------------------------------------
 BYTE   PATT
  POIN2 Label_01004BBF
//  #04 //023   ----------------------------------------
 BYTE   W24
 BYTE   N68  Gs1  v080
 BYTE   W72
//  #04 //024   ----------------------------------------
 BYTE   An1
 BYTE   W72
 BYTE   N32
 BYTE   W24
//  #04 //025   ----------------------------------------
 BYTE   W12
 BYTE   N23
 BYTE   W24
 BYTE   N11
 BYTE   W12
 BYTE   N68  Gn1
 BYTE   W48
//  #04 //026   ----------------------------------------
Label_01004BE8:
 BYTE   W24
 BYTE   N68  Gn1  v080
 BYTE   W72
 BYTE   PEND 
//  #04 //027   ----------------------------------------
 BYTE   PATT
  POIN2 Label_01004BCB
//  #04 //028   ----------------------------------------
Label_01004BF3:
 BYTE   W48
 BYTE   N68  En1  v080
 BYTE   W48
 BYTE   PEND 
//  #04 //029   ----------------------------------------
 BYTE   W24
 BYTE   N68
 BYTE   W72
//  #04 //030   ----------------------------------------
 BYTE   Dn1
 BYTE   W72
 BYTE   N44
 BYTE   W24
//  #04 //031   ----------------------------------------
 BYTE   W24
 BYTE   N11
 BYTE   W12
 BYTE   Cs1
 BYTE   W12
 BYTE   N68  Bn0
 BYTE   W48
//  #04 //032   ----------------------------------------
 BYTE   W24
 BYTE   N44
 BYTE   W48
 BYTE   N11  Bn1
 BYTE   W12
 BYTE   An1
 BYTE   W12
//  #04 //033   ----------------------------------------
 BYTE   N68  Gn1
 BYTE   W72
 BYTE   N68
 BYTE   W24
//  #04 //034   ----------------------------------------
Label_01004C15:
 BYTE   W48
 BYTE   N68  Gn2  v080
 BYTE   W48
 BYTE   PEND 
//  #04 //035   ----------------------------------------
 BYTE   W24
 BYTE   N68
 BYTE   W72
//  #04 //036   ----------------------------------------
 BYTE   Cn2
 BYTE   W72
 BYTE   N68
 BYTE   W24
//  #04 //037   ----------------------------------------
Label_01004C22:
 BYTE   W48
 BYTE   N68  Bn1  v080
 BYTE   W48
 BYTE   PEND 
//  #04 //038   ----------------------------------------
Label_01004C28:
 BYTE   W24
 BYTE   N68  Bn1  v080
 BYTE   W72
 BYTE   PEND 
//  #04 //039   ----------------------------------------
 BYTE   An1
 BYTE   W72
 BYTE   Dn2
 BYTE   W24
//  #04 //040   ----------------------------------------
Label_01004C32:
 BYTE   W48
 BYTE   N68  Gn1  v080
 BYTE   W48
 BYTE   PEND 
//  #04 //041   ----------------------------------------
 BYTE   PATT
  POIN2 Label_01004BE8
//  #04 //042   ----------------------------------------
 BYTE   TIE  Cn2  v080
 BYTE   W96
//  #04 //043   ----------------------------------------
 BYTE   W44
 BYTE   W03
 BYTE   EOT
 BYTE   W01
 BYTE   N68  Bn1
 BYTE   W48
//  #04 //044   ----------------------------------------
 BYTE   PATT
  POIN2 Label_01004C28
//  #04 //045   ----------------------------------------
 BYTE   N68  An1  v080
 BYTE   W72
 BYTE   N68
 BYTE   W24
//  #04 //046   ----------------------------------------
 BYTE   W48
 BYTE   Fn1
 BYTE   W48
//  #04 //047   ----------------------------------------
 BYTE   W24
 BYTE   N11  En3  v028
 BYTE   W12
 BYTE   An2
 BYTE   W12
 BYTE   En2
 BYTE   W12
 BYTE   Cn3
 BYTE   W12
 BYTE   An2
 BYTE   W12
 BYTE   En2
 BYTE   W12
//  #04 //048   ----------------------------------------
 BYTE   Fn1
 BYTE   W12
 BYTE   Cn2
 BYTE   W12
 BYTE   An2
 BYTE   W24
 BYTE   N11
 BYTE   W12
 BYTE   Fn2
 BYTE   W12
 BYTE   En3
 BYTE   W12
 BYTE   An2
 BYTE   W12
//  #04 //049   ----------------------------------------
 BYTE   En2
 BYTE   W12
 BYTE   Cn3
 BYTE   W12
 BYTE   An2
 BYTE   W12
 BYTE   En2
 BYTE   W12
 BYTE   W48
//  #04 //050   ----------------------------------------
 BYTE   W96
//  #04 //051   ----------------------------------------
 BYTE   N02  As1  v060
 BYTE   W02
 BYTE   Dn2
 BYTE   W02
 BYTE   N66  Fn2
 BYTE   W92
//  #04 //052   ----------------------------------------
 BYTE   W48
 BYTE   N64  An1
 BYTE   W06
 BYTE   N56  En2
 BYTE   W06
 BYTE   N52  An2
 BYTE   W06
 BYTE   N44  Cn3
 BYTE   W30
//  #04 //053   ----------------------------------------
 BYTE   W24
 BYTE   W72
//  #04 //054   ----------------------------------------
 BYTE   N02  Gn1
 BYTE   W02
 BYTE   N68  As1
 BYTE   W92
 BYTE   W02
//  #04 //055   ----------------------------------------
 BYTE   W48
 BYTE   N17  Fs1
 BYTE   W18
 BYTE   N52  Dn2
 BYTE   W09
 BYTE   N08  An2
 BYTE   W09
 BYTE   N32  Dn3
 BYTE   W12
//  #04 //056   ----------------------------------------
 BYTE   W24
 BYTE   W72
//  #04 //057   ----------------------------------------
 BYTE   W96
//  #04 //058   ----------------------------------------
 BYTE   W48
 BYTE   N68  Ds1
 BYTE   W48
//  #04 //059   ----------------------------------------
 BYTE   W24
 BYTE   N23  Dn1
 BYTE   N23  Dn2
 BYTE   W24
 BYTE   N44  Fn1
 BYTE   N44  Fn2
 BYTE   W48
//  #04 //060   ----------------------------------------
 BYTE   W96
//  #04 //061   ----------------------------------------
 BYTE   W96
//  #04 //062   ----------------------------------------
 BYTE   W24
 BYTE   N23  Cs2
 BYTE   W24
 BYTE   N44  Fs2
 BYTE   W48
//  #04 //063   ----------------------------------------
 BYTE   N23  Fn2
 BYTE   W72
 BYTE   N68  Fs1  v080
 BYTE   W24
//  #04 //064   ----------------------------------------
 BYTE   PATT
  POIN2 Label_01004BBF
//  #04 //065   ----------------------------------------
 BYTE   PATT
  POIN2 Label_01004BC5
//  #04 //066   ----------------------------------------
 BYTE   PATT
  POIN2 Label_01004BCB
//  #04 //067   ----------------------------------------
 BYTE   W48
 BYTE   N68  Gs1  v080
 BYTE   W48
//  #04 //068   ----------------------------------------
Label_01004CDF:
 BYTE   W24
 BYTE   N68  An1  v080
 BYTE   W72
 BYTE   PEND 
//  #04 //069   ----------------------------------------
 BYTE   N32
 BYTE   W36
 BYTE   N23
 BYTE   W24
 BYTE   N11
 BYTE   W12
 BYTE   N68  Gn1
 BYTE   W24
//  #04 //070   ----------------------------------------
 BYTE   PATT
  POIN2 Label_01004C32
//  #04 //071   ----------------------------------------
 BYTE   PATT
  POIN2 Label_01004BC5
//  #04 //072   ----------------------------------------
 BYTE   N68  Fs1  v080
 BYTE   W72
 BYTE   En1
 BYTE   W24
//  #04 //073   ----------------------------------------
 BYTE   PATT
  POIN2 Label_01004BF3
//  #04 //074   ----------------------------------------
 BYTE   W24
 BYTE   N68  Dn1  v080
 BYTE   W72
//  #04 //075   ----------------------------------------
 BYTE   N44
 BYTE   W48
 BYTE   N11
 BYTE   W12
 BYTE   Cs1
 BYTE   W12
 BYTE   N68  Bn0
 BYTE   W24
//  #04 //076   ----------------------------------------
 BYTE   W48
 BYTE   N44
 BYTE   W48
//  #04 //077   ----------------------------------------
 BYTE   N11  Bn1
 BYTE   W12
 BYTE   An1
 BYTE   W12
 BYTE   N68  Gn1
 BYTE   W72
//  #04 //078   ----------------------------------------
 BYTE   N68
 BYTE   W72
 BYTE   Gn2
 BYTE   W24
//  #04 //079   ----------------------------------------
 BYTE   PATT
  POIN2 Label_01004C15
//  #04 //080   ----------------------------------------
 BYTE   W24
 BYTE   N68  Cn2  v080
 BYTE   W72
//  #04 //081   ----------------------------------------
 BYTE   N68
 BYTE   W72
 BYTE   Bn1
 BYTE   W24
//  #04 //082   ----------------------------------------
 BYTE   PATT
  POIN2 Label_01004C22
//  #04 //083   ----------------------------------------
 BYTE   PATT
  POIN2 Label_01004CDF
//  #04 //084   ----------------------------------------
 BYTE   N68  Dn2  v080
 BYTE   W72
 BYTE   Gn1
 BYTE   W24
//  #04 //085   ----------------------------------------
 BYTE   PATT
  POIN2 Label_01004C32
//  #04 //086   ----------------------------------------
 BYTE   W24
 BYTE   TIE  Cn2  v080
 BYTE   W72
//  #04 //087   ----------------------------------------
 BYTE   W68
 BYTE   W03
 BYTE   EOT
 BYTE   W01
 BYTE   N68  Bn1
 BYTE   W24
//  #04 //088   ----------------------------------------
 BYTE   PATT
  POIN2 Label_01004C22
//  #04 //089   ----------------------------------------
 BYTE   PATT
  POIN2 Label_01004CDF
//  #04 //090   ----------------------------------------
 BYTE   N68  An1  v080
 BYTE   W72
 BYTE   Fn1
 BYTE   W24
//  #04 //091   ----------------------------------------
 BYTE   W48
 BYTE   N11  En3  v028
 BYTE   W12
 BYTE   An2
 BYTE   W12
 BYTE   En2
 BYTE   W12
 BYTE   Cn3
 BYTE   W12
//  #04 //092   ----------------------------------------
 BYTE   An2
 BYTE   W12
 BYTE   En2
 BYTE   W12
 BYTE   Fn1
 BYTE   W12
 BYTE   Cn2
 BYTE   W12
 BYTE   An2
 BYTE   W24
 BYTE   N11
 BYTE   W12
 BYTE   Fn2
 BYTE   W12
//  #04 //093   ----------------------------------------
 BYTE   En3
 BYTE   W12
 BYTE   An2
 BYTE   W12
 BYTE   En2
 BYTE   W12
 BYTE   Cn3
 BYTE   W12
 BYTE   An2
 BYTE   W12
 BYTE   En2
 BYTE   W12
 BYTE   W24
//  #04 //094   ----------------------------------------
 BYTE   W96
//  #04 //095   ----------------------------------------
 BYTE   W24
 BYTE   GoTo
  POIN2 Label_01004B77
 BYTE   FINE

//**************** Track 5 (Midi-Chn.4) ****************//

LoZTotKRitoVillageNight_005:
//  #05 //000   ----------------------------------------
 BYTE   KEYSH   LoZTotKRitoVillageNight_key+0
 BYTE   VOICE   71
 BYTE   MODT 0
 BYTE   LFOS 44
 BYTE   VOL   45*LoZTotKRitoVillageNight_mvl/mxv
 BYTE   PAN   c_v+0
 BYTE   W96
//  #05 //001   ----------------------------------------
 BYTE   W96
//  #05 //002   ----------------------------------------
 BYTE   W96
//  #05 //003   ----------------------------------------
 BYTE   W96
//  #05 //004   ----------------------------------------
 BYTE   W96
//  #05 //005   ----------------------------------------
 BYTE   W96
//  #05 //006   ----------------------------------------
 BYTE   W48
Label_01005823:
 BYTE   W24
 BYTE   N23  An3  v060
 BYTE   W24
//  #05 //007   ----------------------------------------
 BYTE   Gn3
 BYTE   W24
 BYTE   Dn4
 BYTE   W24
 BYTE   N68  An3
 BYTE   W48
//  #05 //008   ----------------------------------------
 BYTE   W24
 BYTE   N23  Gn3
 BYTE   W24
 BYTE   Fn3
 BYTE   W24
 BYTE   Cn4
 BYTE   W24
//  #05 //009   ----------------------------------------
 BYTE   N68  Gn3
 BYTE   W72
 BYTE   N23  Fn3
 BYTE   W24
//  #05 //010   ----------------------------------------
 BYTE   Ds3
 BYTE   W24
 BYTE   As3
 BYTE   W24
 BYTE   N44  Fn4
 BYTE   W48
//  #05 //011   ----------------------------------------
 BYTE   N23  Gn4
 BYTE   W24
 BYTE   N68  Dn4
 BYTE   W72
//  #05 //012   ----------------------------------------
 BYTE   An3  v044
 BYTE   W96
//  #05 //013   ----------------------------------------
 BYTE   W96
//  #05 //014   ----------------------------------------
 BYTE   W96
//  #05 //015   ----------------------------------------
 BYTE   W96
//  #05 //016   ----------------------------------------
 BYTE   W96
//  #05 //017   ----------------------------------------
 BYTE   W96
//  #05 //018   ----------------------------------------
 BYTE   W96
//  #05 //019   ----------------------------------------
 BYTE   W96
//  #05 //020   ----------------------------------------
 BYTE   W96
//  #05 //021   ----------------------------------------
 BYTE   W96
//  #05 //022   ----------------------------------------
 BYTE   W96
//  #05 //023   ----------------------------------------
 BYTE   W96
//  #05 //024   ----------------------------------------
 BYTE   W96
//  #05 //025   ----------------------------------------
 BYTE   W96
//  #05 //026   ----------------------------------------
 BYTE   W96
//  #05 //027   ----------------------------------------
 BYTE   W96
//  #05 //028   ----------------------------------------
 BYTE   W96
//  #05 //029   ----------------------------------------
 BYTE   W96
//  #05 //030   ----------------------------------------
 BYTE   W96
//  #05 //031   ----------------------------------------
 BYTE   W96
//  #05 //032   ----------------------------------------
 BYTE   W96
//  #05 //033   ----------------------------------------
 BYTE   W96
//  #05 //034   ----------------------------------------
 BYTE   W96
//  #05 //035   ----------------------------------------
 BYTE   W72
 BYTE   N23  Bn3  v080
 BYTE   W24
//  #05 //036   ----------------------------------------
Label_01005868:
 BYTE   N32  En4  v080
 BYTE   W36
 BYTE   Dn4
 BYTE   W36
 BYTE   Bn3
 BYTE   W24
 BYTE   PEND 
//  #05 //037   ----------------------------------------
 BYTE   W12
 BYTE   Gn3
 BYTE   W36
 BYTE   TIE  An3
 BYTE   W48
//  #05 //038   ----------------------------------------
 BYTE   W56
 BYTE   W03
 BYTE   EOT
 BYTE   W01
 BYTE   N11  Bn3
 BYTE   W12
 BYTE   En3
 BYTE   W12
 BYTE   Gn3
 BYTE   W12
//  #05 //039   ----------------------------------------
 BYTE   TIE  An3
 BYTE   W96
//  #05 //040   ----------------------------------------
 BYTE   W11
 BYTE   EOT
 BYTE   W01
 BYTE   N11  Bn3
 BYTE   W12
 BYTE   Ds3
 BYTE   W12
 BYTE   Gn3
 BYTE   W12
 BYTE   N32  An3
 BYTE   W36
 BYTE   N11  Gn3
 BYTE   W12
//  #05 //041   ----------------------------------------
 BYTE   N68  An3
 BYTE   W84
 BYTE   N11  Bn3
 BYTE   W12
//  #05 //042   ----------------------------------------
 BYTE   PATT
  POIN2 Label_01005868
//  #05 //043   ----------------------------------------
 BYTE   W12
 BYTE   N32  Gn3  v080
 BYTE   W36
 BYTE   An3
 BYTE   W36
 BYTE   N11  Gn3
 BYTE   W12
//  #05 //044   ----------------------------------------
 BYTE   N56  An3
 BYTE   W60
 BYTE   N11  Bn3
 BYTE   W12
 BYTE   En3
 BYTE   W12
 BYTE   Gn3
 BYTE   W12
//  #05 //045   ----------------------------------------
 BYTE   N32  An3
 BYTE   W36
 BYTE   N11  Gn3
 BYTE   W12
 BYTE   N56  An3
 BYTE   W48
//  #05 //046   ----------------------------------------
 BYTE   W12
 BYTE   N11  Bn3
 BYTE   W12
 BYTE   En3
 BYTE   W12
 BYTE   Gn3
 BYTE   W12
 BYTE   N32  An3
 BYTE   W36
 BYTE   N11  Gn3
 BYTE   W12
//  #05 //047   ----------------------------------------
 BYTE   N92  An3
 BYTE   W96
//  #05 //048   ----------------------------------------
 BYTE   TIE  An3  v044
 BYTE   W96
//  #05 //049   ----------------------------------------
 BYTE   W44
 BYTE   W03
 BYTE   EOT
 BYTE   W48
 BYTE   W01
//  #05 //050   ----------------------------------------
 BYTE   W96
//  #05 //051   ----------------------------------------
 BYTE   N23  An3  v060
 BYTE   W24
 BYTE   Gn3
 BYTE   W24
 BYTE   Dn4
 BYTE   W24
 BYTE   N68  An3
 BYTE   W24
//  #05 //052   ----------------------------------------
 BYTE   W48
 BYTE   N23  Gn3
 BYTE   W24
 BYTE   Fn3
 BYTE   W24
//  #05 //053   ----------------------------------------
 BYTE   Cn4
 BYTE   W24
 BYTE   N68  Gn3
 BYTE   W72
//  #05 //054   ----------------------------------------
 BYTE   N23  Fn3
 BYTE   W24
 BYTE   Ds3
 BYTE   W24
 BYTE   As3
 BYTE   W24
 BYTE   N44  Fn4
 BYTE   W24
//  #05 //055   ----------------------------------------
 BYTE   W24
 BYTE   N23  Gn4
 BYTE   W24
 BYTE   N68  Dn4
 BYTE   W48
//  #05 //056   ----------------------------------------
 BYTE   W24
 BYTE   An3  v044
 BYTE   W72
//  #05 //057   ----------------------------------------
 BYTE   W96
//  #05 //058   ----------------------------------------
 BYTE   W96
//  #05 //059   ----------------------------------------
 BYTE   W96
//  #05 //060   ----------------------------------------
 BYTE   W96
//  #05 //061   ----------------------------------------
 BYTE   W96
//  #05 //062   ----------------------------------------
 BYTE   W96
//  #05 //063   ----------------------------------------
 BYTE   W96
//  #05 //064   ----------------------------------------
 BYTE   W96
//  #05 //065   ----------------------------------------
 BYTE   W96
//  #05 //066   ----------------------------------------
 BYTE   W96
//  #05 //067   ----------------------------------------
 BYTE   W96
//  #05 //068   ----------------------------------------
 BYTE   W96
//  #05 //069   ----------------------------------------
 BYTE   W96
//  #05 //070   ----------------------------------------
 BYTE   W96
//  #05 //071   ----------------------------------------
 BYTE   W96
//  #05 //072   ----------------------------------------
 BYTE   W96
//  #05 //073   ----------------------------------------
 BYTE   W96
//  #05 //074   ----------------------------------------
 BYTE   W96
//  #05 //075   ----------------------------------------
 BYTE   W96
//  #05 //076   ----------------------------------------
 BYTE   W96
//  #05 //077   ----------------------------------------
 BYTE   W96
//  #05 //078   ----------------------------------------
 BYTE   W96
//  #05 //079   ----------------------------------------
 BYTE   W96
//  #05 //080   ----------------------------------------
 BYTE   N23  Bn3  v080
 BYTE   W24
 BYTE   N32  En4
 BYTE   W36
 BYTE   Dn4
 BYTE   W36
//  #05 //081   ----------------------------------------
 BYTE   Bn3
 BYTE   W36
 BYTE   Gn3
 BYTE   W36
 BYTE   TIE  An3
 BYTE   W24
//  #05 //082   ----------------------------------------
 BYTE   W80
 BYTE   W03
 BYTE   EOT
 BYTE   W01
 BYTE   N11  Bn3
 BYTE   W12
//  #05 //083   ----------------------------------------
 BYTE   En3
 BYTE   W12
 BYTE   Gn3
 BYTE   W12
 BYTE   TIE  An3
 BYTE   W72
//  #05 //084   ----------------------------------------
 BYTE   W32
 BYTE   W03
 BYTE   EOT
 BYTE   W01
 BYTE   N11  Bn3
 BYTE   W12
 BYTE   Ds3
 BYTE   W12
 BYTE   Gn3
 BYTE   W12
 BYTE   N32  An3
 BYTE   W24
//  #05 //085   ----------------------------------------
 BYTE   W12
 BYTE   N11  Gn3
 BYTE   W12
 BYTE   N68  An3
 BYTE   W72
//  #05 //086   ----------------------------------------
 BYTE   W12
 BYTE   N11  Bn3
 BYTE   W12
 BYTE   N32  En4
 BYTE   W36
 BYTE   Dn4
 BYTE   W36
//  #05 //087   ----------------------------------------
 BYTE   Bn3
 BYTE   W36
 BYTE   Gn3
 BYTE   W36
 BYTE   An3
 BYTE   W24
//  #05 //088   ----------------------------------------
 BYTE   W12
 BYTE   N11  Gn3
 BYTE   W12
 BYTE   N56  An3
 BYTE   W60
 BYTE   N11  Bn3
 BYTE   W12
//  #05 //089   ----------------------------------------
 BYTE   En3
 BYTE   W12
 BYTE   Gn3
 BYTE   W12
 BYTE   N32  An3
 BYTE   W36
 BYTE   N11  Gn3
 BYTE   W12
 BYTE   N56  An3
 BYTE   W24
//  #05 //090   ----------------------------------------
 BYTE   W36
 BYTE   N11  Bn3
 BYTE   W12
 BYTE   En3
 BYTE   W12
 BYTE   Gn3
 BYTE   W12
 BYTE   N32  An3
 BYTE   W24
//  #05 //091   ----------------------------------------
 BYTE   W12
 BYTE   N11  Gn3
 BYTE   W12
 BYTE   N92  An3
 BYTE   W72
//  #05 //092   ----------------------------------------
 BYTE   W24
 BYTE   TIE  An3  v044
 BYTE   W72
//  #05 //093   ----------------------------------------
 BYTE   W68
 BYTE   W03
 BYTE   EOT
 BYTE   W24
 BYTE   W01
//  #05 //094   ----------------------------------------
 BYTE   W96
//  #05 //095   ----------------------------------------
 BYTE   W24
 BYTE   GoTo
  POIN2 Label_01005823
 BYTE   FINE

//**************** Track 6 (Midi-Chn.5) ****************//

LoZTotKRitoVillageNight_006:
//  #06 //000   ----------------------------------------
 BYTE   KEYSH   LoZTotKRitoVillageNight_key+0
 BYTE   VOICE   48
 BYTE   MODT 0
 BYTE   LFOS 44
 BYTE   VOL   53*LoZTotKRitoVillageNight_mvl/mxv
 BYTE   PAN   c_v+0
 BYTE   W96
//  #06 //001   ----------------------------------------
 BYTE   W96
//  #06 //002   ----------------------------------------
 BYTE   W96
//  #06 //003   ----------------------------------------
 BYTE   W96
//  #06 //004   ----------------------------------------
 BYTE   W96
//  #06 //005   ----------------------------------------
 BYTE   W96
//  #06 //006   ----------------------------------------
 BYTE   W48
Label_010059BF:
 BYTE   W48
//  #06 //007   ----------------------------------------
 BYTE   W48
 BYTE   N02  Dn4  v016
 BYTE   W03
 BYTE   N02
 BYTE   W03
 BYTE   N02
 BYTE   W03
 BYTE   N02
 BYTE   W03
 BYTE   Dn4  v020
 BYTE   W03
 BYTE   N02
 BYTE   W03
 BYTE   N02
 BYTE   W03
 BYTE   Dn4  v024
 BYTE   W03
 BYTE   N02
 BYTE   W03
 BYTE   N02
 BYTE   W03
 BYTE   Dn4  v028
 BYTE   W03
 BYTE   N02
 BYTE   W03
 BYTE   N02
 BYTE   W03
 BYTE   N02
 BYTE   W03
 BYTE   N02
 BYTE   W03
 BYTE   Dn4  v024
 BYTE   W03
//  #06 //008   ----------------------------------------
 BYTE   N02
 BYTE   W03
 BYTE   Dn4  v020
 BYTE   W03
 BYTE   N02
 BYTE   W03
 BYTE   N02
 BYTE   W03
 BYTE   Dn4  v016
 BYTE   W03
 BYTE   N02
 BYTE   W03
 BYTE   N02
 BYTE   W03
 BYTE   N02
 BYTE   W72
 BYTE   W03
//  #06 //009   ----------------------------------------
 BYTE   Cn4
 BYTE   W03
 BYTE   N02
 BYTE   W03
 BYTE   N02
 BYTE   W03
 BYTE   N02
 BYTE   W03
 BYTE   Cn4  v020
 BYTE   W03
 BYTE   N02
 BYTE   W03
 BYTE   N02
 BYTE   W03
 BYTE   Cn4  v024
 BYTE   W03
 BYTE   N02
 BYTE   W03
 BYTE   N02
 BYTE   W03
 BYTE   Cn4  v028
 BYTE   W03
 BYTE   N02
 BYTE   W03
 BYTE   N02
 BYTE   W03
 BYTE   N02
 BYTE   W03
 BYTE   N02
 BYTE   W03
 BYTE   Cn4  v024
 BYTE   W03
 BYTE   N02
 BYTE   W03
 BYTE   Cn4  v020
 BYTE   W03
 BYTE   N02
 BYTE   W03
 BYTE   N02
 BYTE   W36
 BYTE   W03
//  #06 //010   ----------------------------------------
 BYTE   W48
 BYTE   Ds3  v016
 BYTE   W03
 BYTE   N02
 BYTE   W03
 BYTE   N02
 BYTE   W03
 BYTE   N02
 BYTE   W03
 BYTE   N02
 BYTE   W03
 BYTE   Ds3  v020
 BYTE   W03
 BYTE   N02
 BYTE   W03
 BYTE   Ds3  v024
 BYTE   W03
 BYTE   N02
 BYTE   W03
 BYTE   N02
 BYTE   W03
 BYTE   Ds3  v028
 BYTE   W03
 BYTE   N02
 BYTE   W03
 BYTE   N02
 BYTE   W03
 BYTE   N02
 BYTE   W03
 BYTE   N02
 BYTE   W03
 BYTE   Ds3  v024
 BYTE   W03
//  #06 //011   ----------------------------------------
 BYTE   N02
 BYTE   W03
 BYTE   Ds3  v020
 BYTE   W03
 BYTE   N02
 BYTE   W03
 BYTE   N02
 BYTE   W84
 BYTE   W03
//  #06 //012   ----------------------------------------
 BYTE   W96
//  #06 //013   ----------------------------------------
 BYTE   W48
 BYTE   N11  Dn3  v016
 BYTE   W12
 BYTE   Ds3
 BYTE   W12
 BYTE   Dn3  v020
 BYTE   W12
 BYTE   Ds3  v024
 BYTE   W12
//  #06 //014   ----------------------------------------
 BYTE   Dn3  v028
 BYTE   W12
 BYTE   Ds3  v036
 BYTE   W12
 BYTE   Fn3  v044
 BYTE   W12
 BYTE   Gn3
 BYTE   W12
 BYTE   Fn3
 BYTE   W12
 BYTE   Gn3
 BYTE   W12
 BYTE   Fn3
 BYTE   W12
 BYTE   Gn3
 BYTE   W12
//  #06 //015   ----------------------------------------
 BYTE   An3
 BYTE   W12
 BYTE   As3
 BYTE   W12
 BYTE   An3
 BYTE   W12
 BYTE   As3
 BYTE   W12
 BYTE   An3
 BYTE   W12
 BYTE   As3
 BYTE   W12
 BYTE   Cn4
 BYTE   W12
 BYTE   Dn4  v048
 BYTE   W12
//  #06 //016   ----------------------------------------
 BYTE   Cn4  v052
 BYTE   W12
 BYTE   Dn4  v060
 BYTE   W12
 BYTE   Cn4  v068
 BYTE   W12
 BYTE   Dn4  v072
 BYTE   W12
 BYTE   Ds4  v080
 BYTE   W12
 BYTE   Fn4
 BYTE   W12
 BYTE   Ds4
 BYTE   W12
 BYTE   Fn4
 BYTE   W12
//  #06 //017   ----------------------------------------
 BYTE   Ds4
 BYTE   W12
 BYTE   Fn4
 BYTE   W12
 BYTE   Fs4
 BYTE   W12
 BYTE   Gs4
 BYTE   W12
 BYTE   Fs4
 BYTE   W12
 BYTE   Gs4
 BYTE   W12
 BYTE   Fs4
 BYTE   W12
 BYTE   Gs4
 BYTE   W12
//  #06 //018   ----------------------------------------
 BYTE   An4
 BYTE   W12
 BYTE   Bn4
 BYTE   W12
 BYTE   An4
 BYTE   W12
 BYTE   Bn4
 BYTE   W12
 BYTE   An4
 BYTE   W12
 BYTE   Bn4
 BYTE   W12
 BYTE   N05  Fn4
 BYTE   N05  Cs5
 BYTE   W06
 BYTE   Fn4  v068
 BYTE   N05  An4
 BYTE   W06
 BYTE   Cs4  v056
 BYTE   N05  Fn4
 BYTE   W06
 BYTE   An3  v048
 BYTE   N05  Cs4
 BYTE   W06
//  #06 //019   ----------------------------------------
 BYTE   Fn3  v036
 BYTE   N05  An3
 BYTE   W06
 BYTE   N32  Cs3  v028
 BYTE   N32  Fn3
 BYTE   W90
//  #06 //020   ----------------------------------------
 BYTE   W96
//  #06 //021   ----------------------------------------
 BYTE   W96
//  #06 //022   ----------------------------------------
 BYTE   W96
//  #06 //023   ----------------------------------------
 BYTE   W96
//  #06 //024   ----------------------------------------
 BYTE   W96
//  #06 //025   ----------------------------------------
 BYTE   W96
//  #06 //026   ----------------------------------------
 BYTE   W96
//  #06 //027   ----------------------------------------
 BYTE   W96
//  #06 //028   ----------------------------------------
 BYTE   W96
//  #06 //029   ----------------------------------------
 BYTE   W96
//  #06 //030   ----------------------------------------
 BYTE   W96
//  #06 //031   ----------------------------------------
 BYTE   W96
//  #06 //032   ----------------------------------------
 BYTE   W96
//  #06 //033   ----------------------------------------
 BYTE   W96
//  #06 //034   ----------------------------------------
 BYTE   W96
//  #06 //035   ----------------------------------------
 BYTE   W96
//  #06 //036   ----------------------------------------
 BYTE   W96
//  #06 //037   ----------------------------------------
 BYTE   W96
//  #06 //038   ----------------------------------------
 BYTE   W96
//  #06 //039   ----------------------------------------
 BYTE   W96
//  #06 //040   ----------------------------------------
 BYTE   W96
//  #06 //041   ----------------------------------------
 BYTE   W96
//  #06 //042   ----------------------------------------
 BYTE   W96
//  #06 //043   ----------------------------------------
 BYTE   W96
//  #06 //044   ----------------------------------------
 BYTE   W96
//  #06 //045   ----------------------------------------
 BYTE   W96
//  #06 //046   ----------------------------------------
 BYTE   W96
//  #06 //047   ----------------------------------------
 BYTE   W96
//  #06 //048   ----------------------------------------
 BYTE   W96
//  #06 //049   ----------------------------------------
 BYTE   W96
//  #06 //050   ----------------------------------------
 BYTE   W96
//  #06 //051   ----------------------------------------
 BYTE   W72
 BYTE   N02  Dn4  v016
 BYTE   W03
 BYTE   N02
 BYTE   W03
 BYTE   N02
 BYTE   W03
 BYTE   N02
 BYTE   W03
 BYTE   Dn4  v020
 BYTE   W03
 BYTE   N02
 BYTE   W03
 BYTE   N02
 BYTE   W03
 BYTE   Dn4  v024
 BYTE   W03
//  #06 //052   ----------------------------------------
 BYTE   N02
 BYTE   W03
 BYTE   N02
 BYTE   W03
 BYTE   Dn4  v028
 BYTE   W03
 BYTE   N02
 BYTE   W03
 BYTE   N02
 BYTE   W03
 BYTE   N02
 BYTE   W03
 BYTE   N02
 BYTE   W03
 BYTE   Dn4  v024
 BYTE   W03
 BYTE   N02
 BYTE   W03
 BYTE   Dn4  v020
 BYTE   W03
 BYTE   N02
 BYTE   W03
 BYTE   N02
 BYTE   W03
 BYTE   Dn4  v016
 BYTE   W03
 BYTE   N02
 BYTE   W03
 BYTE   N02
 BYTE   W03
 BYTE   N02
 BYTE   W48
 BYTE   W03
//  #06 //053   ----------------------------------------
 BYTE   W24
 BYTE   Cn4
 BYTE   W03
 BYTE   N02
 BYTE   W03
 BYTE   N02
 BYTE   W03
 BYTE   N02
 BYTE   W03
 BYTE   Cn4  v020
 BYTE   W03
 BYTE   N02
 BYTE   W03
 BYTE   N02
 BYTE   W03
 BYTE   Cn4  v024
 BYTE   W03
 BYTE   N02
 BYTE   W03
 BYTE   N02
 BYTE   W03
 BYTE   Cn4  v028
 BYTE   W03
 BYTE   N02
 BYTE   W03
 BYTE   N02
 BYTE   W03
 BYTE   N02
 BYTE   W03
 BYTE   N02
 BYTE   W03
 BYTE   Cn4  v024
 BYTE   W03
 BYTE   N02
 BYTE   W03
 BYTE   Cn4  v020
 BYTE   W03
 BYTE   N02
 BYTE   W03
 BYTE   N02
 BYTE   W15
//  #06 //054   ----------------------------------------
 BYTE   W72
 BYTE   Ds3  v016
 BYTE   W03
 BYTE   N02
 BYTE   W03
 BYTE   N02
 BYTE   W03
 BYTE   N02
 BYTE   W03
 BYTE   N02
 BYTE   W03
 BYTE   Ds3  v020
 BYTE   W03
 BYTE   N02
 BYTE   W03
 BYTE   Ds3  v024
 BYTE   W03
//  #06 //055   ----------------------------------------
 BYTE   N02
 BYTE   W03
 BYTE   N02
 BYTE   W03
 BYTE   Ds3  v028
 BYTE   W03
 BYTE   N02
 BYTE   W03
 BYTE   N02
 BYTE   W03
 BYTE   N02
 BYTE   W03
 BYTE   N02
 BYTE   W03
 BYTE   Ds3  v024
 BYTE   W03
 BYTE   N02
 BYTE   W03
 BYTE   Ds3  v020
 BYTE   W03
 BYTE   N02
 BYTE   W03
 BYTE   N02
 BYTE   W60
 BYTE   W03
//  #06 //056   ----------------------------------------
 BYTE   W96
//  #06 //057   ----------------------------------------
 BYTE   W72
 BYTE   N11  Dn3  v016
 BYTE   W12
 BYTE   Ds3
 BYTE   W12
//  #06 //058   ----------------------------------------
 BYTE   Dn3  v020
 BYTE   W12
 BYTE   Ds3  v024
 BYTE   W12
 BYTE   Dn3  v028
 BYTE   W12
 BYTE   Ds3  v036
 BYTE   W12
 BYTE   Fn3  v044
 BYTE   W12
 BYTE   Gn3
 BYTE   W12
 BYTE   Fn3
 BYTE   W12
 BYTE   Gn3
 BYTE   W12
//  #06 //059   ----------------------------------------
 BYTE   Fn3
 BYTE   W12
 BYTE   Gn3
 BYTE   W12
 BYTE   An3
 BYTE   W12
 BYTE   As3
 BYTE   W12
 BYTE   An3
 BYTE   W12
 BYTE   As3
 BYTE   W12
 BYTE   An3
 BYTE   W12
 BYTE   As3
 BYTE   W12
//  #06 //060   ----------------------------------------
 BYTE   Cn4
 BYTE   W12
 BYTE   Dn4  v048
 BYTE   W12
 BYTE   Cn4  v052
 BYTE   W12
 BYTE   Dn4  v060
 BYTE   W12
 BYTE   Cn4  v068
 BYTE   W12
 BYTE   Dn4  v072
 BYTE   W12
 BYTE   Ds4  v080
 BYTE   W12
 BYTE   Fn4
 BYTE   W12
//  #06 //061   ----------------------------------------
 BYTE   Ds4
 BYTE   W12
 BYTE   Fn4
 BYTE   W12
 BYTE   Ds4
 BYTE   W12
 BYTE   Fn4
 BYTE   W12
 BYTE   Fs4
 BYTE   W12
 BYTE   Gs4
 BYTE   W12
 BYTE   Fs4
 BYTE   W12
 BYTE   Gs4
 BYTE   W12
//  #06 //062   ----------------------------------------
 BYTE   Fs4
 BYTE   W12
 BYTE   Gs4
 BYTE   W12
 BYTE   An4
 BYTE   W12
 BYTE   Bn4
 BYTE   W12
 BYTE   An4
 BYTE   W12
 BYTE   Bn4
 BYTE   W12
 BYTE   An4
 BYTE   W12
 BYTE   Bn4
 BYTE   W12
//  #06 //063   ----------------------------------------
 BYTE   N05  Fn4
 BYTE   N05  Cs5
 BYTE   W06
 BYTE   Fn4  v068
 BYTE   N05  An4
 BYTE   W06
 BYTE   Cs4  v056
 BYTE   N05  Fn4
 BYTE   W06
 BYTE   An3  v048
 BYTE   N05  Cs4
 BYTE   W06
 BYTE   Fn3  v036
 BYTE   N05  An3
 BYTE   W06
 BYTE   N32  Cs3  v028
 BYTE   N32  Fn3
 BYTE   W66
//  #06 //064   ----------------------------------------
 BYTE   W96
//  #06 //065   ----------------------------------------
 BYTE   W96
//  #06 //066   ----------------------------------------
 BYTE   W96
//  #06 //067   ----------------------------------------
 BYTE   W96
//  #06 //068   ----------------------------------------
 BYTE   W96
//  #06 //069   ----------------------------------------
 BYTE   W96
//  #06 //070   ----------------------------------------
 BYTE   W96
//  #06 //071   ----------------------------------------
 BYTE   W96
//  #06 //072   ----------------------------------------
 BYTE   W96
//  #06 //073   ----------------------------------------
 BYTE   W96
//  #06 //074   ----------------------------------------
 BYTE   W96
//  #06 //075   ----------------------------------------
 BYTE   W96
//  #06 //076   ----------------------------------------
 BYTE   W96
//  #06 //077   ----------------------------------------
 BYTE   W96
//  #06 //078   ----------------------------------------
 BYTE   W96
//  #06 //079   ----------------------------------------
 BYTE   W96
//  #06 //080   ----------------------------------------
 BYTE   W96
//  #06 //081   ----------------------------------------
 BYTE   W96
//  #06 //082   ----------------------------------------
 BYTE   W96
//  #06 //083   ----------------------------------------
 BYTE   W96
//  #06 //084   ----------------------------------------
 BYTE   W96
//  #06 //085   ----------------------------------------
 BYTE   W96
//  #06 //086   ----------------------------------------
 BYTE   W96
//  #06 //087   ----------------------------------------
 BYTE   W96
//  #06 //088   ----------------------------------------
 BYTE   W96
//  #06 //089   ----------------------------------------
 BYTE   W96
//  #06 //090   ----------------------------------------
 BYTE   W96
//  #06 //091   ----------------------------------------
 BYTE   W96
//  #06 //092   ----------------------------------------
 BYTE   W96
//  #06 //093   ----------------------------------------
 BYTE   W96
//  #06 //094   ----------------------------------------
 BYTE   W96
//  #06 //095   ----------------------------------------
 BYTE   W24
 BYTE   GoTo
  POIN2 Label_010059BF
 BYTE   FINE

//**************** Track 7 (Midi-Chn.6) ****************//

LoZTotKRitoVillageNight_007:
//  #07 //000   ----------------------------------------
 BYTE   KEYSH   LoZTotKRitoVillageNight_key+0
 BYTE   VOICE   48
 BYTE   MODT 0
 BYTE   LFOS 44
 BYTE   VOL   53*LoZTotKRitoVillageNight_mvl/mxv
 BYTE   PAN   c_v+0
 BYTE   W96
//  #07 //001   ----------------------------------------
 BYTE   W96
//  #07 //002   ----------------------------------------
 BYTE   W96
//  #07 //003   ----------------------------------------
 BYTE   W96
//  #07 //004   ----------------------------------------
 BYTE   W96
//  #07 //005   ----------------------------------------
 BYTE   W96
//  #07 //006   ----------------------------------------
 BYTE   W48
Label_545283:
 BYTE   W48
//  #07 //007   ----------------------------------------
 BYTE   W96
//  #07 //008   ----------------------------------------
 BYTE   W96
//  #07 //009   ----------------------------------------
 BYTE   W96
//  #07 //010   ----------------------------------------
 BYTE   W96
//  #07 //011   ----------------------------------------
 BYTE   W96
//  #07 //012   ----------------------------------------
 BYTE   W96
//  #07 //013   ----------------------------------------
 BYTE   W96
//  #07 //014   ----------------------------------------
 BYTE   W96
//  #07 //015   ----------------------------------------
 BYTE   W96
//  #07 //016   ----------------------------------------
 BYTE   W24
 BYTE   N03  Cn3  v060
 BYTE   W04
 BYTE   Cs3
 BYTE   W04
 BYTE   Dn3
 BYTE   W04
 BYTE   Ds3
 BYTE   W04
 BYTE   En3
 BYTE   W04
 BYTE   Fn3
 BYTE   W04
 BYTE   N68  Fs3
 BYTE   W48
//  #07 //017   ----------------------------------------
 BYTE   W96
//  #07 //018   ----------------------------------------
 BYTE   W96
//  #07 //019   ----------------------------------------
 BYTE   W96
//  #07 //020   ----------------------------------------
 BYTE   W96
//  #07 //021   ----------------------------------------
 BYTE   W96
//  #07 //022   ----------------------------------------
 BYTE   W96
//  #07 //023   ----------------------------------------
 BYTE   W96
//  #07 //024   ----------------------------------------
 BYTE   W96
//  #07 //025   ----------------------------------------
 BYTE   W96
//  #07 //026   ----------------------------------------
 BYTE   W96
//  #07 //027   ----------------------------------------
 BYTE   W96
//  #07 //028   ----------------------------------------
 BYTE   W96
//  #07 //029   ----------------------------------------
 BYTE   W96
//  #07 //030   ----------------------------------------
 BYTE   W96
//  #07 //031   ----------------------------------------
 BYTE   W96
//  #07 //032   ----------------------------------------
 BYTE   W96
//  #07 //033   ----------------------------------------
 BYTE   W96
//  #07 //034   ----------------------------------------
 BYTE   W96
//  #07 //035   ----------------------------------------
 BYTE   W96
//  #07 //036   ----------------------------------------
 BYTE   W96
//  #07 //037   ----------------------------------------
 BYTE   W96
//  #07 //038   ----------------------------------------
 BYTE   W96
//  #07 //039   ----------------------------------------
 BYTE   W96
//  #07 //040   ----------------------------------------
 BYTE   W96
//  #07 //041   ----------------------------------------
 BYTE   W96
//  #07 //042   ----------------------------------------
 BYTE   W96
//  #07 //043   ----------------------------------------
 BYTE   W96
//  #07 //044   ----------------------------------------
 BYTE   W96
//  #07 //045   ----------------------------------------
 BYTE   W96
//  #07 //046   ----------------------------------------
 BYTE   W96
//  #07 //047   ----------------------------------------
 BYTE   W96
//  #07 //048   ----------------------------------------
 BYTE   W96
//  #07 //049   ----------------------------------------
 BYTE   W96
//  #07 //050   ----------------------------------------
 BYTE   W96
//  #07 //051   ----------------------------------------
 BYTE   W96
//  #07 //052   ----------------------------------------
 BYTE   W96
//  #07 //053   ----------------------------------------
 BYTE   W96
//  #07 //054   ----------------------------------------
 BYTE   W96
//  #07 //055   ----------------------------------------
 BYTE   W96
//  #07 //056   ----------------------------------------
 BYTE   W96
//  #07 //057   ----------------------------------------
 BYTE   W96
//  #07 //058   ----------------------------------------
 BYTE   W96
//  #07 //059   ----------------------------------------
 BYTE   W96
//  #07 //060   ----------------------------------------
 BYTE   W48
 BYTE   N03  Cn3
 BYTE   W04
 BYTE   Cs3
 BYTE   W04
 BYTE   Dn3
 BYTE   W04
 BYTE   Ds3
 BYTE   W04
 BYTE   En3
 BYTE   W04
 BYTE   Fn3
 BYTE   W04
 BYTE   N68  Fs3
 BYTE   W24
//  #07 //061   ----------------------------------------
 BYTE   W96
//  #07 //062   ----------------------------------------
 BYTE   W96
//  #07 //063   ----------------------------------------
 BYTE   W96
//  #07 //064   ----------------------------------------
 BYTE   W96
//  #07 //065   ----------------------------------------
 BYTE   W96
//  #07 //066   ----------------------------------------
 BYTE   W96
//  #07 //067   ----------------------------------------
 BYTE   W96
//  #07 //068   ----------------------------------------
 BYTE   W96
//  #07 //069   ----------------------------------------
 BYTE   W96
//  #07 //070   ----------------------------------------
 BYTE   W96
//  #07 //071   ----------------------------------------
 BYTE   W96
//  #07 //072   ----------------------------------------
 BYTE   W96
//  #07 //073   ----------------------------------------
 BYTE   W96
//  #07 //074   ----------------------------------------
 BYTE   W96
//  #07 //075   ----------------------------------------
 BYTE   W96
//  #07 //076   ----------------------------------------
 BYTE   W96
//  #07 //077   ----------------------------------------
 BYTE   W96
//  #07 //078   ----------------------------------------
 BYTE   W96
//  #07 //079   ----------------------------------------
 BYTE   W96
//  #07 //080   ----------------------------------------
 BYTE   W96
//  #07 //081   ----------------------------------------
 BYTE   W96
//  #07 //082   ----------------------------------------
 BYTE   W96
//  #07 //083   ----------------------------------------
 BYTE   W96
//  #07 //084   ----------------------------------------
 BYTE   W96
//  #07 //085   ----------------------------------------
 BYTE   W96
//  #07 //086   ----------------------------------------
 BYTE   W96
//  #07 //087   ----------------------------------------
 BYTE   W96
//  #07 //088   ----------------------------------------
 BYTE   W96
//  #07 //089   ----------------------------------------
 BYTE   W96
//  #07 //090   ----------------------------------------
 BYTE   W96
//  #07 //091   ----------------------------------------
 BYTE   W96
//  #07 //092   ----------------------------------------
 BYTE   W96
//  #07 //093   ----------------------------------------
 BYTE   W96
//  #07 //094   ----------------------------------------
 BYTE   W96
//  #07 //095   ----------------------------------------
 BYTE   W24
 BYTE   GoTo
  POIN2 Label_545283
 BYTE   FINE

//**************** Track 8 (Midi-Chn.7) ****************//

LoZTotKRitoVillageNight_008:
//  #08 //000   ----------------------------------------
 BYTE   KEYSH   LoZTotKRitoVillageNight_key+0
 BYTE   VOICE   48
 BYTE   MODT 0
 BYTE   LFOS 44
 BYTE   VOL   53*LoZTotKRitoVillageNight_mvl/mxv
 BYTE   PAN   c_v+0
 BYTE   W96
//  #08 //001   ----------------------------------------
 BYTE   W96
//  #08 //002   ----------------------------------------
 BYTE   W96
//  #08 //003   ----------------------------------------
 BYTE   W96
//  #08 //004   ----------------------------------------
 BYTE   W96
//  #08 //005   ----------------------------------------
 BYTE   W96
//  #08 //006   ----------------------------------------
 BYTE   W48
Label_01005C5F:
 BYTE   W24
 BYTE   TIE  Fn2  v016
 BYTE   W24
//  #08 //007   ----------------------------------------
 BYTE   W96
//  #08 //008   ----------------------------------------
 BYTE   W23
 BYTE   EOT
 BYTE   W01
 BYTE   TIE  En2
 BYTE   W72
//  #08 //009   ----------------------------------------
 BYTE   W68
 BYTE   W03
 BYTE   EOT
 BYTE   W01
 BYTE   TIE  Gn1
 BYTE   W24
//  #08 //010   ----------------------------------------
 BYTE   W96
//  #08 //011   ----------------------------------------
 BYTE   W23
 BYTE   EOT
 BYTE   W72
 BYTE   W01
//  #08 //012   ----------------------------------------
 BYTE   W96
//  #08 //013   ----------------------------------------
 BYTE   W48
 BYTE   TIE  Ds2  v044
 BYTE   TIE  Gn2
 BYTE   W48
//  #08 //014   ----------------------------------------
 BYTE   W92
 BYTE   W03
 BYTE   EOT
 BYTE   Ds2  v055
 BYTE   W01
//  #08 //015   ----------------------------------------
 BYTE   TIE  Fn2
 BYTE   TIE  Cn3
 BYTE   W72
 BYTE   N68  Dn2
 BYTE   W24
//  #08 //016   ----------------------------------------
 BYTE   W44
 BYTE   W03
 BYTE   EOT
 BYTE   Fn2  v060
 BYTE   W01
 BYTE   TIE  Cs1  v104
 BYTE   TIE  Cs2
 BYTE   W48
//  #08 //017   ----------------------------------------
 BYTE   W96
//  #08 //018   ----------------------------------------
 BYTE   W96
//  #08 //019   ----------------------------------------
 BYTE   W23
 BYTE   EOT
 BYTE   Cs1  v049
 BYTE   W72
 BYTE   W01
//  #08 //020   ----------------------------------------
 BYTE   W96
//  #08 //021   ----------------------------------------
 BYTE   W96
//  #08 //022   ----------------------------------------
 BYTE   W96
//  #08 //023   ----------------------------------------
 BYTE   W96
//  #08 //024   ----------------------------------------
 BYTE   W96
//  #08 //025   ----------------------------------------
 BYTE   W96
//  #08 //026   ----------------------------------------
 BYTE   W96
//  #08 //027   ----------------------------------------
 BYTE   W96
//  #08 //028   ----------------------------------------
 BYTE   W96
//  #08 //029   ----------------------------------------
 BYTE   W96
//  #08 //030   ----------------------------------------
 BYTE   W96
//  #08 //031   ----------------------------------------
 BYTE   W96
//  #08 //032   ----------------------------------------
 BYTE   W96
//  #08 //033   ----------------------------------------
 BYTE   W96
//  #08 //034   ----------------------------------------
 BYTE   W96
//  #08 //035   ----------------------------------------
 BYTE   W96
//  #08 //036   ----------------------------------------
 BYTE   N92  Cn2  v028
 BYTE   W96
//  #08 //037   ----------------------------------------
 BYTE   W12
 BYTE   N32
 BYTE   W36
 BYTE   N92  Bn1
 BYTE   W48
//  #08 //038   ----------------------------------------
 BYTE   W72
 BYTE   N23  As1
 BYTE   W24
//  #08 //039   ----------------------------------------
 BYTE   N68  An1
 BYTE   W72
 BYTE   Dn2
 BYTE   W24
//  #08 //040   ----------------------------------------
 BYTE   W48
 BYTE   TIE  Gn1
 BYTE   TIE  Bn1
 BYTE   W48
//  #08 //041   ----------------------------------------
 BYTE   W92
 BYTE   W03
 BYTE   EOT
 BYTE   Gn1  v047
 BYTE   W01
//  #08 //042   ----------------------------------------
 BYTE   TIE  En2
 BYTE   W96
//  #08 //043   ----------------------------------------
 BYTE   W44
 BYTE   W03
 BYTE   EOT
 BYTE   W01
 BYTE   TIE  Bn1
 BYTE   W48
//  #08 //044   ----------------------------------------
 BYTE   W92
 BYTE   W03
 BYTE   EOT
 BYTE   W01
//  #08 //045   ----------------------------------------
 BYTE   TIE  An1
 BYTE   TIE  En2
 BYTE   W96
//  #08 //046   ----------------------------------------
 BYTE   W44
 BYTE   W03
 BYTE   EOT
 BYTE   An1  v052
 BYTE   W01
 BYTE   TIE  Cn3  v016
 BYTE   TIE  En3
 BYTE   TIE  Gn3
 BYTE   W48
//  #08 //047   ----------------------------------------
 BYTE   W92
 BYTE   W03
 BYTE   EOT
 BYTE   W01
//  #08 //048   ----------------------------------------
 BYTE   W96
//  #08 //049   ----------------------------------------
 BYTE   W44
 BYTE   W03
 BYTE   Cn3  v064
 BYTE   W48
 BYTE   W01
//  #08 //050   ----------------------------------------
 BYTE   W96
//  #08 //051   ----------------------------------------
 BYTE   TIE  Fn2
 BYTE   W96
//  #08 //052   ----------------------------------------
 BYTE   W44
 BYTE   W03
 BYTE   EOT
 BYTE   W01
 BYTE   TIE  En2
 BYTE   W48
//  #08 //053   ----------------------------------------
 BYTE   W92
 BYTE   W03
 BYTE   EOT
 BYTE   W01
//  #08 //054   ----------------------------------------
 BYTE   TIE  Gn1
 BYTE   W96
//  #08 //055   ----------------------------------------
 BYTE   W44
 BYTE   W03
 BYTE   EOT
 BYTE   W48
 BYTE   W01
//  #08 //056   ----------------------------------------
 BYTE   W96
//  #08 //057   ----------------------------------------
 BYTE   W72
 BYTE   TIE  Ds2  v044
 BYTE   TIE  Gn2
 BYTE   W24
//  #08 //058   ----------------------------------------
 BYTE   W96
//  #08 //059   ----------------------------------------
 BYTE   W23
 BYTE   EOT
 BYTE   Ds2  v055
 BYTE   W01
 BYTE   TIE  Fn2
 BYTE   TIE  Cn3
 BYTE   W72
//  #08 //060   ----------------------------------------
 BYTE   N68  Dn2
 BYTE   W68
 BYTE   W03
 BYTE   EOT
 BYTE   Fn2  v060
 BYTE   W01
 BYTE   TIE  Cs1  v104
 BYTE   TIE  Cs2
 BYTE   W24
//  #08 //061   ----------------------------------------
 BYTE   W96
//  #08 //062   ----------------------------------------
 BYTE   W96
//  #08 //063   ----------------------------------------
 BYTE   W44
 BYTE   W03
 BYTE   EOT
 BYTE   Cs1  v049
 BYTE   W48
 BYTE   W01
//  #08 //064   ----------------------------------------
 BYTE   W96
//  #08 //065   ----------------------------------------
 BYTE   W96
//  #08 //066   ----------------------------------------
 BYTE   W96
//  #08 //067   ----------------------------------------
 BYTE   W96
//  #08 //068   ----------------------------------------
 BYTE   W96
//  #08 //069   ----------------------------------------
 BYTE   W96
//  #08 //070   ----------------------------------------
 BYTE   W96
//  #08 //071   ----------------------------------------
 BYTE   W96
//  #08 //072   ----------------------------------------
 BYTE   W96
//  #08 //073   ----------------------------------------
 BYTE   W96
//  #08 //074   ----------------------------------------
 BYTE   W96
//  #08 //075   ----------------------------------------
 BYTE   W96
//  #08 //076   ----------------------------------------
 BYTE   W96
//  #08 //077   ----------------------------------------
 BYTE   W96
//  #08 //078   ----------------------------------------
 BYTE   W96
//  #08 //079   ----------------------------------------
 BYTE   W96
//  #08 //080   ----------------------------------------
 BYTE   W24
 BYTE   N92  Cn2  v028
 BYTE   W72
//  #08 //081   ----------------------------------------
 BYTE   W36
 BYTE   N32
 BYTE   W36
 BYTE   N92  Bn1
 BYTE   W24
//  #08 //082   ----------------------------------------
 BYTE   W96
//  #08 //083   ----------------------------------------
 BYTE   N23  As1
 BYTE   W24
 BYTE   N68  An1
 BYTE   W72
//  #08 //084   ----------------------------------------
 BYTE   Dn2
 BYTE   W72
 BYTE   TIE  Gn1
 BYTE   TIE  Bn1
 BYTE   W24
//  #08 //085   ----------------------------------------
 BYTE   W96
//  #08 //086   ----------------------------------------
 BYTE   W23
 BYTE   EOT
 BYTE   Gn1  v047
 BYTE   W01
 BYTE   TIE  En2
 BYTE   W72
//  #08 //087   ----------------------------------------
 BYTE   W68
 BYTE   W03
 BYTE   EOT
 BYTE   W01
 BYTE   TIE  Bn1
 BYTE   W24
//  #08 //088   ----------------------------------------
 BYTE   W96
//  #08 //089   ----------------------------------------
 BYTE   W23
 BYTE   EOT
 BYTE   W01
 BYTE   TIE  An1
 BYTE   TIE  En2
 BYTE   W72
//  #08 //090   ----------------------------------------
 BYTE   W68
 BYTE   W03
 BYTE   EOT
 BYTE   An1  v052
 BYTE   W01
 BYTE   TIE  Cn3  v016
 BYTE   TIE  En3
 BYTE   TIE  Gn3
 BYTE   W24
//  #08 //091   ----------------------------------------
 BYTE   W96
//  #08 //092   ----------------------------------------
 BYTE   W23
 BYTE   EOT
 BYTE   W72
 BYTE   W01
//  #08 //093   ----------------------------------------
 BYTE   W68
 BYTE   W03
 BYTE   Cn3  v064
 BYTE   W24
 BYTE   W01
//  #08 //094   ----------------------------------------
 BYTE   W96
//  #08 //095   ----------------------------------------
 BYTE   W24
 BYTE   GoTo
  POIN2 Label_01005C5F
 BYTE   FINE

//**************** Track 9 (Midi-Chn.8) ****************//

LoZTotKRitoVillageNight_009:
//  #09 //000   ----------------------------------------
 BYTE   KEYSH   LoZTotKRitoVillageNight_key+0
 BYTE   VOICE   48
 BYTE   MODT 0
 BYTE   LFOS 44
 BYTE   VOL   53*LoZTotKRitoVillageNight_mvl/mxv
 BYTE   PAN   c_v+0
 BYTE   W96
//  #09 //001   ----------------------------------------
 BYTE   W96
//  #09 //002   ----------------------------------------
 BYTE   W96
//  #09 //003   ----------------------------------------
 BYTE   W96
//  #09 //004   ----------------------------------------
 BYTE   W96
//  #09 //005   ----------------------------------------
 BYTE   W96
//  #09 //006   ----------------------------------------
 BYTE   W48
Label_01005DC7:
 BYTE   W48
//  #09 //007   ----------------------------------------
 BYTE   W48
 BYTE   N02  Fn3  v016
 BYTE   W03
 BYTE   N02
 BYTE   W03
 BYTE   N02
 BYTE   W03
 BYTE   N02
 BYTE   W03
 BYTE   N02
 BYTE   W03
 BYTE   Fn3  v020
 BYTE   W03
 BYTE   N02
 BYTE   W03
 BYTE   Fn3  v024
 BYTE   W03
 BYTE   N02
 BYTE   W03
 BYTE   N02
 BYTE   W03
 BYTE   Fn3  v028
 BYTE   W03
 BYTE   N02
 BYTE   W03
 BYTE   N02
 BYTE   W03
 BYTE   N02
 BYTE   W03
 BYTE   N02
 BYTE   W03
 BYTE   N02
 BYTE   W03
//  #09 //008   ----------------------------------------
 BYTE   N02
 BYTE   W03
 BYTE   N02
 BYTE   W03
 BYTE   N02
 BYTE   W03
 BYTE   N02
 BYTE   W03
 BYTE   N02
 BYTE   W03
 BYTE   N02
 BYTE   W03
 BYTE   N02
 BYTE   W03
 BYTE   Fn3  v044
 BYTE   W72
 BYTE   W03
//  #09 //009   ----------------------------------------
 BYTE   An2  v016
 BYTE   W03
 BYTE   N02
 BYTE   W03
 BYTE   N02
 BYTE   W03
 BYTE   N02
 BYTE   W03
 BYTE   N02
 BYTE   W03
 BYTE   An2  v020
 BYTE   W03
 BYTE   N02
 BYTE   W03
 BYTE   An2  v024
 BYTE   W03
 BYTE   N02
 BYTE   W03
 BYTE   N02
 BYTE   W03
 BYTE   An2  v028
 BYTE   W03
 BYTE   N02
 BYTE   W03
 BYTE   N02
 BYTE   W03
 BYTE   N02
 BYTE   W03
 BYTE   N02
 BYTE   W03
 BYTE   An2  v024
 BYTE   W03
 BYTE   N02
 BYTE   W03
 BYTE   An2  v020
 BYTE   W03
 BYTE   N02
 BYTE   W03
 BYTE   N02
 BYTE   W36
 BYTE   W03
//  #09 //010   ----------------------------------------
 BYTE   W48
 BYTE   Gs2  v016
 BYTE   W03
 BYTE   N02
 BYTE   W03
 BYTE   N02
 BYTE   W03
 BYTE   N02
 BYTE   W03
 BYTE   N02
 BYTE   W03
 BYTE   Gs2  v020
 BYTE   W03
 BYTE   N02
 BYTE   W03
 BYTE   Gs2  v024
 BYTE   W03
 BYTE   N02
 BYTE   W03
 BYTE   N02
 BYTE   W03
 BYTE   Gs2  v028
 BYTE   W03
 BYTE   N02
 BYTE   W03
 BYTE   N02
 BYTE   W03
 BYTE   N02
 BYTE   W03
 BYTE   N02
 BYTE   W03
 BYTE   Gs2  v024
 BYTE   W03
//  #09 //011   ----------------------------------------
 BYTE   N02
 BYTE   W03
 BYTE   Gs2  v020
 BYTE   W03
 BYTE   N02
 BYTE   W03
 BYTE   N02
 BYTE   W84
 BYTE   W03
//  #09 //012   ----------------------------------------
 BYTE   W96
//  #09 //013   ----------------------------------------
 BYTE   W48
 BYTE   N11  Dn3  v016
 BYTE   W12
 BYTE   Ds3
 BYTE   W12
 BYTE   Dn3
 BYTE   W12
 BYTE   Ds3
 BYTE   W12
//  #09 //014   ----------------------------------------
 BYTE   Dn3
 BYTE   W12
 BYTE   Ds3
 BYTE   W12
 BYTE   Fn3
 BYTE   W12
 BYTE   Gn3
 BYTE   W12
 BYTE   Fn3
 BYTE   W12
 BYTE   Gn3
 BYTE   W12
 BYTE   An2  v044
 BYTE   W12
 BYTE   As2
 BYTE   W12
//  #09 //015   ----------------------------------------
 BYTE   N68  Cn3  v028
 BYTE   W72
 BYTE   Dn3  v044
 BYTE   W24
//  #09 //016   ----------------------------------------
 BYTE   W96
//  #09 //017   ----------------------------------------
 BYTE   W96
//  #09 //018   ----------------------------------------
 BYTE   W96
//  #09 //019   ----------------------------------------
 BYTE   W96
//  #09 //020   ----------------------------------------
 BYTE   W96
//  #09 //021   ----------------------------------------
 BYTE   W96
//  #09 //022   ----------------------------------------
 BYTE   W96
//  #09 //023   ----------------------------------------
 BYTE   W96
//  #09 //024   ----------------------------------------
 BYTE   W96
//  #09 //025   ----------------------------------------
 BYTE   W96
//  #09 //026   ----------------------------------------
 BYTE   W96
//  #09 //027   ----------------------------------------
 BYTE   W96
//  #09 //028   ----------------------------------------
 BYTE   W96
//  #09 //029   ----------------------------------------
 BYTE   W96
//  #09 //030   ----------------------------------------
 BYTE   W96
//  #09 //031   ----------------------------------------
 BYTE   W96
//  #09 //032   ----------------------------------------
 BYTE   W96
//  #09 //033   ----------------------------------------
 BYTE   W96
//  #09 //034   ----------------------------------------
 BYTE   W96
//  #09 //035   ----------------------------------------
 BYTE   W96
//  #09 //036   ----------------------------------------
 BYTE   W96
//  #09 //037   ----------------------------------------
 BYTE   W96
//  #09 //038   ----------------------------------------
 BYTE   W96
//  #09 //039   ----------------------------------------
 BYTE   W96
//  #09 //040   ----------------------------------------
 BYTE   W96
//  #09 //041   ----------------------------------------
 BYTE   W96
//  #09 //042   ----------------------------------------
 BYTE   W96
//  #09 //043   ----------------------------------------
 BYTE   W96
//  #09 //044   ----------------------------------------
 BYTE   W96
//  #09 //045   ----------------------------------------
 BYTE   W96
//  #09 //046   ----------------------------------------
 BYTE   W96
//  #09 //047   ----------------------------------------
 BYTE   W96
//  #09 //048   ----------------------------------------
 BYTE   W96
//  #09 //049   ----------------------------------------
 BYTE   W96
//  #09 //050   ----------------------------------------
 BYTE   W96
//  #09 //051   ----------------------------------------
 BYTE   W72
 BYTE   N02  Fn3  v016
 BYTE   W03
 BYTE   N02
 BYTE   W03
 BYTE   N02
 BYTE   W03
 BYTE   N02
 BYTE   W03
 BYTE   N02
 BYTE   W03
 BYTE   Fn3  v020
 BYTE   W03
 BYTE   N02
 BYTE   W03
 BYTE   Fn3  v024
 BYTE   W03
//  #09 //052   ----------------------------------------
 BYTE   N02
 BYTE   W03
 BYTE   N02
 BYTE   W03
 BYTE   Fn3  v028
 BYTE   W03
 BYTE   N02
 BYTE   W03
 BYTE   N02
 BYTE   W03
 BYTE   N02
 BYTE   W03
 BYTE   N02
 BYTE   W03
 BYTE   N02
 BYTE   W03
 BYTE   N02
 BYTE   W03
 BYTE   N02
 BYTE   W03
 BYTE   N02
 BYTE   W03
 BYTE   N02
 BYTE   W03
 BYTE   N02
 BYTE   W03
 BYTE   N02
 BYTE   W03
 BYTE   N02
 BYTE   W03
 BYTE   Fn3  v044
 BYTE   W48
 BYTE   W03
//  #09 //053   ----------------------------------------
 BYTE   W24
 BYTE   An2  v016
 BYTE   W03
 BYTE   N02
 BYTE   W03
 BYTE   N02
 BYTE   W03
 BYTE   N02
 BYTE   W03
 BYTE   N02
 BYTE   W03
 BYTE   An2  v020
 BYTE   W03
 BYTE   N02
 BYTE   W03
 BYTE   An2  v024
 BYTE   W03
 BYTE   N02
 BYTE   W03
 BYTE   N02
 BYTE   W03
 BYTE   An2  v028
 BYTE   W03
 BYTE   N02
 BYTE   W03
 BYTE   N02
 BYTE   W03
 BYTE   N02
 BYTE   W03
 BYTE   N02
 BYTE   W03
 BYTE   An2  v024
 BYTE   W03
 BYTE   N02
 BYTE   W03
 BYTE   An2  v020
 BYTE   W03
 BYTE   N02
 BYTE   W03
 BYTE   N02
 BYTE   W15
//  #09 //054   ----------------------------------------
 BYTE   W72
 BYTE   Gs2  v016
 BYTE   W03
 BYTE   N02
 BYTE   W03
 BYTE   N02
 BYTE   W03
 BYTE   N02
 BYTE   W03
 BYTE   N02
 BYTE   W03
 BYTE   Gs2  v020
 BYTE   W03
 BYTE   N02
 BYTE   W03
 BYTE   Gs2  v024
 BYTE   W03
//  #09 //055   ----------------------------------------
 BYTE   N02
 BYTE   W03
 BYTE   N02
 BYTE   W03
 BYTE   Gs2  v028
 BYTE   W03
 BYTE   N02
 BYTE   W03
 BYTE   N02
 BYTE   W03
 BYTE   N02
 BYTE   W03
 BYTE   N02
 BYTE   W03
 BYTE   Gs2  v024
 BYTE   W03
 BYTE   N02
 BYTE   W03
 BYTE   Gs2  v020
 BYTE   W03
 BYTE   N02
 BYTE   W03
 BYTE   N02
 BYTE   W60
 BYTE   W03
//  #09 //056   ----------------------------------------
 BYTE   W96
//  #09 //057   ----------------------------------------
 BYTE   W72
 BYTE   N11  Dn3  v016
 BYTE   W12
 BYTE   Ds3
 BYTE   W12
//  #09 //058   ----------------------------------------
 BYTE   Dn3
 BYTE   W12
 BYTE   Ds3
 BYTE   W12
 BYTE   Dn3
 BYTE   W12
 BYTE   Ds3
 BYTE   W12
 BYTE   Fn3
 BYTE   W12
 BYTE   Gn3
 BYTE   W12
 BYTE   Fn3
 BYTE   W12
 BYTE   Gn3
 BYTE   W12
//  #09 //059   ----------------------------------------
 BYTE   An2  v044
 BYTE   W12
 BYTE   As2
 BYTE   W12
 BYTE   N68  Cn3  v028
 BYTE   W72
//  #09 //060   ----------------------------------------
 BYTE   Dn3  v044
 BYTE   W96
//  #09 //061   ----------------------------------------
 BYTE   W96
//  #09 //062   ----------------------------------------
 BYTE   W96
//  #09 //063   ----------------------------------------
 BYTE   W96
//  #09 //064   ----------------------------------------
 BYTE   W96
//  #09 //065   ----------------------------------------
 BYTE   W96
//  #09 //066   ----------------------------------------
 BYTE   W96
//  #09 //067   ----------------------------------------
 BYTE   W96
//  #09 //068   ----------------------------------------
 BYTE   W96
//  #09 //069   ----------------------------------------
 BYTE   W96
//  #09 //070   ----------------------------------------
 BYTE   W96
//  #09 //071   ----------------------------------------
 BYTE   W96
//  #09 //072   ----------------------------------------
 BYTE   W96
//  #09 //073   ----------------------------------------
 BYTE   W96
//  #09 //074   ----------------------------------------
 BYTE   W96
//  #09 //075   ----------------------------------------
 BYTE   W96
//  #09 //076   ----------------------------------------
 BYTE   W96
//  #09 //077   ----------------------------------------
 BYTE   W96
//  #09 //078   ----------------------------------------
 BYTE   W96
//  #09 //079   ----------------------------------------
 BYTE   W96
//  #09 //080   ----------------------------------------
 BYTE   W96
//  #09 //081   ----------------------------------------
 BYTE   W96
//  #09 //082   ----------------------------------------
 BYTE   W96
//  #09 //083   ----------------------------------------
 BYTE   W96
//  #09 //084   ----------------------------------------
 BYTE   W96
//  #09 //085   ----------------------------------------
 BYTE   W96
//  #09 //086   ----------------------------------------
 BYTE   W96
//  #09 //087   ----------------------------------------
 BYTE   W96
//  #09 //088   ----------------------------------------
 BYTE   W96
//  #09 //089   ----------------------------------------
 BYTE   W96
//  #09 //090   ----------------------------------------
 BYTE   W96
//  #09 //091   ----------------------------------------
 BYTE   W96
//  #09 //092   ----------------------------------------
 BYTE   W96
//  #09 //093   ----------------------------------------
 BYTE   W96
//  #09 //094   ----------------------------------------
 BYTE   W96
//  #09 //095   ----------------------------------------
 BYTE   W24
 BYTE   GoTo
  POIN2 Label_01005DC7
 BYTE   FINE

//**************** Track 10 (Midi-Chn.9) ****************//

LoZTotKRitoVillageNight_010:
//  #10 //000   ----------------------------------------
 BYTE   KEYSH   LoZTotKRitoVillageNight_key+0
 BYTE   VOICE   121
 BYTE   MODT 0
 BYTE   LFOS 44
 BYTE   VOL   35*LoZTotKRitoVillageNight_mvl/mxv
 BYTE   PAN   c_v+0
 BYTE   VOL   53*LoZTotKRitoVillageNight_mvl/mxv
 BYTE   PAN   c_v+0
 BYTE   VOL   34*LoZTotKRitoVillageNight_mvl/mxv
 BYTE   PAN   c_v+0
 BYTE   W96
//  #10 //001   ----------------------------------------
 BYTE   W96
//  #10 //002   ----------------------------------------
 BYTE   W96
//  #10 //003   ----------------------------------------
 BYTE   W96
//  #10 //004   ----------------------------------------
 BYTE   W96
//  #10 //005   ----------------------------------------
 BYTE   W96
//  #10 //006   ----------------------------------------
 BYTE   W48
Label_01005FB7:
 BYTE   W48
//  #10 //007   ----------------------------------------
 BYTE   W96
//  #10 //008   ----------------------------------------
 BYTE   W96
//  #10 //009   ----------------------------------------
 BYTE   N02  Fs2  v016
 BYTE   N11  Fn4
 BYTE   W03
 BYTE   N02  Fs2
 BYTE   W03
 BYTE   N02
 BYTE   W03
 BYTE   N02
 BYTE   W03
 BYTE   N02
 BYTE   N11  Fn4
 BYTE   W03
 BYTE   N02  Fs2
 BYTE   W03
 BYTE   N02
 BYTE   W03
 BYTE   N02
 BYTE   W03
 BYTE   N02
 BYTE   N11  Fn4  v012
 BYTE   W03
 BYTE   N02  Fs2  v016
 BYTE   W03
 BYTE   N02
 BYTE   W03
 BYTE   N02
 BYTE   W03
 BYTE   N02
 BYTE   N11  Fn4  v008
 BYTE   W03
 BYTE   N02  Fs2  v016
 BYTE   W03
 BYTE   N02
 BYTE   W03
 BYTE   N02
 BYTE   W03
 BYTE   N02
 BYTE   N11  Fn4  v008
 BYTE   W03
 BYTE   N02  Fs2  v016
 BYTE   W03
 BYTE   N02
 BYTE   W03
 BYTE   N02
 BYTE   W03
 BYTE   N02
 BYTE   N11  Fn4  v004
 BYTE   W03
 BYTE   N02  Fs2  v016
 BYTE   W03
 BYTE   N02
 BYTE   W03
 BYTE   N02
 BYTE   W24
 BYTE   W03
//  #10 //010   ----------------------------------------
 BYTE   W96
//  #10 //011   ----------------------------------------
 BYTE   W24
 BYTE   N02
 BYTE   N05  Fn4
 BYTE   W03
 BYTE   N02  Fs2
 BYTE   W03
 BYTE   N02
 BYTE   N05  Fn4
 BYTE   W03
 BYTE   N02  Fs2
 BYTE   W03
 BYTE   N02
 BYTE   N05  Fn4
 BYTE   W03
 BYTE   N02  Fs2
 BYTE   W03
 BYTE   N02
 BYTE   N05  Fn4  v012
 BYTE   W03
 BYTE   N02  Fs2  v016
 BYTE   W03
 BYTE   N02
 BYTE   N05  Fn4  v008
 BYTE   W03
 BYTE   N02  Fs2  v016
 BYTE   W03
 BYTE   N02
 BYTE   N05  Fn4  v008
 BYTE   W03
 BYTE   N02  Fs2  v004
 BYTE   W03
 BYTE   N02
 BYTE   N05  Fn4
 BYTE   W03
 BYTE   N02  Fs2
 BYTE   W03
 BYTE   N02
 BYTE   N05  Fn4
 BYTE   W03
 BYTE   N02  Fs2
 BYTE   W24
 BYTE   W03
//  #10 //012   ----------------------------------------
 BYTE   W96
//  #10 //013   ----------------------------------------
 BYTE   W96
//  #10 //014   ----------------------------------------
 BYTE   W96
//  #10 //015   ----------------------------------------
 BYTE   W96
//  #10 //016   ----------------------------------------
 BYTE   W48
 BYTE   N32  En4  v044
 BYTE   W36
 BYTE   N32
 BYTE   W12
//  #10 //017   ----------------------------------------
 BYTE   W24
 BYTE   N32
 BYTE   W72
//  #10 //018   ----------------------------------------
 BYTE   W96
//  #10 //019   ----------------------------------------
 BYTE   W96
//  #10 //020   ----------------------------------------
 BYTE   W96
//  #10 //021   ----------------------------------------
 BYTE   W96
//  #10 //022   ----------------------------------------
 BYTE   W96
//  #10 //023   ----------------------------------------
 BYTE   W96
//  #10 //024   ----------------------------------------
 BYTE   W96
//  #10 //025   ----------------------------------------
 BYTE   W96
//  #10 //026   ----------------------------------------
 BYTE   W96
//  #10 //027   ----------------------------------------
 BYTE   W96
//  #10 //028   ----------------------------------------
 BYTE   W96
//  #10 //029   ----------------------------------------
 BYTE   W96
//  #10 //030   ----------------------------------------
 BYTE   W96
//  #10 //031   ----------------------------------------
 BYTE   W96
//  #10 //032   ----------------------------------------
 BYTE   W96
//  #10 //033   ----------------------------------------
 BYTE   W96
//  #10 //034   ----------------------------------------
 BYTE   W96
//  #10 //035   ----------------------------------------
 BYTE   W96
//  #10 //036   ----------------------------------------
 BYTE   W96
//  #10 //037   ----------------------------------------
 BYTE   W96
//  #10 //038   ----------------------------------------
 BYTE   W96
//  #10 //039   ----------------------------------------
 BYTE   W96
//  #10 //040   ----------------------------------------
 BYTE   W96
//  #10 //041   ----------------------------------------
 BYTE   W96
//  #10 //042   ----------------------------------------
 BYTE   W96
//  #10 //043   ----------------------------------------
 BYTE   W96
//  #10 //044   ----------------------------------------
 BYTE   W96
//  #10 //045   ----------------------------------------
 BYTE   W96
//  #10 //046   ----------------------------------------
 BYTE   W96
//  #10 //047   ----------------------------------------
 BYTE   W96
//  #10 //048   ----------------------------------------
 BYTE   W96
//  #10 //049   ----------------------------------------
 BYTE   W96
//  #10 //050   ----------------------------------------
 BYTE   W96
//  #10 //051   ----------------------------------------
 BYTE   W96
//  #10 //052   ----------------------------------------
 BYTE   W96
//  #10 //053   ----------------------------------------
 BYTE   W24
 BYTE   N02  Fs2  v016
 BYTE   N11  Fn4
 BYTE   W03
 BYTE   N02  Fs2
 BYTE   W03
 BYTE   N02
 BYTE   W03
 BYTE   N02
 BYTE   W03
 BYTE   N02
 BYTE   N11  Fn4
 BYTE   W03
 BYTE   N02  Fs2
 BYTE   W03
 BYTE   N02
 BYTE   W03
 BYTE   N02
 BYTE   W03
 BYTE   N02
 BYTE   N11  Fn4  v012
 BYTE   W03
 BYTE   N02  Fs2  v016
 BYTE   W03
 BYTE   N02
 BYTE   W03
 BYTE   N02
 BYTE   W03
 BYTE   N02
 BYTE   N11  Fn4  v008
 BYTE   W03
 BYTE   N02  Fs2  v016
 BYTE   W03
 BYTE   N02
 BYTE   W03
 BYTE   N02
 BYTE   W03
 BYTE   N02
 BYTE   N11  Fn4  v008
 BYTE   W03
 BYTE   N02  Fs2  v016
 BYTE   W03
 BYTE   N02
 BYTE   W03
 BYTE   N02
 BYTE   W03
 BYTE   N02
 BYTE   N11  Fn4  v004
 BYTE   W03
 BYTE   N02  Fs2  v016
 BYTE   W03
 BYTE   N02
 BYTE   W03
 BYTE   N02
 BYTE   W03
//  #10 //054   ----------------------------------------
 BYTE   W96
//  #10 //055   ----------------------------------------
 BYTE   W48
 BYTE   N02
 BYTE   N05  Fn4
 BYTE   W03
 BYTE   N02  Fs2
 BYTE   W03
 BYTE   N02
 BYTE   N05  Fn4
 BYTE   W03
 BYTE   N02  Fs2
 BYTE   W03
 BYTE   N02
 BYTE   N05  Fn4
 BYTE   W03
 BYTE   N02  Fs2
 BYTE   W03
 BYTE   N02
 BYTE   N05  Fn4  v012
 BYTE   W03
 BYTE   N02  Fs2  v016
 BYTE   W03
 BYTE   N02
 BYTE   N05  Fn4  v008
 BYTE   W03
 BYTE   N02  Fs2  v016
 BYTE   W03
 BYTE   N02
 BYTE   N05  Fn4  v008
 BYTE   W03
 BYTE   N02  Fs2  v004
 BYTE   W03
 BYTE   N02
 BYTE   N05  Fn4
 BYTE   W03
 BYTE   N02  Fs2
 BYTE   W03
 BYTE   N02
 BYTE   N05  Fn4
 BYTE   W03
 BYTE   N02  Fs2
 BYTE   W03
//  #10 //056   ----------------------------------------
 BYTE   W96
//  #10 //057   ----------------------------------------
 BYTE   W96
//  #10 //058   ----------------------------------------
 BYTE   W96
//  #10 //059   ----------------------------------------
 BYTE   W96
//  #10 //060   ----------------------------------------
 BYTE   W72
 BYTE   N32  En4  v044
 BYTE   W24
//  #10 //061   ----------------------------------------
 BYTE   W12
 BYTE   N32
 BYTE   W36
 BYTE   N32
 BYTE   W48
//  #10 //062   ----------------------------------------
 BYTE   W96
//  #10 //063   ----------------------------------------
 BYTE   W96
//  #10 //064   ----------------------------------------
 BYTE   W96
//  #10 //065   ----------------------------------------
 BYTE   W96
//  #10 //066   ----------------------------------------
 BYTE   W96
//  #10 //067   ----------------------------------------
 BYTE   W96
//  #10 //068   ----------------------------------------
 BYTE   W96
//  #10 //069   ----------------------------------------
 BYTE   W96
//  #10 //070   ----------------------------------------
 BYTE   W96
//  #10 //071   ----------------------------------------
 BYTE   W96
//  #10 //072   ----------------------------------------
 BYTE   W96
//  #10 //073   ----------------------------------------
 BYTE   W96
//  #10 //074   ----------------------------------------
 BYTE   W96
//  #10 //075   ----------------------------------------
 BYTE   W96
//  #10 //076   ----------------------------------------
 BYTE   W96
//  #10 //077   ----------------------------------------
 BYTE   W96
//  #10 //078   ----------------------------------------
 BYTE   W96
//  #10 //079   ----------------------------------------
 BYTE   W96
//  #10 //080   ----------------------------------------
 BYTE   W96
//  #10 //081   ----------------------------------------
 BYTE   W96
//  #10 //082   ----------------------------------------
 BYTE   W96
//  #10 //083   ----------------------------------------
 BYTE   W96
//  #10 //084   ----------------------------------------
 BYTE   W96
//  #10 //085   ----------------------------------------
 BYTE   W96
//  #10 //086   ----------------------------------------
 BYTE   W96
//  #10 //087   ----------------------------------------
 BYTE   W96
//  #10 //088   ----------------------------------------
 BYTE   W96
//  #10 //089   ----------------------------------------
 BYTE   W96
//  #10 //090   ----------------------------------------
 BYTE   W96
//  #10 //091   ----------------------------------------
 BYTE   W96
//  #10 //092   ----------------------------------------
 BYTE   W96
//  #10 //093   ----------------------------------------
 BYTE   W96
//  #10 //094   ----------------------------------------
 BYTE   W96
//  #10 //095   ----------------------------------------
 BYTE   W24
 BYTE   GoTo
  POIN2 Label_01005FB7
 BYTE   FINE

//******************************************************//
	ALIGN 4

LoZTotKRitoVillageNight:
	BYTE	10	// NumTrks
	BYTE	0	// NumBlks
	BYTE	LoZTotKRitoVillageNight_pri	// Priority
	BYTE	LoZTotKRitoVillageNight_rev	// Reverb.
    
	POIN2	LoZTotKRitoVillageNight_grp
    
	POIN2	LoZTotKRitoVillageNight_001
	POIN2	LoZTotKRitoVillageNight_002
	POIN2	LoZTotKRitoVillageNight_003
	POIN2	LoZTotKRitoVillageNight_004
	POIN2	LoZTotKRitoVillageNight_005
	POIN2	LoZTotKRitoVillageNight_006
	POIN2	LoZTotKRitoVillageNight_007
	POIN2	LoZTotKRitoVillageNight_008
	POIN2	LoZTotKRitoVillageNight_009
	POIN2	LoZTotKRitoVillageNight_010

	
