//Event file generated from Sappy .s format.
	

	#define	MischiefMakersSteppin_grp  voicegroup000
	#define	MischiefMakersSteppin_pri  0
	#define	MischiefMakersSteppin_rev  0
	#define	MischiefMakersSteppin_mvl  127
	#define	MischiefMakersSteppin_key  0
	#define	MischiefMakersSteppin_tbs  1
	#define	MischiefMakersSteppin_exg  0
	#define	MischiefMakersSteppin_cmp  1

	// .rodata
	//	MischiefMakersSteppin
	ALIGN 4


//**************** Track 1 (Midi-Chn.0) ****************//

MischiefMakersSteppin_001:
//  #01 //000   ----------------------------------------
 BYTE   KEYSH   MischiefMakersSteppin_key+0
Label_01197ED2:
 BYTE   TEMPO   112*MischiefMakersSteppin_tbs/2
 BYTE   VOICE   4
 BYTE   MODT 0
 BYTE   LFOS 44
 BYTE   VOL   0*MischiefMakersSteppin_mvl/mxv
 BYTE   N12  Cn3  v088
 BYTE   W36
 BYTE   N14  Cn3  v096
 BYTE   W60
//  #01 //001   ----------------------------------------
Label_01197EE4:
 BYTE   N12  Cn3  v096
 BYTE   W36
 BYTE   N11  Cn3  v108
 BYTE   W60
 BYTE   PEND 
//  #01 //002   ----------------------------------------
Label_01197EED:
 BYTE   N12  Cn3  v108
 BYTE   W36
 BYTE   N12
 BYTE   W60
 BYTE   PEND 
//  #01 //003   ----------------------------------------
Label_01197EF4:
 BYTE   N12  Cn3  v096
 BYTE   W36
 BYTE   Cn3  v108
 BYTE   W60
 BYTE   PEND 
//  #01 //004   ----------------------------------------
Label_01197EFC:
 BYTE   N11  Cn3  v108
 BYTE   W36
 BYTE   N11
 BYTE   W60
 BYTE   PEND 
//  #01 //005   ----------------------------------------
Label_01197F03:
 BYTE   N13  Cn3  v108
 BYTE   W36
 BYTE   N14
 BYTE   W60
 BYTE   PEND 
//  #01 //006   ----------------------------------------
Label_01197F0A:
 BYTE   N12  Cn3  v096
 BYTE   W36
 BYTE   N11  Cn3  v116
 BYTE   W60
 BYTE   PEND 
//  #01 //007   ----------------------------------------
Label_01197F13:
 BYTE   N13  Cn3  v108
 BYTE   W36
 BYTE   N09
 BYTE   W60
 BYTE   PEND 
//  #01 //008   ----------------------------------------
Label_01197F1A:
 BYTE   N12  Cn3  v088
 BYTE   W36
 BYTE   N14  Cn3  v096
 BYTE   W60
 BYTE   PEND 
//  #01 //009   ----------------------------------------
 BYTE   PATT
  POIN2 Label_01197EE4
//  #01 //010   ----------------------------------------
 BYTE   PATT
  POIN2 Label_01197EED
//  #01 //011   ----------------------------------------
 BYTE   PATT
  POIN2 Label_01197EF4
//  #01 //012   ----------------------------------------
 BYTE   PATT
  POIN2 Label_01197EFC
//  #01 //013   ----------------------------------------
 BYTE   PATT
  POIN2 Label_01197F03
//  #01 //014   ----------------------------------------
 BYTE   PATT
  POIN2 Label_01197F0A
//  #01 //015   ----------------------------------------
 BYTE   PATT
  POIN2 Label_01197F13
//  #01 //016   ----------------------------------------
 BYTE   PATT
  POIN2 Label_01197F1A
//  #01 //017   ----------------------------------------
 BYTE   PATT
  POIN2 Label_01197EE4
//  #01 //018   ----------------------------------------
 BYTE   PATT
  POIN2 Label_01197EED
//  #01 //019   ----------------------------------------
 BYTE   PATT
  POIN2 Label_01197EF4
//  #01 //020   ----------------------------------------
 BYTE   PATT
  POIN2 Label_01197EFC
//  #01 //021   ----------------------------------------
 BYTE   PATT
  POIN2 Label_01197F03
//  #01 //022   ----------------------------------------
 BYTE   PATT
  POIN2 Label_01197F0A
//  #01 //023   ----------------------------------------
 BYTE   PATT
  POIN2 Label_01197F13
//  #01 //024   ----------------------------------------
 BYTE   PATT
  POIN2 Label_01197F1A
//  #01 //025   ----------------------------------------
 BYTE   PATT
  POIN2 Label_01197EE4
//  #01 //026   ----------------------------------------
 BYTE   PATT
  POIN2 Label_01197EED
//  #01 //027   ----------------------------------------
 BYTE   PATT
  POIN2 Label_01197EF4
//  #01 //028   ----------------------------------------
 BYTE   PATT
  POIN2 Label_01197EFC
//  #01 //029   ----------------------------------------
 BYTE   PATT
  POIN2 Label_01197F03
//  #01 //030   ----------------------------------------
 BYTE   PATT
  POIN2 Label_01197F0A
//  #01 //031   ----------------------------------------
 BYTE   PATT
  POIN2 Label_01197F13
//  #01 //032   ----------------------------------------
 BYTE   PATT
  POIN2 Label_01197F1A
//  #01 //033   ----------------------------------------
 BYTE   PATT
  POIN2 Label_01197EE4
//  #01 //034   ----------------------------------------
 BYTE   GoTo
  POIN2 Label_01197ED2
 BYTE   FINE

//**************** Track 2 (Midi-Chn.1) ****************//

MischiefMakersSteppin_002:
//  #02 //000   ----------------------------------------
 BYTE   VOL   65*MischiefMakersSteppin_mvl/mxv
 BYTE   KEYSH   MischiefMakersSteppin_key+0
Label_01197D0C:
 BYTE   VOICE   36
 BYTE   MODT 0
 BYTE   LFOS 44
 BYTE   W96
//  #02 //001   ----------------------------------------
 BYTE   W96
//  #02 //002   ----------------------------------------
 BYTE   W96
//  #02 //003   ----------------------------------------
 BYTE   W96
//  #02 //004   ----------------------------------------
 BYTE   N11  An2  v096
 BYTE   W36
 BYTE   N08
 BYTE   W60
//  #02 //005   ----------------------------------------
 BYTE   N09
 BYTE   W36
 BYTE   N07
 BYTE   W60
//  #02 //006   ----------------------------------------
 BYTE   N09  Gn2
 BYTE   W36
 BYTE   N08
 BYTE   W60
//  #02 //007   ----------------------------------------
 BYTE   N07
 BYTE   W36
 BYTE   N07
 BYTE   W60
//  #02 //008   ----------------------------------------
 BYTE   N08  An2
 BYTE   W12
 BYTE   N02  En2
 BYTE   W12
 BYTE   N04  Bn2
 BYTE   W12
 BYTE   N03  En2
 BYTE   W12
 BYTE   N07  An2
 BYTE   W12
 BYTE   N02  En2
 BYTE   W12
 BYTE   N08  Bn2
 BYTE   W12
 BYTE   N02  En2
 BYTE   W12
//  #02 //009   ----------------------------------------
 BYTE   N08  An2
 BYTE   W12
 BYTE   N02  En2
 BYTE   W12
 BYTE   N08  Bn2
 BYTE   W12
 BYTE   N02  En2
 BYTE   W12
 BYTE   N08  An2
 BYTE   W12
 BYTE   N02  En2
 BYTE   W12
 BYTE   N08  Bn2
 BYTE   W12
 BYTE   N03  En2
 BYTE   W12
//  #02 //010   ----------------------------------------
 BYTE   N09  An2
 BYTE   W12
 BYTE   N03  Dn2
 BYTE   W12
 BYTE   N08  Bn2
 BYTE   W12
 BYTE   N02  Dn2
 BYTE   W12
 BYTE   N08  An2
 BYTE   W12
 BYTE   N02  Dn2
 BYTE   W12
 BYTE   N08  Bn2
 BYTE   W12
 BYTE   N02  Dn2
 BYTE   W12
//  #02 //011   ----------------------------------------
 BYTE   N08  An2
 BYTE   W12
 BYTE   N02  Dn2
 BYTE   W12
 BYTE   N08  Bn2
 BYTE   W12
 BYTE   N02  Dn2
 BYTE   W12
 BYTE   N08  An2
 BYTE   W12
 BYTE   N02  Dn2
 BYTE   W12
 BYTE   N08  Bn2
 BYTE   W12
 BYTE   N02  Dn2
 BYTE   W12
//  #02 //012   ----------------------------------------
 BYTE   N07  An2
 BYTE   W12
 BYTE   N02  En2
 BYTE   W12
 BYTE   N08  Bn2
 BYTE   W12
 BYTE   N02  En2
 BYTE   W12
 BYTE   N08  An2
 BYTE   W12
 BYTE   N01  En2
 BYTE   W12
 BYTE   N07  Bn2
 BYTE   W12
 BYTE   N01  En2
 BYTE   W12
//  #02 //013   ----------------------------------------
 BYTE   N08  An2
 BYTE   W12
 BYTE   N02  En2
 BYTE   W12
 BYTE   N08  Bn2
 BYTE   W12
 BYTE   N01  En2
 BYTE   W12
 BYTE   N08  An2
 BYTE   W12
 BYTE   N01  En2
 BYTE   W12
 BYTE   N08  Bn2
 BYTE   W12
 BYTE   N01  En2
 BYTE   W12
//  #02 //014   ----------------------------------------
 BYTE   N09  An2
 BYTE   W12
 BYTE   N02  Dn2
 BYTE   W12
 BYTE   N07  Bn2
 BYTE   W12
 BYTE   N02  Dn2
 BYTE   W12
 BYTE   N08  An2
 BYTE   W12
 BYTE   N02  Dn2
 BYTE   W12
 BYTE   N08  Bn2
 BYTE   W12
 BYTE   N02  Dn2
 BYTE   W12
//  #02 //015   ----------------------------------------
 BYTE   N08  An2
 BYTE   W12
 BYTE   N02  Dn2
 BYTE   W12
 BYTE   N08  Bn2
 BYTE   W12
 BYTE   N02  Dn2
 BYTE   W12
 BYTE   N09  An2
 BYTE   W12
 BYTE   N03  Dn2
 BYTE   W12
 BYTE   N08  Bn2
 BYTE   W12
 BYTE   N04  Dn2
 BYTE   W12
//  #02 //016   ----------------------------------------
 BYTE   N07  Bn2
 BYTE   W12
 BYTE   N02  Fs2
 BYTE   W12
 BYTE   N08  Cs3
 BYTE   W12
 BYTE   N02  Fs2
 BYTE   W12
 BYTE   N09  Bn2
 BYTE   W12
 BYTE   N02  Fs2
 BYTE   W12
 BYTE   N08  Cs3
 BYTE   W12
 BYTE   N02  Fs2
 BYTE   W12
//  #02 //017   ----------------------------------------
 BYTE   N09  Bn2
 BYTE   W12
 BYTE   N03  Fs2
 BYTE   W12
 BYTE   N08  Cs3
 BYTE   W12
 BYTE   N01  Fs2
 BYTE   W12
 BYTE   N09  Bn2
 BYTE   W12
 BYTE   N03  Fs2
 BYTE   W12
 BYTE   N08  Cs3
 BYTE   W12
 BYTE   N02  Fs2
 BYTE   W12
//  #02 //018   ----------------------------------------
Label_01197E19:
 BYTE   N08  Cn3  v096
 BYTE   W12
 BYTE   N02  Gn2
 BYTE   W12
 BYTE   N08  Dn3
 BYTE   W12
 BYTE   N02  Gn2
 BYTE   W12
 BYTE   N08  Cn3
 BYTE   W12
 BYTE   N02  Gn2
 BYTE   W12
 BYTE   N08  Dn3
 BYTE   W12
 BYTE   N02  Gn2
 BYTE   W12
 BYTE   PEND 
//  #02 //019   ----------------------------------------
 BYTE   N08  Cn3
 BYTE   W12
 BYTE   N02  Gn2
 BYTE   W12
 BYTE   N08  Dn3
 BYTE   W12
 BYTE   N02  Gn2
 BYTE   W12
 BYTE   N08  Cn3
 BYTE   W12
 BYTE   N02  Gn2
 BYTE   W12
 BYTE   N09  Dn3
 BYTE   W12
 BYTE   N02  Gn2
 BYTE   W12
//  #02 //020   ----------------------------------------
 BYTE   N09  Bn2
 BYTE   W12
 BYTE   N02  Fs2
 BYTE   W12
 BYTE   N08  Cs3
 BYTE   W12
 BYTE   N02  Fs2
 BYTE   W12
 BYTE   N08  Bn2
 BYTE   W12
 BYTE   N02  Fs2
 BYTE   W12
 BYTE   N08  Cs3
 BYTE   W12
 BYTE   N02  Fs2
 BYTE   W12
//  #02 //021   ----------------------------------------
 BYTE   N08  Bn2
 BYTE   W12
 BYTE   N03  Fs2
 BYTE   W12
 BYTE   N08  Cs3
 BYTE   W12
 BYTE   N02  Fs2
 BYTE   W12
 BYTE   N09  Bn2
 BYTE   W12
 BYTE   N02  Fs2
 BYTE   W12
 BYTE   N08  Cs3
 BYTE   W12
 BYTE   N02  Fs2
 BYTE   W12
//  #02 //022   ----------------------------------------
 BYTE   PATT
  POIN2 Label_01197E19
//  #02 //023   ----------------------------------------
 BYTE   N09  Cn3  v096
 BYTE   W12
 BYTE   N02  Gn2
 BYTE   W12
 BYTE   N09  Dn3
 BYTE   W12
 BYTE   N02  Gn2
 BYTE   W12
 BYTE   N08  Cn3
 BYTE   W12
 BYTE   N02  Gn2
 BYTE   W12
 BYTE   N08  Dn3
 BYTE   W12
 BYTE   N03  Gn2
 BYTE   W12
//  #02 //024   ----------------------------------------
 BYTE   W96
//  #02 //025   ----------------------------------------
 BYTE   W96
//  #02 //026   ----------------------------------------
 BYTE   W96
//  #02 //027   ----------------------------------------
 BYTE   W96
//  #02 //028   ----------------------------------------
 BYTE   W96
//  #02 //029   ----------------------------------------
 BYTE   W96
//  #02 //030   ----------------------------------------
 BYTE   N28  Fn3  v052
 BYTE   W36
 BYTE   N32  Cn4
 BYTE   W36
 BYTE   N17  Fn3
 BYTE   W24
//  #02 //031   ----------------------------------------
 BYTE   N24  Gn3  v048
 BYTE   W36
 BYTE   En4  v052
 BYTE   W36
 BYTE   N13  Gn3
 BYTE   W24
//  #02 //032   ----------------------------------------
 BYTE   TIE  Dn4
 BYTE   W96
//  #02 //033   ----------------------------------------
 BYTE   W12
 BYTE   EOT
 BYTE   W06
 BYTE   N15  Cs4  v048
 BYTE   W18
 BYTE   N11  Cn4
 BYTE   W12
 BYTE   N12  Bn3
 BYTE   W18
 BYTE   N13  As3  v052
 BYTE   W18
 BYTE   N09  An3
 BYTE   W12
//  #02 //034   ----------------------------------------
 BYTE   GoTo
  POIN2 Label_01197D0C
 BYTE   FINE

//**************** Track 3 (Midi-Chn.2) ****************//

MischiefMakersSteppin_003:
//  #03 //000   ----------------------------------------
 BYTE   VOL   65*MischiefMakersSteppin_mvl/mxv
 BYTE   KEYSH   MischiefMakersSteppin_key+0
Label_0119E038:
 BYTE   VOICE   36
 BYTE   MODT 0
 BYTE   LFOS 44
 BYTE   N07  An2  v080
 BYTE   W12
 BYTE   En2  v064
 BYTE   W12
 BYTE   An2
 BYTE   W12
 BYTE   N07
 BYTE   W60
//  #03 //001   ----------------------------------------
Label_0119E049:
 BYTE   N07  An2  v080
 BYTE   W12
 BYTE   En2  v064
 BYTE   W12
 BYTE   An2  v080
 BYTE   W12
 BYTE   N07
 BYTE   W60
 BYTE   PEND 
//  #03 //002   ----------------------------------------
 BYTE   Gn2
 BYTE   W12
 BYTE   Dn2  v072
 BYTE   W12
 BYTE   Gn2  v080
 BYTE   W12
 BYTE   N07
 BYTE   W60
//  #03 //003   ----------------------------------------
 BYTE   N07
 BYTE   W12
 BYTE   Dn2  v064
 BYTE   W12
 BYTE   Gn2  v072
 BYTE   W12
 BYTE   N07
 BYTE   W60
//  #03 //004   ----------------------------------------
 BYTE   PATT
  POIN2 Label_0119E049
//  #03 //005   ----------------------------------------
 BYTE   PATT
  POIN2 Label_0119E049
//  #03 //006   ----------------------------------------
 BYTE   N07  Gn2  v080
 BYTE   W12
 BYTE   Dn2  v068
 BYTE   W12
 BYTE   Gn2  v072
 BYTE   W12
 BYTE   N07
 BYTE   W60
//  #03 //007   ----------------------------------------
 BYTE   Gn2  v080
 BYTE   W12
 BYTE   Dn2  v064
 BYTE   W12
 BYTE   Gn2  v080
 BYTE   W36
 BYTE   N10  Gn1  v064
 BYTE   W12
 BYTE   N17  Gn2  v072
 BYTE   W24
//  #03 //008   ----------------------------------------
 BYTE   W96
//  #03 //009   ----------------------------------------
 BYTE   W96
//  #03 //010   ----------------------------------------
 BYTE   W96
//  #03 //011   ----------------------------------------
 BYTE   W96
//  #03 //012   ----------------------------------------
 BYTE   W96
//  #03 //013   ----------------------------------------
 BYTE   W96
//  #03 //014   ----------------------------------------
 BYTE   W96
//  #03 //015   ----------------------------------------
 BYTE   W96
//  #03 //016   ----------------------------------------
 BYTE   W96
//  #03 //017   ----------------------------------------
 BYTE   W96
//  #03 //018   ----------------------------------------
 BYTE   W96
//  #03 //019   ----------------------------------------
 BYTE   W96
//  #03 //020   ----------------------------------------
 BYTE   W96
//  #03 //021   ----------------------------------------
 BYTE   W96
//  #03 //022   ----------------------------------------
 BYTE   W96
//  #03 //023   ----------------------------------------
 BYTE   W96
//  #03 //024   ----------------------------------------
 BYTE   N06  Gn1  v127
 BYTE   W12
 BYTE   Gn1  v116
 BYTE   W12
 BYTE   N06
 BYTE   W12
 BYTE   Gn1  v127
 BYTE   W12
 BYTE   Gn1  v116
 BYTE   W12
 BYTE   N06
 BYTE   W12
 BYTE   N06
 BYTE   W12
 BYTE   N06
 BYTE   W12
//  #03 //025   ----------------------------------------
Label_0119E0B6:
 BYTE   N06  Gn1  v116
 BYTE   W12
 BYTE   N06
 BYTE   W12
 BYTE   N06
 BYTE   W12
 BYTE   N06
 BYTE   W12
 BYTE   N06
 BYTE   W12
 BYTE   N06
 BYTE   W12
 BYTE   N06
 BYTE   W12
 BYTE   N06
 BYTE   W12
 BYTE   PEND 
//  #03 //026   ----------------------------------------
 BYTE   PATT
  POIN2 Label_0119E0B6
//  #03 //027   ----------------------------------------
 BYTE   N06  Gn1  v124
 BYTE   W12
 BYTE   Gn1  v116
 BYTE   W12
 BYTE   N06
 BYTE   W12
 BYTE   N06
 BYTE   W12
 BYTE   N06
 BYTE   W12
 BYTE   N06
 BYTE   W12
 BYTE   N06
 BYTE   W12
 BYTE   N06
 BYTE   W12
//  #03 //028   ----------------------------------------
 BYTE   PATT
  POIN2 Label_0119E0B6
//  #03 //029   ----------------------------------------
 BYTE   N06  Gn1  v116
 BYTE   W12
 BYTE   N06
 BYTE   W12
 BYTE   N06
 BYTE   W12
 BYTE   Gn1  v124
 BYTE   W12
 BYTE   Gn1  v116
 BYTE   W12
 BYTE   N06
 BYTE   W12
 BYTE   N06
 BYTE   W12
 BYTE   N06
 BYTE   W12
//  #03 //030   ----------------------------------------
 BYTE   As1
 BYTE   W12
 BYTE   N06
 BYTE   W12
 BYTE   N06
 BYTE   W12
 BYTE   N06
 BYTE   W12
 BYTE   N06
 BYTE   W12
 BYTE   N06
 BYTE   W12
 BYTE   N06
 BYTE   W12
 BYTE   N06
 BYTE   W12
//  #03 //031   ----------------------------------------
 BYTE   Cn2  v124
 BYTE   W12
 BYTE   Cn2  v116
 BYTE   W12
 BYTE   N06
 BYTE   W12
 BYTE   Cn2  v124
 BYTE   W12
 BYTE   Cn2  v116
 BYTE   W12
 BYTE   N06
 BYTE   W12
 BYTE   Cn2  v124
 BYTE   W12
 BYTE   N06
 BYTE   W12
//  #03 //032   ----------------------------------------
 BYTE   W96
//  #03 //033   ----------------------------------------
 BYTE   W96
//  #03 //034   ----------------------------------------
 BYTE   GoTo
  POIN2 Label_0119E038
 BYTE   FINE

//**************** Track 4 (Midi-Chn.3) ****************//

MischiefMakersSteppin_004:
//  #04 //000   ----------------------------------------
 BYTE   VOL   50*MischiefMakersSteppin_mvl/mxv
 BYTE   KEYSH   MischiefMakersSteppin_key+0
Label_01197FC8:
 BYTE   VOICE   4
 BYTE   MODT 0
 BYTE   LFOS 44
 BYTE   W96
//  #04 //001   ----------------------------------------
 BYTE   W96
//  #04 //002   ----------------------------------------
 BYTE   W96
//  #04 //003   ----------------------------------------
 BYTE   W96
//  #04 //004   ----------------------------------------
 BYTE   N16  Bn3  v088
 BYTE   W18
 BYTE   Cs4
 BYTE   W18
 BYTE   N66  Fs4
 BYTE   W60
//  #04 //005   ----------------------------------------
 BYTE   W48
 BYTE   N16  Bn3  v100
 BYTE   W18
 BYTE   Cs4
 BYTE   W18
 BYTE   N11  Fs4  v088
 BYTE   W12
//  #04 //006   ----------------------------------------
 BYTE   N32  Cs5
 BYTE   W36
 BYTE   N05  Bn4
 BYTE   W06
 BYTE   An4
 BYTE   W06
 BYTE   N44  Bn4
 BYTE   W48
//  #04 //007   ----------------------------------------
 BYTE   W96
//  #04 //008   ----------------------------------------
 BYTE   N32  Cs3  v124
 BYTE   W36
 BYTE   N05  An2  v092
 BYTE   W06
 BYTE   Cs3  v108
 BYTE   W06
 BYTE   N32  Dn3  v124
 BYTE   W36
 BYTE   N05  Cs3  v116
 BYTE   W06
 BYTE   Dn3  v092
 BYTE   W06
//  #04 //009   ----------------------------------------
 BYTE   N11  Fs3  v100
 BYTE   W12
 BYTE   N05  En3  v088
 BYTE   W06
 BYTE   Dn3  v100
 BYTE   W06
 BYTE   N32  En3  v127
 BYTE   W36
 BYTE   N05  Dn3  v092
 BYTE   W06
 BYTE   Cs3
 BYTE   W06
 BYTE   N11  Dn3  v124
 BYTE   W12
 BYTE   N05  Cs3  v100
 BYTE   W06
 BYTE   N04  Bn2
 BYTE   W06
//  #04 //010   ----------------------------------------
 BYTE   N28  Cs3  v124
 BYTE   W36
 BYTE   N09  Dn3  v108
 BYTE   W12
 BYTE   N48  Dn3  v116
 BYTE   W48
//  #04 //011   ----------------------------------------
 BYTE   W12
 BYTE   N14  En3  v108
 BYTE   W18
 BYTE   Fs3  v127
 BYTE   W18
 BYTE   N16  Gn3  v100
 BYTE   W18
 BYTE   An3  v124
 BYTE   W18
 BYTE   N09  Bn3  v127
 BYTE   W12
//  #04 //012   ----------------------------------------
 BYTE   N28  Dn4  v120
 BYTE   W36
 BYTE   N04  Cs4  v100
 BYTE   W06
 BYTE   Bn3  v092
 BYTE   W06
 BYTE   N68  Cs4  v116
 BYTE   W48
//  #04 //013   ----------------------------------------
 BYTE   W36
 BYTE   N05  Bn3  v100
 BYTE   W06
 BYTE   An3  v092
 BYTE   W06
 BYTE   N16  Bn3  v127
 BYTE   W18
 BYTE   N11  Cs4  v124
 BYTE   W12
 BYTE   N05  Dn4  v092
 BYTE   W06
 BYTE   N09  En4  v116
 BYTE   W12
//  #04 //014   ----------------------------------------
 BYTE   N28  En4  v124
 BYTE   W36
 BYTE   N09  Fs4
 BYTE   W12
 BYTE   N76  Fs4  v127
 BYTE   W48
//  #04 //015   ----------------------------------------
 BYTE   W48
 BYTE   N16  An4  v100
 BYTE   W18
 BYTE   Gn4  v124
 BYTE   W18
 BYTE   N10  Fs4  v116
 BYTE   W12
//  #04 //016   ----------------------------------------
 BYTE   W96
//  #04 //017   ----------------------------------------
 BYTE   W96
//  #04 //018   ----------------------------------------
 BYTE   W96
//  #04 //019   ----------------------------------------
 BYTE   W96
//  #04 //020   ----------------------------------------
 BYTE   W96
//  #04 //021   ----------------------------------------
 BYTE   W96
//  #04 //022   ----------------------------------------
 BYTE   W96
//  #04 //023   ----------------------------------------
 BYTE   W96
//  #04 //024   ----------------------------------------
 BYTE   N28  Cs4
 BYTE   W36
 BYTE   Bn3  v100
 BYTE   W36
 BYTE   Cs4  v124
 BYTE   W24
//  #04 //025   ----------------------------------------
 BYTE   W12
 BYTE   Dn4  v108
 BYTE   W36
 BYTE   N36  Cs4  v116
 BYTE   W48
//  #04 //026   ----------------------------------------
 BYTE   N28  Cs4  v124
 BYTE   W36
 BYTE   Bn3  v108
 BYTE   W36
 BYTE   Fs4  v124
 BYTE   W24
//  #04 //027   ----------------------------------------
 BYTE   W12
 BYTE   N36  An3  v108
 BYTE   W48
 BYTE   N19  Bn3  v116
 BYTE   W24
 BYTE   N04  Cs4  v108
 BYTE   W06
 BYTE   Dn4  v100
 BYTE   W06
//  #04 //028   ----------------------------------------
 BYTE   N28  Cs4  v127
 BYTE   W36
 BYTE   Bn3  v124
 BYTE   W36
 BYTE   Cs4  v127
 BYTE   W24
//  #04 //029   ----------------------------------------
 BYTE   W12
 BYTE   Dn4  v124
 BYTE   W36
 BYTE   N14  En4  v127
 BYTE   W18
 BYTE   Fs4  v124
 BYTE   W18
 BYTE   N04  Gn4  v108
 BYTE   W06
 BYTE   An4  v124
 BYTE   W06
//  #04 //030   ----------------------------------------
 BYTE   N28  Fn4  v127
 BYTE   W36
 BYTE   N04  En4  v108
 BYTE   W06
 BYTE   Fn4  v116
 BYTE   W06
 BYTE   N28  Gn4
 BYTE   W36
 BYTE   N04  Fn4  v100
 BYTE   W06
 BYTE   En4
 BYTE   W06
//  #04 //031   ----------------------------------------
 BYTE   N28  Fn4  v127
 BYTE   W36
 BYTE   N04  En4  v088
 BYTE   W06
 BYTE   Fn4  v108
 BYTE   W06
 BYTE   N14  An4  v124
 BYTE   W18
 BYTE   Gn4  v127
 BYTE   W18
 BYTE   N04  Fn4  v092
 BYTE   W06
 BYTE   En4
 BYTE   W06
//  #04 //032   ----------------------------------------
 BYTE   N66  Fs4  v124
 BYTE   W72
 BYTE   N22  An4  v088
 BYTE   W24
//  #04 //033   ----------------------------------------
 BYTE   N16  Gs4
 BYTE   W18
 BYTE   En4
 BYTE   W18
 BYTE   N11  Gn4  v100
 BYTE   W12
 BYTE   N16  Fs4
 BYTE   W18
 BYTE   Dn4  v088
 BYTE   W18
 BYTE   N08  Bn3  v100
 BYTE   W12
//  #04 //034   ----------------------------------------
 BYTE   GoTo
  POIN2 Label_01197FC8
 BYTE   FINE

//**************** Track 5 (Midi-Chn.4) ****************//

MischiefMakersSteppin_005:
//  #05 //000   ----------------------------------------
 BYTE   VOL   50*MischiefMakersSteppin_mvl/mxv
 BYTE   KEYSH   MischiefMakersSteppin_key+0
Label_01198128:
 BYTE   VOICE   11
 BYTE   MODT 0
 BYTE   LFOS 44
 BYTE   W96
//  #05 //001   ----------------------------------------
 BYTE   W96
//  #05 //002   ----------------------------------------
 BYTE   W96
//  #05 //003   ----------------------------------------
 BYTE   W96
//  #05 //004   ----------------------------------------
 BYTE   W96
//  #05 //005   ----------------------------------------
 BYTE   W96
//  #05 //006   ----------------------------------------
 BYTE   W96
//  #05 //007   ----------------------------------------
 BYTE   W96
//  #05 //008   ----------------------------------------
 BYTE   N08  An2  v068
 BYTE   W12
 BYTE   N03  En3  v052
 BYTE   W12
 BYTE   N05  En4  v072
 BYTE   W12
 BYTE   N06  An2
 BYTE   W12
 BYTE   N05  En3  v068
 BYTE   W12
 BYTE   N06  Cs4  v084
 BYTE   W12
 BYTE   N07  An2  v076
 BYTE   W12
 BYTE   N04  En3  v072
 BYTE   W12
//  #05 //009   ----------------------------------------
 BYTE   N07  An2  v088
 BYTE   W12
 BYTE   N04  En3  v072
 BYTE   W12
 BYTE   N06  En4  v088
 BYTE   W12
 BYTE   N07  An2  v076
 BYTE   W12
 BYTE   N08  En3
 BYTE   W12
 BYTE   N07  Cs4  v096
 BYTE   W12
 BYTE   N06  En3  v076
 BYTE   W12
 BYTE   N05  An2
 BYTE   W12
//  #05 //010   ----------------------------------------
 BYTE   N09  Gn2  v088
 BYTE   W12
 BYTE   N06  Dn3
 BYTE   W12
 BYTE   Dn4  v096
 BYTE   W12
 BYTE   N05  Dn3  v072
 BYTE   W12
 BYTE   N10  Gn2
 BYTE   W12
 BYTE   N07  Bn3  v096
 BYTE   W12
 BYTE   N06  Dn3  v084
 BYTE   W12
 BYTE   N11  Gn2
 BYTE   W12
//  #05 //011   ----------------------------------------
 BYTE   N07  Dn4  v088
 BYTE   W12
 BYTE   N03  Dn3  v072
 BYTE   W12
 BYTE   N07  Gn2  v076
 BYTE   W12
 BYTE   N06  Bn3  v096
 BYTE   W12
 BYTE   N03  Dn3  v072
 BYTE   W12
 BYTE   N10  Gn2  v076
 BYTE   W12
 BYTE   N07  Gn3  v072
 BYTE   W12
 BYTE   N10  Dn3  v076
 BYTE   W12
//  #05 //012   ----------------------------------------
 BYTE   N09  An2  v084
 BYTE   W12
 BYTE   N07  En3  v076
 BYTE   W12
 BYTE   N06  An3
 BYTE   W12
 BYTE   N09  En4  v088
 BYTE   W12
 BYTE   N05  En3  v076
 BYTE   W12
 BYTE   N09  An2  v072
 BYTE   W12
 BYTE   N11  Dn4  v108
 BYTE   W12
 BYTE   En3  v096
 BYTE   W12
//  #05 //013   ----------------------------------------
 BYTE   N10  An2  v076
 BYTE   W12
 BYTE   N07  En3  v072
 BYTE   W12
 BYTE   N08  Cs4  v096
 BYTE   W12
 BYTE   N06  En3  v076
 BYTE   W12
 BYTE   N09  An2  v072
 BYTE   W12
 BYTE   N10  Bn3  v088
 BYTE   W12
 BYTE   En3  v076
 BYTE   W12
 BYTE   N08  Cs4  v088
 BYTE   W12
//  #05 //014   ----------------------------------------
 BYTE   N10  Gn2
 BYTE   W12
 BYTE   N06  Dn3  v076
 BYTE   W12
 BYTE   N09  Dn4  v084
 BYTE   W12
 BYTE   N11  Gn2  v088
 BYTE   W12
 BYTE   N07  Cs4
 BYTE   W12
 BYTE   N06  Dn3
 BYTE   W12
 BYTE   N10  Gn2  v096
 BYTE   W12
 BYTE   N07  Bn3
 BYTE   W12
//  #05 //015   ----------------------------------------
 BYTE   N06  Dn3
 BYTE   W12
 BYTE   N10  Gn2  v088
 BYTE   W12
 BYTE   N08  An3  v084
 BYTE   W12
 BYTE   N05  Dn3  v088
 BYTE   W12
 BYTE   N08  Gn3  v076
 BYTE   W12
 BYTE   N04  Dn3  v096
 BYTE   W06
 BYTE   N12  Bn3
 BYTE   W18
 BYTE   N07  Gn2  v088
 BYTE   W12
//  #05 //016   ----------------------------------------
 BYTE   N03  Cs4  v068
 BYTE   W12
 BYTE   N02  Cs4  v052
 BYTE   W12
 BYTE   Cs4  v040
 BYTE   W12
 BYTE   N03  Cs4  v076
 BYTE   W12
 BYTE   Cs4  v052
 BYTE   W12
 BYTE   N02  Cs4  v060
 BYTE   W12
 BYTE   N03  Cs4  v088
 BYTE   W12
 BYTE   N02  Cs4  v060
 BYTE   W12
//  #05 //017   ----------------------------------------
 BYTE   N03  Cs4  v088
 BYTE   W12
 BYTE   N02  Cs4  v052
 BYTE   W12
 BYTE   N02
 BYTE   W12
 BYTE   N03  Cs4  v088
 BYTE   W12
 BYTE   N02  Cs4  v052
 BYTE   W12
 BYTE   N01  Cs4  v056
 BYTE   W12
 BYTE   N03  Cs4  v088
 BYTE   W12
 BYTE   N02  Cs4  v068
 BYTE   W12
//  #05 //018   ----------------------------------------
 BYTE   N04  Dn4  v088
 BYTE   W12
 BYTE   N02  Dn4  v056
 BYTE   W12
 BYTE   Dn4  v048
 BYTE   W12
 BYTE   N03  Dn4  v076
 BYTE   W12
 BYTE   Dn4  v072
 BYTE   W12
 BYTE   Dn4  v056
 BYTE   W12
 BYTE   N04  Dn4  v072
 BYTE   W12
 BYTE   N02  Dn4  v056
 BYTE   W12
//  #05 //019   ----------------------------------------
 BYTE   N04  Dn4  v076
 BYTE   W12
 BYTE   N03  Dn4  v052
 BYTE   W12
 BYTE   Dn4  v072
 BYTE   W12
 BYTE   N04  Dn4  v076
 BYTE   W12
 BYTE   N03  Dn4  v056
 BYTE   W12
 BYTE   Dn4  v072
 BYTE   W12
 BYTE   N03
 BYTE   W12
 BYTE   Dn4  v068
 BYTE   W12
//  #05 //020   ----------------------------------------
 BYTE   N04  Cs4
 BYTE   W12
 BYTE   N02  Cs4  v036
 BYTE   W12
 BYTE   N02
 BYTE   W12
 BYTE   N03  Cs4  v068
 BYTE   W12
 BYTE   N02  Cs4  v032
 BYTE   W12
 BYTE   N03  Cs4  v044
 BYTE   W12
 BYTE   N04  Cs4  v056
 BYTE   W12
 BYTE   N03
 BYTE   W12
//  #05 //021   ----------------------------------------
 BYTE   N04  Cs4  v076
 BYTE   W12
 BYTE   N03  Cs4  v044
 BYTE   W12
 BYTE   Cs4  v040
 BYTE   W12
 BYTE   N04  Cs4  v072
 BYTE   W12
 BYTE   N03  Cs4  v036
 BYTE   W12
 BYTE   Cs4  v048
 BYTE   W12
 BYTE   N04  Cs4  v072
 BYTE   W12
 BYTE   Cs4  v068
 BYTE   W12
//  #05 //022   ----------------------------------------
 BYTE   En4  v076
 BYTE   W12
 BYTE   N03  En4  v044
 BYTE   W12
 BYTE   En4  v036
 BYTE   W12
 BYTE   N05  En4  v072
 BYTE   W12
 BYTE   N03  En4  v036
 BYTE   W12
 BYTE   En4  v032
 BYTE   W12
 BYTE   N04  En4  v060
 BYTE   W12
 BYTE   N03  En4  v048
 BYTE   W12
//  #05 //023   ----------------------------------------
 BYTE   N05  En4  v068
 BYTE   W12
 BYTE   N04  En4  v040
 BYTE   W12
 BYTE   N03  En4  v036
 BYTE   W12
 BYTE   N04  En4  v068
 BYTE   W12
 BYTE   N03  En4  v036
 BYTE   W12
 BYTE   En4  v048
 BYTE   W12
 BYTE   N04  En4  v068
 BYTE   W12
 BYTE   N03  En4  v072
 BYTE   W12
//  #05 //024   ----------------------------------------
 BYTE   N04  Dn3  v096
 BYTE   W12
 BYTE   N03  Dn3  v072
 BYTE   W12
 BYTE   N08  Dn3  v096
 BYTE   W12
 BYTE   N05  En3
 BYTE   W12
 BYTE   N03  En3  v072
 BYTE   W12
 BYTE   En3  v068
 BYTE   W12
 BYTE   N04  Dn3  v096
 BYTE   W12
 BYTE   N03  Dn3  v068
 BYTE   W12
//  #05 //025   ----------------------------------------
 BYTE   N04  Dn3  v088
 BYTE   W12
 BYTE   En3  v076
 BYTE   W12
 BYTE   N03  En3  v072
 BYTE   W12
 BYTE   En3  v076
 BYTE   W12
 BYTE   N04  Dn3  v096
 BYTE   W12
 BYTE   Dn3  v088
 BYTE   W12
 BYTE   En3
 BYTE   W12
 BYTE   N03  En3  v072
 BYTE   W12
//  #05 //026   ----------------------------------------
 BYTE   N05  Dn3  v096
 BYTE   W12
 BYTE   N03  Dn3  v072
 BYTE   W12
 BYTE   N05  Dn3  v108
 BYTE   W12
 BYTE   N04  En3  v088
 BYTE   W12
 BYTE   N03  En3  v072
 BYTE   W12
 BYTE   En3  v076
 BYTE   W12
 BYTE   N04  Dn3  v096
 BYTE   W12
 BYTE   N02  Dn3  v068
 BYTE   W12
//  #05 //027   ----------------------------------------
 BYTE   N04  Dn3  v088
 BYTE   W12
 BYTE   Fs3  v076
 BYTE   W12
 BYTE   Fs3  v088
 BYTE   W12
 BYTE   N03  En3  v076
 BYTE   W12
 BYTE   N05  En3  v096
 BYTE   W12
 BYTE   N04  Dn3
 BYTE   W12
 BYTE   N04
 BYTE   W12
 BYTE   Cs3  v084
 BYTE   W12
//  #05 //028   ----------------------------------------
 BYTE   N05  Dn3  v108
 BYTE   W12
 BYTE   N04  Dn3  v076
 BYTE   W12
 BYTE   Dn3  v096
 BYTE   W12
 BYTE   En3  v084
 BYTE   W12
 BYTE   N03  En3  v076
 BYTE   W12
 BYTE   En3  v084
 BYTE   W12
 BYTE   N04  Dn3  v096
 BYTE   W12
 BYTE   N03  Dn3  v072
 BYTE   W12
//  #05 //029   ----------------------------------------
 BYTE   N04  Dn3  v096
 BYTE   W12
 BYTE   En3
 BYTE   W12
 BYTE   N03  En3  v076
 BYTE   W12
 BYTE   N04  En3  v088
 BYTE   W12
 BYTE   Dn3
 BYTE   W12
 BYTE   N05  Dn3  v096
 BYTE   W12
 BYTE   N03  En3  v076
 BYTE   W12
 BYTE   N04  En3  v088
 BYTE   W12
//  #05 //030   ----------------------------------------
 BYTE   N05  Fn3  v108
 BYTE   W12
 BYTE   N04  Fn3  v088
 BYTE   W12
 BYTE   N03  Fn3  v076
 BYTE   W12
 BYTE   N05  Fn3  v096
 BYTE   W12
 BYTE   N03  Fn3  v040
 BYTE   W12
 BYTE   Fn3  v076
 BYTE   W12
 BYTE   N04  Fn3  v096
 BYTE   W12
 BYTE   Fn3  v084
 BYTE   W12
//  #05 //031   ----------------------------------------
 BYTE   N05  Gn3  v108
 BYTE   W12
 BYTE   N03  Gn3  v072
 BYTE   W12
 BYTE   N04  Gn3  v084
 BYTE   W12
 BYTE   Gn3  v088
 BYTE   W24
 BYTE   Gn3  v072
 BYTE   W12
 BYTE   Gn3  v096
 BYTE   W12
 BYTE   N04
 BYTE   W12
//  #05 //032   ----------------------------------------
 BYTE   An3  v088
 BYTE   W24
 BYTE   N02  An3  v052
 BYTE   W12
 BYTE   N04  An3  v072
 BYTE   W12
 BYTE   An3  v056
 BYTE   W12
 BYTE   N03
 BYTE   W12
 BYTE   An3  v060
 BYTE   W12
 BYTE   N04  An3  v044
 BYTE   W12
//  #05 //033   ----------------------------------------
 BYTE   An3  v060
 BYTE   W12
 BYTE   N03  An3  v044
 BYTE   W12
 BYTE   An3  v056
 BYTE   W12
 BYTE   N05  An3  v076
 BYTE   W12
 BYTE   N03  An3  v056
 BYTE   W12
 BYTE   An3  v060
 BYTE   W12
 BYTE   An3  v068
 BYTE   W12
 BYTE   An3  v108
 BYTE   W12
//  #05 //034   ----------------------------------------
 BYTE   GoTo
  POIN2 Label_01198128
 BYTE   FINE

//**************** Track 6 (Midi-Chn.5) ****************//

MischiefMakersSteppin_006:
//  #06 //000   ----------------------------------------
 BYTE   VOL   50*MischiefMakersSteppin_mvl/mxv
 BYTE   KEYSH   MischiefMakersSteppin_key+0
Label_0119842C:
 BYTE   VOICE   85
 BYTE   MODT 0
 BYTE   LFOS 44
 BYTE   W96
//  #06 //001   ----------------------------------------
 BYTE   W96
//  #06 //002   ----------------------------------------
 BYTE   W96
//  #06 //003   ----------------------------------------
 BYTE   W96
//  #06 //004   ----------------------------------------
 BYTE   W96
//  #06 //005   ----------------------------------------
 BYTE   W96
//  #06 //006   ----------------------------------------
 BYTE   W96
//  #06 //007   ----------------------------------------
 BYTE   W96
//  #06 //008   ----------------------------------------
 BYTE   N30  An4  v108
 BYTE   W36
 BYTE   N03  En4  v072
 BYTE   W06
 BYTE   An4
 BYTE   W06
 BYTE   N32  Bn4  v108
 BYTE   W36
 BYTE   N03  An4  v060
 BYTE   W06
 BYTE   Bn4  v072
 BYTE   W06
//  #06 //009   ----------------------------------------
 BYTE   N11  Dn5  v108
 BYTE   W12
 BYTE   N04  Cs5  v056
 BYTE   W06
 BYTE   N03  Bn4  v068
 BYTE   W06
 BYTE   N32  Cs5  v096
 BYTE   W42
 BYTE   N16  Dn5  v116
 BYTE   W18
 BYTE   N12  En5  v108
 BYTE   W12
//  #06 //010   ----------------------------------------
 BYTE   N32  Gn4  v096
 BYTE   W36
 BYTE   N04  Fs5  v076
 BYTE   W12
 BYTE   N72  Fs5  v116
 BYTE   W48
//  #06 //011   ----------------------------------------
 BYTE   W36
 BYTE   N04  En5  v084
 BYTE   W06
 BYTE   Fs5  v076
 BYTE   W06
 BYTE   N16  Gn5  v096
 BYTE   W18
 BYTE   Fs5  v108
 BYTE   W18
 BYTE   N11  En5  v096
 BYTE   W12
//  #06 //012   ----------------------------------------
 BYTE   N30  Dn5  v108
 BYTE   W36
 BYTE   N56  Cs5  v088
 BYTE   W60
//  #06 //013   ----------------------------------------
 BYTE   W36
 BYTE   N04  Bn4  v076
 BYTE   W06
 BYTE   N03  Cs5  v072
 BYTE   W06
 BYTE   N10  En5  v108
 BYTE   W12
 BYTE   N04  Dn5  v056
 BYTE   W06
 BYTE   N03  Cs5  v072
 BYTE   W06
 BYTE   N10  Dn5  v116
 BYTE   W12
 BYTE   N03  Cs5  v052
 BYTE   W06
 BYTE   Bn4  v068
 BYTE   W06
//  #06 //014   ----------------------------------------
 BYTE   N66  Cs5  v096
 BYTE   W72
 BYTE   N64  Dn5  v084
 BYTE   W24
//  #06 //015   ----------------------------------------
 BYTE   W48
 BYTE   N23  Bn4  v096
 BYTE   W24
 BYTE   N19  En5
 BYTE   W24
//  #06 //016   ----------------------------------------
 BYTE   W96
//  #06 //017   ----------------------------------------
 BYTE   W96
//  #06 //018   ----------------------------------------
 BYTE   W96
//  #06 //019   ----------------------------------------
 BYTE   W96
//  #06 //020   ----------------------------------------
 BYTE   N06  Fs4  v068
 BYTE   W12
 BYTE   N04  En4  v040
 BYTE   W06
 BYTE   Ds4  v068
 BYTE   W06
 BYTE   N21  Gs4  v072
 BYTE   W36
 BYTE   N04  Fs4  v068
 BYTE   W06
 BYTE   N05  En4  v072
 BYTE   W06
 BYTE   N07  Fs4
 BYTE   W12
 BYTE   N04  En4  v064
 BYTE   W06
 BYTE   Ds4  v068
 BYTE   W06
//  #06 //021   ----------------------------------------
 BYTE   En4  v088
 BYTE   W12
 BYTE   N03  Ds4  v052
 BYTE   W06
 BYTE   Cs4  v068
 BYTE   W06
 BYTE   N28  Ds4  v076
 BYTE   W36
 BYTE   N04  Cs4  v072
 BYTE   W06
 BYTE   Ds4  v052
 BYTE   W06
 BYTE   En4  v056
 BYTE   W06
 BYTE   Fs4  v052
 BYTE   W06
 BYTE   N05  Gs4  v088
 BYTE   W12
//  #06 //022   ----------------------------------------
 BYTE   N06  Bn4
 BYTE   W12
 BYTE   N03  En4  v064
 BYTE   W06
 BYTE   N02  Bn4  v068
 BYTE   W06
 BYTE   N72  An4  v084
 BYTE   W72
//  #06 //023   ----------------------------------------
 BYTE   W36
 BYTE   N05  Fs4  v048
 BYTE   W06
 BYTE   N04  Bn4  v036
 BYTE   W06
 BYTE   N14  Dn5  v076
 BYTE   W18
 BYTE   N16  Cs5  v084
 BYTE   W18
 BYTE   N10  Bn4  v068
 BYTE   W12
//  #06 //024   ----------------------------------------
 BYTE   W36
 BYTE   N24  Dn4  v108
 BYTE   W36
 BYTE   N10  En4  v096
 BYTE   W24
//  #06 //025   ----------------------------------------
 BYTE   W36
 BYTE   N30  Dn4  v108
 BYTE   W36
 BYTE   N11  En4  v096
 BYTE   W24
//  #06 //026   ----------------------------------------
 BYTE   W36
 BYTE   N32  Dn4  v088
 BYTE   W36
 BYTE   N24  En4  v084
 BYTE   W24
//  #06 //027   ----------------------------------------
 BYTE   W36
 BYTE   N04  Dn4  v076
 BYTE   W06
 BYTE   N05  En4
 BYTE   W06
 BYTE   N14  An4
 BYTE   W18
 BYTE   Gn4  v088
 BYTE   W18
 BYTE   N12  Fs4  v096
 BYTE   W12
//  #06 //028   ----------------------------------------
 BYTE   W36
 BYTE   N24  Dn4  v072
 BYTE   W36
 BYTE   N14  En4  v088
 BYTE   W24
//  #06 //029   ----------------------------------------
 BYTE   W36
 BYTE   N24  Dn4  v096
 BYTE   W36
 BYTE   N14  En4
 BYTE   W24
//  #06 //030   ----------------------------------------
 BYTE   N28  Fn4
 BYTE   W36
 BYTE   N32  Cn5
 BYTE   W36
 BYTE   N17  Fn4
 BYTE   W24
//  #06 //031   ----------------------------------------
 BYTE   N24  Gn4  v088
 BYTE   W36
 BYTE   En5  v096
 BYTE   W36
 BYTE   N13  Gn4
 BYTE   W24
//  #06 //032   ----------------------------------------
 BYTE   TIE  Dn5
 BYTE   W96
//  #06 //033   ----------------------------------------
 BYTE   W12
 BYTE   EOT
 BYTE   W06
 BYTE   N15  Cs5  v088
 BYTE   W18
 BYTE   N11  Cn5
 BYTE   W12
 BYTE   N12  Bn4
 BYTE   W18
 BYTE   N13  As4  v096
 BYTE   W18
 BYTE   N09  An4
 BYTE   W12
//  #06 //034   ----------------------------------------
 BYTE   GoTo
  POIN2 Label_0119842C
 BYTE   FINE

//**************** Track 7 (Midi-Chn.6) ****************//

MischiefMakersSteppin_007:
//  #07 //000   ----------------------------------------
 BYTE   VOL   75*MischiefMakersSteppin_mvl/mxv
 BYTE   KEYSH   MischiefMakersSteppin_key+0
Label_01198598:
 BYTE   VOICE   54
 BYTE   MODT 0
 BYTE   LFOS 44
 BYTE   N03  Cs5  v084
 BYTE   W12
 BYTE   Bn4  v056
 BYTE   W06
 BYTE   N02  Cs5  v068
 BYTE   W06
 BYTE   N44  Fs5  v088
 BYTE   W72
//  #07 //001   ----------------------------------------
 BYTE   W72
 BYTE   N05  Cs5  v108
 BYTE   W12
 BYTE   N03  Bn4  v072
 BYTE   W06
 BYTE   Cs5  v068
 BYTE   W06
//  #07 //002   ----------------------------------------
 BYTE   N07  En5  v108
 BYTE   W12
 BYTE   N04  Dn5  v072
 BYTE   W06
 BYTE   N03  Cs5  v052
 BYTE   W06
 BYTE   N44  Bn4  v072
 BYTE   W48
 BYTE   An4
 BYTE   W24
//  #07 //003   ----------------------------------------
 BYTE   W24
 BYTE   N48  Dn4  v076
 BYTE   W72
//  #07 //004   ----------------------------------------
 BYTE   N04  Cs5  v084
 BYTE   W12
 BYTE   Bn4  v068
 BYTE   W06
 BYTE   N03  Cs5
 BYTE   W06
 BYTE   N48  Fs5  v108
 BYTE   W72
//  #07 //005   ----------------------------------------
 BYTE   W48
 BYTE   N14  Cs5
 BYTE   W18
 BYTE   N11  Dn5  v096
 BYTE   W18
 BYTE   N10  En5  v108
 BYTE   W12
//  #07 //006   ----------------------------------------
 BYTE   N16  Fs5  v088
 BYTE   W18
 BYTE   N14  Cs5  v084
 BYTE   W18
 BYTE   N11  An5  v096
 BYTE   W12
 BYTE   N12  Gn5  v072
 BYTE   W18
 BYTE   N15  Fs5  v096
 BYTE   W18
 BYTE   N04  En5  v060
 BYTE   W06
 BYTE   N03  Dn5  v068
 BYTE   W06
//  #07 //007   ----------------------------------------
 BYTE   N54  Dn5  v060
 BYTE   W60
 BYTE   N04  Cs5  v072
 BYTE   W06
 BYTE   N03  Bn4  v068
 BYTE   W06
 BYTE   N10  Cs5  v096
 BYTE   W12
 BYTE   N03  Bn4  v040
 BYTE   W06
 BYTE   An4  v088
 BYTE   W06
//  #07 //008   ----------------------------------------
 BYTE   N12  Bn4  v116
 BYTE   W96
//  #07 //009   ----------------------------------------
 BYTE   W96
//  #07 //010   ----------------------------------------
 BYTE   W96
//  #07 //011   ----------------------------------------
 BYTE   W96
//  #07 //012   ----------------------------------------
 BYTE   W96
//  #07 //013   ----------------------------------------
 BYTE   W96
//  #07 //014   ----------------------------------------
 BYTE   W96
//  #07 //015   ----------------------------------------
 BYTE   W96
//  #07 //016   ----------------------------------------
 BYTE   N04  An4  v096
 BYTE   W12
 BYTE   N02  Gs4  v044
 BYTE   W06
 BYTE   N04  Fs4  v072
 BYTE   W06
 BYTE   N40  Bn4  v076
 BYTE   W60
 BYTE   N04  An4  v060
 BYTE   W06
 BYTE   Gs4  v068
 BYTE   W06
//  #07 //017   ----------------------------------------
 BYTE   N05  An4  v076
 BYTE   W12
 BYTE   N03  Gs4  v040
 BYTE   W06
 BYTE   Fs4  v052
 BYTE   W06
 BYTE   N32  Gs4  v088
 BYTE   W36
 BYTE   N03  Fs4  v052
 BYTE   W06
 BYTE   En4  v048
 BYTE   W06
 BYTE   N08  Fs4  v072
 BYTE   W12
 BYTE   N03  En4  v052
 BYTE   W06
 BYTE   Dn4  v056
 BYTE   W06
//  #07 //018   ----------------------------------------
 BYTE   N32  En4  v068
 BYTE   W36
 BYTE   N03  Bn3  v052
 BYTE   W12
 BYTE   N56  Bn3  v076
 BYTE   W48
//  #07 //019   ----------------------------------------
 BYTE   W12
 BYTE   N03  An3  v056
 BYTE   W06
 BYTE   N04  Bn3  v072
 BYTE   W06
 BYTE   N48  Dn4  v108
 BYTE   W72
//  #07 //020   ----------------------------------------
 BYTE   N06  An4  v072
 BYTE   W12
 BYTE   N04  Gs4  v044
 BYTE   W06
 BYTE   Fs4  v072
 BYTE   W06
 BYTE   N21  Bn4  v076
 BYTE   W36
 BYTE   N04  An4  v072
 BYTE   W06
 BYTE   N05  Gs4  v076
 BYTE   W06
 BYTE   N07  An4
 BYTE   W12
 BYTE   N04  Gs4  v068
 BYTE   W06
 BYTE   Fs4  v072
 BYTE   W06
//  #07 //021   ----------------------------------------
 BYTE   Gs4  v096
 BYTE   W12
 BYTE   N03  Fs4  v056
 BYTE   W06
 BYTE   En4  v072
 BYTE   W06
 BYTE   N28  Fs4  v084
 BYTE   W36
 BYTE   N04  En4  v076
 BYTE   W06
 BYTE   Fs4  v056
 BYTE   W06
 BYTE   Gs4  v060
 BYTE   W06
 BYTE   An4  v056
 BYTE   W06
 BYTE   N05  Bn4  v096
 BYTE   W12
//  #07 //022   ----------------------------------------
 BYTE   N06  En5
 BYTE   W12
 BYTE   N03  Bn4  v068
 BYTE   W06
 BYTE   N02  En5  v072
 BYTE   W06
 BYTE   N72  Fs5  v088
 BYTE   W72
//  #07 //023   ----------------------------------------
 BYTE   W36
 BYTE   N05  En5  v052
 BYTE   W06
 BYTE   N04  Fs5  v036
 BYTE   W06
 BYTE   N14  An5  v084
 BYTE   W18
 BYTE   N16  Gn5  v088
 BYTE   W18
 BYTE   N10  Fs5  v072
 BYTE   W12
//  #07 //024   ----------------------------------------
 BYTE   N03  Cs5  v076
 BYTE   W06
 BYTE   Cs5  v060
 BYTE   W06
 BYTE   Cs5  v052
 BYTE   W24
 BYTE   N02  Cs5  v072
 BYTE   W06
 BYTE   N03  Cs5  v040
 BYTE   W42
 BYTE   N01  Cs5  v056
 BYTE   W06
 BYTE   N03  Cs5  v048
 BYTE   W06
//  #07 //025   ----------------------------------------
 BYTE   Cs5  v060
 BYTE   W06
 BYTE   Cs5  v056
 BYTE   W06
 BYTE   Cs5  v072
 BYTE   W24
 BYTE   N02  Cs5  v088
 BYTE   W06
 BYTE   N03  Cs5  v040
 BYTE   W18
 BYTE   N04  Cs5  v084
 BYTE   W36
//  #07 //026   ----------------------------------------
 BYTE   N02  Cs5  v096
 BYTE   W06
 BYTE   Cs5  v044
 BYTE   W06
 BYTE   N03  Cs5  v060
 BYTE   W24
 BYTE   N02  Cs5  v088
 BYTE   W06
 BYTE   Cs5  v048
 BYTE   W42
 BYTE   N03  Cs5  v072
 BYTE   W06
 BYTE   N04  Cs5  v060
 BYTE   W06
//  #07 //027   ----------------------------------------
 BYTE   W36
 BYTE   N02  Cs5  v084
 BYTE   W06
 BYTE   Cs5  v044
 BYTE   W06
 BYTE   N03  Cs5  v052
 BYTE   W12
 BYTE   Cs5  v088
 BYTE   W12
 BYTE   N05  Cs5  v076
 BYTE   W12
 BYTE   Dn5  v068
 BYTE   W06
 BYTE   En5  v072
 BYTE   W06
//  #07 //028   ----------------------------------------
 BYTE   W36
 BYTE   N02  Cs5  v088
 BYTE   W06
 BYTE   N03  Cs5  v060
 BYTE   W06
 BYTE   Cs5  v052
 BYTE   W06
 BYTE   Cs5  v072
 BYTE   W06
 BYTE   N04  Cs5  v076
 BYTE   W24
 BYTE   N02  Cs5  v084
 BYTE   W06
 BYTE   N04  Cs5  v052
 BYTE   W06
//  #07 //029   ----------------------------------------
 BYTE   W12
 BYTE   N02  Cs5  v084
 BYTE   W06
 BYTE   N01  Cs5  v056
 BYTE   W06
 BYTE   N03  Cs5  v068
 BYTE   W24
 BYTE   Cs5  v096
 BYTE   W06
 BYTE   N02  Cs5  v048
 BYTE   W06
 BYTE   N04  Cs5  v056
 BYTE   W24
 BYTE   N02  Cs5  v084
 BYTE   W06
 BYTE   N05  Cs5  v072
 BYTE   W06
//  #07 //030   ----------------------------------------
 BYTE   W36
 BYTE   N04  Dn5  v052
 BYTE   W06
 BYTE   N03  En5  v068
 BYTE   W06
 BYTE   N06  Fn5  v096
 BYTE   W12
 BYTE   N02  En5  v056
 BYTE   W06
 BYTE   N03  Fn5  v072
 BYTE   W06
 BYTE   N23  An5  v096
 BYTE   W24
//  #07 //031   ----------------------------------------
 BYTE   W12
 BYTE   N04  Cn5  v012
 BYTE   W24
 BYTE   N05  Dn5  v068
 BYTE   W06
 BYTE   En5  v084
 BYTE   W06
 BYTE   Gn5  v096
 BYTE   W12
 BYTE   N03  En5  v072
 BYTE   W06
 BYTE   N04  Gn5  v068
 BYTE   W06
 BYTE   N36  Cn6  v088
 BYTE   W24
//  #07 //032   ----------------------------------------
 BYTE   W96
//  #07 //033   ----------------------------------------
 BYTE   W96
//  #07 //034   ----------------------------------------
 BYTE   GoTo
  POIN2 Label_01198598
 BYTE   FINE

//**************** Track 8 (Midi-Chn.7) ****************//

MischiefMakersSteppin_008:
//  #08 //000   ----------------------------------------
 BYTE   VOL   50*MischiefMakersSteppin_mvl/mxv
 BYTE   KEYSH   MischiefMakersSteppin_key+0
Label_0119E158:
 BYTE   VOICE   4
 BYTE   MODT 0
 BYTE   LFOS 44
 BYTE   W96
//  #08 //001   ----------------------------------------
 BYTE   W96
//  #08 //002   ----------------------------------------
 BYTE   W96
//  #08 //003   ----------------------------------------
 BYTE   W96
//  #08 //004   ----------------------------------------
 BYTE   W96
//  #08 //005   ----------------------------------------
 BYTE   W96
//  #08 //006   ----------------------------------------
 BYTE   W96
//  #08 //007   ----------------------------------------
 BYTE   W96
//  #08 //008   ----------------------------------------
 BYTE   W96
//  #08 //009   ----------------------------------------
 BYTE   W96
//  #08 //010   ----------------------------------------
 BYTE   W96
//  #08 //011   ----------------------------------------
 BYTE   W96
//  #08 //012   ----------------------------------------
 BYTE   W96
//  #08 //013   ----------------------------------------
 BYTE   W96
//  #08 //014   ----------------------------------------
 BYTE   W96
//  #08 //015   ----------------------------------------
 BYTE   W96
//  #08 //016   ----------------------------------------
 BYTE   N04  Cs4  v088
 BYTE   W12
 BYTE   N01  Cs4  v036
 BYTE   W12
 BYTE   N03  Cs4  v072
 BYTE   W12
 BYTE   N04  Cs4  v096
 BYTE   W12
 BYTE   N02  Cs4  v068
 BYTE   W12
 BYTE   N03  Cs4  v044
 BYTE   W12
 BYTE   N04  Cs4  v096
 BYTE   W12
 BYTE   N01  Cs4  v032
 BYTE   W12
//  #08 //017   ----------------------------------------
 BYTE   N04  Cs4  v108
 BYTE   W12
 BYTE   N02  Cs4  v068
 BYTE   W12
 BYTE   Cs4  v048
 BYTE   W12
 BYTE   N05  Cs4  v108
 BYTE   W12
 BYTE   N02  Cs4  v032
 BYTE   W12
 BYTE   Cs4  v072
 BYTE   W12
 BYTE   N03  Cs4  v088
 BYTE   W12
 BYTE   N02  Cs4  v076
 BYTE   W12
//  #08 //018   ----------------------------------------
 BYTE   N04  Dn4  v096
 BYTE   W12
 BYTE   N03  Dn4  v056
 BYTE   W12
 BYTE   Dn4  v072
 BYTE   W12
 BYTE   N05  Dn4  v096
 BYTE   W12
 BYTE   N02  Dn4  v036
 BYTE   W12
 BYTE   N03  Dn4  v060
 BYTE   W12
 BYTE   N04  Dn4  v088
 BYTE   W12
 BYTE   N03  Dn4  v072
 BYTE   W12
//  #08 //019   ----------------------------------------
 BYTE   N04  Dn4  v096
 BYTE   W12
 BYTE   N02  Dn4  v052
 BYTE   W12
 BYTE   N03  Dn4  v068
 BYTE   W12
 BYTE   N04  Dn4  v088
 BYTE   W12
 BYTE   N02  Dn4  v040
 BYTE   W12
 BYTE   Dn4  v076
 BYTE   W12
 BYTE   N05  Dn4  v096
 BYTE   W12
 BYTE   N03  Dn4  v072
 BYTE   W12
//  #08 //020   ----------------------------------------
 BYTE   Cs4  v108
 BYTE   W12
 BYTE   N02  Cs4  v036
 BYTE   W12
 BYTE   N04  Cs4  v052
 BYTE   W12
 BYTE   Cs4  v108
 BYTE   W12
 BYTE   N02  Cs4  v036
 BYTE   W12
 BYTE   Cs4  v072
 BYTE   W12
 BYTE   N03  Cs4  v096
 BYTE   W12
 BYTE   N02  Cs4  v072
 BYTE   W12
//  #08 //021   ----------------------------------------
 BYTE   N04  Cs4  v108
 BYTE   W12
 BYTE   N02  Cs4  v072
 BYTE   W12
 BYTE   Cs4  v056
 BYTE   W12
 BYTE   N04  Cs4  v116
 BYTE   W12
 BYTE   N02  Cs4  v056
 BYTE   W12
 BYTE   Cs4  v072
 BYTE   W12
 BYTE   N04  Cs4  v108
 BYTE   W12
 BYTE   N03  Cs4  v088
 BYTE   W12
//  #08 //022   ----------------------------------------
 BYTE   N04  Dn4  v096
 BYTE   W12
 BYTE   N03  Dn4  v068
 BYTE   W12
 BYTE   Dn4  v056
 BYTE   W12
 BYTE   N04  Dn4  v108
 BYTE   W12
 BYTE   N02  Dn4  v052
 BYTE   W12
 BYTE   N03  Dn4  v060
 BYTE   W12
 BYTE   N04  Dn4  v096
 BYTE   W12
 BYTE   N03  Dn4  v052
 BYTE   W12
//  #08 //023   ----------------------------------------
 BYTE   N04  Dn4  v108
 BYTE   W12
 BYTE   N03  Dn4  v036
 BYTE   W12
 BYTE   N02  Dn4  v044
 BYTE   W12
 BYTE   N05  Dn4  v096
 BYTE   W12
 BYTE   N02  Dn4  v044
 BYTE   W12
 BYTE   N04  Dn4  v076
 BYTE   W12
 BYTE   Dn4  v096
 BYTE   W12
 BYTE   Dn4  v088
 BYTE   W12
//  #08 //024   ----------------------------------------
 BYTE   W96
//  #08 //025   ----------------------------------------
 BYTE   W96
//  #08 //026   ----------------------------------------
 BYTE   W96
//  #08 //027   ----------------------------------------
 BYTE   W96
//  #08 //028   ----------------------------------------
 BYTE   W96
//  #08 //029   ----------------------------------------
 BYTE   W96
//  #08 //030   ----------------------------------------
 BYTE   W96
//  #08 //031   ----------------------------------------
 BYTE   W96
//  #08 //032   ----------------------------------------
 BYTE   W96
//  #08 //033   ----------------------------------------
 BYTE   W96
//  #08 //034   ----------------------------------------
 BYTE   GoTo
  POIN2 Label_0119E158
 BYTE   FINE

//**************** Track 9 (Midi-Chn.8) ****************//

MischiefMakersSteppin_009:
//  #09 //000   ----------------------------------------
 BYTE   VOL   50*MischiefMakersSteppin_mvl/mxv
 BYTE   KEYSH   MischiefMakersSteppin_key+0
Label_0119E288:
 BYTE   VOICE   124
 BYTE   MODT 0
 BYTE   LFOS 44
 BYTE   N13  Cn1  v084
 BYTE   N04  Gs1  v040
 BYTE   W12
 BYTE   Gs1  v028
 BYTE   W12
 BYTE   N04
 BYTE   W12
 BYTE   N05  Cn1  v084
 BYTE   N04  Gs1  v040
 BYTE   W12
 BYTE   N03  Gs1  v024
 BYTE   W12
 BYTE   N04  Gs1  v032
 BYTE   W12
 BYTE   N04
 BYTE   W12
 BYTE   N03  Gs1  v028
 BYTE   W12
//  #09 //001   ----------------------------------------
 BYTE   N06  Cn1  v084
 BYTE   N04  Gs1  v032
 BYTE   W12
 BYTE   N03  Gs1  v028
 BYTE   W12
 BYTE   Gs1  v032
 BYTE   W12
 BYTE   N09  Cn1  v084
 BYTE   N04  Gs1  v036
 BYTE   W12
 BYTE   Gs1  v032
 BYTE   W12
 BYTE   N03  Gs1  v028
 BYTE   W12
 BYTE   N04  Gs1  v032
 BYTE   W12
 BYTE   N04
 BYTE   W12
//  #09 //002   ----------------------------------------
 BYTE   N05  Cn1  v084
 BYTE   N04  Gs1  v032
 BYTE   W12
 BYTE   N03  Gs1  v028
 BYTE   W12
 BYTE   N02  Gs1  v024
 BYTE   W12
 BYTE   N05  Cn1  v084
 BYTE   N04  Gs1  v032
 BYTE   W12
 BYTE   N04
 BYTE   W12
 BYTE   N04
 BYTE   W12
 BYTE   N03  Gs1  v024
 BYTE   W12
 BYTE   Gs1  v032
 BYTE   W12
//  #09 //003   ----------------------------------------
 BYTE   N06  Cn1  v084
 BYTE   N04  Gs1  v032
 BYTE   W12
 BYTE   N03  Gs1  v028
 BYTE   W12
 BYTE   Gs1  v032
 BYTE   W12
 BYTE   N06  Cn1  v084
 BYTE   N04  Gs1  v032
 BYTE   W12
 BYTE   Gs1  v036
 BYTE   W12
 BYTE   N03  Gs1  v028
 BYTE   W12
 BYTE   N02  Gs1  v032
 BYTE   W06
 BYTE   N04  Gs1  v060
 BYTE   W06
 BYTE   N10  Ds1  v044
 BYTE   W12
//  #09 //004   ----------------------------------------
 BYTE   N06  Cn1  v084
 BYTE   N04  Gs1  v048
 BYTE   W12
 BYTE   Gs1  v040
 BYTE   W12
 BYTE   Gs1  v036
 BYTE   W12
 BYTE   N05  Cn1  v084
 BYTE   N04  Gs1  v036
 BYTE   W12
 BYTE   N03  Gs1  v032
 BYTE   W12
 BYTE   N03
 BYTE   W12
 BYTE   N04  Gs1  v036
 BYTE   W12
 BYTE   N03
 BYTE   W12
//  #09 //005   ----------------------------------------
 BYTE   N06  Cn1  v084
 BYTE   N04  Gs1  v032
 BYTE   W12
 BYTE   N03  Gs1  v036
 BYTE   W12
 BYTE   N03
 BYTE   W12
 BYTE   N05  Cn1  v084
 BYTE   N04  Gs1  v040
 BYTE   W12
 BYTE   N03  Gs1  v028
 BYTE   W12
 BYTE   N04  Gs1  v040
 BYTE   W12
 BYTE   Gs1  v036
 BYTE   W12
 BYTE   Gs1  v040
 BYTE   W06
 BYTE   Ds1
 BYTE   W06
//  #09 //006   ----------------------------------------
 BYTE   N05  Cn1  v084
 BYTE   N04  Gs1  v036
 BYTE   W12
 BYTE   N03  Gs1  v040
 BYTE   W12
 BYTE   N04  Gs1  v052
 BYTE   W12
 BYTE   N05  Cn1  v084
 BYTE   N04  Gs1  v040
 BYTE   W12
 BYTE   N04
 BYTE   W12
 BYTE   N03  Gs1  v032
 BYTE   W12
 BYTE   N04  Gs1  v036
 BYTE   W12
 BYTE   N03  Gs1  v032
 BYTE   W12
//  #09 //007   ----------------------------------------
 BYTE   N06  Cn1  v084
 BYTE   N04  Gs1  v044
 BYTE   W12
 BYTE   Gs1  v036
 BYTE   W12
 BYTE   Gs1  v040
 BYTE   W12
 BYTE   N06  Cn1  v084
 BYTE   N04  Gs1  v032
 BYTE   W12
 BYTE   Gs1  v040
 BYTE   W12
 BYTE   Gs1  v044
 BYTE   W06
 BYTE   N03  Cn1  v084
 BYTE   W06
 BYTE   N22  Dn1
 BYTE   N04  Gs1  v052
 BYTE   W12
 BYTE   N10  Ds1  v060
 BYTE   W12
//  #09 //008   ----------------------------------------
 BYTE   Cn1  v084
 BYTE   N04  Gs1  v048
 BYTE   W12
 BYTE   N03  Gs1  v036
 BYTE   W12
 BYTE   N11  Cn1  v084
 BYTE   N04  Gs1  v048
 BYTE   W12
 BYTE   N03  Gs1  v040
 BYTE   W12
 BYTE   N14  Cn1  v084
 BYTE   N04  Gs1  v036
 BYTE   W12
 BYTE   N04
 BYTE   W12
 BYTE   N13  Cn1  v084
 BYTE   N03  Gs1  v036
 BYTE   W12
 BYTE   N02
 BYTE   W12
//  #09 //009   ----------------------------------------
 BYTE   N13  Cn1  v084
 BYTE   N04  Gs1  v052
 BYTE   W12
 BYTE   N03  Gs1  v036
 BYTE   W12
 BYTE   N13  Cn1  v084
 BYTE   N04  Gs1  v036
 BYTE   W12
 BYTE   N03  Gs1  v032
 BYTE   W12
 BYTE   N15  Cn1  v084
 BYTE   N04  Gs1  v044
 BYTE   W12
 BYTE   N03  Gs1  v032
 BYTE   W12
 BYTE   N08  Cn1  v084
 BYTE   N03  Gs1  v036
 BYTE   W12
 BYTE   N04  Cn1  v084
 BYTE   N02  Gs1  v032
 BYTE   W12
//  #09 //010   ----------------------------------------
 BYTE   N12  Cn1  v084
 BYTE   N03  Gs1  v032
 BYTE   W12
 BYTE   N04  Ds1  v052
 BYTE   W12
 BYTE   N13  Cn1  v084
 BYTE   N04  Gs1  v048
 BYTE   W12
 BYTE   N03  Gs1  v044
 BYTE   W12
 BYTE   N13  Cn1  v084
 BYTE   N04  Gs1  v032
 BYTE   W12
 BYTE   N03
 BYTE   W12
 BYTE   N12  Cn1  v084
 BYTE   N04  Gs1  v048
 BYTE   W12
 BYTE   Gs1  v052
 BYTE   W12
//  #09 //011   ----------------------------------------
 BYTE   N12  Cn1  v084
 BYTE   N04  Gs1  v044
 BYTE   W12
 BYTE   N03  Gs1  v036
 BYTE   W12
 BYTE   N12  Cn1  v084
 BYTE   N04  Gs1  v052
 BYTE   W12
 BYTE   N03  Gs1  v036
 BYTE   W12
 BYTE   N12  Cn1  v084
 BYTE   N04  Gs1  v040
 BYTE   W12
 BYTE   N02  Gs1  v028
 BYTE   W12
 BYTE   N04  Cn1  v084
 BYTE   N04  Gs1  v052
 BYTE   W12
 BYTE   Cn1  v084
 BYTE   N04  Gs1  v052
 BYTE   W06
 BYTE   Ds1  v048
 BYTE   W06
//  #09 //012   ----------------------------------------
 BYTE   N12  Cn1  v084
 BYTE   N04  Gs1  v052
 BYTE   W12
 BYTE   Ds1  v040
 BYTE   W12
 BYTE   N12  Cn1  v084
 BYTE   N04  Gs1  v056
 BYTE   W12
 BYTE   N03  Gs1  v044
 BYTE   W12
 BYTE   N13  Cn1  v084
 BYTE   N04  Gs1  v056
 BYTE   W12
 BYTE   N03  Gs1  v044
 BYTE   W12
 BYTE   N12  Cn1  v084
 BYTE   N04  Gs1  v052
 BYTE   W12
 BYTE   N03  Gs1  v036
 BYTE   W12
//  #09 //013   ----------------------------------------
 BYTE   N12  Cn1  v084
 BYTE   N03  Gs1  v052
 BYTE   W12
 BYTE   N03
 BYTE   W12
 BYTE   N12  Cn1  v084
 BYTE   N04  Gs1  v052
 BYTE   W12
 BYTE   N04
 BYTE   W12
 BYTE   N14  Cn1  v084
 BYTE   N03  Gs1  v052
 BYTE   W12
 BYTE   Gs1  v048
 BYTE   W12
 BYTE   N04  Cn1  v084
 BYTE   N03  Gs1  v048
 BYTE   W12
 BYTE   Cn1  v084
 BYTE   N04  Gs1  v052
 BYTE   W06
 BYTE   Ds1  v040
 BYTE   W06
//  #09 //014   ----------------------------------------
 BYTE   N14  Cn1  v084
 BYTE   N04  Gs1  v056
 BYTE   W06
 BYTE   N03  Ds1  v028
 BYTE   W06
 BYTE   Gs1  v040
 BYTE   W06
 BYTE   N04  Gs1  v056
 BYTE   W06
 BYTE   N12  Cn1  v084
 BYTE   W12
 BYTE   N04  Gs1  v056
 BYTE   W12
 BYTE   N13  Cn1  v084
 BYTE   N04  Gs1  v052
 BYTE   W12
 BYTE   N03  Gs1  v048
 BYTE   W12
 BYTE   N12  Cn1  v084
 BYTE   N03  Gs1  v052
 BYTE   W12
 BYTE   N02  Gs1  v036
 BYTE   W12
//  #09 //015   ----------------------------------------
 BYTE   N13  Cn1  v084
 BYTE   N04  Gs1  v052
 BYTE   W12
 BYTE   N03
 BYTE   W12
 BYTE   N14  Cn1  v084
 BYTE   N04  Gs1  v052
 BYTE   W12
 BYTE   N03  Gs1  v036
 BYTE   W12
 BYTE   N09  Cn1  v084
 BYTE   N03  Gs1  v036
 BYTE   W12
 BYTE   N04  Cn1  v084
 BYTE   N02  Gs1  v036
 BYTE   W12
 BYTE   N06  Cn1  v084
 BYTE   N03  Gs1  v056
 BYTE   W12
 BYTE   N05  Cn1  v084
 BYTE   N04  Gs1  v052
 BYTE   W06
 BYTE   N03  Ds1  v056
 BYTE   W06
//  #09 //016   ----------------------------------------
 BYTE   N08  Cn1  v084
 BYTE   N04  Gs1  v040
 BYTE   W12
 BYTE   Gs1  v028
 BYTE   W12
 BYTE   N04
 BYTE   W12
 BYTE   N06  Cn1  v084
 BYTE   N04  Gs1  v040
 BYTE   W12
 BYTE   N03  Gs1  v024
 BYTE   W12
 BYTE   N04  Gs1  v032
 BYTE   W12
 BYTE   N12  Dn1  v084
 BYTE   N04  Gs1  v032
 BYTE   W12
 BYTE   N03  Gs1  v028
 BYTE   W12
//  #09 //017   ----------------------------------------
 BYTE   N08  Cn1  v084
 BYTE   N04  Gs1  v032
 BYTE   W12
 BYTE   N03  Gs1  v028
 BYTE   W12
 BYTE   Gs1  v032
 BYTE   W12
 BYTE   N07  Cn1  v084
 BYTE   N04  Gs1  v036
 BYTE   W12
 BYTE   Gs1  v032
 BYTE   W12
 BYTE   N03  Gs1  v028
 BYTE   W12
 BYTE   N11  Dn1  v084
 BYTE   N04  Gs1  v032
 BYTE   W12
 BYTE   N04
 BYTE   W12
//  #09 //018   ----------------------------------------
 BYTE   N08  Cn1  v084
 BYTE   N04  Gs1  v032
 BYTE   W12
 BYTE   N03  Gs1  v028
 BYTE   W12
 BYTE   N02  Gs1  v024
 BYTE   W12
 BYTE   N05  Cn1  v084
 BYTE   N04  Gs1  v032
 BYTE   W12
 BYTE   N04
 BYTE   W12
 BYTE   N04
 BYTE   W12
 BYTE   N10  Dn1  v084
 BYTE   N03  Gs1  v024
 BYTE   W12
 BYTE   Gs1  v032
 BYTE   W12
//  #09 //019   ----------------------------------------
 BYTE   N08  Cn1  v084
 BYTE   N04  Gs1  v032
 BYTE   W12
 BYTE   N03  Gs1  v028
 BYTE   W12
 BYTE   Gs1  v032
 BYTE   W12
 BYTE   N05  Cn1  v084
 BYTE   N04  Gs1  v032
 BYTE   W12
 BYTE   Gs1  v036
 BYTE   W12
 BYTE   N03  Gs1  v028
 BYTE   W12
 BYTE   N12  Dn1  v084
 BYTE   N02  Gs1  v032
 BYTE   W06
 BYTE   N04  Gs1  v060
 BYTE   W06
 BYTE   Ds1  v044
 BYTE   W12
//  #09 //020   ----------------------------------------
 BYTE   N06  Cn1  v084
 BYTE   N04  Gs1  v048
 BYTE   W12
 BYTE   Gs1  v040
 BYTE   W12
 BYTE   Gs1  v036
 BYTE   W12
 BYTE   N05  Cn1  v084
 BYTE   N04  Gs1  v036
 BYTE   W12
 BYTE   N03  Gs1  v032
 BYTE   W12
 BYTE   N03
 BYTE   W12
 BYTE   N10  Dn1  v084
 BYTE   N04  Gs1  v036
 BYTE   W12
 BYTE   N03
 BYTE   W12
//  #09 //021   ----------------------------------------
 BYTE   N11  Cn1  v084
 BYTE   N04  Gs1  v032
 BYTE   W12
 BYTE   N03  Gs1  v036
 BYTE   W12
 BYTE   N03
 BYTE   W12
 BYTE   N05  Cn1  v084
 BYTE   N04  Gs1  v040
 BYTE   W12
 BYTE   N03  Gs1  v028
 BYTE   W12
 BYTE   N04  Gs1  v040
 BYTE   W12
 BYTE   N12  Dn1  v084
 BYTE   N04  Gs1  v036
 BYTE   W12
 BYTE   Gs1  v040
 BYTE   W06
 BYTE   Ds1
 BYTE   W06
//  #09 //022   ----------------------------------------
 BYTE   N07  Cn1  v084
 BYTE   N04  Gs1  v036
 BYTE   W12
 BYTE   N03  Gs1  v040
 BYTE   W12
 BYTE   N04  Gs1  v052
 BYTE   W12
 BYTE   N06  Cn1  v084
 BYTE   N04  Gs1  v040
 BYTE   W12
 BYTE   N04
 BYTE   W12
 BYTE   N03  Gs1  v032
 BYTE   W12
 BYTE   N10  Dn1  v084
 BYTE   N04  Gs1  v036
 BYTE   W12
 BYTE   N03  Gs1  v032
 BYTE   W12
//  #09 //023   ----------------------------------------
 BYTE   N06  Cn1  v084
 BYTE   N04  Gs1  v044
 BYTE   W12
 BYTE   Gs1  v036
 BYTE   W12
 BYTE   Gs1  v040
 BYTE   W12
 BYTE   N06  Cn1  v084
 BYTE   N03  Gs1  v032
 BYTE   W12
 BYTE   N04  Gs1  v040
 BYTE   W12
 BYTE   N03  Cn1  v084
 BYTE   N04  Gs1  v044
 BYTE   W12
 BYTE   N13  Dn1  v084
 BYTE   N04  Gs1  v052
 BYTE   W12
 BYTE   N10  Ds1  v060
 BYTE   W12
//  #09 //024   ----------------------------------------
 BYTE   N09  Cn1  v084
 BYTE   N04  Gs1  v048
 BYTE   W12
 BYTE   N03  Gs1  v036
 BYTE   W12
 BYTE   N13  Cn1  v084
 BYTE   N04  Gs1  v048
 BYTE   W12
 BYTE   N03  Gs1  v040
 BYTE   W12
 BYTE   N13  Cn1  v084
 BYTE   N04  Gs1  v036
 BYTE   W12
 BYTE   N04
 BYTE   W12
 BYTE   N13  Cn1  v084
 BYTE   N03  Gs1  v036
 BYTE   W12
 BYTE   N02
 BYTE   W12
//  #09 //025   ----------------------------------------
 BYTE   N11  Cn1  v084
 BYTE   N04  Gs1  v052
 BYTE   W12
 BYTE   N03  Gs1  v036
 BYTE   W12
 BYTE   N13  Cn1  v084
 BYTE   N04  Gs1  v036
 BYTE   W12
 BYTE   N03  Gs1  v032
 BYTE   W12
 BYTE   N05  Cn1  v084
 BYTE   N04  Gs1  v044
 BYTE   W12
 BYTE   Cn1  v084
 BYTE   N03  Gs1  v032
 BYTE   W12
 BYTE   N11  Cn1  v084
 BYTE   N03  Gs1  v036
 BYTE   W12
 BYTE   N02  Gs1  v032
 BYTE   W12
//  #09 //026   ----------------------------------------
 BYTE   N12  Cn1  v084
 BYTE   N03  Gs1  v032
 BYTE   W12
 BYTE   N04  Ds1  v052
 BYTE   W12
 BYTE   N10  Cn1  v084
 BYTE   N04  Gs1  v048
 BYTE   W12
 BYTE   N03  Gs1  v044
 BYTE   W12
 BYTE   N10  Cn1  v084
 BYTE   N04  Gs1  v032
 BYTE   W12
 BYTE   N03
 BYTE   W12
 BYTE   N11  Cn1  v084
 BYTE   N04  Gs1  v048
 BYTE   W12
 BYTE   Gs1  v052
 BYTE   W12
//  #09 //027   ----------------------------------------
 BYTE   N11  Cn1  v084
 BYTE   N04  Gs1  v044
 BYTE   W12
 BYTE   N03  Gs1  v036
 BYTE   W12
 BYTE   N14  Cn1  v084
 BYTE   N04  Gs1  v052
 BYTE   W12
 BYTE   N03  Gs1  v036
 BYTE   W12
 BYTE   N14  Cn1  v084
 BYTE   N04  Gs1  v040
 BYTE   W12
 BYTE   N02  Gs1  v028
 BYTE   W12
 BYTE   N04  Cn1  v084
 BYTE   N04  Gs1  v052
 BYTE   W12
 BYTE   Cn1  v084
 BYTE   N04  Gs1  v052
 BYTE   W06
 BYTE   N05  Ds1  v048
 BYTE   W06
//  #09 //028   ----------------------------------------
 BYTE   N14  Cn1  v084
 BYTE   N04  Gs1  v052
 BYTE   W12
 BYTE   Ds1  v040
 BYTE   W12
 BYTE   N12  Cn1  v084
 BYTE   N04  Gs1  v056
 BYTE   W12
 BYTE   N03  Gs1  v044
 BYTE   W12
 BYTE   N11  Cn1  v084
 BYTE   N04  Gs1  v056
 BYTE   W12
 BYTE   N03  Gs1  v044
 BYTE   W12
 BYTE   N12  Cn1  v084
 BYTE   N04  Gs1  v052
 BYTE   W12
 BYTE   N03  Gs1  v036
 BYTE   W12
//  #09 //029   ----------------------------------------
 BYTE   N11  Cn1  v084
 BYTE   N03  Gs1  v052
 BYTE   W12
 BYTE   N03
 BYTE   W12
 BYTE   N12  Cn1  v084
 BYTE   N04  Gs1  v052
 BYTE   W12
 BYTE   N04
 BYTE   W12
 BYTE   N14  Cn1  v084
 BYTE   N03  Gs1  v052
 BYTE   W12
 BYTE   Gs1  v048
 BYTE   W12
 BYTE   N14  Cn1  v084
 BYTE   N03  Gs1  v048
 BYTE   W12
 BYTE   N04  Gs1  v052
 BYTE   W06
 BYTE   Ds1  v040
 BYTE   W06
//  #09 //030   ----------------------------------------
 BYTE   N21  Cn1  v084
 BYTE   N04  Gs1  v056
 BYTE   W06
 BYTE   N03  Ds1  v028
 BYTE   W06
 BYTE   Gs1  v040
 BYTE   W06
 BYTE   N04  Gs1  v056
 BYTE   W18
 BYTE   N18  Cn1  v084
 BYTE   N04  Gs1  v056
 BYTE   W12
 BYTE   Gs1  v052
 BYTE   W12
 BYTE   N03  Cn1  v084
 BYTE   N03  Gs1  v048
 BYTE   W12
 BYTE   N14  Dn1  v084
 BYTE   N03  Gs1  v052
 BYTE   W12
 BYTE   N02  Gs1  v036
 BYTE   W12
//  #09 //031   ----------------------------------------
 BYTE   N24  Cn1  v084
 BYTE   N04  Gs1  v052
 BYTE   W12
 BYTE   N03
 BYTE   W12
 BYTE   N04
 BYTE   W12
 BYTE   N20  Cn1  v084
 BYTE   N03  Gs1  v036
 BYTE   W12
 BYTE   N03
 BYTE   W12
 BYTE   Cn1  v084
 BYTE   N02  Gs1  v036
 BYTE   W12
 BYTE   N13  Dn1  v084
 BYTE   N03  Gs1  v056
 BYTE   W12
 BYTE   N04  Gs1  v052
 BYTE   W06
 BYTE   N03  Ds1  v056
 BYTE   W06
//  #09 //032   ----------------------------------------
 BYTE   N92  Cn1  v084
 BYTE   W96
//  #09 //033   ----------------------------------------
 BYTE   W48
 BYTE   N12  Cn2
 BYTE   W18
 BYTE   N13  Gn1
 BYTE   W18
 BYTE   N10  Fn1
 BYTE   W12
//  #09 //034   ----------------------------------------
 BYTE   GoTo
  POIN2 Label_0119E288
 BYTE   FINE

//******************************************************//
	ALIGN 4

MischiefMakersSteppin:
	BYTE	9	// NumTrks
	BYTE	0	// NumBlks
	BYTE	MischiefMakersSteppin_pri	// Priority
	BYTE	MischiefMakersSteppin_rev	// Reverb.
    
	POIN2	MischiefMakersSteppin_grp
    
	POIN2	MischiefMakersSteppin_001
	POIN2	MischiefMakersSteppin_002
	POIN2	MischiefMakersSteppin_003
	POIN2	MischiefMakersSteppin_004
	POIN2	MischiefMakersSteppin_005
	POIN2	MischiefMakersSteppin_006
	POIN2	MischiefMakersSteppin_007
	POIN2	MischiefMakersSteppin_008
	POIN2	MischiefMakersSteppin_009

	
