//Event file generated from Sappy .s format.
	

	#define	ProjectJusticeDiscLoad_grp  voicegroup000
	#define	ProjectJusticeDiscLoad_pri  0
	#define	ProjectJusticeDiscLoad_rev  0
	#define	ProjectJusticeDiscLoad_mvl  80
	#define	ProjectJusticeDiscLoad_key  0
	#define	ProjectJusticeDiscLoad_tbs  1
	#define	ProjectJusticeDiscLoad_exg  0
	#define	ProjectJusticeDiscLoad_cmp  1

	// .rodata
	//	ProjectJusticeDiscLoad
	ALIGN 4

//**************** Track 1 (Midi-Chn.1) ****************//

ProjectJusticeDiscLoad_1:
	BYTE	KEYSH   ProjectJusticeDiscLoad_key+0
ProjectJusticeDiscLoad_1_B1:
// 000   ----------------------------------------
	BYTE	TEMPO   110*ProjectJusticeDiscLoad_tbs/2
	BYTE		VOICE   50
	BYTE		MODT    0
	BYTE		LFOS    44
	BYTE		VOL     114*ProjectJusticeDiscLoad_mvl/mxv
	BYTE		PAN     c_v+0
	BYTE		N18     An2   v088
	BYTE	W18
	BYTE		        Cn3 
	BYTE	W18
	BYTE		        Gn3 
	BYTE	W18
	BYTE		TIE     Fs3 
	BYTE	W42
// 001   ----------------------------------------
	BYTE	W96
	BYTE		EOT   
// 002   ----------------------------------------
	BYTE	W96
// 003   ----------------------------------------
	BYTE	W96
// 004   ----------------------------------------
ProjectJusticeDiscLoad_1_004:
	BYTE		N18     An2   v088
	BYTE	W18
	BYTE		        Cn3 
	BYTE	W18
	BYTE		        Gn3 
	BYTE	W18
	BYTE		TIE     Fs3 
	BYTE	W42
	BYTE	PEND
// 005   ----------------------------------------
	BYTE	W96
	BYTE		EOT   
// 006   ----------------------------------------
	BYTE	W96
// 007   ----------------------------------------
	BYTE	W96
// 008   ----------------------------------------
	BYTE	PATT
	 POIN2	ProjectJusticeDiscLoad_1_004
// 009   ----------------------------------------
	BYTE	W96
	BYTE		EOT     Fs3 
// 010   ----------------------------------------
	BYTE	W96
// 011   ----------------------------------------
	BYTE	W96
// 012   ----------------------------------------
	BYTE	PATT
	 POIN2	ProjectJusticeDiscLoad_1_004
// 013   ----------------------------------------
	BYTE	W96
	BYTE		EOT     Fs3 
// 014   ----------------------------------------
	BYTE	W96
// 015   ----------------------------------------
	BYTE	W96
// 016   ----------------------------------------
	BYTE	PATT
	 POIN2	ProjectJusticeDiscLoad_1_004
// 017   ----------------------------------------
	BYTE	W96
	BYTE		EOT     Fs3 
// 018   ----------------------------------------
	BYTE	W96
// 019   ----------------------------------------
	BYTE	W96
// 020   ----------------------------------------
	BYTE	PATT
	 POIN2	ProjectJusticeDiscLoad_1_004
// 021   ----------------------------------------
	BYTE	W96
	BYTE		EOT     Fs3 
// 022   ----------------------------------------
	BYTE	W96
// 023   ----------------------------------------
	BYTE	W96
	BYTE	GoTo
	 POIN2	ProjectJusticeDiscLoad_1_B1
ProjectJusticeDiscLoad_1_B2:
// 024   ----------------------------------------
	BYTE	FINE

//**************** Track 2 (Midi-Chn.2) ****************//

ProjectJusticeDiscLoad_2:
	BYTE	KEYSH   ProjectJusticeDiscLoad_key+0
ProjectJusticeDiscLoad_2_B1:
// 000   ----------------------------------------
	BYTE		VOICE   50
	BYTE		MODT    0
	BYTE		LFOS    44
	BYTE		VOL     52*ProjectJusticeDiscLoad_mvl/mxv
	BYTE		PAN     c_v+0
	BYTE	W12
	BYTE		N18     An2   v088
	BYTE	W18
	BYTE		        Cn3 
	BYTE	W18
	BYTE		        Gn3 
	BYTE	W18
	BYTE		TIE     Fs3 
	BYTE	W30
// 001   ----------------------------------------
	BYTE	W96
// 002   ----------------------------------------
	BYTE	W12
	BYTE		EOT   
	BYTE	W84
// 003   ----------------------------------------
	BYTE	W96
// 004   ----------------------------------------
ProjectJusticeDiscLoad_2_004:
	BYTE	W12
	BYTE		N18     An2   v088
	BYTE	W18
	BYTE		        Cn3 
	BYTE	W18
	BYTE		        Gn3 
	BYTE	W18
	BYTE		TIE     Fs3 
	BYTE	W30
	BYTE	PEND
// 005   ----------------------------------------
	BYTE	W96
// 006   ----------------------------------------
	BYTE	W12
	BYTE		EOT   
	BYTE	W84
// 007   ----------------------------------------
	BYTE	W96
// 008   ----------------------------------------
	BYTE	PATT
	 POIN2	ProjectJusticeDiscLoad_2_004
// 009   ----------------------------------------
	BYTE	W96
// 010   ----------------------------------------
	BYTE	W12
	BYTE		EOT     Fs3 
	BYTE	W84
// 011   ----------------------------------------
	BYTE	W96
// 012   ----------------------------------------
	BYTE	PATT
	 POIN2	ProjectJusticeDiscLoad_2_004
// 013   ----------------------------------------
	BYTE	W96
// 014   ----------------------------------------
	BYTE	W12
	BYTE		EOT     Fs3 
	BYTE	W84
// 015   ----------------------------------------
	BYTE	W96
// 016   ----------------------------------------
	BYTE	PATT
	 POIN2	ProjectJusticeDiscLoad_2_004
// 017   ----------------------------------------
	BYTE	W96
// 018   ----------------------------------------
	BYTE	W12
	BYTE		EOT     Fs3 
	BYTE	W84
// 019   ----------------------------------------
	BYTE	W96
// 020   ----------------------------------------
	BYTE	PATT
	 POIN2	ProjectJusticeDiscLoad_2_004
// 021   ----------------------------------------
	BYTE	W96
// 022   ----------------------------------------
	BYTE	W12
	BYTE		EOT     Fs3 
	BYTE	W84
// 023   ----------------------------------------
	BYTE	W96
	BYTE	GoTo
	 POIN2	ProjectJusticeDiscLoad_2_B1
ProjectJusticeDiscLoad_2_B2:
// 024   ----------------------------------------
	BYTE	FINE

//**************** Track 3 (Midi-Chn.3) ****************//

ProjectJusticeDiscLoad_3:
	BYTE	KEYSH   ProjectJusticeDiscLoad_key+0
ProjectJusticeDiscLoad_3_B1:
// 000   ----------------------------------------
	BYTE		VOICE   38
	BYTE		MODT    0
	BYTE		LFOS    44
	BYTE		VOL     98*ProjectJusticeDiscLoad_mvl/mxv
	BYTE		PAN     c_v+0
	BYTE		N05     Gn1   v088
	BYTE	W06
	BYTE		        An1 
	BYTE	W30
	BYTE		N04   
	BYTE	W06
	BYTE		N04   
	BYTE	W54
// 001   ----------------------------------------
ProjectJusticeDiscLoad_3_001:
	BYTE		N05     Gn1   v088
	BYTE	W06
	BYTE		        An1 
	BYTE	W30
	BYTE		N04   
	BYTE	W06
	BYTE		N04   
	BYTE	W54
	BYTE	PEND
// 002   ----------------------------------------
	BYTE	PATT
	 POIN2	ProjectJusticeDiscLoad_3_001
// 003   ----------------------------------------
	BYTE	PATT
	 POIN2	ProjectJusticeDiscLoad_3_001
// 004   ----------------------------------------
	BYTE	PATT
	 POIN2	ProjectJusticeDiscLoad_3_001
// 005   ----------------------------------------
	BYTE	PATT
	 POIN2	ProjectJusticeDiscLoad_3_001
// 006   ----------------------------------------
	BYTE	PATT
	 POIN2	ProjectJusticeDiscLoad_3_001
// 007   ----------------------------------------
	BYTE	PATT
	 POIN2	ProjectJusticeDiscLoad_3_001
// 008   ----------------------------------------
	BYTE	PATT
	 POIN2	ProjectJusticeDiscLoad_3_001
// 009   ----------------------------------------
	BYTE	PATT
	 POIN2	ProjectJusticeDiscLoad_3_001
// 010   ----------------------------------------
	BYTE	PATT
	 POIN2	ProjectJusticeDiscLoad_3_001
// 011   ----------------------------------------
	BYTE	PATT
	 POIN2	ProjectJusticeDiscLoad_3_001
// 012   ----------------------------------------
	BYTE	PATT
	 POIN2	ProjectJusticeDiscLoad_3_001
// 013   ----------------------------------------
	BYTE	PATT
	 POIN2	ProjectJusticeDiscLoad_3_001
// 014   ----------------------------------------
	BYTE	PATT
	 POIN2	ProjectJusticeDiscLoad_3_001
// 015   ----------------------------------------
	BYTE	PATT
	 POIN2	ProjectJusticeDiscLoad_3_001
// 016   ----------------------------------------
	BYTE	PATT
	 POIN2	ProjectJusticeDiscLoad_3_001
// 017   ----------------------------------------
	BYTE	PATT
	 POIN2	ProjectJusticeDiscLoad_3_001
// 018   ----------------------------------------
	BYTE	PATT
	 POIN2	ProjectJusticeDiscLoad_3_001
// 019   ----------------------------------------
	BYTE	PATT
	 POIN2	ProjectJusticeDiscLoad_3_001
// 020   ----------------------------------------
	BYTE	PATT
	 POIN2	ProjectJusticeDiscLoad_3_001
// 021   ----------------------------------------
	BYTE	PATT
	 POIN2	ProjectJusticeDiscLoad_3_001
// 022   ----------------------------------------
	BYTE	PATT
	 POIN2	ProjectJusticeDiscLoad_3_001
// 023   ----------------------------------------
	BYTE	PATT
	 POIN2	ProjectJusticeDiscLoad_3_001
	BYTE	GoTo
	 POIN2	ProjectJusticeDiscLoad_3_B1
ProjectJusticeDiscLoad_3_B2:
// 024   ----------------------------------------
	BYTE	FINE

//**************** Track 4 (Midi-Chn.4) ****************//

ProjectJusticeDiscLoad_4:
	BYTE	KEYSH   ProjectJusticeDiscLoad_key+0
ProjectJusticeDiscLoad_4_B1:
// 000   ----------------------------------------
	BYTE		VOICE   36
	BYTE		MODT    0
	BYTE		LFOS    44
	BYTE		VOL     114*ProjectJusticeDiscLoad_mvl/mxv
	BYTE		PAN     c_v+0
	BYTE		N05     Gn1   v088
	BYTE	W06
	BYTE		        An1 
	BYTE	W12
	BYTE		N05   
	BYTE	W06
	BYTE		N10   
	BYTE	W12
	BYTE		N05     Gn1 
	BYTE	W06
	BYTE		N06     An1 
	BYTE	W12
	BYTE		N05     En1 
	BYTE	W12
	BYTE		N05   
	BYTE	W06
	BYTE		        Gn1 
	BYTE	W12
	BYTE		N05   
	BYTE	W12
// 001   ----------------------------------------
ProjectJusticeDiscLoad_4_001:
	BYTE		N05     Gn1   v088
	BYTE	W06
	BYTE		        An1 
	BYTE	W12
	BYTE		N04   
	BYTE	W06
	BYTE		N10   
	BYTE	W12
	BYTE		N04   
	BYTE	W06
	BYTE		N04   
	BYTE	W54
	BYTE	PEND
// 002   ----------------------------------------
ProjectJusticeDiscLoad_4_002:
	BYTE		N05     Gn1   v088
	BYTE	W06
	BYTE		        An1 
	BYTE	W12
	BYTE		N05   
	BYTE	W06
	BYTE		N10   
	BYTE	W12
	BYTE		N05     Gn1 
	BYTE	W06
	BYTE		N06     An1 
	BYTE	W12
	BYTE		N05     En1 
	BYTE	W12
	BYTE		N05   
	BYTE	W06
	BYTE		        Gn1 
	BYTE	W12
	BYTE		N05   
	BYTE	W12
	BYTE	PEND
// 003   ----------------------------------------
	BYTE	PATT
	 POIN2	ProjectJusticeDiscLoad_4_001
// 004   ----------------------------------------
	BYTE	PATT
	 POIN2	ProjectJusticeDiscLoad_4_002
// 005   ----------------------------------------
	BYTE	PATT
	 POIN2	ProjectJusticeDiscLoad_4_001
// 006   ----------------------------------------
	BYTE	PATT
	 POIN2	ProjectJusticeDiscLoad_4_002
// 007   ----------------------------------------
	BYTE	PATT
	 POIN2	ProjectJusticeDiscLoad_4_001
// 008   ----------------------------------------
	BYTE	PATT
	 POIN2	ProjectJusticeDiscLoad_4_002
// 009   ----------------------------------------
	BYTE	PATT
	 POIN2	ProjectJusticeDiscLoad_4_001
// 010   ----------------------------------------
	BYTE	PATT
	 POIN2	ProjectJusticeDiscLoad_4_002
// 011   ----------------------------------------
	BYTE	PATT
	 POIN2	ProjectJusticeDiscLoad_4_001
// 012   ----------------------------------------
	BYTE	PATT
	 POIN2	ProjectJusticeDiscLoad_4_002
// 013   ----------------------------------------
	BYTE	PATT
	 POIN2	ProjectJusticeDiscLoad_4_001
// 014   ----------------------------------------
	BYTE	PATT
	 POIN2	ProjectJusticeDiscLoad_4_002
// 015   ----------------------------------------
	BYTE	PATT
	 POIN2	ProjectJusticeDiscLoad_4_001
// 016   ----------------------------------------
	BYTE	PATT
	 POIN2	ProjectJusticeDiscLoad_4_002
// 017   ----------------------------------------
	BYTE	PATT
	 POIN2	ProjectJusticeDiscLoad_4_001
// 018   ----------------------------------------
	BYTE	PATT
	 POIN2	ProjectJusticeDiscLoad_4_002
// 019   ----------------------------------------
	BYTE	PATT
	 POIN2	ProjectJusticeDiscLoad_4_001
// 020   ----------------------------------------
	BYTE	PATT
	 POIN2	ProjectJusticeDiscLoad_4_002
// 021   ----------------------------------------
	BYTE	PATT
	 POIN2	ProjectJusticeDiscLoad_4_001
// 022   ----------------------------------------
	BYTE	PATT
	 POIN2	ProjectJusticeDiscLoad_4_002
// 023   ----------------------------------------
	BYTE	PATT
	 POIN2	ProjectJusticeDiscLoad_4_001
	BYTE	GoTo
	 POIN2	ProjectJusticeDiscLoad_4_B1
ProjectJusticeDiscLoad_4_B2:
// 024   ----------------------------------------
	BYTE	FINE

//**************** Track 5 (Midi-Chn.5) ****************//

ProjectJusticeDiscLoad_5:
	BYTE	KEYSH   ProjectJusticeDiscLoad_key+0
ProjectJusticeDiscLoad_5_B1:
// 000   ----------------------------------------
	BYTE		VOICE   27
	BYTE		MODT    0
	BYTE		LFOS    44
	BYTE		VOL     70*ProjectJusticeDiscLoad_mvl/mxv
	BYTE		PAN     c_v+0
	BYTE		N02     En3   v088
	BYTE		N02     An3 
	BYTE	W06
	BYTE		        En3 
	BYTE		N02     An3 
	BYTE	W06
	BYTE		        En3 
	BYTE	W06
	BYTE		N02   
	BYTE		N02     An3 
	BYTE	W06
	BYTE		        En3 
	BYTE		N02     An3 
	BYTE	W06
	BYTE		N01     En3 
	BYTE	W06
	BYTE		N02   
	BYTE		N01     An3 
	BYTE	W06
	BYTE		N02     En3 
	BYTE	W06
	BYTE		N02   
	BYTE		N02     An3 
	BYTE	W06
	BYTE		        En3 
	BYTE	W06
	BYTE		N02   
	BYTE	W06
	BYTE		N02   
	BYTE		N02     An3 
	BYTE	W06
	BYTE		        En3 
	BYTE		N02     An3 
	BYTE	W06
	BYTE		        En3 
	BYTE	W06
	BYTE		N02   
	BYTE		N02     An3 
	BYTE	W06
	BYTE		        En3 
	BYTE	W06
// 001   ----------------------------------------
ProjectJusticeDiscLoad_5_001:
	BYTE		N02     En3   v088
	BYTE		N02     An3 
	BYTE	W06
	BYTE		        En3 
	BYTE		N02     An3 
	BYTE	W06
	BYTE		        En3 
	BYTE	W06
	BYTE		N02   
	BYTE		N02     An3 
	BYTE	W06
	BYTE		        En3 
	BYTE		N02     An3 
	BYTE	W06
	BYTE		N01     En3 
	BYTE	W06
	BYTE		N02   
	BYTE		N01     An3 
	BYTE	W06
	BYTE		N02     En3 
	BYTE	W06
	BYTE		N02   
	BYTE		N02     An3 
	BYTE	W06
	BYTE		        En3 
	BYTE	W06
	BYTE		N02   
	BYTE	W06
	BYTE		N02   
	BYTE		N02     An3 
	BYTE	W06
	BYTE		        En3 
	BYTE		N02     An3 
	BYTE	W06
	BYTE		        En3 
	BYTE	W06
	BYTE		N02   
	BYTE		N02     An3 
	BYTE	W06
	BYTE		        En3 
	BYTE	W06
	BYTE	PEND
// 002   ----------------------------------------
	BYTE	W96
// 003   ----------------------------------------
	BYTE	W96
// 004   ----------------------------------------
	BYTE	PATT
	 POIN2	ProjectJusticeDiscLoad_5_001
// 005   ----------------------------------------
	BYTE	PATT
	 POIN2	ProjectJusticeDiscLoad_5_001
// 006   ----------------------------------------
	BYTE	W96
// 007   ----------------------------------------
	BYTE	W96
// 008   ----------------------------------------
	BYTE	PATT
	 POIN2	ProjectJusticeDiscLoad_5_001
// 009   ----------------------------------------
	BYTE	PATT
	 POIN2	ProjectJusticeDiscLoad_5_001
// 010   ----------------------------------------
	BYTE	W96
// 011   ----------------------------------------
	BYTE	W96
// 012   ----------------------------------------
	BYTE	PATT
	 POIN2	ProjectJusticeDiscLoad_5_001
// 013   ----------------------------------------
	BYTE	PATT
	 POIN2	ProjectJusticeDiscLoad_5_001
// 014   ----------------------------------------
	BYTE	W96
// 015   ----------------------------------------
	BYTE	W96
// 016   ----------------------------------------
	BYTE	PATT
	 POIN2	ProjectJusticeDiscLoad_5_001
// 017   ----------------------------------------
	BYTE	PATT
	 POIN2	ProjectJusticeDiscLoad_5_001
// 018   ----------------------------------------
	BYTE	W96
// 019   ----------------------------------------
	BYTE	W96
// 020   ----------------------------------------
	BYTE	PATT
	 POIN2	ProjectJusticeDiscLoad_5_001
// 021   ----------------------------------------
	BYTE	PATT
	 POIN2	ProjectJusticeDiscLoad_5_001
// 022   ----------------------------------------
	BYTE	W96
// 023   ----------------------------------------
	BYTE	W96
	BYTE	GoTo
	 POIN2	ProjectJusticeDiscLoad_5_B1
ProjectJusticeDiscLoad_5_B2:
// 024   ----------------------------------------
	BYTE	FINE

//**************** Track 6 (Midi-Chn.6) ****************//

ProjectJusticeDiscLoad_6:
	BYTE	KEYSH   ProjectJusticeDiscLoad_key+0
ProjectJusticeDiscLoad_6_B1:
// 000   ----------------------------------------
	BYTE		VOICE   91
	BYTE		MODT    0
	BYTE		LFOS    44
	BYTE		VOL     84*ProjectJusticeDiscLoad_mvl/mxv
	BYTE		PAN     c_v+0
	BYTE	W12
	BYTE		N18     An2   v088
	BYTE	W18
	BYTE		        Cn3 
	BYTE	W18
	BYTE		        Gn3 
	BYTE	W18
	BYTE		TIE     Fs3 
	BYTE	W30
// 001   ----------------------------------------
	BYTE	W96
// 002   ----------------------------------------
	BYTE	W12
	BYTE		EOT   
	BYTE	W84
// 003   ----------------------------------------
	BYTE	W96
// 004   ----------------------------------------
ProjectJusticeDiscLoad_6_004:
	BYTE	W12
	BYTE		N18     An2   v088
	BYTE	W18
	BYTE		        Cn3 
	BYTE	W18
	BYTE		        Gn3 
	BYTE	W18
	BYTE		TIE     Fs3 
	BYTE	W30
	BYTE	PEND
// 005   ----------------------------------------
	BYTE	W96
// 006   ----------------------------------------
	BYTE	W12
	BYTE		EOT   
	BYTE	W84
// 007   ----------------------------------------
	BYTE	W96
// 008   ----------------------------------------
	BYTE	PATT
	 POIN2	ProjectJusticeDiscLoad_6_004
// 009   ----------------------------------------
	BYTE	W96
// 010   ----------------------------------------
	BYTE	W12
	BYTE		EOT     Fs3 
	BYTE	W84
// 011   ----------------------------------------
	BYTE	W96
// 012   ----------------------------------------
	BYTE	PATT
	 POIN2	ProjectJusticeDiscLoad_6_004
// 013   ----------------------------------------
	BYTE	W96
// 014   ----------------------------------------
	BYTE	W12
	BYTE		EOT     Fs3 
	BYTE	W84
// 015   ----------------------------------------
	BYTE	W96
// 016   ----------------------------------------
	BYTE	PATT
	 POIN2	ProjectJusticeDiscLoad_6_004
// 017   ----------------------------------------
	BYTE	W96
// 018   ----------------------------------------
	BYTE	W12
	BYTE		EOT     Fs3 
	BYTE	W84
// 019   ----------------------------------------
	BYTE	W96
// 020   ----------------------------------------
	BYTE	PATT
	 POIN2	ProjectJusticeDiscLoad_6_004
// 021   ----------------------------------------
	BYTE	W96
// 022   ----------------------------------------
	BYTE	W12
	BYTE		EOT     Fs3 
	BYTE	W84
// 023   ----------------------------------------
	BYTE	W96
	BYTE	GoTo
	 POIN2	ProjectJusticeDiscLoad_6_B1
ProjectJusticeDiscLoad_6_B2:
// 024   ----------------------------------------
	BYTE	FINE

//**************** Track 7 (Midi-Chn.10) ****************//

ProjectJusticeDiscLoad_7:
	BYTE	KEYSH   ProjectJusticeDiscLoad_key+0
ProjectJusticeDiscLoad_7_B1:
// 000   ----------------------------------------
	BYTE		VOICE   0
	BYTE		MODT    0
	BYTE		LFOS    44
	BYTE		VOL     70*ProjectJusticeDiscLoad_mvl/mxv
	BYTE		PAN     c_v+0
	BYTE		N04     Cn1   v088
	BYTE		N04     Fs1 
	BYTE		N04     Gs1 
	BYTE		N96     Cs2 
	BYTE	W12
	BYTE		N04     Fs1 
	BYTE		N04     As1 
	BYTE	W06
	BYTE		        Fs1 
	BYTE	W06
	BYTE		        Cn1 
	BYTE		N06     Dn1 
	BYTE		N04     En1 
	BYTE		N04     Fs1 
	BYTE		N04     Gs1 
	BYTE	W12
	BYTE		        Fs1 
	BYTE		N04     As1 
	BYTE	W06
	BYTE		        Cn1 
	BYTE		N04     Fs1 
	BYTE	W06
	BYTE		N04   
	BYTE		N04     Gs1 
	BYTE	W06
	BYTE		        Cn1 
	BYTE	W06
	BYTE		        Fs1 
	BYTE		N04     Gs1 
	BYTE		N04     As1 
	BYTE	W06
	BYTE		        Fs1 
	BYTE	W06
	BYTE		        Cn1 
	BYTE		N06     Dn1 
	BYTE		N04     En1 
	BYTE		N04     Fs1 
	BYTE	W12
	BYTE		        Cn1 
	BYTE		N04     Fs1 
	BYTE		N04     Gs1 
	BYTE		N04     As1 
	BYTE	W06
	BYTE		        Fs1 
	BYTE	W06
// 001   ----------------------------------------
ProjectJusticeDiscLoad_7_001:
	BYTE		N04     Cn1   v088
	BYTE		N04     Fs1 
	BYTE		N04     Gs1 
	BYTE	W12
	BYTE		        Fs1 
	BYTE		N04     As1 
	BYTE	W06
	BYTE		        Fs1 
	BYTE	W06
	BYTE		N06     Cn1 
	BYTE		N06     Dn1 
	BYTE		N04     En1 
	BYTE		N04     Fs1 
	BYTE		N04     Gs1 
	BYTE	W12
	BYTE		        Fs1 
	BYTE		N04     As1 
	BYTE	W06
	BYTE		        Cn1 
	BYTE		N04     Fs1 
	BYTE	W06
	BYTE		N04   
	BYTE		N04     Gs1 
	BYTE	W06
	BYTE		        Cn1 
	BYTE	W06
	BYTE		        Fs1 
	BYTE		N04     Gs1 
	BYTE		N04     As1 
	BYTE	W06
	BYTE		        Fs1 
	BYTE	W06
	BYTE		        Cn1 
	BYTE		N06     Dn1 
	BYTE		N04     En1 
	BYTE		N04     Fs1 
	BYTE	W12
	BYTE		        Cn1 
	BYTE		N04     Fs1 
	BYTE		N04     Gs1 
	BYTE		N04     As1 
	BYTE	W06
	BYTE		        Fs1 
	BYTE	W06
	BYTE	PEND
// 002   ----------------------------------------
	BYTE	PATT
	 POIN2	ProjectJusticeDiscLoad_7_001
// 003   ----------------------------------------
ProjectJusticeDiscLoad_7_003:
	BYTE		N04     Cn1   v088
	BYTE		N04     Fs1 
	BYTE		N04     Gs1 
	BYTE	W12
	BYTE		        Fs1 
	BYTE		N04     As1 
	BYTE	W06
	BYTE		        Fs1 
	BYTE	W06
	BYTE		N06     Cn1 
	BYTE		N06     Dn1 
	BYTE		N04     En1 
	BYTE		N04     Fs1 
	BYTE		N04     Gs1 
	BYTE	W12
	BYTE		        Fs1 
	BYTE		N04     As1 
	BYTE	W06
	BYTE		        Cn1 
	BYTE		N04     Fs1 
	BYTE	W06
	BYTE		N04   
	BYTE		N04     Gs1 
	BYTE	W06
	BYTE		        Cn1 
	BYTE	W06
	BYTE		        Fs1 
	BYTE		N01     Gs1 
	BYTE		N04     As1 
	BYTE	W03
	BYTE		N01     Gs1 
	BYTE	W03
	BYTE		N04     Fs1 
	BYTE		N01     Gs1 
	BYTE	W06
	BYTE		N04     Cn1 
	BYTE		N06     Dn1 
	BYTE		N04     En1 
	BYTE		N04     Fs1 
	BYTE		N01     Gs1 
	BYTE	W06
	BYTE		N01   
	BYTE	W06
	BYTE		N04     Cn1 
	BYTE		N04     Fs1 
	BYTE		N01     Gs1 
	BYTE		N04     As1 
	BYTE	W06
	BYTE		        Fs1 
	BYTE	W06
	BYTE	PEND
// 004   ----------------------------------------
ProjectJusticeDiscLoad_7_004:
	BYTE		N04     Cn1   v088
	BYTE		N04     Fs1 
	BYTE		N04     Gs1 
	BYTE		N96     Cs2 
	BYTE	W12
	BYTE		N04     Fs1 
	BYTE		N04     As1 
	BYTE	W06
	BYTE		        Fs1 
	BYTE	W06
	BYTE		        Cn1 
	BYTE		N06     Dn1 
	BYTE		N04     En1 
	BYTE		N04     Fs1 
	BYTE		N04     Gs1 
	BYTE	W12
	BYTE		        Fs1 
	BYTE		N04     As1 
	BYTE	W06
	BYTE		        Cn1 
	BYTE		N04     Fs1 
	BYTE	W06
	BYTE		N04   
	BYTE		N04     Gs1 
	BYTE	W06
	BYTE		        Cn1 
	BYTE	W06
	BYTE		        Fs1 
	BYTE		N04     Gs1 
	BYTE		N04     As1 
	BYTE	W06
	BYTE		        Fs1 
	BYTE	W06
	BYTE		        Cn1 
	BYTE		N06     Dn1 
	BYTE		N04     En1 
	BYTE		N04     Fs1 
	BYTE	W12
	BYTE		        Cn1 
	BYTE		N04     Fs1 
	BYTE		N04     Gs1 
	BYTE		N04     As1 
	BYTE	W06
	BYTE		        Fs1 
	BYTE	W06
	BYTE	PEND
// 005   ----------------------------------------
	BYTE	PATT
	 POIN2	ProjectJusticeDiscLoad_7_001
// 006   ----------------------------------------
	BYTE	PATT
	 POIN2	ProjectJusticeDiscLoad_7_001
// 007   ----------------------------------------
	BYTE	PATT
	 POIN2	ProjectJusticeDiscLoad_7_003
// 008   ----------------------------------------
	BYTE	PATT
	 POIN2	ProjectJusticeDiscLoad_7_004
// 009   ----------------------------------------
	BYTE	PATT
	 POIN2	ProjectJusticeDiscLoad_7_001
// 010   ----------------------------------------
	BYTE	PATT
	 POIN2	ProjectJusticeDiscLoad_7_001
// 011   ----------------------------------------
	BYTE	PATT
	 POIN2	ProjectJusticeDiscLoad_7_003
// 012   ----------------------------------------
	BYTE	PATT
	 POIN2	ProjectJusticeDiscLoad_7_004
// 013   ----------------------------------------
	BYTE	PATT
	 POIN2	ProjectJusticeDiscLoad_7_001
// 014   ----------------------------------------
	BYTE	PATT
	 POIN2	ProjectJusticeDiscLoad_7_001
// 015   ----------------------------------------
	BYTE	PATT
	 POIN2	ProjectJusticeDiscLoad_7_003
// 016   ----------------------------------------
	BYTE	PATT
	 POIN2	ProjectJusticeDiscLoad_7_004
// 017   ----------------------------------------
	BYTE	PATT
	 POIN2	ProjectJusticeDiscLoad_7_001
// 018   ----------------------------------------
	BYTE	PATT
	 POIN2	ProjectJusticeDiscLoad_7_001
// 019   ----------------------------------------
	BYTE	PATT
	 POIN2	ProjectJusticeDiscLoad_7_003
// 020   ----------------------------------------
	BYTE	PATT
	 POIN2	ProjectJusticeDiscLoad_7_004
// 021   ----------------------------------------
	BYTE	PATT
	 POIN2	ProjectJusticeDiscLoad_7_001
// 022   ----------------------------------------
	BYTE	PATT
	 POIN2	ProjectJusticeDiscLoad_7_001
// 023   ----------------------------------------
	BYTE	PATT
	 POIN2	ProjectJusticeDiscLoad_7_003
	BYTE	GoTo
	 POIN2	ProjectJusticeDiscLoad_7_B1
ProjectJusticeDiscLoad_7_B2:
// 024   ----------------------------------------
	BYTE	FINE

//******************************************************//
	ALIGN 4

ProjectJusticeDiscLoad:
	BYTE	7	// NumTrks
	BYTE	0	// NumBlks
	BYTE	ProjectJusticeDiscLoad_pri	// Priority
	BYTE	ProjectJusticeDiscLoad_rev	// Reverb.

	POIN2	ProjectJusticeDiscLoad_grp

	POIN2	ProjectJusticeDiscLoad_1
	POIN2	ProjectJusticeDiscLoad_2
	POIN2	ProjectJusticeDiscLoad_3
	POIN2	ProjectJusticeDiscLoad_4
	POIN2	ProjectJusticeDiscLoad_5
	POIN2	ProjectJusticeDiscLoad_6
	POIN2	ProjectJusticeDiscLoad_7

	
