//Event file generated from Sappy .s format.
	

	#define	RPGTsurukuGBFields1_grp  voicegroup000
	#define	RPGTsurukuGBFields1_pri  0
	#define	RPGTsurukuGBFields1_rev  0
	#define	RPGTsurukuGBFields1_mvl  127
	#define	RPGTsurukuGBFields1_key  0
	#define	RPGTsurukuGBFields1_tbs  1
	#define	RPGTsurukuGBFields1_exg  0
	#define	RPGTsurukuGBFields1_cmp  1

	// .rodata
	//	RPGTsurukuGBFields1
	ALIGN 4


//**************** Track 1 (Midi-Chn.0) ****************//

RPGTsurukuGBFields1_001:
//  #01 //000   ----------------------------------------
 BYTE   KEYSH   RPGTsurukuGBFields1_key+0
Label_01004712:
 BYTE   TEMPO   120*RPGTsurukuGBFields1_tbs/2
 BYTE   VOICE   24
 BYTE   MODT 0
 BYTE   LFOS 44
 BYTE   VOL   41*RPGTsurukuGBFields1_mvl/mxv
 BYTE   W11
 BYTE   BEND   c_v+2
 BYTE   N09  Dn3  v127
 BYTE   W09
 BYTE   BEND   c_v+1
 BYTE   N09  Ds3
 BYTE   W09
 BYTE   BEND   c_v+4
 BYTE   N08  Gn3
 BYTE   W08
 BYTE   BEND   c_v+2
 BYTE   N24  As3
 BYTE   W24
 BYTE   W03
 BYTE   BEND   c_v+2
 BYTE   N09  Dn4
 BYTE   W09
 BYTE   BEND   c_v+7
 BYTE   N09  Ds4
 BYTE   W09
 BYTE   BEND   c_v+4
 BYTE   N08  Gn4
 BYTE   W08
 BYTE   BEND   c_v+10
 BYTE   N32  As4
 BYTE   W06
//  #01 //001   ----------------------------------------
 BYTE   W28
 BYTE   W01
 BYTE   BEND   c_v+4
 BYTE   N09  Gn3
 BYTE   W10
 BYTE   BEND   c_v+1
 BYTE   N08  Ds3
 BYTE   W08
 BYTE   BEND   c_v+2
 BYTE   N32  Dn3
 BYTE   W32
 BYTE   W03
 BYTE   BEND   c_v+4
 BYTE   N09  Gn4
 BYTE   W09
 BYTE   BEND   c_v+7
 BYTE   N08  Ds4
 BYTE   W05
//  #01 //002   ----------------------------------------
 BYTE   W04
 BYTE   BEND   c_v+2
 BYTE   N24  Dn4
 BYTE   W24
 BYTE   W02
 BYTE   N09  Dn3
 BYTE   W09
 BYTE   BEND   c_v+1
 BYTE   N09  Ds3
 BYTE   W09
 BYTE   BEND   c_v+4
 BYTE   N08  Gn3
 BYTE   W08
 BYTE   BEND   c_v+5
 BYTE   N32  Cn4
 BYTE   W36
 BYTE   BEND   c_v+2
 BYTE   N09  As3
 BYTE   W04
//  #01 //003   ----------------------------------------
 BYTE   W05
 BYTE   BEND   c_v+4
 BYTE   N08  Gn3
 BYTE   W08
 BYTE   BEND   c_v+2
 BYTE   N18  Fn3
 BYTE   W18
 BYTE   BEND   c_v+1
 BYTE   N17  Ds3
 BYTE   W18
 BYTE   BEND   c_v+2
 BYTE   N17  Gs3
 BYTE   W17
 BYTE   BEND   c_v+4
 BYTE   N24  Gn3
 BYTE   W24
 BYTE   W02
 BYTE   N09  Gn4
 BYTE   W04
//  #01 //004   ----------------------------------------
 BYTE   W05
 BYTE   BEND   c_v+6
 BYTE   N09  Gs4
 BYTE   W10
 BYTE   BEND   c_v+5
 BYTE   N08  Fn4
 BYTE   W08
 BYTE   BEND   c_v+4
 BYTE   N32  Gn4
 BYTE   W32
 BYTE   W03
 BYTE   N09  Gn3
 BYTE   W09
 BYTE   BEND   c_v+2
 BYTE   N08  Gs3
 BYTE   W09
 BYTE   BEND   c_v+2
 BYTE   N88  As3
 BYTE   W20
//  #01 //005   ----------------------------------------
 BYTE   W68
 BYTE   BEND   c_v+2
 BYTE   N09  Gs3
 BYTE   W09
 BYTE   BEND   c_v+4
 BYTE   N08  Gn3
 BYTE   W08
 BYTE   BEND   c_v+2
 BYTE   N52  Fn3
 BYTE   W11
//  #01 //006   ----------------------------------------
 BYTE   W42
 BYTE   BEND   c_v+1
 BYTE   N24  Ds3
 BYTE   W24
 BYTE   W02
 BYTE   BEND   c_v+1
 BYTE   N18  Cn3
 BYTE   W19
 BYTE   BEND   c_v+1
 BYTE   N08  Ds3
 BYTE   W08
 BYTE   BEND   c_v+2
 BYTE   N88  Dn3
 BYTE   W01
//  #01 //007   ----------------------------------------
 BYTE   W84
 BYTE   W03
 BYTE   BEND   c_v+1
 BYTE   N09  Ds3
 BYTE   W09
//  #01 //008   ----------------------------------------
 BYTE   BEND   c_v+2
 BYTE   N08  Fn3
 BYTE   W08
 BYTE   BEND   c_v+4
 BYTE   N52  Gn3
 BYTE   W52
 BYTE   W01
 BYTE   BEND   c_v+2
 BYTE   N24  Fn3
 BYTE   W24
 BYTE   W03
 BYTE   BEND   c_v+1
 BYTE   N04  Cn3
 BYTE   W04
 BYTE   BEND   c_v+2
 BYTE   N04  Dn3
 BYTE   W04
//  #01 //009   ----------------------------------------
 BYTE   BEND   c_v+1
 BYTE   N04  Ds3
 BYTE   W05
 BYTE   BEND   c_v+2
 BYTE   N04  Fn3
 BYTE   W04
 BYTE   BEND   c_v+4
 BYTE   N04  Gn3
 BYTE   W04
 BYTE   BEND   c_v+2
 BYTE   N04  Gs3
 BYTE   W05
 BYTE   BEND   c_v+2
 BYTE   N24  As3
 BYTE   W24
 BYTE   W02
 BYTE   BEND   c_v+2
 BYTE   N09  Dn4
 BYTE   W09
 BYTE   BEND   c_v+7
 BYTE   N09  Ds4
 BYTE   W10
 BYTE   BEND   c_v+4
 BYTE   N08  Gn4
 BYTE   W08
 BYTE   BEND   c_v+10
 BYTE   N32  As4
 BYTE   W24
 BYTE   W01
//  #01 //010   ----------------------------------------
 BYTE   W10
 BYTE   BEND   c_v+4
 BYTE   N09  Gn3
 BYTE   W09
 BYTE   BEND   c_v+1
 BYTE   N08  Ds3
 BYTE   W09
 BYTE   BEND   c_v+2
 BYTE   N32  Dn3
 BYTE   W32
 BYTE   W03
 BYTE   BEND   c_v+4
 BYTE   N09  Gn4
 BYTE   W09
 BYTE   BEND   c_v+7
 BYTE   N08  Ds4
 BYTE   W08
 BYTE   BEND   c_v+2
 BYTE   N24  Dn4
 BYTE   W16
//  #01 //011   ----------------------------------------
 BYTE   W11
 BYTE   N09  Dn3
 BYTE   W09
 BYTE   BEND   c_v+1
 BYTE   N09  Ds3
 BYTE   W09
 BYTE   BEND   c_v+4
 BYTE   N08  Gn3
 BYTE   W08
 BYTE   BEND   c_v+5
 BYTE   N32  Cn4
 BYTE   W36
 BYTE   BEND   c_v+2
 BYTE   N09  As3
 BYTE   W09
 BYTE   BEND   c_v+4
 BYTE   N08  Gn3
 BYTE   W08
 BYTE   BEND   c_v+2
 BYTE   N18  Fn3
 BYTE   W06
//  #01 //012   ----------------------------------------
 BYTE   W12
 BYTE   BEND   c_v+1
 BYTE   N17  Ds3
 BYTE   W17
 BYTE   BEND   c_v+2
 BYTE   N17  Gs3
 BYTE   W18
 BYTE   BEND   c_v+4
 BYTE   N24  Gn3
 BYTE   W24
 BYTE   W02
 BYTE   N09  Gn4
 BYTE   W09
 BYTE   BEND   c_v+6
 BYTE   N09  Gs4
 BYTE   W09
 BYTE   BEND   c_v+5
 BYTE   N08  Fn4
 BYTE   W05
//  #01 //013   ----------------------------------------
 BYTE   W04
 BYTE   BEND   c_v+4
 BYTE   N32  Gn4
 BYTE   W32
 BYTE   W03
 BYTE   N09  Gn3
 BYTE   W09
 BYTE   BEND   c_v+2
 BYTE   N08  Gs3
 BYTE   W08
 BYTE   BEND   c_v+2
 BYTE   N78  As3
 BYTE   W40
//  #01 //014   ----------------------------------------
 BYTE   W40
 BYTE   BEND   c_v+4
 BYTE   N09  Gn3
 BYTE   W09
 BYTE   BEND   c_v+2
 BYTE   N09  Gs3
 BYTE   W09
 BYTE   BEND   c_v+2
 BYTE   N08  As3
 BYTE   W08
 BYTE   BEND   c_v+5
 BYTE   N18  Cn4
 BYTE   W18
 BYTE   BEND   c_v+1
 BYTE   N17  Ds3
 BYTE   W12
//  #01 //015   ----------------------------------------
 BYTE   W05
 BYTE   BEND   c_v+2
 BYTE   N17  Dn3
 BYTE   W18
 BYTE   BEND   c_v+1
 BYTE   N18  Ds3
 BYTE   W18
 BYTE   BEND   c_v+2
 BYTE   N17  Fn3
 BYTE   W17
 BYTE   BEND   c_v+4
 BYTE   N17  Gn3
 BYTE   W18
 BYTE   BEND   c_v+2
 BYTE   N60  Fn3
 BYTE   W20
//  #01 //016   ----------------------------------------
 BYTE   W40
 BYTE   W01
 BYTE   BEND   c_v+1
 BYTE   N09  Cn3
 BYTE   W10
 BYTE   BEND   c_v+2
 BYTE   N08  Dn3
 BYTE   W08
 BYTE   BEND   c_v+1
 BYTE   N09  Ds3
 BYTE   W09
 BYTE   BEND   c_v+2
 BYTE   N09  Fn3
 BYTE   W09
 BYTE   BEND   c_v+2
 BYTE   N08  Gs3
 BYTE   W08
 BYTE   BEND   c_v+4
 BYTE   N78  Gn3
 BYTE   W11
//  #01 //017   ----------------------------------------
 BYTE   W68
 BYTE   BEND   c_v+1
 BYTE   N04  Cn3
 BYTE   W05
 BYTE   BEND   c_v+2
 BYTE   N04  Dn3
 BYTE   W04
 BYTE   BEND   c_v+1
 BYTE   N04  Ds3
 BYTE   W05
 BYTE   BEND   c_v+2
 BYTE   N04  Fn3
 BYTE   W04
 BYTE   BEND   c_v+4
 BYTE   N04  Gn3
 BYTE   W04
 BYTE   BEND   c_v+2
 BYTE   N04  Gs3
 BYTE   W05
 BYTE   BEND   c_v+2
 BYTE   N09  As3
 BYTE   W01
//  #01 //018   ----------------------------------------
 BYTE   W08
 BYTE   BEND   c_v+5
 BYTE   N24  Cn4
 BYTE   W24
 BYTE   W02
 BYTE   BEND   c_v+2
 BYTE   N09  Dn3
 BYTE   W09
 BYTE   BEND   c_v+1
 BYTE   N08  Ds3
 BYTE   W09
 BYTE   BEND   c_v+2
 BYTE   N18  As3
 BYTE   W18
 BYTE   BEND   c_v+4
 BYTE   N17  Gn3
 BYTE   W17
 BYTE   BEND   c_v+1
 BYTE   N17  Ds3
 BYTE   W09
//  #01 //019   ----------------------------------------
 BYTE   W08
 BYTE   BEND   c_v+2
 BYTE   N09  Dn3
 BYTE   W09
 BYTE   BEND   c_v+1
 BYTE   N24  Ds3
 BYTE   W24
 BYTE   W03
 BYTE   BEND   c_v+2
 BYTE   N09  Dn3
 BYTE   W09
 BYTE   BEND   c_v+1
 BYTE   N08  Ds3
 BYTE   W08
 BYTE   BEND   c_v+1
 BYTE   N24  Cn3
 BYTE   W24
 BYTE   W03
 BYTE   BEND   c_v+4
 BYTE   N44  Gn3
 BYTE   W08
//  #01 //020   ----------------------------------------
 BYTE   W36
 BYTE   BEND   c_v+2
 BYTE   N08  Gs3
 BYTE   W08
 BYTE   BEND   c_v+2
 BYTE   N09  As3
 BYTE   W09
 BYTE   BEND   c_v+2
 BYTE   N09  Gs3
 BYTE   W10
 BYTE   BEND   c_v+4
 BYTE   N08  Gn3
 BYTE   W08
 BYTE   BEND   c_v+2
 BYTE   N18  Fn3
 BYTE   W18
 BYTE   BEND   c_v+1
 BYTE   N17  Ds3
 BYTE   W07
//  #01 //021   ----------------------------------------
 BYTE   W10
 BYTE   BEND   c_v+2
 BYTE   N17  Dn3
 BYTE   W18
 BYTE   BEND   c_v+1
 BYTE   N04  Cn3
 BYTE   W04
 BYTE   BEND   c_v+2
 BYTE   N04  Dn3
 BYTE   W04
 BYTE   BEND   c_v+1
 BYTE   N04  Ds3
 BYTE   W05
 BYTE   BEND   c_v+2
 BYTE   N04  Fn3
 BYTE   W04
 BYTE   BEND   c_v+4
 BYTE   N09  Gn3
 BYTE   W09
 BYTE   BEND   c_v+1
 BYTE   N04  Ds3
 BYTE   W04
 BYTE   BEND   c_v+2
 BYTE   N04  Fn3
 BYTE   W04
 BYTE   BEND   c_v+4
 BYTE   N04  Gn3
 BYTE   W05
 BYTE   BEND   c_v+2
 BYTE   N04  Gs3
 BYTE   W04
 BYTE   BEND   c_v+2
 BYTE   N09  As3
 BYTE   W09
 BYTE   BEND   c_v+4
 BYTE   N04  Gn3
 BYTE   W05
 BYTE   BEND   c_v+2
 BYTE   N04  Gs3
 BYTE   W04
 BYTE   BEND   c_v+2
 BYTE   N04  As3
 BYTE   W05
 BYTE   BEND   c_v+5
 BYTE   N04  Cn4
 BYTE   W02
//  #01 //022   ----------------------------------------
 BYTE   W02
 BYTE   BEND   c_v+5
 BYTE   N09  Cs4
 BYTE   W09
 BYTE   BEND   c_v+5
 BYTE   N09  Cn4
 BYTE   W09
 BYTE   BEND   c_v+5
 BYTE   N09  Cs4
 BYTE   W09
 BYTE   BEND   c_v+2
 BYTE   N17  As3
 BYTE   W17
 BYTE   BEND   c_v+5
 BYTE   N24  Cn4
 BYTE   W24
 BYTE   W03
 BYTE   BEND   c_v+2
 BYTE   N09  Dn3
 BYTE   W09
 BYTE   BEND   c_v+1
 BYTE   N08  Ds3
 BYTE   W08
 BYTE   BEND   c_v+2
 BYTE   N18  As3
 BYTE   W06
//  #01 //023   ----------------------------------------
 BYTE   W12
 BYTE   BEND   c_v+4
 BYTE   N17  Gn3
 BYTE   W17
 BYTE   BEND   c_v+1
 BYTE   N17  Ds3
 BYTE   W18
 BYTE   BEND   c_v+2
 BYTE   N09  Dn3
 BYTE   W09
 BYTE   BEND   c_v+1
 BYTE   N24  Ds3
 BYTE   W24
 BYTE   W02
 BYTE   BEND   c_v+2
 BYTE   N09  Dn3
 BYTE   W09
 BYTE   BEND   c_v+1
 BYTE   N08  Ds3
 BYTE   W05
//  #01 //024   ----------------------------------------
 BYTE   W04
 BYTE   BEND   c_v+1
 BYTE   N24  Cn3
 BYTE   W24
 BYTE   W02
 BYTE   BEND   c_v+4
 BYTE   N44  Gn3
 BYTE   W44
 BYTE   W01
 BYTE   BEND   c_v+2
 BYTE   N08  Gs3
 BYTE   W08
 BYTE   BEND   c_v+2
 BYTE   N09  As3
 BYTE   W09
 BYTE   BEND   c_v+2
 BYTE   N09  Gs3
 BYTE   W04
//  #01 //025   ----------------------------------------
 BYTE   W05
 BYTE   BEND   c_v+4
 BYTE   N08  Gn3
 BYTE   W08
 BYTE   BEND   c_v+2
 BYTE   N18  Fn3
 BYTE   W18
 BYTE   BEND   c_v+1
 BYTE   N17  Ds3
 BYTE   W18
 BYTE   BEND   c_v+2
 BYTE   N32  Dn3
 BYTE   W32
 BYTE   W03
 BYTE   BEND   c_v+2
 BYTE   W12
//  #01 //026   ----------------------------------------
 BYTE   W68
 BYTE   W03
 BYTE   GoTo
  POIN2 Label_01004712
 BYTE   FINE

//**************** Track 2 (Midi-Chn.1) ****************//

RPGTsurukuGBFields1_002:
//  #02 //000   ----------------------------------------
 BYTE   KEYSH   RPGTsurukuGBFields1_key+0
Label_01004A6A:
 BYTE   VOICE   109
 BYTE   MODT 0
 BYTE   LFOS 44
 BYTE   VOL   32*RPGTsurukuGBFields1_mvl/mxv
 BYTE   W36
 BYTE   W01
 BYTE   BEND   c_v+4
 BYTE   N24  Gn4  v127
 BYTE   W24
 BYTE   W03
 BYTE   BEND   c_v+1
 BYTE   N04  Cn3
 BYTE   W04
 BYTE   BEND   c_v+0
 BYTE   N04  Gn2
 BYTE   W04
 BYTE   BEND   c_v+1
 BYTE   N04  Cn3
 BYTE   W05
 BYTE   BEND   c_v+1
 BYTE   N04  Dn3
 BYTE   W04
 BYTE   BEND   c_v+1
 BYTE   N04  Ds3
 BYTE   W04
 BYTE   BEND   c_v+2
 BYTE   N04  Fn3
 BYTE   W05
 BYTE   BEND   c_v+2
 BYTE   N24  Gn3
 BYTE   W06
//  #02 //001   ----------------------------------------
 BYTE   W20
 BYTE   BEND   c_v+1
 BYTE   N04  Cn3
 BYTE   W05
 BYTE   BEND   c_v+0
 BYTE   N04  Gn2
 BYTE   W04
 BYTE   BEND   c_v+1
 BYTE   N04  Cn3
 BYTE   W05
 BYTE   BEND   c_v+1
 BYTE   N04  Dn3
 BYTE   W04
 BYTE   BEND   c_v+1
 BYTE   N04  Ds3
 BYTE   W04
 BYTE   BEND   c_v+2
 BYTE   N04  Gn3
 BYTE   W05
 BYTE   BEND   c_v+2
 BYTE   N24  As3
 BYTE   W24
 BYTE   W02
 BYTE   BEND   c_v+1
 BYTE   N04  As2
 BYTE   W04
 BYTE   BEND   c_v+0
 BYTE   N04  Fn2
 BYTE   W04
 BYTE   BEND   c_v+1
 BYTE   N04  As2
 BYTE   W05
 BYTE   BEND   c_v+1
 BYTE   N04  Cn3
 BYTE   W05
 BYTE   BEND   c_v+1
 BYTE   N04  Dn3
 BYTE   W04
 BYTE   BEND   c_v+1
 BYTE   N04  Ds3
 BYTE   W01
//  #02 //002   ----------------------------------------
 BYTE   W04
 BYTE   BEND   c_v+2
 BYTE   N24  Fn3
 BYTE   W24
 BYTE   W02
 BYTE   BEND   c_v+1
 BYTE   N04  As2
 BYTE   W04
 BYTE   BEND   c_v+0
 BYTE   N04  Fn2
 BYTE   W04
 BYTE   BEND   c_v+1
 BYTE   N04  As2
 BYTE   W05
 BYTE   BEND   c_v+1
 BYTE   N04  Cn3
 BYTE   W04
 BYTE   BEND   c_v+1
 BYTE   N04  Dn3
 BYTE   W04
 BYTE   BEND   c_v+2
 BYTE   N04  Fn3
 BYTE   W05
 BYTE   BEND   c_v+2
 BYTE   N24  Gs4
 BYTE   W24
 BYTE   W03
 BYTE   BEND   c_v+1
 BYTE   N04  Gs2
 BYTE   W04
 BYTE   BEND   c_v+0
 BYTE   N04  Ds2
 BYTE   W04
 BYTE   BEND   c_v+1
 BYTE   N04  Gs2
 BYTE   W05
//  #02 //003   ----------------------------------------
 BYTE   BEND   c_v+1
 BYTE   N04  As2
 BYTE   W04
 BYTE   BEND   c_v+1
 BYTE   N04  Cn3
 BYTE   W04
 BYTE   BEND   c_v+1
 BYTE   N04  Ds3
 BYTE   W05
 BYTE   BEND   c_v+2
 BYTE   N18  Dn4
 BYTE   W18
 BYTE   BEND   c_v+1
 BYTE   N08  Cn4
 BYTE   W09
 BYTE   BEND   c_v+1
 BYTE   N04  Gs2
 BYTE   W04
 BYTE   BEND   c_v+0
 BYTE   N04  Ds2
 BYTE   W04
 BYTE   BEND   c_v+1
 BYTE   N04  Gs2
 BYTE   W05
 BYTE   BEND   c_v+1
 BYTE   N04  As2
 BYTE   W04
 BYTE   BEND   c_v+1
 BYTE   N04  Cn3
 BYTE   W04
 BYTE   BEND   c_v+2
 BYTE   N04  Fn3
 BYTE   W05
 BYTE   BEND   c_v+2
 BYTE   N24  As3
 BYTE   W24
 BYTE   W02
 BYTE   BEND   c_v+0
 BYTE   N09  Gn2
 BYTE   W04
//  #02 //004   ----------------------------------------
 BYTE   W05
 BYTE   BEND   c_v+1
 BYTE   N09  As2
 BYTE   W10
 BYTE   BEND   c_v+2
 BYTE   N08  Gn3
 BYTE   W08
 BYTE   BEND   c_v+2
 BYTE   N09  Fn3
 BYTE   W09
 BYTE   BEND   c_v+0
 BYTE   N09  Gn2
 BYTE   W09
 BYTE   BEND   c_v+1
 BYTE   N08  Dn3
 BYTE   W08
 BYTE   BEND   c_v+0
 BYTE   N09  Gn2
 BYTE   W09
 BYTE   BEND   c_v+1
 BYTE   N09  As2
 BYTE   W09
 BYTE   BEND   c_v+0
 BYTE   N08  Gn2
 BYTE   W09
 BYTE   BEND   c_v+1
 BYTE   N08  Gs2
 BYTE   W08
 BYTE   BEND   c_v+1
 BYTE   N09  Cn3
 BYTE   W09
 BYTE   BEND   c_v+1
 BYTE   N09  Ds3
 BYTE   W03
//  #02 //005   ----------------------------------------
 BYTE   W06
 BYTE   BEND   c_v+1
 BYTE   N24  Gs3
 BYTE   W24
 BYTE   W02
 BYTE   N08  Gs2
 BYTE   W09
 BYTE   BEND   c_v+1
 BYTE   N09  Cn3
 BYTE   W09
 BYTE   BEND   c_v+1
 BYTE   N09  Ds3
 BYTE   W09
 BYTE   BEND   c_v+1
 BYTE   N24  Gs3
 BYTE   W24
 BYTE   W02
 BYTE   BEND   c_v+0
 BYTE   N08  Gn2
 BYTE   W08
 BYTE   BEND   c_v+1
 BYTE   N09  Cn3
 BYTE   W03
//  #02 //006   ----------------------------------------
 BYTE   W07
 BYTE   BEND   c_v+1
 BYTE   N09  Ds3
 BYTE   W09
 BYTE   BEND   c_v+2
 BYTE   N24  Gn3
 BYTE   W24
 BYTE   W02
 BYTE   BEND   c_v+0
 BYTE   N08  Gn2
 BYTE   W08
 BYTE   BEND   c_v+1
 BYTE   N09  Cn3
 BYTE   W09
 BYTE   BEND   c_v+1
 BYTE   N09  Ds3
 BYTE   W09
 BYTE   BEND   c_v+2
 BYTE   N24  Gn3
 BYTE   W24
 BYTE   W03
 BYTE   BEND   c_v+1
 BYTE   N09  Gs2
 BYTE   W01
//  #02 //007   ----------------------------------------
 BYTE   W08
 BYTE   BEND   c_v+1
 BYTE   N09  Dn3
 BYTE   W09
 BYTE   BEND   c_v+0
 BYTE   N08  Bn2
 BYTE   W08
 BYTE   BEND   c_v+2
 BYTE   N09  Fn3
 BYTE   W09
 BYTE   BEND   c_v+1
 BYTE   N09  Dn3
 BYTE   W09
 BYTE   BEND   c_v+1
 BYTE   N08  Gs3
 BYTE   W09
 BYTE   BEND   c_v+2
 BYTE   N09  Fn3
 BYTE   W09
 BYTE   BEND   c_v+2
 BYTE   N09  Bn3
 BYTE   W09
 BYTE   BEND   c_v+1
 BYTE   N08  Gs3
 BYTE   W08
 BYTE   BEND   c_v+2
 BYTE   N09  Dn4
 BYTE   W09
 BYTE   BEND   c_v+2
 BYTE   N09  Bn3
 BYTE   W09
//  #02 //008   ----------------------------------------
 BYTE   BEND   c_v+2
 BYTE   N08  Fn4
 BYTE   W08
 BYTE   BEND   c_v+2
 BYTE   N17  Dn4
 BYTE   W18
 BYTE   BEND   c_v+1
 BYTE   N09  Dn3
 BYTE   W09
 BYTE   BEND   c_v+1
 BYTE   N09  Cn4
 BYTE   W09
 BYTE   BEND   c_v+1
 BYTE   N09  An3
 BYTE   W09
 BYTE   BEND   c_v+1
 BYTE   N08  Cn4
 BYTE   W08
 BYTE   BEND   c_v+2
 BYTE   N24  Bn3
 BYTE   W24
 BYTE   W03
 BYTE   BEND   c_v+2
 BYTE   N24  Gn3
 BYTE   W08
//  #02 //009   ----------------------------------------
 BYTE   W18
 BYTE   BEND   c_v+4
 BYTE   N24  Gn4
 BYTE   W24
 BYTE   W02
 BYTE   BEND   c_v+1
 BYTE   N04  Cn3
 BYTE   W05
 BYTE   BEND   c_v+0
 BYTE   N04  Gn2
 BYTE   W04
 BYTE   BEND   c_v+1
 BYTE   N04  Cn3
 BYTE   W05
 BYTE   BEND   c_v+1
 BYTE   N04  Dn3
 BYTE   W04
 BYTE   BEND   c_v+1
 BYTE   N04  Ds3
 BYTE   W04
 BYTE   BEND   c_v+2
 BYTE   N04  Fn3
 BYTE   W05
 BYTE   BEND   c_v+2
 BYTE   N24  Gn3
 BYTE   W24
 BYTE   W01
//  #02 //010   ----------------------------------------
 BYTE   W01
 BYTE   BEND   c_v+1
 BYTE   N04  Cn3
 BYTE   W04
 BYTE   BEND   c_v+0
 BYTE   N04  Gn2
 BYTE   W04
 BYTE   BEND   c_v+1
 BYTE   N04  Cn3
 BYTE   W05
 BYTE   BEND   c_v+1
 BYTE   N04  Dn3
 BYTE   W05
 BYTE   BEND   c_v+1
 BYTE   N04  Ds3
 BYTE   W04
 BYTE   BEND   c_v+2
 BYTE   N04  Gn3
 BYTE   W05
 BYTE   BEND   c_v+2
 BYTE   N24  As3
 BYTE   W24
 BYTE   W02
 BYTE   BEND   c_v+1
 BYTE   N04  As2
 BYTE   W04
 BYTE   BEND   c_v+0
 BYTE   N04  Fn2
 BYTE   W04
 BYTE   BEND   c_v+1
 BYTE   N04  As2
 BYTE   W05
 BYTE   BEND   c_v+1
 BYTE   N04  Cn3
 BYTE   W04
 BYTE   BEND   c_v+1
 BYTE   N04  Dn3
 BYTE   W04
 BYTE   BEND   c_v+1
 BYTE   N04  Ds3
 BYTE   W05
 BYTE   BEND   c_v+2
 BYTE   N24  Fn3
 BYTE   W16
//  #02 //011   ----------------------------------------
 BYTE   W11
 BYTE   BEND   c_v+1
 BYTE   N04  As2
 BYTE   W04
 BYTE   BEND   c_v+0
 BYTE   N04  Fn2
 BYTE   W04
 BYTE   BEND   c_v+1
 BYTE   N04  As2
 BYTE   W05
 BYTE   BEND   c_v+1
 BYTE   N04  Cn3
 BYTE   W04
 BYTE   BEND   c_v+1
 BYTE   N04  Dn3
 BYTE   W04
 BYTE   BEND   c_v+2
 BYTE   N04  Fn3
 BYTE   W05
 BYTE   BEND   c_v+2
 BYTE   N24  Gs4
 BYTE   W24
 BYTE   W03
 BYTE   BEND   c_v+1
 BYTE   N04  Gs2
 BYTE   W04
 BYTE   BEND   c_v+0
 BYTE   N04  Ds2
 BYTE   W04
 BYTE   BEND   c_v+1
 BYTE   N04  Gs2
 BYTE   W05
 BYTE   BEND   c_v+1
 BYTE   N04  As2
 BYTE   W04
 BYTE   BEND   c_v+1
 BYTE   N04  Cn3
 BYTE   W04
 BYTE   BEND   c_v+1
 BYTE   N04  Ds3
 BYTE   W05
 BYTE   BEND   c_v+2
 BYTE   N18  Dn4
 BYTE   W06
//  #02 //012   ----------------------------------------
 BYTE   W12
 BYTE   BEND   c_v+1
 BYTE   N08  Cn4
 BYTE   W08
 BYTE   BEND   c_v+1
 BYTE   N04  Gs2
 BYTE   W05
 BYTE   BEND   c_v+0
 BYTE   N04  Ds2
 BYTE   W04
 BYTE   BEND   c_v+1
 BYTE   N04  Gs2
 BYTE   W05
 BYTE   BEND   c_v+1
 BYTE   N04  As2
 BYTE   W04
 BYTE   BEND   c_v+1
 BYTE   N04  Cn3
 BYTE   W04
 BYTE   BEND   c_v+2
 BYTE   N04  Fn3
 BYTE   W05
 BYTE   BEND   c_v+2
 BYTE   N24  As3
 BYTE   W24
 BYTE   W02
 BYTE   BEND   c_v+0
 BYTE   N09  Gn2
 BYTE   W09
 BYTE   BEND   c_v+1
 BYTE   N09  As2
 BYTE   W09
 BYTE   BEND   c_v+2
 BYTE   N08  Gn3
 BYTE   W05
//  #02 //013   ----------------------------------------
 BYTE   W04
 BYTE   BEND   c_v+2
 BYTE   N09  Fn3
 BYTE   W09
 BYTE   BEND   c_v+0
 BYTE   N09  Gn2
 BYTE   W09
 BYTE   BEND   c_v+1
 BYTE   N08  Dn3
 BYTE   W08
 BYTE   BEND   c_v+0
 BYTE   N09  Gn2
 BYTE   W09
 BYTE   BEND   c_v+1
 BYTE   N09  As2
 BYTE   W09
 BYTE   BEND   c_v+0
 BYTE   N16  Gn2
 BYTE   W17
 BYTE   BEND   c_v+1
 BYTE   N09  As2
 BYTE   W09
 BYTE   BEND   c_v+2
 BYTE   N09  Cs3
 BYTE   W09
 BYTE   BEND   c_v+2
 BYTE   N24  Gn3
 BYTE   W13
//  #02 //014   ----------------------------------------
 BYTE   W13
 BYTE   BEND   c_v+0
 BYTE   N08  Gn2
 BYTE   W08
 BYTE   BEND   c_v+1
 BYTE   N09  As2
 BYTE   W10
 BYTE   BEND   c_v+2
 BYTE   N09  Cs3
 BYTE   W09
 BYTE   BEND   c_v+2
 BYTE   N24  Gn3
 BYTE   W24
 BYTE   W02
 BYTE   BEND   c_v+1
 BYTE   N08  Gs2
 BYTE   W08
 BYTE   BEND   c_v+1
 BYTE   N09  Cn3
 BYTE   W09
 BYTE   BEND   c_v+1
 BYTE   N09  Ds3
 BYTE   W09
 BYTE   BEND   c_v+1
 BYTE   N24  Gs3
 BYTE   W04
//  #02 //015   ----------------------------------------
 BYTE   W23
 BYTE   BEND   c_v+0
 BYTE   N08  Gn2
 BYTE   W08
 BYTE   BEND   c_v+1
 BYTE   N09  Cn3
 BYTE   W09
 BYTE   BEND   c_v+1
 BYTE   N09  Ds3
 BYTE   W09
 BYTE   BEND   c_v+2
 BYTE   N24  Gn3
 BYTE   W24
 BYTE   W03
 BYTE   BEND   c_v+1
 BYTE   N09  Gs2
 BYTE   W09
 BYTE   BEND   c_v+1
 BYTE   N09  Cn3
 BYTE   W09
 BYTE   BEND   c_v+1
 BYTE   N08  Gs2
 BYTE   W02
//  #02 //016   ----------------------------------------
 BYTE   W06
 BYTE   BEND   c_v+1
 BYTE   N09  Ds3
 BYTE   W09
 BYTE   BEND   c_v+1
 BYTE   N09  Cn3
 BYTE   W09
 BYTE   BEND   c_v+1
 BYTE   N08  Gs3
 BYTE   W08
 BYTE   BEND   c_v+2
 BYTE   N09  Fn3
 BYTE   W09
 BYTE   BEND   c_v+1
 BYTE   N09  Cn4
 BYTE   W10
 BYTE   BEND   c_v+1
 BYTE   N08  Gs3
 BYTE   W08
 BYTE   BEND   c_v+1
 BYTE   N09  Ds4
 BYTE   W09
 BYTE   BEND   c_v+1
 BYTE   N09  Cn4
 BYTE   W09
 BYTE   BEND   c_v+2
 BYTE   N08  Fn4
 BYTE   W08
 BYTE   BEND   c_v+2
 BYTE   N17  Dn4
 BYTE   W11
//  #02 //017   ----------------------------------------
 BYTE   W07
 BYTE   BEND   c_v+2
 BYTE   N09  Bn3
 BYTE   W09
 BYTE   BEND   c_v+2
 BYTE   N09  Dn4
 BYTE   W09
 BYTE   BEND   c_v+2
 BYTE   N09  Bn3
 BYTE   W09
 BYTE   BEND   c_v+2
 BYTE   N08  Gn3
 BYTE   W08
 BYTE   BEND   c_v+2
 BYTE   N08  Fn3
 BYTE   W08
 BYTE   BEND   c_v+2
 BYTE   N18  Gn3
 BYTE   W18
 BYTE   BEND   c_v+1
 BYTE   N04  Cn4
 BYTE   W01
 BYTE   BEND   c_v+3
 BYTE   W04
 BYTE   BEND   c_v+5
 BYTE   N04  Dn4
 BYTE   W04
 BYTE   BEND   c_v+4
 BYTE   N04  Ds4
 BYTE   W05
 BYTE   BEND   c_v+5
 BYTE   N04  Fn4
 BYTE   W04
 BYTE   BEND   c_v+4
 BYTE   N04  Gn4
 BYTE   W01
 BYTE   BEND   c_v+7
 BYTE   W03
 BYTE   BEND   c_v+2
 BYTE   N04  Gs4
 BYTE   W01
 BYTE   BEND   c_v+6
 BYTE   W04
 BYTE   BEND   c_v+2
 BYTE   N09  As4
 BYTE   W01
//  #02 //018   ----------------------------------------
 BYTE   BEND   c_v+6
 BYTE   W08
 BYTE   BEND   c_v+5
 BYTE   N09  Cn5
 BYTE   W01
 BYTE   BEND   c_v+10
 BYTE   W08
 BYTE   BEND   c_v+1
 BYTE   N08  Gs3
 BYTE   W08
 BYTE   BEND   c_v+1
 BYTE   N09  Cn4
 BYTE   W09
 BYTE   BEND   c_v+2
 BYTE   N09  Dn4
 BYTE   W01
 BYTE   BEND   c_v+5
 BYTE   W08
 BYTE   BEND   c_v+1
 BYTE   N08  Ds4
 BYTE   W01
 BYTE   BEND   c_v+4
 BYTE   W08
 BYTE   BEND   c_v+6
 BYTE   N09  As4
 BYTE   W09
 BYTE   BEND   c_v+2
 BYTE   N09  Fn3
 BYTE   W09
 BYTE   BEND   c_v+4
 BYTE   N08  Gn4
 BYTE   W01
 BYTE   BEND   c_v+7
 BYTE   W07
 BYTE   BEND   c_v+2
 BYTE   N09  As3
 BYTE   W09
 BYTE   BEND   c_v+1
 BYTE   N09  Ds4
 BYTE   W01
 BYTE   BEND   c_v+4
 BYTE   W08
//  #02 //019   ----------------------------------------
 BYTE   BEND   c_v+2
 BYTE   N08  Gn3
 BYTE   W08
 BYTE   BEND   c_v+2
 BYTE   N09  Dn4
 BYTE   W01
 BYTE   BEND   c_v+5
 BYTE   W08
 BYTE   BEND   c_v+1
 BYTE   N09  Ds4
 BYTE   W01
 BYTE   BEND   c_v+4
 BYTE   W09
 BYTE   BEND   c_v+2
 BYTE   N08  Fn3
 BYTE   W08
 BYTE   BEND   c_v+1
 BYTE   N18  Gs3
 BYTE   W18
 BYTE   BEND   c_v+1
 BYTE   N08  Ds4
 BYTE   W01
 BYTE   BEND   c_v+4
 BYTE   W07
 BYTE   BEND   c_v+1
 BYTE   N09  Cn4
 BYTE   W01
 BYTE   BEND   c_v+3
 BYTE   W08
 BYTE   BEND   c_v+2
 BYTE   N09  Gn3
 BYTE   W09
 BYTE   BEND   c_v+2
 BYTE   N08  As3
 BYTE   W09
 BYTE   BEND   c_v+7
 BYTE   N09  Gn4
 BYTE   W08
//  #02 //020   ----------------------------------------
 BYTE   W01
 BYTE   BEND   c_v+2
 BYTE   N09  As3
 BYTE   W09
 BYTE   BEND   c_v-30
 BYTE   N08  Gs3
 BYTE   W08
 BYTE   BEND   c_v+1
 BYTE   N09  Cn3
 BYTE   W09
 BYTE   BEND   c_v+4
 BYTE   N09  Gn4
 BYTE   W01
 BYTE   BEND   c_v+7
 BYTE   W08
 BYTE   BEND   c_v+2
 BYTE   N08  Gs4
 BYTE   W01
 BYTE   BEND   c_v+6
 BYTE   W07
 BYTE   BEND   c_v+2
 BYTE   N09  As4
 BYTE   W01
 BYTE   BEND   c_v+6
 BYTE   W08
 BYTE   BEND   c_v+2
 BYTE   N09  Gs4
 BYTE   W01
 BYTE   BEND   c_v+6
 BYTE   W09
 BYTE   BEND   c_v+7
 BYTE   N08  Gn4
 BYTE   W08
 BYTE   BEND   c_v+2
 BYTE   N09  Fn4
 BYTE   W01
 BYTE   BEND   c_v+5
 BYTE   W08
 BYTE   BEND   c_v+2
 BYTE   N09  Fn3
 BYTE   W09
 BYTE   BEND   c_v+1
 BYTE   N08  Ds4
 BYTE   W01
 BYTE   BEND   c_v+4
 BYTE   W06
//  #02 //021   ----------------------------------------
 BYTE   W01
 BYTE   BEND   c_v+1
 BYTE   N09  Ds3
 BYTE   W09
 BYTE   BEND   c_v+2
 BYTE   N09  Dn4
 BYTE   W01
 BYTE   BEND   c_v+5
 BYTE   W08
 BYTE   BEND   c_v+1
 BYTE   N08  Dn3
 BYTE   W09
 BYTE   BEND   c_v+3
 BYTE   N04  Cn4
 BYTE   W04
 BYTE   BEND   c_v+2
 BYTE   N04  Dn4
 BYTE   W01
 BYTE   BEND   c_v+5
 BYTE   W03
 BYTE   BEND   c_v+2
 BYTE   N09  Gn3
 BYTE   W09
 BYTE   BEND   c_v+2
 BYTE   N09  As3
 BYTE   W09
 BYTE   BEND   c_v+1
 BYTE   N04  Ds4
 BYTE   W01
 BYTE   BEND   c_v+4
 BYTE   W04
 BYTE   BEND   c_v+2
 BYTE   N12  Fn4
 BYTE   W01
 BYTE   BEND   c_v+5
 BYTE   W03
 BYTE   BEND   c_v+2
 BYTE   W08
 BYTE   BEND   c_v+1
 BYTE   N09  Ds4
 BYTE   W09
 BYTE   BEND   c_v+4
 BYTE   N04  Gn4
 BYTE   W01
 BYTE   BEND   c_v+7
 BYTE   W04
 BYTE   BEND   c_v+6
 BYTE   N04  Gs4
 BYTE   W04
 BYTE   BEND   c_v+3
 BYTE   N09  Cs4
 BYTE   W07
//  #02 //022   ----------------------------------------
 BYTE   W03
 BYTE   BEND   c_v+1
 BYTE   N08  Cn4
 BYTE   W08
 BYTE   BEND   c_v+5
 BYTE   N09  Cn5
 BYTE   W01
 BYTE   BEND   c_v+10
 BYTE   W08
 BYTE   BEND   c_v+1
 BYTE   N09  Cn4
 BYTE   W09
 BYTE   BEND   c_v+2
 BYTE   N08  As3
 BYTE   W08
 BYTE   N09  As4
 BYTE   W01
 BYTE   BEND   c_v+6
 BYTE   W08
 BYTE   BEND   c_v+5
 BYTE   N09  Cn5
 BYTE   W01
 BYTE   BEND   c_v+10
 BYTE   W08
 BYTE   BEND   c_v+1
 BYTE   N08  Gs3
 BYTE   W09
 BYTE   BEND   c_v+1
 BYTE   N09  Cn4
 BYTE   W09
 BYTE   BEND   c_v+5
 BYTE   N09  Dn4
 BYTE   W09
 BYTE   BEND   c_v+1
 BYTE   N08  Ds4
 BYTE   W01
 BYTE   BEND   c_v+4
 BYTE   W07
 BYTE   BEND   c_v+2
 BYTE   N09  As4
 BYTE   W01
 BYTE   BEND   c_v+6
 BYTE   W05
//  #02 //023   ----------------------------------------
 BYTE   W03
 BYTE   BEND   c_v+1
 BYTE   N09  Ds3
 BYTE   W09
 BYTE   BEND   c_v+4
 BYTE   N08  Gn4
 BYTE   W01
 BYTE   BEND   c_v+7
 BYTE   W07
 BYTE   BEND   c_v+2
 BYTE   N09  As3
 BYTE   W09
 BYTE   BEND   c_v+1
 BYTE   N09  Ds4
 BYTE   W01
 BYTE   BEND   c_v+4
 BYTE   W09
 BYTE   BEND   c_v+1
 BYTE   N08  Ds3
 BYTE   W08
 BYTE   BEND   c_v+2
 BYTE   N09  Dn4
 BYTE   W01
 BYTE   BEND   c_v+5
 BYTE   W08
 BYTE   BEND   c_v+1
 BYTE   N09  Ds4
 BYTE   W01
 BYTE   BEND   c_v+4
 BYTE   W08
 BYTE   BEND   c_v+2
 BYTE   N08  Fn3
 BYTE   W08
 BYTE   BEND   c_v+1
 BYTE   N18  Gs3
 BYTE   W18
 BYTE   BEND   c_v+1
 BYTE   N08  Ds4
 BYTE   W01
 BYTE   BEND   c_v+4
 BYTE   W04
//  #02 //024   ----------------------------------------
 BYTE   W04
 BYTE   BEND   c_v+3
 BYTE   N09  Cn4
 BYTE   W09
 BYTE   BEND   c_v+2
 BYTE   N09  Gn3
 BYTE   W09
 BYTE   BEND   c_v+2
 BYTE   N08  As3
 BYTE   W08
 BYTE   BEND   c_v+4
 BYTE   N09  Gn4
 BYTE   W01
 BYTE   BEND   c_v+7
 BYTE   W08
 BYTE   BEND   c_v+2
 BYTE   N09  As3
 BYTE   W09
 BYTE   BEND   c_v-30
 BYTE   N08  Gs3
 BYTE   W08
 BYTE   BEND   c_v+1
 BYTE   N09  Cn3
 BYTE   W09
 BYTE   BEND   c_v+4
 BYTE   N09  Gn4
 BYTE   W01
 BYTE   BEND   c_v+7
 BYTE   W09
 BYTE   BEND   c_v+6
 BYTE   N08  Gs4
 BYTE   W08
 BYTE   BEND   c_v+2
 BYTE   N09  As4
 BYTE   W01
 BYTE   BEND   c_v+6
 BYTE   W08
 BYTE   BEND   c_v+2
 BYTE   N09  Gs4
 BYTE   W01
 BYTE   BEND   c_v+6
 BYTE   W03
//  #02 //025   ----------------------------------------
 BYTE   W05
 BYTE   BEND   c_v+4
 BYTE   N08  Gn4
 BYTE   W01
 BYTE   BEND   c_v+7
 BYTE   W07
 BYTE   BEND   c_v+2
 BYTE   N09  Fn4
 BYTE   W01
 BYTE   BEND   c_v+5
 BYTE   W08
 BYTE   BEND   c_v+2
 BYTE   N09  Fn3
 BYTE   W09
 BYTE   BEND   c_v+1
 BYTE   N08  Ds4
 BYTE   W01
 BYTE   BEND   c_v+4
 BYTE   W08
 BYTE   BEND   c_v+1
 BYTE   N09  Ds3
 BYTE   W09
 BYTE   BEND   c_v+5
 BYTE   N09  Dn4
 BYTE   W09
 BYTE   BEND   c_v+1
 BYTE   N08  Dn3
 BYTE   W08
 BYTE   BEND   c_v+1
 BYTE   N04  Cn3
 BYTE   W04
 BYTE   BEND   c_v+0
 BYTE   N04  Bn2
 BYTE   W04
 BYTE   BEND   c_v+1
 BYTE   N04  Cn3
 BYTE   W05
 BYTE   BEND   c_v+1
 BYTE   N04  Dn3
 BYTE   W04
 BYTE   BEND   c_v+1
 BYTE   N04  Ds3
 BYTE   W04
 BYTE   BEND   c_v+2
 BYTE   N04  Fn3
 BYTE   W05
 BYTE   BEND   c_v+1
 BYTE   N04  Ds3
 BYTE   W04
//  #02 //026   ----------------------------------------
 BYTE   W01
 BYTE   BEND   c_v+1
 BYTE   N04  Dn3
 BYTE   W04
 BYTE   BEND   c_v+1
 BYTE   N04  Ds3
 BYTE   W05
 BYTE   BEND   c_v+2
 BYTE   N04  Fn3
 BYTE   W04
 BYTE   BEND   c_v+2
 BYTE   N04  Gn3
 BYTE   W04
 BYTE   BEND   c_v+1
 BYTE   N04  Gs3
 BYTE   W05
 BYTE   BEND   c_v+2
 BYTE   N17  Gn3
 BYTE   W17
 BYTE   BEND   c_v+2
 BYTE   N04  Fn3
 BYTE   W04
 BYTE   BEND   c_v+2
 BYTE   N04  Gn3
 BYTE   W05
 BYTE   BEND   c_v+1
 BYTE   N04  Ds3
 BYTE   W04
 BYTE   BEND   c_v+2
 BYTE   N04  Fn3
 BYTE   W04
 BYTE   BEND   c_v+1
 BYTE   N04  Dn3
 BYTE   W05
 BYTE   BEND   c_v+1
 BYTE   N04  Ds3
 BYTE   W05
 BYTE   BEND   c_v+1
 BYTE   N04  Cn3
 BYTE   W04
 BYTE   GoTo
  POIN2 Label_01004A6A
//  #02 //027   ----------------------------------------
 BYTE   BEND   c_v+1
 BYTE   FINE

//**************** Track 3 (Midi-Chn.2) ****************//

RPGTsurukuGBFields1_003:
//  #03 //000   ----------------------------------------
 BYTE   KEYSH   RPGTsurukuGBFields1_key+0
Label_01005812:
 BYTE   VOICE   36
 BYTE   MODT 0
 BYTE   LFOS 44
 BYTE   VOL   38*RPGTsurukuGBFields1_mvl/mxv
 BYTE   W36
 BYTE   W01
 BYTE   BEND   c_v+1
 BYTE   N24  Cn3  v127
 BYTE   W24
 BYTE   W03
 BYTE   BEND   c_v+0
 BYTE   N17  Cn2
 BYTE   W17
 BYTE   BEND   c_v+1
 BYTE   N32  Cn3
 BYTE   W15
//  #03 //001   ----------------------------------------
 BYTE   W20
 BYTE   BEND   c_v+0
 BYTE   N04  Cn2
 BYTE   W05
 BYTE   BEND   c_v+1
 BYTE   N04  Cn3
 BYTE   W04
 BYTE   BEND   c_v+1
 BYTE   N04  Dn3
 BYTE   W05
 BYTE   BEND   c_v+1
 BYTE   N04  Ds3
 BYTE   W04
 BYTE   BEND   c_v+2
 BYTE   N04  Fn3
 BYTE   W04
 BYTE   BEND   c_v+2
 BYTE   N04  Gn3
 BYTE   W05
 BYTE   BEND   c_v+2
 BYTE   N24  As3
 BYTE   W24
 BYTE   W02
 BYTE   BEND   c_v+1
 BYTE   N17  As2
 BYTE   W18
 BYTE   BEND   c_v+2
 BYTE   N32  As3
 BYTE   W05
//  #03 //002   ----------------------------------------
 BYTE   W30
 BYTE   BEND   c_v+1
 BYTE   N04  As2
 BYTE   W04
 BYTE   BEND   c_v+2
 BYTE   N04  As3
 BYTE   W04
 BYTE   BEND   c_v+1
 BYTE   N04  Cn4
 BYTE   W05
 BYTE   BEND   c_v+3
 BYTE   N04  Cs4
 BYTE   W04
 BYTE   BEND   c_v+1
 BYTE   N04  Ds4
 BYTE   W04
 BYTE   BEND   c_v+2
 BYTE   N04  Fn4
 BYTE   W05
 BYTE   BEND   c_v+1
 BYTE   N24  Gs3
 BYTE   W24
 BYTE   W03
 BYTE   N17  Gs2
 BYTE   W13
//  #03 //003   ----------------------------------------
 BYTE   W04
 BYTE   N09  Gs3
 BYTE   W09
 BYTE   BEND   c_v+2
 BYTE   N24  As3
 BYTE   W24
 BYTE   W03
 BYTE   BEND   c_v+1
 BYTE   N17  As2
 BYTE   W17
 BYTE   BEND   c_v+2
 BYTE   N09  As3
 BYTE   W09
 BYTE   BEND   c_v+1
 BYTE   N24  Ds3
 BYTE   W24
 BYTE   W02
 BYTE   BEND   c_v+0
 BYTE   N09  Ds2
 BYTE   W04
//  #03 //004   ----------------------------------------
 BYTE   W05
 BYTE   BEND   c_v+0
 BYTE   N09  Gn2
 BYTE   W10
 BYTE   BEND   c_v+1
 BYTE   N08  Ds3
 BYTE   W08
 BYTE   BEND   c_v+1
 BYTE   N09  Dn3
 BYTE   W09
 BYTE   BEND   c_v+0
 BYTE   N09  Dn2
 BYTE   W09
 BYTE   BEND   c_v+1
 BYTE   N08  As2
 BYTE   W08
 BYTE   BEND   c_v+0
 BYTE   N09  Dn2
 BYTE   W09
 BYTE   BEND   c_v+0
 BYTE   N09  Gn2
 BYTE   W09
 BYTE   BEND   c_v+0
 BYTE   N08  Dn2
 BYTE   W09
 BYTE   BEND   c_v+0
 BYTE   N08  Cs2
 BYTE   W08
 BYTE   BEND   c_v+0
 BYTE   N09  Fn2
 BYTE   W09
 BYTE   BEND   c_v+1
 BYTE   N09  Gs2
 BYTE   W03
//  #03 //005   ----------------------------------------
 BYTE   W06
 BYTE   BEND   c_v+2
 BYTE   N24  Cs3
 BYTE   W24
 BYTE   W02
 BYTE   BEND   c_v+0
 BYTE   N08  Cs2
 BYTE   W09
 BYTE   BEND   c_v+0
 BYTE   N09  Fn2
 BYTE   W09
 BYTE   BEND   c_v+1
 BYTE   N09  Gs2
 BYTE   W09
 BYTE   BEND   c_v+2
 BYTE   N24  Cs3
 BYTE   W24
 BYTE   W02
 BYTE   BEND   c_v+0
 BYTE   N08  Cn2
 BYTE   W08
 BYTE   BEND   c_v+0
 BYTE   N09  Fn2
 BYTE   W03
//  #03 //006   ----------------------------------------
 BYTE   W07
 BYTE   BEND   c_v+1
 BYTE   N09  Gs2
 BYTE   W09
 BYTE   BEND   c_v+1
 BYTE   N24  Cn3
 BYTE   W24
 BYTE   W02
 BYTE   BEND   c_v+0
 BYTE   N08  Cn2
 BYTE   W08
 BYTE   BEND   c_v+0
 BYTE   N09  Fn2
 BYTE   W09
 BYTE   BEND   c_v+1
 BYTE   N09  Gs2
 BYTE   W09
 BYTE   BEND   c_v+1
 BYTE   N24  Cn3
 BYTE   W24
 BYTE   W03
 BYTE   BEND   c_v+0
 BYTE   N09  Bn2
 BYTE   W01
//  #03 //007   ----------------------------------------
 BYTE   W08
 BYTE   BEND   c_v+2
 BYTE   N09  Fn3
 BYTE   W09
 BYTE   BEND   c_v+1
 BYTE   N08  Dn3
 BYTE   W08
 BYTE   BEND   c_v+1
 BYTE   N09  Gs3
 BYTE   W09
 BYTE   BEND   c_v+2
 BYTE   N09  Fn3
 BYTE   W09
 BYTE   BEND   c_v+2
 BYTE   N08  Bn3
 BYTE   W09
 BYTE   BEND   c_v+1
 BYTE   N09  Gs3
 BYTE   W09
 BYTE   BEND   c_v+2
 BYTE   N09  Dn4
 BYTE   W09
 BYTE   BEND   c_v+2
 BYTE   N08  Bn3
 BYTE   W08
 BYTE   BEND   c_v+2
 BYTE   N09  Fn4
 BYTE   W09
 BYTE   BEND   c_v+2
 BYTE   N09  Dn4
 BYTE   W09
//  #03 //008   ----------------------------------------
 BYTE   BEND   c_v+2
 BYTE   N08  Gs4
 BYTE   W08
 BYTE   BEND   c_v+4
 BYTE   N17  Gn4
 BYTE   W18
 BYTE   BEND   c_v+2
 BYTE   N09  Gn3
 BYTE   W09
 BYTE   BEND   c_v+2
 BYTE   N09  Fn4
 BYTE   W09
 BYTE   BEND   c_v+2
 BYTE   N09  Dn4
 BYTE   W09
 BYTE   BEND   c_v+2
 BYTE   N08  Bn3
 BYTE   W08
 BYTE   BEND   c_v+2
 BYTE   N52  Gn3
 BYTE   W32
 BYTE   W03
//  #03 //009   ----------------------------------------
 BYTE   W18
 BYTE   BEND   c_v+1
 BYTE   N24  Cn3
 BYTE   W24
 BYTE   W02
 BYTE   BEND   c_v+0
 BYTE   N17  Cn2
 BYTE   W18
 BYTE   BEND   c_v+1
 BYTE   N32  Cn3
 BYTE   W32
 BYTE   W02
//  #03 //010   ----------------------------------------
 BYTE   W01
 BYTE   BEND   c_v+0
 BYTE   N04  Cn2
 BYTE   W04
 BYTE   BEND   c_v+1
 BYTE   N04  Cn3
 BYTE   W04
 BYTE   BEND   c_v+1
 BYTE   N04  Dn3
 BYTE   W05
 BYTE   BEND   c_v+1
 BYTE   N04  Ds3
 BYTE   W05
 BYTE   BEND   c_v+2
 BYTE   N04  Fn3
 BYTE   W04
 BYTE   BEND   c_v+2
 BYTE   N04  Gn3
 BYTE   W05
 BYTE   BEND   c_v+2
 BYTE   N24  As3
 BYTE   W24
 BYTE   W02
 BYTE   BEND   c_v+1
 BYTE   N17  As2
 BYTE   W17
 BYTE   BEND   c_v+2
 BYTE   N32  As3
 BYTE   W24
 BYTE   W01
//  #03 //011   ----------------------------------------
 BYTE   W11
 BYTE   BEND   c_v+1
 BYTE   N04  As2
 BYTE   W04
 BYTE   BEND   c_v+2
 BYTE   N04  As3
 BYTE   W04
 BYTE   BEND   c_v+1
 BYTE   N04  Cn4
 BYTE   W05
 BYTE   BEND   c_v+3
 BYTE   N04  Cs4
 BYTE   W04
 BYTE   BEND   c_v+1
 BYTE   N04  Ds4
 BYTE   W04
 BYTE   BEND   c_v+2
 BYTE   N04  Fn4
 BYTE   W05
 BYTE   BEND   c_v+1
 BYTE   N24  Gs3
 BYTE   W24
 BYTE   W03
 BYTE   N17  Gs2
 BYTE   W17
 BYTE   N09  Gs3
 BYTE   W09
 BYTE   BEND   c_v+2
 BYTE   N24  As3
 BYTE   W06
//  #03 //012   ----------------------------------------
 BYTE   W20
 BYTE   BEND   c_v+1
 BYTE   N17  As2
 BYTE   W18
 BYTE   BEND   c_v+2
 BYTE   N09  As3
 BYTE   W09
 BYTE   BEND   c_v+1
 BYTE   N24  Ds3
 BYTE   W24
 BYTE   W02
 BYTE   BEND   c_v+0
 BYTE   N09  Ds2
 BYTE   W09
 BYTE   BEND   c_v+0
 BYTE   N09  Gn2
 BYTE   W09
 BYTE   BEND   c_v+1
 BYTE   N08  Ds3
 BYTE   W05
//  #03 //013   ----------------------------------------
 BYTE   W04
 BYTE   BEND   c_v+1
 BYTE   N09  Dn3
 BYTE   W09
 BYTE   BEND   c_v+0
 BYTE   N09  Dn2
 BYTE   W09
 BYTE   BEND   c_v+1
 BYTE   N08  As2
 BYTE   W08
 BYTE   BEND   c_v+0
 BYTE   N09  Dn2
 BYTE   W09
 BYTE   BEND   c_v+0
 BYTE   N09  Gn2
 BYTE   W09
 BYTE   BEND   c_v+0
 BYTE   N08  Dn2
 BYTE   W08
 BYTE   BEND   c_v+0
 BYTE   N08  Cs2
 BYTE   W09
 BYTE   BEND   c_v+0
 BYTE   N09  Gn2
 BYTE   W09
 BYTE   BEND   c_v+1
 BYTE   N09  As2
 BYTE   W09
 BYTE   BEND   c_v+2
 BYTE   N24  Cs3
 BYTE   W13
//  #03 //014   ----------------------------------------
 BYTE   W13
 BYTE   BEND   c_v+0
 BYTE   N08  Cs2
 BYTE   W08
 BYTE   BEND   c_v+0
 BYTE   N09  Gn2
 BYTE   W10
 BYTE   BEND   c_v+1
 BYTE   N09  As2
 BYTE   W09
 BYTE   BEND   c_v+2
 BYTE   N24  Cs3
 BYTE   W24
 BYTE   W02
 BYTE   BEND   c_v+0
 BYTE   N08  Cn2
 BYTE   W08
 BYTE   N09  Ds2
 BYTE   W09
 BYTE   BEND   c_v+1
 BYTE   N09  Gs2
 BYTE   W09
 BYTE   BEND   c_v+1
 BYTE   N24  Cn3
 BYTE   W04
//  #03 //015   ----------------------------------------
 BYTE   W23
 BYTE   BEND   c_v+0
 BYTE   N08  Cn2
 BYTE   W08
 BYTE   N09  Ds2
 BYTE   W09
 BYTE   BEND   c_v+0
 BYTE   N09  Gn2
 BYTE   W09
 BYTE   BEND   c_v+1
 BYTE   N24  Cn3
 BYTE   W24
 BYTE   W03
 BYTE   BEND   c_v+0
 BYTE   N09  Fn2
 BYTE   W09
 BYTE   BEND   c_v+1
 BYTE   N09  Gs2
 BYTE   W09
 BYTE   BEND   c_v+0
 BYTE   N08  Fn2
 BYTE   W02
//  #03 //016   ----------------------------------------
 BYTE   W06
 BYTE   BEND   c_v+1
 BYTE   N09  Cn3
 BYTE   W09
 BYTE   BEND   c_v+1
 BYTE   N09  Gs2
 BYTE   W09
 BYTE   BEND   c_v+2
 BYTE   N08  Fn3
 BYTE   W08
 BYTE   BEND   c_v+1
 BYTE   N09  Cn3
 BYTE   W09
 BYTE   BEND   c_v+1
 BYTE   N09  Gs3
 BYTE   W10
 BYTE   BEND   c_v+2
 BYTE   N08  Fn3
 BYTE   W08
 BYTE   BEND   c_v+1
 BYTE   N09  Cn4
 BYTE   W09
 BYTE   BEND   c_v+1
 BYTE   N09  Gs3
 BYTE   W09
 BYTE   BEND   c_v+1
 BYTE   N08  Ds4
 BYTE   W08
 BYTE   BEND   c_v+2
 BYTE   N17  Dn4
 BYTE   W11
//  #03 //017   ----------------------------------------
 BYTE   W07
 BYTE   BEND   c_v+2
 BYTE   N09  Gn3
 BYTE   W09
 BYTE   BEND   c_v+2
 BYTE   N09  Dn4
 BYTE   W09
 BYTE   BEND   c_v+2
 BYTE   N09  Gn3
 BYTE   W09
 BYTE   BEND   c_v+1
 BYTE   N08  Dn3
 BYTE   W08
 BYTE   BEND   c_v+0
 BYTE   N52  Gn2
 BYTE   W52
 BYTE   W01
 BYTE   BEND   c_v+1
 BYTE   N09  Gs2
 BYTE   W01
//  #03 //018   ----------------------------------------
 BYTE   W08
 BYTE   BEND   c_v+1
 BYTE   N09  Cn3
 BYTE   W09
 BYTE   BEND   c_v+1
 BYTE   N08  Ds3
 BYTE   W08
 BYTE   BEND   c_v+1
 BYTE   N24  Gs3
 BYTE   W24
 BYTE   W03
 BYTE   BEND   c_v+1
 BYTE   N09  As2
 BYTE   W09
 BYTE   BEND   c_v+1
 BYTE   N09  Dn3
 BYTE   W09
 BYTE   BEND   c_v+1
 BYTE   N08  Ds3
 BYTE   W08
 BYTE   BEND   c_v+2
 BYTE   N24  Gn3
 BYTE   W18
//  #03 //019   ----------------------------------------
 BYTE   W08
 BYTE   BEND   c_v+0
 BYTE   N09  Gn2
 BYTE   W09
 BYTE   BEND   c_v+1
 BYTE   N09  As2
 BYTE   W10
 BYTE   BEND   c_v+1
 BYTE   N08  Dn3
 BYTE   W08
 BYTE   BEND   c_v+2
 BYTE   N18  Fn3
 BYTE   W18
 BYTE   BEND   c_v+1
 BYTE   N08  Ds3
 BYTE   W08
 BYTE   BEND   c_v+1
 BYTE   N09  Cn3
 BYTE   W09
 BYTE   BEND   c_v+1
 BYTE   N09  Ds3
 BYTE   W09
 BYTE   BEND   c_v+2
 BYTE   N08  Gn3
 BYTE   W09
 BYTE   BEND   c_v+1
 BYTE   N09  Cn4
 BYTE   W08
//  #03 //020   ----------------------------------------
 BYTE   W01
 BYTE   BEND   c_v+2
 BYTE   N09  Gn3
 BYTE   W09
 BYTE   BEND   c_v+1
 BYTE   N08  Ds3
 BYTE   W08
 BYTE   BEND   c_v+1
 BYTE   N09  Gs2
 BYTE   W09
 BYTE   BEND   c_v+1
 BYTE   N09  Cn3
 BYTE   W09
 BYTE   BEND   c_v+1
 BYTE   N08  Ds3
 BYTE   W08
 BYTE   BEND   c_v+1
 BYTE   N24  Gs3
 BYTE   W24
 BYTE   W03
 BYTE   BEND   c_v+1
 BYTE   N09  As2
 BYTE   W09
 BYTE   BEND   c_v+1
 BYTE   N09  Dn3
 BYTE   W09
 BYTE   BEND   c_v+2
 BYTE   N08  Fn3
 BYTE   W07
//  #03 //021   ----------------------------------------
 BYTE   W01
 BYTE   BEND   c_v+2
 BYTE   N24  As3
 BYTE   W24
 BYTE   W03
 BYTE   BEND   c_v+1
 BYTE   N09  Cn3
 BYTE   W09
 BYTE   BEND   c_v+1
 BYTE   N09  Ds3
 BYTE   W09
 BYTE   BEND   c_v+2
 BYTE   N08  Gn3
 BYTE   W08
 BYTE   BEND   c_v+3
 BYTE   N18  Cs4
 BYTE   W18
 BYTE   BEND   c_v+1
 BYTE   N08  Cn4
 BYTE   W08
 BYTE   BEND   c_v+2
 BYTE   N18  As3
 BYTE   W16
//  #03 //022   ----------------------------------------
 BYTE   W03
 BYTE   BEND   c_v+1
 BYTE   N17  Gs3
 BYTE   W17
 BYTE   BEND   c_v+2
 BYTE   N17  Gn3
 BYTE   W17
 BYTE   BEND   c_v+1
 BYTE   N09  Gs2
 BYTE   W09
 BYTE   BEND   c_v+1
 BYTE   N09  Cn3
 BYTE   W09
 BYTE   BEND   c_v+1
 BYTE   N08  Ds3
 BYTE   W09
 BYTE   BEND   c_v+1
 BYTE   N24  Gs3
 BYTE   W24
 BYTE   W02
 BYTE   BEND   c_v+1
 BYTE   N09  As2
 BYTE   W06
//  #03 //023   ----------------------------------------
 BYTE   W03
 BYTE   BEND   c_v+1
 BYTE   N09  Dn3
 BYTE   W09
 BYTE   BEND   c_v+1
 BYTE   N08  Ds3
 BYTE   W08
 BYTE   BEND   c_v+2
 BYTE   N24  Gn3
 BYTE   W24
 BYTE   W03
 BYTE   BEND   c_v+0
 BYTE   N09  Gn2
 BYTE   W09
 BYTE   BEND   c_v+1
 BYTE   N09  As2
 BYTE   W09
 BYTE   BEND   c_v+1
 BYTE   N08  Dn3
 BYTE   W08
 BYTE   BEND   c_v+2
 BYTE   N18  Fn3
 BYTE   W18
 BYTE   BEND   c_v+1
 BYTE   N08  Dn3
 BYTE   W05
//  #03 //024   ----------------------------------------
 BYTE   W04
 BYTE   BEND   c_v+1
 BYTE   N09  Cn3
 BYTE   W09
 BYTE   BEND   c_v+1
 BYTE   N09  Ds3
 BYTE   W09
 BYTE   BEND   c_v+2
 BYTE   N08  Gn3
 BYTE   W08
 BYTE   BEND   c_v+1
 BYTE   N09  Cn4
 BYTE   W09
 BYTE   BEND   c_v+2
 BYTE   N09  Gn3
 BYTE   W09
 BYTE   BEND   c_v+1
 BYTE   N08  Ds3
 BYTE   W08
 BYTE   BEND   c_v+1
 BYTE   N09  Gs2
 BYTE   W09
 BYTE   BEND   c_v+1
 BYTE   N09  Cn3
 BYTE   W10
 BYTE   BEND   c_v+1
 BYTE   N08  Ds3
 BYTE   W08
 BYTE   BEND   c_v+1
 BYTE   N24  Gs3
 BYTE   W13
//  #03 //025   ----------------------------------------
 BYTE   W13
 BYTE   BEND   c_v+1
 BYTE   N09  As2
 BYTE   W09
 BYTE   BEND   c_v+1
 BYTE   N09  Dn3
 BYTE   W09
 BYTE   BEND   c_v+2
 BYTE   N08  Fn3
 BYTE   W09
 BYTE   BEND   c_v+2
 BYTE   N24  As3
 BYTE   W24
 BYTE   W02
 BYTE   BEND   c_v+1
 BYTE   N09  Cn3
 BYTE   W09
 BYTE   BEND   c_v+1
 BYTE   N09  Ds3
 BYTE   W09
 BYTE   BEND   c_v+2
 BYTE   N08  Gn3
 BYTE   W08
 BYTE   BEND   c_v+1
 BYTE   N24  Cn4
 BYTE   W04
//  #03 //026   ----------------------------------------
 BYTE   W23
 BYTE   BEND   c_v+2
 BYTE   N18  Gn3
 BYTE   W18
 BYTE   BEND   c_v+1
 BYTE   N17  Ds3
 BYTE   W17
 BYTE   BEND   c_v+0
 BYTE   W13
 BYTE   GoTo
  POIN2 Label_01005812
 BYTE   FINE

//******************************************************//
	ALIGN 4

RPGTsurukuGBFields1:
	BYTE	3	// NumTrks
	BYTE	0	// NumBlks
	BYTE	RPGTsurukuGBFields1_pri	// Priority
	BYTE	RPGTsurukuGBFields1_rev	// Reverb.
    
	POIN2	RPGTsurukuGBFields1_grp
    
	POIN2	RPGTsurukuGBFields1_001
	POIN2	RPGTsurukuGBFields1_002
	POIN2	RPGTsurukuGBFields1_003

	
