//Event file generated from Sappy .s format.
	

	#define	ShenmueNozomi_grp  voicegroup000
	#define	ShenmueNozomi_pri  0
	#define	ShenmueNozomi_rev  0
	#define	ShenmueNozomi_mvl  127
	#define	ShenmueNozomi_key  0
	#define	ShenmueNozomi_tbs  1
	#define	ShenmueNozomi_exg  0
	#define	ShenmueNozomi_cmp  1

	// .rodata
	//	ShenmueNozomi
	ALIGN 4


//**************** Track 1 (Midi-Chn.0) ****************//

ShenmueNozomi_001:
//  #01 //000   ----------------------------------------
 BYTE   VOL   80*ShenmueNozomi_mvl/mxv
 BYTE   KEYSH   ShenmueNozomi_key+0
Label_010046E8:
 BYTE   TEMPO   70*ShenmueNozomi_tbs/2
 BYTE   VOICE   4
 BYTE   MODT 0
 BYTE   LFOS 44
 BYTE   PAN   c_v+0
 BYTE   N24  An4  v088
 BYTE   N24  Cs5
 BYTE   W12
 BYTE   En4
 BYTE   W12
 BYTE   Bn4
 BYTE   N24  Dn5
 BYTE   W12
 BYTE   En4
 BYTE   W12
 BYTE   An4
 BYTE   N24  Cs5
 BYTE   W12
 BYTE   En4
 BYTE   W12
 BYTE   N16  An4
 BYTE   W12
 BYTE   N06  Bn4
 BYTE   W06
 BYTE   An4
 BYTE   W06
//  #01 //001   ----------------------------------------
 BYTE   N24  Fs4
 BYTE   N24  Bn4
 BYTE   W12
 BYTE   Ds4
 BYTE   W12
 BYTE   Fs4
 BYTE   N24  An4
 BYTE   N24  Cs5
 BYTE   W12
 BYTE   Ds4
 BYTE   W12
 BYTE   Fn4
 BYTE   N24  Gs4
 BYTE   N24  Bn4
 BYTE   W12
 BYTE   Cs4
 BYTE   W12
 BYTE   Fn4
 BYTE   W12
 BYTE   N06  An4
 BYTE   W06
 BYTE   Gs4
 BYTE   W06
//  #01 //002   ----------------------------------------
 BYTE   N24  Fs4
 BYTE   N24  An4
 BYTE   W12
 BYTE   Cs4
 BYTE   W12
 BYTE   Fs4
 BYTE   N24  Gs4
 BYTE   N24  Bn4
 BYTE   W12
 BYTE   Cs4
 BYTE   W12
 BYTE   Fs4
 BYTE   N24  An4
 BYTE   W12
 BYTE   Cs4
 BYTE   W12
 BYTE   N16  Fs4
 BYTE   W12
 BYTE   N06  Gs4
 BYTE   W06
 BYTE   Fs4
 BYTE   W06
//  #01 //003   ----------------------------------------
 BYTE   N24  En4
 BYTE   N24  Gs4
 BYTE   W12
 BYTE   Bn3
 BYTE   W12
 BYTE   TEMPO   66*ShenmueNozomi_tbs/2
 BYTE   En4
 BYTE   N24  Gs4
 BYTE   N24  Cs5
 BYTE   W12
 BYTE   Bn3
 BYTE   W12
 BYTE   TEMPO   64*ShenmueNozomi_tbs/2
 BYTE   En4
 BYTE   N24  Gs4
 BYTE   W12
 BYTE   Bn3
 BYTE   W12
 BYTE   TEMPO   70*ShenmueNozomi_tbs/2
 BYTE   En4
 BYTE   N24  Gs4
 BYTE   W24
//  #01 //004   ----------------------------------------
 BYTE   N36  Dn4
 BYTE   N36  Fs4
 BYTE   W36
 BYTE   N06  Fn4
 BYTE   W06
 BYTE   Fs4
 BYTE   W06
 BYTE   N22  Gs4
 BYTE   N12  Cs5
 BYTE   W12
 BYTE   Fs4
 BYTE   N12  Bn4
 BYTE   W12
 BYTE   En4
 BYTE   N22  Gs4
 BYTE   W12
 BYTE   N12  Dn4
 BYTE   N12  Fs4
 BYTE   W12
//  #01 //005   ----------------------------------------
 BYTE   N36  Cs4
 BYTE   N36  En4
 BYTE   W36
 BYTE   N12  Gs4
 BYTE   W12
 BYTE   N24  Fs4
 BYTE   N24  An4
 BYTE   W24
 BYTE   Cs4
 BYTE   N24  En4
 BYTE   W24
//  #01 //006   ----------------------------------------
 BYTE   TEMPO   68*ShenmueNozomi_tbs/2
 BYTE   N48  Fs3
 BYTE   N48  An3
 BYTE   W24
 BYTE   TEMPO   66*ShenmueNozomi_tbs/2
 BYTE   W24
 BYTE   TEMPO   64*ShenmueNozomi_tbs/2
 BYTE   Gs3
 BYTE   N48  Bn3
 BYTE   W48
//  #01 //007   ----------------------------------------
 BYTE   TEMPO   62*ShenmueNozomi_tbs/2
 BYTE   An3
 BYTE   N36  Cs4
 BYTE   W24
 BYTE   TEMPO   60*ShenmueNozomi_tbs/2
 BYTE   W12
 BYTE   N12  Dn4
 BYTE   W12
 BYTE   TEMPO   54*ShenmueNozomi_tbs/2
 BYTE   N24  En3
 BYTE   N12  Cs4
 BYTE   W12
 BYTE   Bn3
 BYTE   W12
 BYTE   N24  Gs3
 BYTE   N24  Bn3
 BYTE   W24
//  #01 //008   ----------------------------------------
Label_010047BF:
 BYTE   TEMPO   70*ShenmueNozomi_tbs/2
 BYTE   N24  An2  v088
 BYTE   N24  An3
 BYTE   N24  Cs4
 BYTE   W12
 BYTE   En2
 BYTE   N24  En3
 BYTE   W12
 BYTE   An2
 BYTE   N24  Bn3
 BYTE   N24  Dn4
 BYTE   W12
 BYTE   En2
 BYTE   N24  En3
 BYTE   W12
 BYTE   Cs3
 BYTE   N24  An3
 BYTE   N24  Cs4
 BYTE   W12
 BYTE   En2
 BYTE   N24  En3
 BYTE   W12
 BYTE   An2
 BYTE   N16  An3
 BYTE   W12
 BYTE   N24  En2
 BYTE   N06  Bn3
 BYTE   W06
 BYTE   An3
 BYTE   W06
 BYTE   PEND 
//  #01 //009   ----------------------------------------
Label_010047ED:
 BYTE   N24  Fs2  v088
 BYTE   N24  Fs3
 BYTE   N24  Bn3
 BYTE   W12
 BYTE   Ds2
 BYTE   N24  Ds3
 BYTE   W12
 BYTE   Fs2
 BYTE   N24  Fs3
 BYTE   N24  An3
 BYTE   N24  Cs4
 BYTE   W12
 BYTE   An2
 BYTE   N24  Ds3
 BYTE   W12
 BYTE   Gs2
 BYTE   N24  Fn3
 BYTE   N24  Gs3
 BYTE   N24  Bn3
 BYTE   W12
 BYTE   Cs2
 BYTE   N24  Cs3
 BYTE   W12
 BYTE   Fn2
 BYTE   N24  Fn3
 BYTE   W12
 BYTE   Gs2
 BYTE   N06  An3
 BYTE   W06
 BYTE   Gs3
 BYTE   W06
 BYTE   PEND 
//  #01 //010   ----------------------------------------
Label_0100481C:
 BYTE   N24  Fs2  v088
 BYTE   N24  Fs3
 BYTE   N24  An3
 BYTE   W12
 BYTE   Cs2
 BYTE   N24  Cs3
 BYTE   W12
 BYTE   Fs2
 BYTE   N24  Fs3
 BYTE   N24  Gs3
 BYTE   N24  Bn3
 BYTE   W12
 BYTE   Cs2
 BYTE   N24  Cs3
 BYTE   W12
 BYTE   An2
 BYTE   N24  Fs3
 BYTE   N24  An3
 BYTE   W12
 BYTE   Cs2
 BYTE   N24  Cs3
 BYTE   W12
 BYTE   Fs2
 BYTE   N16  Fs3
 BYTE   W12
 BYTE   N24  Cs2
 BYTE   N06  Gs3
 BYTE   W06
 BYTE   Fs3
 BYTE   W06
 BYTE   PEND 
//  #01 //011   ----------------------------------------
 BYTE   N24  En2
 BYTE   N24  En3
 BYTE   N24  Gs3
 BYTE   W12
 BYTE   Bn1
 BYTE   N24  Bn2
 BYTE   W12
 BYTE   En2
 BYTE   N24  En3
 BYTE   N24  Gs3
 BYTE   N24  Cs4
 BYTE   W12
 BYTE   Bn1
 BYTE   N24  Bn2
 BYTE   W12
 BYTE   TEMPO   62*ShenmueNozomi_tbs/2
 BYTE   Gs2
 BYTE   N24  En3
 BYTE   N24  Gs3
 BYTE   W12
 BYTE   Bn1
 BYTE   N24  Bn2
 BYTE   W12
 BYTE   En2
 BYTE   N24  En3
 BYTE   N24  Gs3
 BYTE   W12
 BYTE   Bn1
 BYTE   W12
//  #01 //012   ----------------------------------------
 BYTE   TEMPO   70*ShenmueNozomi_tbs/2
 BYTE   Dn2
 BYTE   N36  Dn3
 BYTE   N36  Fs3
 BYTE   W12
 BYTE   N24  An1
 BYTE   W12
 BYTE   Fs2
 BYTE   W12
 BYTE   An1
 BYTE   N06  Fn3
 BYTE   W06
 BYTE   Fs3
 BYTE   W06
 BYTE   N24  Gs2
 BYTE   N22  Gs3
 BYTE   N12  Cs4
 BYTE   W12
 BYTE   N24  Bn1
 BYTE   N12  Fs3
 BYTE   N12  Bn3
 BYTE   W12
 BYTE   N24  Dn2
 BYTE   N12  En3
 BYTE   N22  Gs3
 BYTE   W12
 BYTE   N24  Gs2
 BYTE   N12  Dn3
 BYTE   N12  Fs3
 BYTE   W12
//  #01 //013   ----------------------------------------
Label_010048A4:
 BYTE   N36  Cs3  v088
 BYTE   N36  En3
 BYTE   W12
 BYTE   N24  Bn1
 BYTE   W12
 BYTE   Gs2
 BYTE   W12
 BYTE   N12  Gs3
 BYTE   W12
 BYTE   N24  Cs3
 BYTE   N24  Fs3
 BYTE   N24  An3
 BYTE   W12
 BYTE   Cs2
 BYTE   W12
 BYTE   An2
 BYTE   N24  Cs3
 BYTE   N24  En3
 BYTE   W12
 BYTE   En2
 BYTE   W12
 BYTE   PEND 
//  #01 //014   ----------------------------------------
 BYTE   TEMPO   66*ShenmueNozomi_tbs/2
 BYTE   N36  Fs2
 BYTE   N48  An2
 BYTE   W12
 BYTE   N24  Bn1
 BYTE   W12
 BYTE   Dn2
 BYTE   W12
 BYTE   Fs2
 BYTE   W12
 BYTE   TEMPO   64*ShenmueNozomi_tbs/2
 BYTE   En2
 BYTE   N48  Gs2
 BYTE   W12
 BYTE   N24  Bn1
 BYTE   W12
 BYTE   En2
 BYTE   W11
 BYTE   TEMPO   50*ShenmueNozomi_tbs/2
 BYTE   W01
 BYTE   N12  An2
 BYTE   W12
//  #01 //015   ----------------------------------------
 BYTE   TEMPO   70*ShenmueNozomi_tbs/2
 BYTE   En2
 BYTE   N24  An2
 BYTE   W12
 BYTE   En2
 BYTE   W12
 BYTE   An2
 BYTE   W12
 BYTE   En2
 BYTE   W12
 BYTE   Bn2
 BYTE   W12
 BYTE   En2
 BYTE   W12
 BYTE   TEMPO   64*ShenmueNozomi_tbs/2
 BYTE   Cs3
 BYTE   W12
 BYTE   En2
 BYTE   W12
//  #01 //016   ----------------------------------------
 BYTE   TEMPO   70*ShenmueNozomi_tbs/2
 BYTE   N48  Fn3
 BYTE   N36  Gs3
 BYTE   N36  Cs4
 BYTE   W12
 BYTE   N24  Cs2
 BYTE   W12
 BYTE   Gs2
 BYTE   W12
 BYTE   Cs2
 BYTE   N24  An3
 BYTE   N24  Dn4
 BYTE   W12
 BYTE   N48  Fn3
 BYTE   N24  Gs3
 BYTE   N24  Cs4
 BYTE   W12
 BYTE   Gs1
 BYTE   W12
 BYTE   Fn2
 BYTE   N12  Bn3
 BYTE   W12
 BYTE   N24  Gs1
 BYTE   N12  Gs3
 BYTE   N12  Cs4
 BYTE   W12
//  #01 //017   ----------------------------------------
 BYTE   N24  Fs1
 BYTE   N21  Fs3
 BYTE   N12  Bn3
 BYTE   W12
 BYTE   N24  Cs2
 BYTE   N12  An3
 BYTE   W12
 BYTE   N24  An2
 BYTE   N48  Fs3
 BYTE   N48  An3
 BYTE   W12
 BYTE   N24  Cs2
 BYTE   W12
 BYTE   En1
 BYTE   W12
 BYTE   Cs2
 BYTE   W12
 BYTE   An2
 BYTE   N24  Fs3
 BYTE   N24  An3
 BYTE   W12
 BYTE   Cs2
 BYTE   N24  Bn3
 BYTE   W12
//  #01 //018   ----------------------------------------
 BYTE   Ds1
 BYTE   N36  Ds3
 BYTE   N36  Fs3
 BYTE   N36  Cs4
 BYTE   W12
 BYTE   N24  Bn1
 BYTE   W12
 BYTE   Ds2
 BYTE   W12
 BYTE   Bn1
 BYTE   N12  Ds3
 BYTE   N11  Fs3
 BYTE   N12  Bn3
 BYTE   W12
 BYTE   N24  Fs2
 BYTE   N36  Ds3
 BYTE   N01  Fs3
 BYTE   N32  Bn3
 BYTE   W12
 BYTE   N24  Bn1
 BYTE   W12
 BYTE   Ds2
 BYTE   N24  Bn2
 BYTE   N24  Fs3
 BYTE   W12
 BYTE   Bn1
 BYTE   N10  An3
 BYTE   W12
//  #01 //019   ----------------------------------------
 BYTE   N24  En2
 BYTE   N44  En3
 BYTE   N36  An3
 BYTE   W12
 BYTE   N24  Bn1
 BYTE   W12
 BYTE   En2
 BYTE   W12
 BYTE   Bn1
 BYTE   N06  Gs3
 BYTE   W06
 BYTE   Fs3
 BYTE   W06
 BYTE   N24  Gs2
 BYTE   N48  Dn3
 BYTE   N24  En3
 BYTE   N24  Gs3
 BYTE   W12
 BYTE   Bn1
 BYTE   W12
 BYTE   En2
 BYTE   N24  Bn2
 BYTE   N24  En3
 BYTE   W12
 BYTE   Bn1
 BYTE   W12
//  #01 //020   ----------------------------------------
 BYTE   N72  En3
 BYTE   N72  Cs4
 BYTE   N72  En4
 BYTE   W12
 BYTE   N24  Gs1
 BYTE   W12
 BYTE   Cs2
 BYTE   W12
 BYTE   TEMPO   66*ShenmueNozomi_tbs/2
 BYTE   Bn1
 BYTE   W12
 BYTE   N48  As1
 BYTE   W11
 BYTE   TEMPO   70*ShenmueNozomi_tbs/2
 BYTE   W01
 BYTE   N24  Gs1
 BYTE   N24  Gn3
 BYTE   N24  Gn4
 BYTE   W12
 BYTE   Cs2
 BYTE   N24  Fs3
 BYTE   N24  Fs4
 BYTE   W12
 BYTE   Fs2
 BYTE   N24  Cs3
 BYTE   N12  Cs4
 BYTE   W12
//  #01 //021   ----------------------------------------
 BYTE   N24  Bn1
 BYTE   N36  En3
 BYTE   N36  Cs4
 BYTE   N36  En4
 BYTE   W12
 BYTE   N24  Fs2
 BYTE   W12
 BYTE   An2
 BYTE   W12
 BYTE   Fs2
 BYTE   N06  Dn4
 BYTE   W06
 BYTE   Cs4
 BYTE   W06
 BYTE   N24  Dn3
 BYTE   N24  Fs3
 BYTE   N24  Dn4
 BYTE   W12
 BYTE   Fs2
 BYTE   W12
 BYTE   An2
 BYTE   N24  Cs3
 BYTE   N24  Fs3
 BYTE   N24  An3
 BYTE   W12
 BYTE   Fs2
 BYTE   W06
 BYTE   N06  Bn3
 BYTE   W06
//  #01 //022   ----------------------------------------
 BYTE   N24  Bn2
 BYTE   N48  En3
 BYTE   N48  Gs3
 BYTE   N48  Bn3
 BYTE   W12
 BYTE   N24  Bn1
 BYTE   W12
 BYTE   En2
 BYTE   W12
 BYTE   Bn1
 BYTE   W12
 BYTE   Bn2
 BYTE   N24  En3
 BYTE   W12
 BYTE   Bn1
 BYTE   W12
 BYTE   En2
 BYTE   N24  Bn2
 BYTE   N24  En3
 BYTE   N24  Fs3
 BYTE   W12
 BYTE   Bn1
 BYTE   W12
//  #01 //023   ----------------------------------------
 BYTE   TEMPO   66*ShenmueNozomi_tbs/2
 BYTE   Bn2
 BYTE   N24  En3
 BYTE   N24  Gs3
 BYTE   W12
 BYTE   Bn1
 BYTE   W12
 BYTE   TEMPO   64*ShenmueNozomi_tbs/2
 BYTE   En2
 BYTE   N24  Bn2
 BYTE   N24  En3
 BYTE   N24  An3
 BYTE   W12
 BYTE   Bn1
 BYTE   W12
 BYTE   En3
 BYTE   N24  Gs3
 BYTE   N24  Bn3
 BYTE   W12
 BYTE   Bn1
 BYTE   W12
 BYTE   TEMPO   60*ShenmueNozomi_tbs/2
 BYTE   En2
 BYTE   N12  En3
 BYTE   N12  An3
 BYTE   N12  Cs4
 BYTE   W12
 BYTE   N24  Gs2
 BYTE   N12  En3
 BYTE   N12  Bn3
 BYTE   N12  Dn4
 BYTE   W12
//  #01 //024   ----------------------------------------
 BYTE   PATT
  POIN2 Label_010047BF
//  #01 //025   ----------------------------------------
 BYTE   PATT
  POIN2 Label_010047ED
//  #01 //026   ----------------------------------------
 BYTE   PATT
  POIN2 Label_0100481C
//  #01 //027   ----------------------------------------
 BYTE   N24  En2  v088
 BYTE   N24  En3
 BYTE   N24  Gs3
 BYTE   W12
 BYTE   Bn1
 BYTE   N24  Bn2
 BYTE   W12
 BYTE   En2
 BYTE   N24  En3
 BYTE   N24  Gs3
 BYTE   N24  Cs4
 BYTE   W12
 BYTE   Bn1
 BYTE   N24  Bn2
 BYTE   W12
 BYTE   Gs2
 BYTE   N24  En3
 BYTE   N24  Gs3
 BYTE   W12
 BYTE   Bn1
 BYTE   N24  Bn2
 BYTE   W12
 BYTE   En2
 BYTE   N24  En3
 BYTE   N24  Gs3
 BYTE   W12
 BYTE   Bn1
 BYTE   W12
//  #01 //028   ----------------------------------------
 BYTE   Dn2
 BYTE   N36  Dn3
 BYTE   N36  Fs3
 BYTE   W12
 BYTE   N24  An1
 BYTE   W12
 BYTE   Fs2
 BYTE   W12
 BYTE   An1
 BYTE   N06  Fn3
 BYTE   W06
 BYTE   Fs3
 BYTE   W06
 BYTE   N24  Gs2
 BYTE   N22  Gs3
 BYTE   N12  Cs4
 BYTE   W12
 BYTE   N24  Bn1
 BYTE   N12  Fs3
 BYTE   N12  Bn3
 BYTE   W12
 BYTE   N24  Dn2
 BYTE   N12  En3
 BYTE   N22  Gs3
 BYTE   W12
 BYTE   N24  Gs2
 BYTE   N12  Dn3
 BYTE   N12  Fs3
 BYTE   W12
//  #01 //029   ----------------------------------------
 BYTE   PATT
  POIN2 Label_010048A4
//  #01 //030   ----------------------------------------
 BYTE   N36  Fs2  v088
 BYTE   N48  An2
 BYTE   W12
 BYTE   N24  Bn1
 BYTE   W12
 BYTE   Dn2
 BYTE   W12
 BYTE   Fs2
 BYTE   W12
 BYTE   En2
 BYTE   N48  Gs2
 BYTE   W12
 BYTE   N24  Bn1
 BYTE   W12
 BYTE   En2
 BYTE   W11
 BYTE   TEMPO   56*ShenmueNozomi_tbs/2
 BYTE   W01
 BYTE   N12  An2
 BYTE   W12
//  #01 //031   ----------------------------------------
 BYTE   TEMPO   68*ShenmueNozomi_tbs/2
 BYTE   N96  An1
 BYTE   N12  En2
 BYTE   N24  An2
 BYTE   W12
 BYTE   En2
 BYTE   W12
 BYTE   An2
 BYTE   W12
 BYTE   En2
 BYTE   W12
 BYTE   TEMPO   64*ShenmueNozomi_tbs/2
 BYTE   Bn2
 BYTE   W12
 BYTE   En2
 BYTE   W12
 BYTE   Cs3
 BYTE   W12
 BYTE   En2
 BYTE   W12
//  #01 //032   ----------------------------------------
 BYTE   TEMPO   60*ShenmueNozomi_tbs/2
 BYTE   An1
 BYTE   W12
 BYTE   En2
 BYTE   W12
 BYTE   Bn2
 BYTE   W12
 BYTE   Cs3
 BYTE   W12
 BYTE   N48  En3
 BYTE   N48  An3
 BYTE   W48
//  #01 //033   ----------------------------------------
 BYTE   TEMPO   70*ShenmueNozomi_tbs/2
 BYTE   N24  An2
 BYTE   N24  Cs4
 BYTE   W12
 BYTE   En3
 BYTE   W12
 BYTE   An3
 BYTE   N24  Dn4
 BYTE   W12
 BYTE   En3
 BYTE   W12
 BYTE   An3
 BYTE   N24  Cs4
 BYTE   W12
 BYTE   En3
 BYTE   W12
 BYTE   N16  An3
 BYTE   W12
 BYTE   N06  Bn3
 BYTE   W06
 BYTE   An3
 BYTE   W06
//  #01 //034   ----------------------------------------
 BYTE   N24  Gs2
 BYTE   N24  Bn3
 BYTE   W12
 BYTE   Ds3
 BYTE   W12
 BYTE   Fs3
 BYTE   N24  Cs4
 BYTE   W12
 BYTE   Ds3
 BYTE   W12
 BYTE   Fn3
 BYTE   N24  Bn3
 BYTE   W12
 BYTE   Cs3
 BYTE   W12
 BYTE   Fn3
 BYTE   W12
 BYTE   N06  An3
 BYTE   W06
 BYTE   Gs3
 BYTE   W06
//  #01 //035   ----------------------------------------
 BYTE   N24  Fs3
 BYTE   N24  An3
 BYTE   W12
 BYTE   Cs3
 BYTE   W12
 BYTE   Fs3
 BYTE   N24  Bn3
 BYTE   W12
 BYTE   Cs3
 BYTE   W12
 BYTE   Fs3
 BYTE   N24  An3
 BYTE   W12
 BYTE   Cs3
 BYTE   W12
 BYTE   N16  Fs3
 BYTE   W12
 BYTE   N06  Gs3
 BYTE   W06
 BYTE   Fs3
 BYTE   W06
//  #01 //036   ----------------------------------------
 BYTE   N24  En3
 BYTE   N24  Gs3
 BYTE   W12
 BYTE   Bn2
 BYTE   W12
 BYTE   En3
 BYTE   N24  Cs4
 BYTE   W12
 BYTE   Bn2
 BYTE   W12
 BYTE   En3
 BYTE   N24  Gs3
 BYTE   W12
 BYTE   Bn2
 BYTE   W12
 BYTE   TEMPO   64*ShenmueNozomi_tbs/2
 BYTE   Gs2
 BYTE   N24  En3
 BYTE   N24  Gs3
 BYTE   W24
//  #01 //037   ----------------------------------------
 BYTE   TEMPO   70*ShenmueNozomi_tbs/2
 BYTE   Dn2
 BYTE   N24  Dn3
 BYTE   N36  Fs3
 BYTE   W12
 BYTE   N24  An1
 BYTE   N24  An2
 BYTE   W12
 BYTE   Fs2
 BYTE   N24  Dn3
 BYTE   W12
 BYTE   N06  Fn3
 BYTE   W06
 BYTE   Fs3
 BYTE   W06
 BYTE   N24  En2
 BYTE   N48  En3
 BYTE   N12  Cs4
 BYTE   W12
 BYTE   N24  Bn1
 BYTE   N12  Bn3
 BYTE   W12
 BYTE   N24  Dn2
 BYTE   N22  Gs3
 BYTE   W12
 BYTE   N12  Fs3
 BYTE   W12
//  #01 //038   ----------------------------------------
 BYTE   N24  Cs2
 BYTE   N24  Bn2
 BYTE   N48  En3
 BYTE   W12
 BYTE   N24  Bn1
 BYTE   N24  Gs2
 BYTE   W12
 BYTE   En2
 BYTE   N24  Bn2
 BYTE   W12
 BYTE   N12  Gs3
 BYTE   W12
 BYTE   N24  Fs1
 BYTE   N24  En3
 BYTE   N24  An3
 BYTE   W12
 BYTE   Cs2
 BYTE   W12
 BYTE   An2
 BYTE   N24  En3
 BYTE   W24
//  #01 //039   ----------------------------------------
 BYTE   N36  Fs2
 BYTE   N48  An2
 BYTE   W12
 BYTE   N24  Bn1
 BYTE   W12
 BYTE   TEMPO   66*ShenmueNozomi_tbs/2
 BYTE   Dn2
 BYTE   W12
 BYTE   Fs2
 BYTE   W12
 BYTE   En2
 BYTE   N48  Bn2
 BYTE   W12
 BYTE   N24  Cs2
 BYTE   W12
 BYTE   En2
 BYTE   W12
 BYTE   N12  An2
 BYTE   W12
//  #01 //040   ----------------------------------------
 BYTE   TEMPO   64*ShenmueNozomi_tbs/2
 BYTE   N48
 BYTE   N48  Cs3
 BYTE   N48  En4
 BYTE   W12
 BYTE   N24  An1
 BYTE   W12
 BYTE   Dn2
 BYTE   W12
 BYTE   Dn3
 BYTE   W12
 BYTE   TEMPO   56*ShenmueNozomi_tbs/2
 BYTE   En2
 BYTE   N24  Gs2
 BYTE   N24  Cs3
 BYTE   N24  En3
 BYTE   W12
 BYTE   N12  Bn2
 BYTE   W12
 BYTE   TEMPO   54*ShenmueNozomi_tbs/2
 BYTE   N24  En2
 BYTE   N24  Gs2
 BYTE   N24  Bn2
 BYTE   N24  En3
 BYTE   W24
//  #01 //041   ----------------------------------------
 BYTE   TEMPO   70*ShenmueNozomi_tbs/2
 BYTE   An2
 BYTE   N24  An3
 BYTE   N24  Cs4
 BYTE   N24  An4
 BYTE   N24  Cs5
 BYTE   W12
 BYTE   En2
 BYTE   N24  En3
 BYTE   W12
 BYTE   An2
 BYTE   N24  Bn3
 BYTE   N24  Dn4
 BYTE   N24  Bn4
 BYTE   N24  Dn5
 BYTE   W12
 BYTE   En2
 BYTE   N24  En3
 BYTE   W12
 BYTE   Cs3
 BYTE   N24  An3
 BYTE   N24  Cs4
 BYTE   N24  An4
 BYTE   N24  Cs5
 BYTE   W12
 BYTE   En2
 BYTE   N24  En3
 BYTE   W12
 BYTE   An2
 BYTE   N16  An3
 BYTE   N16  An4
 BYTE   W12
 BYTE   N24  En2
 BYTE   N06  Bn3
 BYTE   N06  Bn4
 BYTE   W06
 BYTE   An3
 BYTE   N06  An4
 BYTE   W06
//  #01 //042   ----------------------------------------
 BYTE   N24  Fs2
 BYTE   N24  Fs3
 BYTE   N24  Bn3
 BYTE   N24  Fs4
 BYTE   N24  Bn4
 BYTE   W12
 BYTE   Ds2
 BYTE   N24  Ds3
 BYTE   W12
 BYTE   Fs2
 BYTE   N24  Fs3
 BYTE   N24  An3
 BYTE   N24  Cs4
 BYTE   N24  An4
 BYTE   N24  Cs5
 BYTE   W12
 BYTE   An2
 BYTE   N24  Ds3
 BYTE   W12
 BYTE   Gs2
 BYTE   N24  Fn3
 BYTE   N24  Gs3
 BYTE   N24  Bn3
 BYTE   N24  Fn4
 BYTE   N24  Gs4
 BYTE   N24  Bn4
 BYTE   W12
 BYTE   Cs2
 BYTE   N24  Cs3
 BYTE   W12
 BYTE   Fn2
 BYTE   N24  Fn3
 BYTE   N24  Fn4
 BYTE   W12
 BYTE   Gs2
 BYTE   N06  An3
 BYTE   N06  An4
 BYTE   W06
 BYTE   Gs3
 BYTE   N06  Gs4
 BYTE   W06
//  #01 //043   ----------------------------------------
 BYTE   N24  Fs2
 BYTE   N24  Fs3
 BYTE   N24  An3
 BYTE   N24  Fs4
 BYTE   N24  An4
 BYTE   W12
 BYTE   Cs2
 BYTE   N24  Cs3
 BYTE   W12
 BYTE   Fs2
 BYTE   N24  Fs3
 BYTE   N24  Gs3
 BYTE   N24  Bn3
 BYTE   N24  Gs4
 BYTE   N24  Bn4
 BYTE   W12
 BYTE   Cs2
 BYTE   N24  Cs3
 BYTE   W12
 BYTE   An2
 BYTE   N24  Fs3
 BYTE   N24  An3
 BYTE   N24  Fs4
 BYTE   N24  An4
 BYTE   W12
 BYTE   Cs2
 BYTE   N24  Cs3
 BYTE   W12
 BYTE   Fs2
 BYTE   N16  Fs3
 BYTE   N16  Fs4
 BYTE   W12
 BYTE   N24  Cs2
 BYTE   N06  Gs3
 BYTE   N06  Gs4
 BYTE   W06
 BYTE   Fs3
 BYTE   N06  Fs4
 BYTE   W06
//  #01 //044   ----------------------------------------
 BYTE   TEMPO   66*ShenmueNozomi_tbs/2
 BYTE   N24  En2
 BYTE   N24  En3
 BYTE   N24  Gs3
 BYTE   N24  En4
 BYTE   N24  Gs4
 BYTE   W12
 BYTE   Bn1
 BYTE   N24  Bn2
 BYTE   W12
 BYTE   TEMPO   64*ShenmueNozomi_tbs/2
 BYTE   En2
 BYTE   N24  En3
 BYTE   N24  Gs3
 BYTE   N24  Cs4
 BYTE   N24  Gs4
 BYTE   N24  Cs5
 BYTE   W12
 BYTE   Bn1
 BYTE   N24  Bn2
 BYTE   W12
 BYTE   Gs2
 BYTE   N24  En3
 BYTE   N24  Gs3
 BYTE   N24  En4
 BYTE   N24  Gs4
 BYTE   W12
 BYTE   Bn1
 BYTE   N24  Bn2
 BYTE   W12
 BYTE   En2
 BYTE   N24  En3
 BYTE   N24  Gs3
 BYTE   N24  En4
 BYTE   N24  Gs4
 BYTE   W12
 BYTE   Bn1
 BYTE   W12
//  #01 //045   ----------------------------------------
 BYTE   TEMPO   70*ShenmueNozomi_tbs/2
 BYTE   Dn2
 BYTE   N36  Dn3
 BYTE   N36  Fs3
 BYTE   N36  Dn4
 BYTE   N36  Fs4
 BYTE   W12
 BYTE   N24  An1
 BYTE   W12
 BYTE   Fs2
 BYTE   W12
 BYTE   An1
 BYTE   N06  Fn3
 BYTE   N06  Fn4
 BYTE   W06
 BYTE   Fs3
 BYTE   N06  Fs4
 BYTE   W06
 BYTE   N24  Gs2
 BYTE   N22  Gs3
 BYTE   N12  Cs4
 BYTE   N22  Gs4
 BYTE   N12  Cs5
 BYTE   W12
 BYTE   N24  Bn1
 BYTE   N12  Fs3
 BYTE   N12  Bn3
 BYTE   N12  Fs4
 BYTE   N12  Bn4
 BYTE   W12
 BYTE   N24  Dn2
 BYTE   N12  En3
 BYTE   N22  Gs3
 BYTE   N12  En4
 BYTE   N22  Gs4
 BYTE   W12
 BYTE   N24  Gs2
 BYTE   N12  Dn3
 BYTE   N12  Fs3
 BYTE   N12  Dn4
 BYTE   N12  Fs4
 BYTE   W12
//  #01 //046   ----------------------------------------
 BYTE   N36  Cs3
 BYTE   N36  En3
 BYTE   N36  Cs4
 BYTE   N36  En4
 BYTE   W12
 BYTE   N24  Bn1
 BYTE   W12
 BYTE   Gs2
 BYTE   W12
 BYTE   N12  Gs3
 BYTE   N12  Gs4
 BYTE   W12
 BYTE   N24  Cs3
 BYTE   N24  Fs3
 BYTE   N24  An3
 BYTE   N24  Fs4
 BYTE   N24  An4
 BYTE   W12
 BYTE   Cs2
 BYTE   W12
 BYTE   An2
 BYTE   N24  Cs3
 BYTE   N24  En3
 BYTE   N24  Cs4
 BYTE   N24  En4
 BYTE   W12
 BYTE   En2
 BYTE   W12
//  #01 //047   ----------------------------------------
 BYTE   N48  An2
 BYTE   N48  En3
 BYTE   N48  An3
 BYTE   W12
 BYTE   N24  Fs1
 BYTE   W12
 BYTE   TEMPO   66*ShenmueNozomi_tbs/2
 BYTE   Bn1
 BYTE   W12
 BYTE   Bn2
 BYTE   W12
 BYTE   En2
 BYTE   N24  En3
 BYTE   N24  An3
 BYTE   W12
 BYTE   Bn1
 BYTE   W12
 BYTE   En2
 BYTE   N24  En3
 BYTE   N15  Bn3
 BYTE   W12
 BYTE   N12  En1
 BYTE   W06
 BYTE   N06  Bn3
 BYTE   N06  Fs4
 BYTE   N06  An4
 BYTE   W06
//  #01 //048   ----------------------------------------
 BYTE   N24  Bn0
 BYTE   N48  Bn3
 BYTE   N48  Fs4
 BYTE   N48  An4
 BYTE   W12
 BYTE   N24  Fs1
 BYTE   W12
 BYTE   Bn1
 BYTE   W12
 BYTE   Dn2
 BYTE   W12
 BYTE   TEMPO   64*ShenmueNozomi_tbs/2
 BYTE   En1
 BYTE   N24  An3
 BYTE   N24  Fs4
 BYTE   N24  An4
 BYTE   W12
 BYTE   Bn1
 BYTE   W12
 BYTE   En2
 BYTE   N24  En3
 BYTE   N24  Bn3
 BYTE   N24  Gs4
 BYTE   N24  Bn4
 BYTE   W18
 BYTE   N06  En5
 BYTE   N06  Fs5
 BYTE   N06  An5
 BYTE   W06
//  #01 //049   ----------------------------------------
 BYTE   N24  Bn0
 BYTE   N48  En5
 BYTE   N48  Fs5
 BYTE   N48  An5
 BYTE   W12
 BYTE   N24  Dn2
 BYTE   W12
 BYTE   TEMPO   60*ShenmueNozomi_tbs/2
 BYTE   Fs2
 BYTE   W12
 BYTE   An2
 BYTE   W12
 BYTE   En2
 BYTE   N24  En5
 BYTE   N24  Fs5
 BYTE   N24  An5
 BYTE   W12
 BYTE   Bn1
 BYTE   W12
 BYTE   TEMPO   54*ShenmueNozomi_tbs/2
 BYTE   En2
 BYTE   N12  En5
 BYTE   N12  Gs5
 BYTE   W12
 BYTE   N24  Gs2
 BYTE   N12  En5
 BYTE   N12  An5
 BYTE   W12
//  #01 //050   ----------------------------------------
 BYTE   TEMPO   64*ShenmueNozomi_tbs/2
 BYTE   N24  An2
 BYTE   TIE  Cs5
 BYTE   TIE  En5
 BYTE   TIE  An5
 BYTE   W12
 BYTE   N24  En2
 BYTE   W12
 BYTE   An2
 BYTE   W12
 BYTE   Bn2
 BYTE   W12
 BYTE   TEMPO   60*ShenmueNozomi_tbs/2
 BYTE   Dn3
 BYTE   W12
 BYTE   En3
 BYTE   W12
 BYTE   An3
 BYTE   W12
 BYTE   Bn3
 BYTE   W12
//  #01 //051   ----------------------------------------
 BYTE   Dn4
 BYTE   W12
 BYTE   En4
 BYTE   W12
 BYTE   TEMPO   50*ShenmueNozomi_tbs/2
 BYTE   An4
 BYTE   W12
 BYTE   Dn5
 BYTE   W12
 BYTE   EOT
 BYTE   Cs5  v088
 BYTE   An5
 BYTE   TIE  An4
 BYTE   W01
 BYTE   An2
 BYTE   W01
 BYTE   Bn4
 BYTE   W01
 BYTE   En3
 BYTE   W01
 BYTE   Cs5
 BYTE   W02
 BYTE   An3
 BYTE   W42
//  #01 //052   ----------------------------------------
 BYTE   W90
 BYTE   W01
 BYTE   EOT
 BYTE   En3  v069
 BYTE   W01
 BYTE   An4  v083
 BYTE   W01
 BYTE   An2
 BYTE   W01
 BYTE   Cs5
 BYTE   W02
//  #01 //053   ----------------------------------------
 BYTE   GoTo
  POIN2 Label_010046E8
 BYTE   FINE

//**************** Track 2 (Midi-Chn.1) ****************//

ShenmueNozomi_002:
//  #02 //000   ----------------------------------------
 BYTE   VOL   80*ShenmueNozomi_mvl/mxv
 BYTE   KEYSH   ShenmueNozomi_key+0
Label_5451D4:
 BYTE   VOICE   4
 BYTE   MODT 0
 BYTE   LFOS 44
 BYTE   PAN   c_v+0
 BYTE   N96  An3  v088
 BYTE   W96
//  #02 //001   ----------------------------------------
 BYTE   N48  Gs3
 BYTE   W48
 BYTE   Cs3
 BYTE   W24
 BYTE   N24  Cs2
 BYTE   W24
//  #02 //002   ----------------------------------------
 BYTE   N48  Fs2
 BYTE   W48
 BYTE   Fs3
 BYTE   W48
//  #02 //003   ----------------------------------------
 BYTE   En2
 BYTE   W48
 BYTE   En3
 BYTE   W24
 BYTE   N24  En2
 BYTE   W24
//  #02 //004   ----------------------------------------
 BYTE   N48  Dn2
 BYTE   N24  Fs3
 BYTE   W12
 BYTE   An2
 BYTE   W12
 BYTE   Dn3
 BYTE   N24  Fs3
 BYTE   W24
 BYTE   N48  En2
 BYTE   N24  Gs3
 BYTE   W12
 BYTE   Bn2
 BYTE   W12
 BYTE   Dn3
 BYTE   N24  Fs3
 BYTE   W12
 BYTE   Dn2
 BYTE   W12
//  #02 //005   ----------------------------------------
 BYTE   N48  Cs2
 BYTE   N24  Bn3
 BYTE   W12
 BYTE   Bn2
 BYTE   N24  Gs3
 BYTE   W12
 BYTE   N36  En3
 BYTE   N24  Bn3
 BYTE   W24
 BYTE   N48  Fs2
 BYTE   N24  En4
 BYTE   W12
 BYTE   Cs3
 BYTE   W12
 BYTE   An3
 BYTE   N24  En4
 BYTE   W24
//  #02 //006   ----------------------------------------
 BYTE   N48  Bn1
 BYTE   N48  Dn4
 BYTE   W12
 BYTE   N24  Fs2
 BYTE   W12
 BYTE   An2
 BYTE   W12
 BYTE   N12  Dn3
 BYTE   W12
 BYTE   N48  Cs2
 BYTE   N24  En3
 BYTE   N48  En4
 BYTE   W12
 BYTE   N24  Gs2
 BYTE   W12
 BYTE   Bn2
 BYTE   W12
 BYTE   Gs3
 BYTE   W12
//  #02 //007   ----------------------------------------
 BYTE   N48  Dn2
 BYTE   N24  Fs3
 BYTE   N48  Fs4
 BYTE   W12
 BYTE   N24  An2
 BYTE   W12
 BYTE   Dn3
 BYTE   W24
 BYTE   N48  En2
 BYTE   N24  Gs4
 BYTE   W24
 BYTE   En1
 BYTE   N24  Gs4
 BYTE   W24
//  #02 //008   ----------------------------------------
Label_545255:
 BYTE   N96  An0  v088
 BYTE   W84
 BYTE   N24  An1
 BYTE   W12
 BYTE   PEND 
//  #02 //009   ----------------------------------------
Label_54525D:
 BYTE   N48  Gs0  v088
 BYTE   W48
 BYTE   Cs1
 BYTE   W36
 BYTE   N24  Gs1
 BYTE   W12
 BYTE   PEND 
//  #02 //010   ----------------------------------------
Label_545267:
 BYTE   N96  Fs0  v088
 BYTE   W84
 BYTE   N24  Fs1
 BYTE   W12
 BYTE   PEND 
//  #02 //011   ----------------------------------------
Label_54526F:
 BYTE   N72  En1  v088
 BYTE   W72
 BYTE   N24
 BYTE   N24  En2
 BYTE   W12
 BYTE   Ds1
 BYTE   N24  Ds2
 BYTE   W12
 BYTE   PEND 
//  #02 //012   ----------------------------------------
Label_54527C:
 BYTE   N48  Dn1  v088
 BYTE   N48  Dn2
 BYTE   W48
 BYTE   En1
 BYTE   N48  En2
 BYTE   W36
 BYTE   N24  Dn1
 BYTE   W12
 BYTE   PEND 
//  #02 //013   ----------------------------------------
Label_54528A:
 BYTE   N48  Cs1  v088
 BYTE   N48  Cs2
 BYTE   W48
 BYTE   Fs1
 BYTE   W48
 BYTE   PEND 
//  #02 //014   ----------------------------------------
Label_545293:
 BYTE   N48  Bn0  v088
 BYTE   W48
 BYTE   En1
 BYTE   W48
 BYTE   PEND 
//  #02 //015   ----------------------------------------
 BYTE   N96  An0
 BYTE   W96
//  #02 //016   ----------------------------------------
 BYTE   N48  Fn1
 BYTE   W48
 BYTE   N48
 BYTE   W48
//  #02 //017   ----------------------------------------
 BYTE   Fs1
 BYTE   W48
 BYTE   En1
 BYTE   W48
//  #02 //018   ----------------------------------------
 BYTE   Ds1
 BYTE   W48
 BYTE   Bn0
 BYTE   W48
//  #02 //019   ----------------------------------------
Label_5452AA:
 BYTE   N48  En1  v088
 BYTE   W48
 BYTE   N36  Dn1
 BYTE   W36
 BYTE   N12
 BYTE   W12
 BYTE   PEND 
//  #02 //020   ----------------------------------------
 BYTE   N36  Cs1
 BYTE   W36
 BYTE   N24  Bn0
 BYTE   W12
 BYTE   N48  As0
 BYTE   W48
//  #02 //021   ----------------------------------------
 BYTE   Bn0
 BYTE   W48
 BYTE   An1
 BYTE   W48
//  #02 //022   ----------------------------------------
 BYTE   PATT
  POIN2 Label_5452AA
//  #02 //023   ----------------------------------------
 BYTE   N48  Cs1  v088
 BYTE   W48
 BYTE   Bn0
 BYTE   W48
//  #02 //024   ----------------------------------------
 BYTE   PATT
  POIN2 Label_545255
//  #02 //025   ----------------------------------------
 BYTE   PATT
  POIN2 Label_54525D
//  #02 //026   ----------------------------------------
 BYTE   PATT
  POIN2 Label_545267
//  #02 //027   ----------------------------------------
 BYTE   PATT
  POIN2 Label_54526F
//  #02 //028   ----------------------------------------
 BYTE   PATT
  POIN2 Label_54527C
//  #02 //029   ----------------------------------------
 BYTE   PATT
  POIN2 Label_54528A
//  #02 //030   ----------------------------------------
 BYTE   PATT
  POIN2 Label_545293
//  #02 //031   ----------------------------------------
 BYTE   N96  An0  v088
 BYTE   W96
//  #02 //032   ----------------------------------------
 BYTE   N96
 BYTE   W96
//  #02 //033   ----------------------------------------
 BYTE   W96
//  #02 //034   ----------------------------------------
 BYTE   W48
 BYTE   N24  Cs2
 BYTE   W24
 BYTE   Cs1
 BYTE   W24
//  #02 //035   ----------------------------------------
 BYTE   N48  Fs1
 BYTE   W48
 BYTE   Fs2
 BYTE   W48
//  #02 //036   ----------------------------------------
 BYTE   En1
 BYTE   W48
 BYTE   En2
 BYTE   W24
 BYTE   N24  En1
 BYTE   W24
//  #02 //037   ----------------------------------------
 BYTE   N48  Dn1
 BYTE   W48
 BYTE   N36  En1
 BYTE   W36
 BYTE   N12  Dn1
 BYTE   W12
//  #02 //038   ----------------------------------------
 BYTE   N48  Cs1
 BYTE   W48
 BYTE   Fs1
 BYTE   W48
//  #02 //039   ----------------------------------------
 BYTE   Bn0
 BYTE   W48
 BYTE   Cs1
 BYTE   W48
//  #02 //040   ----------------------------------------
 BYTE   Dn1
 BYTE   W48
 BYTE   N24  En1
 BYTE   W24
 BYTE   En0
 BYTE   W24
//  #02 //041   ----------------------------------------
 BYTE   PATT
  POIN2 Label_545255
//  #02 //042   ----------------------------------------
 BYTE   PATT
  POIN2 Label_54525D
//  #02 //043   ----------------------------------------
 BYTE   PATT
  POIN2 Label_545267
//  #02 //044   ----------------------------------------
 BYTE   PATT
  POIN2 Label_54526F
//  #02 //045   ----------------------------------------
 BYTE   PATT
  POIN2 Label_54527C
//  #02 //046   ----------------------------------------
 BYTE   PATT
  POIN2 Label_54528A
//  #02 //047   ----------------------------------------
 BYTE   N48  Bn0  v088
 BYTE   W48
 BYTE   N32  En1
 BYTE   W36
 BYTE   N12
 BYTE   W12
//  #02 //048   ----------------------------------------
 BYTE   N48  Bn0
 BYTE   W48
 BYTE   N36  En1
 BYTE   W36
 BYTE   N12
 BYTE   W12
//  #02 //049   ----------------------------------------
 BYTE   PATT
  POIN2 Label_545293
//  #02 //050   ----------------------------------------
 BYTE   TIE  An0  v088
 BYTE   TIE  An1
 BYTE   W96
//  #02 //051   ----------------------------------------
 BYTE   W48
 BYTE   EOT
 BYTE   An0  v045
 BYTE   W48
//  #02 //052   ----------------------------------------
 BYTE   N96  An0
 BYTE   W96
//  #02 //053   ----------------------------------------
 BYTE   GoTo
  POIN2 Label_5451D4
 BYTE   FINE

//******************************************************//
	ALIGN 4

ShenmueNozomi:
	BYTE	2	// NumTrks
	BYTE	0	// NumBlks
	BYTE	ShenmueNozomi_pri	// Priority
	BYTE	ShenmueNozomi_rev	// Reverb.
    
	POIN2	ShenmueNozomi_grp
    
	POIN2	ShenmueNozomi_001
	POIN2	ShenmueNozomi_002

	
