//Event file generated from Sappy .s format.
	

	#define	SonicRResortIsland_grp  voicegroup000
	#define	SonicRResortIsland_pri  0
	#define	SonicRResortIsland_rev  0
	#define	SonicRResortIsland_mvl  127
	#define	SonicRResortIsland_key  0
	#define	SonicRResortIsland_tbs  1
	#define	SonicRResortIsland_exg  0
	#define	SonicRResortIsland_cmp  1

	// .rodata
	//	SonicRResortIsland
	ALIGN 4


//**************** Track 1 (Midi-Chn.0) ****************//

SonicRResortIsland_001:
//  #01 //000   ----------------------------------------
 BYTE   KEYSH   SonicRResortIsland_key+0
Label_01004E5A:
 BYTE   TEMPO   160*SonicRResortIsland_tbs/2
 BYTE   VOICE   73
 BYTE   MODT 0
 BYTE   LFOS 44
 BYTE   VOL   55*SonicRResortIsland_mvl/mxv
 BYTE   PAN   c_v+0
 BYTE   N05  Fn4  v100
 BYTE   W06
 BYTE   Fs4
 BYTE   W06
 BYTE   Fn4
 BYTE   W06
 BYTE   Cs4
 BYTE   W06
 BYTE   As3
 BYTE   W06
 BYTE   Fs3
 BYTE   W06
 BYTE   As3
 BYTE   W06
 BYTE   Cs4
 BYTE   W06
 BYTE   Fn4
 BYTE   W06
 BYTE   Fs4
 BYTE   W06
 BYTE   Fn4
 BYTE   W06
 BYTE   Cs4
 BYTE   W06
 BYTE   As3
 BYTE   W06
 BYTE   Fs3
 BYTE   W06
 BYTE   As3
 BYTE   W06
 BYTE   Cs4
 BYTE   W06
//  #01 //001   ----------------------------------------
Label_01004E88:
 BYTE   N05  Gs4  v100
 BYTE   W06
 BYTE   An4
 BYTE   W06
 BYTE   Gs4
 BYTE   W06
 BYTE   En4
 BYTE   W06
 BYTE   Cs4
 BYTE   W06
 BYTE   An3
 BYTE   W06
 BYTE   Cs4
 BYTE   W06
 BYTE   En4
 BYTE   W06
 BYTE   Gs4
 BYTE   W06
 BYTE   An4
 BYTE   W06
 BYTE   Gs4
 BYTE   W06
 BYTE   En4
 BYTE   W06
 BYTE   Cs4
 BYTE   W06
 BYTE   An3
 BYTE   W06
 BYTE   Cs4
 BYTE   W06
 BYTE   En4
 BYTE   W06
 BYTE   PEND 
//  #01 //002   ----------------------------------------
Label_01004EAB:
 BYTE   N05  Ds4  v100
 BYTE   W06
 BYTE   En4
 BYTE   W06
 BYTE   Ds4
 BYTE   W06
 BYTE   Bn3
 BYTE   W06
 BYTE   Gs3
 BYTE   W06
 BYTE   En3
 BYTE   W06
 BYTE   Gs3
 BYTE   W06
 BYTE   Bn3
 BYTE   W06
 BYTE   Ds4
 BYTE   W06
 BYTE   En4
 BYTE   W06
 BYTE   Ds4
 BYTE   W06
 BYTE   Bn3
 BYTE   W06
 BYTE   Gs3
 BYTE   W06
 BYTE   En3
 BYTE   W06
 BYTE   Gs3
 BYTE   W06
 BYTE   Bn3
 BYTE   W06
 BYTE   PEND 
//  #01 //003   ----------------------------------------
Label_01004ECE:
 BYTE   N05  Cs4  v100
 BYTE   W06
 BYTE   Ds4
 BYTE   W06
 BYTE   Cs4
 BYTE   W06
 BYTE   Bn3
 BYTE   W06
 BYTE   Gs3
 BYTE   W06
 BYTE   Fn3
 BYTE   W06
 BYTE   Gs3
 BYTE   W06
 BYTE   Bn3
 BYTE   W06
 BYTE   Cs4
 BYTE   W06
 BYTE   Ds4
 BYTE   W06
 BYTE   Cs4
 BYTE   W06
 BYTE   Bn3
 BYTE   W06
 BYTE   Gs3
 BYTE   W06
 BYTE   Fn3
 BYTE   W06
 BYTE   Gs3
 BYTE   W06
 BYTE   Bn3
 BYTE   W06
 BYTE   PEND 
//  #01 //004   ----------------------------------------
Label_01004EF1:
 BYTE   N05  Fn4  v100
 BYTE   W06
 BYTE   Fs4
 BYTE   W06
 BYTE   Fn4
 BYTE   W06
 BYTE   Cs4
 BYTE   W06
 BYTE   As3
 BYTE   W06
 BYTE   Fs3
 BYTE   W06
 BYTE   As3
 BYTE   W06
 BYTE   Cs4
 BYTE   W06
 BYTE   Fn4
 BYTE   W06
 BYTE   Fs4
 BYTE   W06
 BYTE   Fn4
 BYTE   W06
 BYTE   Cs4
 BYTE   W06
 BYTE   As3
 BYTE   W06
 BYTE   Fs3
 BYTE   W06
 BYTE   As3
 BYTE   W06
 BYTE   Cs4
 BYTE   W06
 BYTE   PEND 
//  #01 //005   ----------------------------------------
 BYTE   PATT
  POIN2 Label_01004E88
//  #01 //006   ----------------------------------------
 BYTE   PATT
  POIN2 Label_01004EAB
//  #01 //007   ----------------------------------------
 BYTE   PATT
  POIN2 Label_01004ECE
//  #01 //008   ----------------------------------------
 BYTE   W96
//  #01 //009   ----------------------------------------
 BYTE   W96
//  #01 //010   ----------------------------------------
 BYTE   W96
//  #01 //011   ----------------------------------------
 BYTE   W96
//  #01 //012   ----------------------------------------
 BYTE   W96
//  #01 //013   ----------------------------------------
 BYTE   W96
//  #01 //014   ----------------------------------------
 BYTE   W96
//  #01 //015   ----------------------------------------
 BYTE   W96
//  #01 //016   ----------------------------------------
 BYTE   W96
//  #01 //017   ----------------------------------------
 BYTE   W96
//  #01 //018   ----------------------------------------
 BYTE   W96
//  #01 //019   ----------------------------------------
 BYTE   W96
//  #01 //020   ----------------------------------------
 BYTE   W96
//  #01 //021   ----------------------------------------
 BYTE   W96
//  #01 //022   ----------------------------------------
 BYTE   W96
//  #01 //023   ----------------------------------------
 BYTE   W96
//  #01 //024   ----------------------------------------
 BYTE   W96
//  #01 //025   ----------------------------------------
 BYTE   W96
//  #01 //026   ----------------------------------------
Label_01004F35:
 BYTE   N11  Bn3  v100
 BYTE   W12
 BYTE   Fs3
 BYTE   W12
 BYTE   Bn3
 BYTE   W12
 BYTE   Cs4
 BYTE   W12
 BYTE   Fs4
 BYTE   W12
 BYTE   En4
 BYTE   W12
 BYTE   Fs4
 BYTE   W12
 BYTE   N68  Ds4
 BYTE   W12
 BYTE   PEND 
//  #01 //027   ----------------------------------------
Label_01004F49:
 BYTE   W60
 BYTE   N11  Fs3  v100
 BYTE   W12
 BYTE   Bn3
 BYTE   W12
 BYTE   Cs4
 BYTE   W12
 BYTE   PEND 
//  #01 //028   ----------------------------------------
Label_01004F53:
 BYTE   N11  Bn3  v100
 BYTE   W12
 BYTE   Fs3
 BYTE   W12
 BYTE   Bn3
 BYTE   W12
 BYTE   Cs4
 BYTE   W12
 BYTE   Fs4
 BYTE   W12
 BYTE   En4
 BYTE   W12
 BYTE   Fs4
 BYTE   W12
 BYTE   N92  Bn3
 BYTE   W12
 BYTE   PEND 
//  #01 //029   ----------------------------------------
 BYTE   W84
 BYTE   N11  Cs4
 BYTE   W12
//  #01 //030   ----------------------------------------
Label_01004F6B:
 BYTE   N11  Bn3  v100
 BYTE   W12
 BYTE   Fs3
 BYTE   W12
 BYTE   Bn3
 BYTE   W12
 BYTE   Cs4
 BYTE   W12
 BYTE   Fs4
 BYTE   W12
 BYTE   En4
 BYTE   W12
 BYTE   Fs4
 BYTE   W12
 BYTE   TIE  Ds4
 BYTE   W12
 BYTE   PEND 
//  #01 //031   ----------------------------------------
 BYTE   W90
 BYTE   EOT
 BYTE   W06
//  #01 //032   ----------------------------------------
Label_01004F82:
 BYTE   N56  Bn3  v100
 BYTE   W60
 BYTE   N11  Cs4
 BYTE   W12
 BYTE   Ds4
 BYTE   W12
 BYTE   N68  Cs4
 BYTE   W12
 BYTE   PEND 
//  #01 //033   ----------------------------------------
 BYTE   W60
 BYTE   N32  Cn4
 BYTE   W36
//  #01 //034   ----------------------------------------
 BYTE   PATT
  POIN2 Label_01004F35
//  #01 //035   ----------------------------------------
 BYTE   PATT
  POIN2 Label_01004F49
//  #01 //036   ----------------------------------------
 BYTE   PATT
  POIN2 Label_01004F53
//  #01 //037   ----------------------------------------
 BYTE   W84
 BYTE   N11  Cs4  v100
 BYTE   W12
//  #01 //038   ----------------------------------------
 BYTE   PATT
  POIN2 Label_01004F6B
//  #01 //039   ----------------------------------------
 BYTE   W90
 BYTE   EOT
 BYTE   Ds4
 BYTE   W06
//  #01 //040   ----------------------------------------
Label_01004FB0:
 BYTE   N20  Ds4  v100
 BYTE   W24
 BYTE   Bn3
 BYTE   W24
 BYTE   Cs4
 BYTE   W24
 BYTE   Fs4
 BYTE   W24
 BYTE   PEND 
//  #01 //041   ----------------------------------------
 BYTE   N90  En4
 BYTE   W96
//  #01 //042   ----------------------------------------
 BYTE   PATT
  POIN2 Label_01004EF1
//  #01 //043   ----------------------------------------
 BYTE   PATT
  POIN2 Label_01004E88
//  #01 //044   ----------------------------------------
 BYTE   PATT
  POIN2 Label_01004EAB
//  #01 //045   ----------------------------------------
 BYTE   PATT
  POIN2 Label_01004ECE
//  #01 //046   ----------------------------------------
 BYTE   PATT
  POIN2 Label_01004EF1
//  #01 //047   ----------------------------------------
 BYTE   PATT
  POIN2 Label_01004E88
//  #01 //048   ----------------------------------------
 BYTE   PATT
  POIN2 Label_01004EAB
//  #01 //049   ----------------------------------------
 BYTE   PATT
  POIN2 Label_01004ECE
//  #01 //050   ----------------------------------------
 BYTE   W96
//  #01 //051   ----------------------------------------
 BYTE   W96
//  #01 //052   ----------------------------------------
 BYTE   W96
//  #01 //053   ----------------------------------------
 BYTE   W96
//  #01 //054   ----------------------------------------
 BYTE   W96
//  #01 //055   ----------------------------------------
 BYTE   W96
//  #01 //056   ----------------------------------------
 BYTE   W96
//  #01 //057   ----------------------------------------
 BYTE   W96
//  #01 //058   ----------------------------------------
 BYTE   W96
//  #01 //059   ----------------------------------------
 BYTE   W96
//  #01 //060   ----------------------------------------
 BYTE   W96
//  #01 //061   ----------------------------------------
 BYTE   W96
//  #01 //062   ----------------------------------------
 BYTE   W96
//  #01 //063   ----------------------------------------
 BYTE   W96
//  #01 //064   ----------------------------------------
 BYTE   W96
//  #01 //065   ----------------------------------------
 BYTE   W96
//  #01 //066   ----------------------------------------
 BYTE   W96
//  #01 //067   ----------------------------------------
 BYTE   W96
//  #01 //068   ----------------------------------------
 BYTE   PATT
  POIN2 Label_01004F35
//  #01 //069   ----------------------------------------
 BYTE   PATT
  POIN2 Label_01004F49
//  #01 //070   ----------------------------------------
 BYTE   PATT
  POIN2 Label_01004F53
//  #01 //071   ----------------------------------------
 BYTE   W84
 BYTE   N11  Cs4  v100
 BYTE   W12
//  #01 //072   ----------------------------------------
 BYTE   PATT
  POIN2 Label_01004F6B
//  #01 //073   ----------------------------------------
 BYTE   W90
 BYTE   EOT
 BYTE   Ds4
 BYTE   W06
//  #01 //074   ----------------------------------------
 BYTE   PATT
  POIN2 Label_01004F82
//  #01 //075   ----------------------------------------
 BYTE   W60
 BYTE   N32  Cn4  v100
 BYTE   W36
//  #01 //076   ----------------------------------------
 BYTE   PATT
  POIN2 Label_01004F35
//  #01 //077   ----------------------------------------
 BYTE   PATT
  POIN2 Label_01004F49
//  #01 //078   ----------------------------------------
 BYTE   PATT
  POIN2 Label_01004F53
//  #01 //079   ----------------------------------------
 BYTE   W84
 BYTE   N11  Cs4  v100
 BYTE   W12
//  #01 //080   ----------------------------------------
 BYTE   PATT
  POIN2 Label_01004F6B
//  #01 //081   ----------------------------------------
 BYTE   W90
 BYTE   EOT
 BYTE   Ds4
 BYTE   W06
//  #01 //082   ----------------------------------------
 BYTE   PATT
  POIN2 Label_01004FB0
//  #01 //083   ----------------------------------------
 BYTE   N90  En4  v100
 BYTE   W92
 BYTE   W03
 BYTE   GoTo
  POIN2 Label_01004E5A
 BYTE   FINE

//**************** Track 2 (Midi-Chn.1) ****************//

SonicRResortIsland_002:
//  #02 //000   ----------------------------------------
 BYTE   KEYSH   SonicRResortIsland_key+0
Label_01005A32:
 BYTE   VOICE   64
 BYTE   MODT 0
 BYTE   LFOS 44
 BYTE   VOL   55*SonicRResortIsland_mvl/mxv
 BYTE   PAN   c_v+0
 BYTE   W96
//  #02 //001   ----------------------------------------
 BYTE   W96
//  #02 //002   ----------------------------------------
 BYTE   W96
//  #02 //003   ----------------------------------------
 BYTE   W96
//  #02 //004   ----------------------------------------
 BYTE   W96
//  #02 //005   ----------------------------------------
 BYTE   W96
//  #02 //006   ----------------------------------------
 BYTE   W96
//  #02 //007   ----------------------------------------
 BYTE   W96
//  #02 //008   ----------------------------------------
Label_01005A44:
 BYTE   W64
 BYTE   N15  Cs3  v127
 BYTE   W16
 BYTE   Ds3
 BYTE   W16
 BYTE   PEND 
//  #02 //009   ----------------------------------------
Label_01005A4C:
 BYTE   N80  Fn3  v127
 BYTE   W84
 BYTE   N11  Cs3
 BYTE   W12
 BYTE   PEND 
//  #02 //010   ----------------------------------------
Label_01005A54:
 BYTE   N20  En3  v127
 BYTE   W24
 BYTE   N11
 BYTE   W12
 BYTE   N20  Fs3
 BYTE   W24
 BYTE   N11
 BYTE   W12
 BYTE   N20
 BYTE   W24
 BYTE   PEND 
//  #02 //011   ----------------------------------------
Label_01005A62:
 BYTE   N80  Ds3  v127
 BYTE   W84
 BYTE   N11  Bn2
 BYTE   W12
 BYTE   PEND 
//  #02 //012   ----------------------------------------
Label_01005A6A:
 BYTE   N20  Ds3  v127
 BYTE   W24
 BYTE   N11  Cs3
 BYTE   W12
 BYTE   N32
 BYTE   W36
 BYTE   N20  Ds3
 BYTE   W24
 BYTE   PEND 
//  #02 //013   ----------------------------------------
Label_01005A77:
 BYTE   N56  Fn3  v127
 BYTE   W60
 BYTE   N11  Cs3
 BYTE   W12
 BYTE   Ds3
 BYTE   W12
 BYTE   N92  En3
 BYTE   W12
 BYTE   PEND 
//  #02 //014   ----------------------------------------
 BYTE   W84
 BYTE   N11
 BYTE   W12
//  #02 //015   ----------------------------------------
Label_01005A87:
 BYTE   N20  Ds3  v127
 BYTE   W24
 BYTE   N11  Bn2
 BYTE   W12
 BYTE   N20
 BYTE   W24
 BYTE   N11
 BYTE   W12
 BYTE   Cs3
 BYTE   W12
 BYTE   N23  Ds3
 BYTE   W12
 BYTE   PEND 
//  #02 //016   ----------------------------------------
Label_01005A98:
 BYTE   W12
 BYTE   N48  Cs3  v127
 BYTE   W52
 BYTE   N15
 BYTE   W16
 BYTE   Ds3
 BYTE   W16
 BYTE   PEND 
//  #02 //017   ----------------------------------------
 BYTE   PATT
  POIN2 Label_01005A4C
//  #02 //018   ----------------------------------------
 BYTE   PATT
  POIN2 Label_01005A54
//  #02 //019   ----------------------------------------
 BYTE   PATT
  POIN2 Label_01005A62
//  #02 //020   ----------------------------------------
 BYTE   PATT
  POIN2 Label_01005A6A
//  #02 //021   ----------------------------------------
Label_01005AB6:
 BYTE   N56  Fn3  v127
 BYTE   W60
 BYTE   N11  Cs3
 BYTE   W12
 BYTE   Ds3
 BYTE   W12
 BYTE   N92  Fn3
 BYTE   W12
 BYTE   PEND 
//  #02 //022   ----------------------------------------
 BYTE   W84
 BYTE   N11  Cs3
 BYTE   W12
//  #02 //023   ----------------------------------------
 BYTE   N20  Ds3
 BYTE   W24
 BYTE   N11  Fn3
 BYTE   W12
 BYTE   N20  Fs3
 BYTE   W24
 BYTE   N11
 BYTE   W12
 BYTE   Gs3
 BYTE   W12
 BYTE   N23  As3
 BYTE   W12
//  #02 //024   ----------------------------------------
 BYTE   W12
 BYTE   TIE  Gs3
 BYTE   W84
//  #02 //025   ----------------------------------------
 BYTE   W90
 BYTE   EOT
 BYTE   W06
//  #02 //026   ----------------------------------------
Label_01005ADE:
 BYTE   N20  Ds3  v127
 BYTE   N20  Fs3
 BYTE   W24
 BYTE   En3
 BYTE   N20  Gs3
 BYTE   W24
 BYTE   Ds3
 BYTE   N20  Fs3
 BYTE   W24
 BYTE   N11  En3
 BYTE   N11  Gs3
 BYTE   W12
 BYTE   N23  Ds3
 BYTE   N23  Fs3
 BYTE   W12
 BYTE   PEND 
//  #02 //027   ----------------------------------------
Label_01005AF7:
 BYTE   W12
 BYTE   N42  Bn2  v127
 BYTE   N42  Ds3
 BYTE   W48
 BYTE   N11  Bn2
 BYTE   N11  Ds3
 BYTE   W12
 BYTE   N20  Cs3
 BYTE   N20  En3
 BYTE   W24
 BYTE   PEND 
//  #02 //028   ----------------------------------------
Label_01005B09:
 BYTE   N20  Ds3  v127
 BYTE   N20  Fs3
 BYTE   W24
 BYTE   En3
 BYTE   N20  Gs3
 BYTE   W24
 BYTE   Ds3
 BYTE   N20  Fs3
 BYTE   W24
 BYTE   N11  Cs3
 BYTE   N11  En3
 BYTE   W12
 BYTE   TIE  Ds3
 BYTE   TIE  Fs3
 BYTE   W12
 BYTE   PEND 
//  #02 //029   ----------------------------------------
 BYTE   W90
 BYTE   EOT
 BYTE   Ds3  v066
 BYTE   W06
//  #02 //030   ----------------------------------------
 BYTE   PATT
  POIN2 Label_01005ADE
//  #02 //031   ----------------------------------------
Label_01005B2C:
 BYTE   W12
 BYTE   N42  Bn2  v127
 BYTE   N42  Ds3
 BYTE   W48
 BYTE   N11  Bn2
 BYTE   W12
 BYTE   N20  Cs3
 BYTE   W24
 BYTE   PEND 
//  #02 //032   ----------------------------------------
Label_01005B3A:
 BYTE   N20  Ds3  v127
 BYTE   W24
 BYTE   En3
 BYTE   W24
 BYTE   Fs3
 BYTE   W24
 BYTE   Gs3
 BYTE   W24
 BYTE   PEND 
//  #02 //033   ----------------------------------------
 BYTE   N90  Cs3
 BYTE   W96
//  #02 //034   ----------------------------------------
 BYTE   PATT
  POIN2 Label_01005ADE
//  #02 //035   ----------------------------------------
 BYTE   PATT
  POIN2 Label_01005AF7
//  #02 //036   ----------------------------------------
 BYTE   PATT
  POIN2 Label_01005B09
//  #02 //037   ----------------------------------------
 BYTE   W90
 BYTE   EOT
 BYTE   Ds3  v066
 BYTE   W06
//  #02 //038   ----------------------------------------
 BYTE   PATT
  POIN2 Label_01005ADE
//  #02 //039   ----------------------------------------
 BYTE   PATT
  POIN2 Label_01005B2C
//  #02 //040   ----------------------------------------
 BYTE   PATT
  POIN2 Label_01005B3A
//  #02 //041   ----------------------------------------
 BYTE   N90  Cs3  v127
 BYTE   W96
//  #02 //042   ----------------------------------------
 BYTE   W96
//  #02 //043   ----------------------------------------
 BYTE   W96
//  #02 //044   ----------------------------------------
 BYTE   W96
//  #02 //045   ----------------------------------------
 BYTE   W96
//  #02 //046   ----------------------------------------
 BYTE   W96
//  #02 //047   ----------------------------------------
 BYTE   W96
//  #02 //048   ----------------------------------------
 BYTE   W96
//  #02 //049   ----------------------------------------
 BYTE   W96
//  #02 //050   ----------------------------------------
 BYTE   PATT
  POIN2 Label_01005A44
//  #02 //051   ----------------------------------------
 BYTE   PATT
  POIN2 Label_01005A4C
//  #02 //052   ----------------------------------------
 BYTE   N11  En3  v127
 BYTE   W12
 BYTE   N11
 BYTE   W12
 BYTE   N11
 BYTE   W12
 BYTE   N20  Fs3
 BYTE   W24
 BYTE   N11
 BYTE   W12
 BYTE   N20
 BYTE   W24
//  #02 //053   ----------------------------------------
 BYTE   PATT
  POIN2 Label_01005A62
//  #02 //054   ----------------------------------------
 BYTE   PATT
  POIN2 Label_01005A6A
//  #02 //055   ----------------------------------------
 BYTE   PATT
  POIN2 Label_01005A77
//  #02 //056   ----------------------------------------
 BYTE   W84
 BYTE   N11  En3  v127
 BYTE   W12
//  #02 //057   ----------------------------------------
 BYTE   PATT
  POIN2 Label_01005A87
//  #02 //058   ----------------------------------------
 BYTE   PATT
  POIN2 Label_01005A98
//  #02 //059   ----------------------------------------
 BYTE   PATT
  POIN2 Label_01005A4C
//  #02 //060   ----------------------------------------
 BYTE   PATT
  POIN2 Label_01005A54
//  #02 //061   ----------------------------------------
 BYTE   PATT
  POIN2 Label_01005A62
//  #02 //062   ----------------------------------------
 BYTE   PATT
  POIN2 Label_01005A6A
//  #02 //063   ----------------------------------------
 BYTE   PATT
  POIN2 Label_01005AB6
//  #02 //064   ----------------------------------------
 BYTE   W84
 BYTE   N11  Cs3  v127
 BYTE   W12
//  #02 //065   ----------------------------------------
 BYTE   N20  Ds3
 BYTE   W24
 BYTE   N11  Fn3
 BYTE   W12
 BYTE   N20  Fs3
 BYTE   W24
 BYTE   N11
 BYTE   W12
 BYTE   Gs3
 BYTE   W12
 BYTE   N32  As3
 BYTE   W12
//  #02 //066   ----------------------------------------
 BYTE   W24
 BYTE   N11  Bn3
 BYTE   W12
 BYTE   N20  As3
 BYTE   W24
 BYTE   TIE  Gs3
 BYTE   W36
//  #02 //067   ----------------------------------------
 BYTE   W90
 BYTE   EOT
 BYTE   W06
//  #02 //068   ----------------------------------------
 BYTE   PATT
  POIN2 Label_01005ADE
//  #02 //069   ----------------------------------------
 BYTE   PATT
  POIN2 Label_01005AF7
//  #02 //070   ----------------------------------------
 BYTE   PATT
  POIN2 Label_01005B09
//  #02 //071   ----------------------------------------
 BYTE   W90
 BYTE   EOT
 BYTE   Ds3  v066
 BYTE   W06
//  #02 //072   ----------------------------------------
 BYTE   PATT
  POIN2 Label_01005ADE
//  #02 //073   ----------------------------------------
 BYTE   PATT
  POIN2 Label_01005B2C
//  #02 //074   ----------------------------------------
 BYTE   PATT
  POIN2 Label_01005B3A
//  #02 //075   ----------------------------------------
 BYTE   N90  Cs3  v127
 BYTE   W96
//  #02 //076   ----------------------------------------
 BYTE   PATT
  POIN2 Label_01005ADE
//  #02 //077   ----------------------------------------
 BYTE   PATT
  POIN2 Label_01005AF7
//  #02 //078   ----------------------------------------
 BYTE   PATT
  POIN2 Label_01005B09
//  #02 //079   ----------------------------------------
 BYTE   W90
 BYTE   EOT
 BYTE   Ds3  v066
 BYTE   W06
//  #02 //080   ----------------------------------------
 BYTE   PATT
  POIN2 Label_01005ADE
//  #02 //081   ----------------------------------------
 BYTE   PATT
  POIN2 Label_01005B2C
//  #02 //082   ----------------------------------------
 BYTE   PATT
  POIN2 Label_01005B3A
//  #02 //083   ----------------------------------------
 BYTE   N90  Cs3  v127
 BYTE   W92
 BYTE   W03
 BYTE   GoTo
  POIN2 Label_01005A32
 BYTE   FINE

//**************** Track 3 (Midi-Chn.2) ****************//

SonicRResortIsland_003:
//  #03 //000   ----------------------------------------
 BYTE   KEYSH   SonicRResortIsland_key+0
Label_01005812:
 BYTE   VOICE   4
 BYTE   MODT 0
 BYTE   LFOS 44
 BYTE   VOL   50*SonicRResortIsland_mvl/mxv
 BYTE   PAN   c_v+0
 BYTE   N90  Fn3  v100
 BYTE   N90  As3
 BYTE   N90  Cs4
 BYTE   W96
//  #03 //001   ----------------------------------------
 BYTE   En3
 BYTE   N90  An3
 BYTE   N90  Cs4
 BYTE   W96
//  #03 //002   ----------------------------------------
Label_0100582A:
 BYTE   N90  Ds3  v100
 BYTE   N90  Gs3
 BYTE   N90  Bn3
 BYTE   W96
 BYTE   PEND 
//  #03 //003   ----------------------------------------
Label_01005833:
 BYTE   N90  Fs3  v100
 BYTE   N90  Bn3
 BYTE   N90  Cs4
 BYTE   W96
 BYTE   PEND 
//  #03 //004   ----------------------------------------
Label_0100583C:
 BYTE   N90  Fn3  v100
 BYTE   N90  As3
 BYTE   N90  Cs4
 BYTE   W96
 BYTE   PEND 
//  #03 //005   ----------------------------------------
 BYTE   En3
 BYTE   N90  An3
 BYTE   N90  Cs4
 BYTE   W96
//  #03 //006   ----------------------------------------
 BYTE   N80  Ds3
 BYTE   N80  Gs3
 BYTE   N80  Bn3
 BYTE   W84
 BYTE   N11  Fs3
 BYTE   N11  Bn3
 BYTE   N11  Cs4
 BYTE   W12
//  #03 //007   ----------------------------------------
 BYTE   W24
 BYTE   N66  Fs3
 BYTE   N66  Bn3
 BYTE   N66  Cs4
 BYTE   W72
//  #03 //008   ----------------------------------------
 BYTE   W96
//  #03 //009   ----------------------------------------
 BYTE   W96
//  #03 //010   ----------------------------------------
 BYTE   W96
//  #03 //011   ----------------------------------------
 BYTE   W96
//  #03 //012   ----------------------------------------
 BYTE   W96
//  #03 //013   ----------------------------------------
 BYTE   W96
//  #03 //014   ----------------------------------------
 BYTE   W96
//  #03 //015   ----------------------------------------
 BYTE   W96
//  #03 //016   ----------------------------------------
 BYTE   W96
//  #03 //017   ----------------------------------------
 BYTE   PATT
  POIN2 Label_0100583C
//  #03 //018   ----------------------------------------
 BYTE   N90  En3  v100
 BYTE   N90  An3
 BYTE   N90  Cs4
 BYTE   W96
//  #03 //019   ----------------------------------------
 BYTE   PATT
  POIN2 Label_0100582A
//  #03 //020   ----------------------------------------
 BYTE   PATT
  POIN2 Label_01005833
//  #03 //021   ----------------------------------------
Label_01005881:
 BYTE   N90  Fn3  v127
 BYTE   N90  As3
 BYTE   N90  Cs4
 BYTE   W96
 BYTE   PEND 
//  #03 //022   ----------------------------------------
Label_0100588A:
 BYTE   N90  Fn3  v127
 BYTE   N90  Gs3
 BYTE   N90  Cs4
 BYTE   W96
 BYTE   PEND 
//  #03 //023   ----------------------------------------
Label_01005893:
 BYTE   N80  Fs3  v127
 BYTE   N80  As3
 BYTE   N80  Ds4
 BYTE   W84
 BYTE   N11  Gs3
 BYTE   N11  Cs4
 BYTE   N11  Fn4
 BYTE   W12
 BYTE   PEND 
//  #03 //024   ----------------------------------------
Label_010058A3:
 BYTE   W24
 BYTE   N66  Gs3  v127
 BYTE   N66  Cs4
 BYTE   N66  Fn4
 BYTE   W72
 BYTE   PEND 
//  #03 //025   ----------------------------------------
 BYTE   W96
//  #03 //026   ----------------------------------------
Label_010058AE:
 BYTE   N42  Bn2  v127
 BYTE   N42  En3
 BYTE   N42  Gs3
 BYTE   W48
 BYTE   N32  Cs3
 BYTE   N32  Fs3
 BYTE   N32  As3
 BYTE   W36
 BYTE   TIE  Ds3
 BYTE   TIE  Gs3
 BYTE   TIE  Bn3
 BYTE   W12
 BYTE   PEND 
//  #03 //027   ----------------------------------------
 BYTE   W90
 BYTE   EOT
 BYTE   Ds3  v068
 BYTE   Bn3
 BYTE   W06
//  #03 //028   ----------------------------------------
Label_010058CB:
 BYTE   N42  Bn2  v127
 BYTE   N42  En3
 BYTE   N42  Gs3
 BYTE   W48
 BYTE   N32  Cs3
 BYTE   N32  Fs3
 BYTE   N32  As3
 BYTE   W36
 BYTE   TIE  Cs3
 BYTE   TIE  Fs3
 BYTE   TIE  Bn3
 BYTE   W12
 BYTE   PEND 
//  #03 //029   ----------------------------------------
 BYTE   W90
 BYTE   EOT
 BYTE   Cs3  v066
 BYTE   Bn3
 BYTE   W06
//  #03 //030   ----------------------------------------
 BYTE   PATT
  POIN2 Label_010058AE
//  #03 //031   ----------------------------------------
 BYTE   W90
 BYTE   EOT
 BYTE   Ds3  v068
 BYTE   Bn3
 BYTE   W06
//  #03 //032   ----------------------------------------
Label_010058F3:
 BYTE   N80  Bn2  v127
 BYTE   N80  En3
 BYTE   N80  Gs3
 BYTE   W84
 BYTE   N68  Ds3
 BYTE   N68  Fs3
 BYTE   N68  As3
 BYTE   W12
 BYTE   PEND 
//  #03 //033   ----------------------------------------
Label_01005903:
 BYTE   W60
 BYTE   N32  Ds3  v127
 BYTE   N32  Fn3
 BYTE   N32  An3
 BYTE   W36
 BYTE   PEND 
//  #03 //034   ----------------------------------------
 BYTE   PATT
  POIN2 Label_010058AE
//  #03 //035   ----------------------------------------
 BYTE   W90
 BYTE   EOT
 BYTE   Ds3  v068
 BYTE   Bn3
 BYTE   W06
//  #03 //036   ----------------------------------------
 BYTE   PATT
  POIN2 Label_010058CB
//  #03 //037   ----------------------------------------
 BYTE   W90
 BYTE   EOT
 BYTE   Cs3  v066
 BYTE   Bn3
 BYTE   W06
//  #03 //038   ----------------------------------------
 BYTE   PATT
  POIN2 Label_010058AE
//  #03 //039   ----------------------------------------
 BYTE   W90
 BYTE   EOT
 BYTE   Ds3  v068
 BYTE   Bn3
 BYTE   W06
//  #03 //040   ----------------------------------------
Label_0100592E:
 BYTE   N42  Bn3  v127
 BYTE   N42  Ds4
 BYTE   N42  Fs4
 BYTE   W48
 BYTE   An3
 BYTE   N42  Cs4
 BYTE   N42  En4
 BYTE   W48
 BYTE   PEND 
//  #03 //041   ----------------------------------------
 BYTE   N90  An3
 BYTE   N90  Cs4
 BYTE   N90  En4
 BYTE   N90  An4
 BYTE   W96
//  #03 //042   ----------------------------------------
 BYTE   PATT
  POIN2 Label_01005881
//  #03 //043   ----------------------------------------
 BYTE   N90  En3  v127
 BYTE   N90  An3
 BYTE   N90  Cs4
 BYTE   W96
//  #03 //044   ----------------------------------------
Label_01005953:
 BYTE   N90  Ds3  v127
 BYTE   N90  Gs3
 BYTE   N90  Bn3
 BYTE   W96
 BYTE   PEND 
//  #03 //045   ----------------------------------------
Label_0100595C:
 BYTE   N90  Fs3  v127
 BYTE   N90  Bn3
 BYTE   N90  Cs4
 BYTE   W96
 BYTE   PEND 
//  #03 //046   ----------------------------------------
 BYTE   PATT
  POIN2 Label_01005881
//  #03 //047   ----------------------------------------
 BYTE   N90  En3  v127
 BYTE   N90  An3
 BYTE   N90  Cs4
 BYTE   W96
//  #03 //048   ----------------------------------------
 BYTE   N80  Ds3
 BYTE   N80  Gs3
 BYTE   N80  Bn3
 BYTE   W84
 BYTE   N11  Fs3
 BYTE   N11  Bn3
 BYTE   N11  Cs4
 BYTE   W12
//  #03 //049   ----------------------------------------
 BYTE   W24
 BYTE   N66  Fs3
 BYTE   N66  Bn3
 BYTE   N66  Cs4
 BYTE   W72
//  #03 //050   ----------------------------------------
 BYTE   W96
//  #03 //051   ----------------------------------------
 BYTE   W96
//  #03 //052   ----------------------------------------
 BYTE   W96
//  #03 //053   ----------------------------------------
 BYTE   W96
//  #03 //054   ----------------------------------------
 BYTE   W96
//  #03 //055   ----------------------------------------
 BYTE   W96
//  #03 //056   ----------------------------------------
 BYTE   W96
//  #03 //057   ----------------------------------------
 BYTE   W96
//  #03 //058   ----------------------------------------
 BYTE   W96
//  #03 //059   ----------------------------------------
 BYTE   PATT
  POIN2 Label_01005881
//  #03 //060   ----------------------------------------
 BYTE   N90  En3  v127
 BYTE   N90  An3
 BYTE   N90  Cs4
 BYTE   W96
//  #03 //061   ----------------------------------------
 BYTE   PATT
  POIN2 Label_01005953
//  #03 //062   ----------------------------------------
 BYTE   PATT
  POIN2 Label_0100595C
//  #03 //063   ----------------------------------------
 BYTE   PATT
  POIN2 Label_01005881
//  #03 //064   ----------------------------------------
 BYTE   PATT
  POIN2 Label_0100588A
//  #03 //065   ----------------------------------------
 BYTE   PATT
  POIN2 Label_01005893
//  #03 //066   ----------------------------------------
 BYTE   PATT
  POIN2 Label_010058A3
//  #03 //067   ----------------------------------------
 BYTE   W96
//  #03 //068   ----------------------------------------
 BYTE   PATT
  POIN2 Label_010058AE
//  #03 //069   ----------------------------------------
 BYTE   W90
 BYTE   EOT
 BYTE   Ds3  v068
 BYTE   Bn3
 BYTE   W06
//  #03 //070   ----------------------------------------
 BYTE   PATT
  POIN2 Label_010058CB
//  #03 //071   ----------------------------------------
 BYTE   W90
 BYTE   EOT
 BYTE   Cs3  v066
 BYTE   Bn3
 BYTE   W06
//  #03 //072   ----------------------------------------
 BYTE   PATT
  POIN2 Label_010058AE
//  #03 //073   ----------------------------------------
 BYTE   W90
 BYTE   EOT
 BYTE   Ds3  v068
 BYTE   Bn3
 BYTE   W06
//  #03 //074   ----------------------------------------
 BYTE   PATT
  POIN2 Label_010058F3
//  #03 //075   ----------------------------------------
 BYTE   PATT
  POIN2 Label_01005903
//  #03 //076   ----------------------------------------
 BYTE   PATT
  POIN2 Label_010058AE
//  #03 //077   ----------------------------------------
 BYTE   W90
 BYTE   EOT
 BYTE   Ds3  v068
 BYTE   Bn3
 BYTE   W06
//  #03 //078   ----------------------------------------
 BYTE   PATT
  POIN2 Label_010058CB
//  #03 //079   ----------------------------------------
 BYTE   W90
 BYTE   EOT
 BYTE   Cs3  v066
 BYTE   Bn3
 BYTE   W06
//  #03 //080   ----------------------------------------
 BYTE   PATT
  POIN2 Label_010058AE
//  #03 //081   ----------------------------------------
 BYTE   W90
 BYTE   EOT
 BYTE   Ds3  v068
 BYTE   Bn3
 BYTE   W06
//  #03 //082   ----------------------------------------
 BYTE   PATT
  POIN2 Label_0100592E
//  #03 //083   ----------------------------------------
 BYTE   N90  An3  v127
 BYTE   N90  Cs4
 BYTE   N90  En4
 BYTE   N90  An4
 BYTE   W92
 BYTE   W03
 BYTE   GoTo
  POIN2 Label_01005812
 BYTE   FINE

//**************** Track 4 (Midi-Chn.3) ****************//

SonicRResortIsland_004:
//  #04 //000   ----------------------------------------
 BYTE   KEYSH   SonicRResortIsland_key+0
Label_01005E86:
 BYTE   VOICE   0
 BYTE   MODT 0
 BYTE   LFOS 44
 BYTE   VOL   55*SonicRResortIsland_mvl/mxv
 BYTE   PAN   c_v+0
 BYTE   W96
//  #04 //001   ----------------------------------------
 BYTE   W96
//  #04 //002   ----------------------------------------
 BYTE   W96
//  #04 //003   ----------------------------------------
 BYTE   W96
//  #04 //004   ----------------------------------------
 BYTE   W96
//  #04 //005   ----------------------------------------
 BYTE   W96
//  #04 //006   ----------------------------------------
 BYTE   W96
//  #04 //007   ----------------------------------------
 BYTE   W96
//  #04 //008   ----------------------------------------
 BYTE   W96
//  #04 //009   ----------------------------------------
Label_01005E99:
 BYTE   N90  Fn3  v056
 BYTE   N90  As3
 BYTE   N90  Cs4
 BYTE   W96
 BYTE   PEND 
//  #04 //010   ----------------------------------------
 BYTE   En3
 BYTE   N90  An3
 BYTE   N90  Cs4
 BYTE   W96
//  #04 //011   ----------------------------------------
Label_01005EA8:
 BYTE   N90  Ds3  v056
 BYTE   N90  Gs3
 BYTE   N90  Bn3
 BYTE   W96
 BYTE   PEND 
//  #04 //012   ----------------------------------------
Label_01005EB1:
 BYTE   N90  Fs3  v056
 BYTE   N90  Bn3
 BYTE   N90  Cs4
 BYTE   W96
 BYTE   PEND 
//  #04 //013   ----------------------------------------
 BYTE   PATT
  POIN2 Label_01005E99
//  #04 //014   ----------------------------------------
 BYTE   N90  En3  v056
 BYTE   N90  An3
 BYTE   N90  Cs4
 BYTE   W96
//  #04 //015   ----------------------------------------
 BYTE   PATT
  POIN2 Label_01005EA8
//  #04 //016   ----------------------------------------
 BYTE   PATT
  POIN2 Label_01005EB1
//  #04 //017   ----------------------------------------
 BYTE   PATT
  POIN2 Label_01005E99
//  #04 //018   ----------------------------------------
 BYTE   N90  En3  v056
 BYTE   N90  An3
 BYTE   N90  Cs4
 BYTE   W96
//  #04 //019   ----------------------------------------
 BYTE   PATT
  POIN2 Label_01005EA8
//  #04 //020   ----------------------------------------
 BYTE   PATT
  POIN2 Label_01005EB1
//  #04 //021   ----------------------------------------
 BYTE   PATT
  POIN2 Label_01005E99
//  #04 //022   ----------------------------------------
Label_01005EED:
 BYTE   N90  Fn3  v056
 BYTE   N90  Gs3
 BYTE   N90  Cs4
 BYTE   W96
 BYTE   PEND 
//  #04 //023   ----------------------------------------
Label_01005EF6:
 BYTE   N80  Fs3  v056
 BYTE   N80  As3
 BYTE   N80  Ds4
 BYTE   W84
 BYTE   N11  Gs3
 BYTE   N11  Cs4
 BYTE   N11  Fn4
 BYTE   W12
 BYTE   PEND 
//  #04 //024   ----------------------------------------
Label_01005F06:
 BYTE   W24
 BYTE   N66  Gs3  v056
 BYTE   N66  Cs4
 BYTE   N66  Fn4
 BYTE   W72
 BYTE   PEND 
//  #04 //025   ----------------------------------------
 BYTE   W96
//  #04 //026   ----------------------------------------
Label_01005F11:
 BYTE   N42  Bn2  v056
 BYTE   N42  En3
 BYTE   N42  Gs3
 BYTE   W48
 BYTE   N32  Cs3
 BYTE   N32  Fs3
 BYTE   N32  As3
 BYTE   W36
 BYTE   TIE  Ds3
 BYTE   TIE  Gs3
 BYTE   TIE  Bn3
 BYTE   W12
 BYTE   PEND 
//  #04 //027   ----------------------------------------
 BYTE   W90
 BYTE   EOT
 BYTE   Ds3  v068
 BYTE   Bn3
 BYTE   W06
//  #04 //028   ----------------------------------------
Label_01005F2E:
 BYTE   N42  Bn2  v056
 BYTE   N42  En3
 BYTE   N42  Gs3
 BYTE   W48
 BYTE   N32  Cs3
 BYTE   N32  Fs3
 BYTE   N32  As3
 BYTE   W36
 BYTE   TIE  Cs3
 BYTE   TIE  Fs3
 BYTE   TIE  Bn3
 BYTE   W12
 BYTE   PEND 
//  #04 //029   ----------------------------------------
 BYTE   W90
 BYTE   EOT
 BYTE   Cs3  v066
 BYTE   Bn3
 BYTE   W06
//  #04 //030   ----------------------------------------
 BYTE   PATT
  POIN2 Label_01005F11
//  #04 //031   ----------------------------------------
 BYTE   W90
 BYTE   EOT
 BYTE   Ds3  v068
 BYTE   Bn3
 BYTE   W06
//  #04 //032   ----------------------------------------
Label_01005F56:
 BYTE   N80  Bn2  v056
 BYTE   N80  En3
 BYTE   N80  Gs3
 BYTE   W84
 BYTE   N68  Ds3
 BYTE   N68  Fs3
 BYTE   N68  As3
 BYTE   W12
 BYTE   PEND 
//  #04 //033   ----------------------------------------
Label_01005F66:
 BYTE   W60
 BYTE   N32  Ds3  v056
 BYTE   N32  Fn3
 BYTE   N32  An3
 BYTE   W36
 BYTE   PEND 
//  #04 //034   ----------------------------------------
 BYTE   PATT
  POIN2 Label_01005F11
//  #04 //035   ----------------------------------------
 BYTE   W90
 BYTE   EOT
 BYTE   Ds3  v068
 BYTE   Bn3
 BYTE   W06
//  #04 //036   ----------------------------------------
 BYTE   PATT
  POIN2 Label_01005F2E
//  #04 //037   ----------------------------------------
 BYTE   W90
 BYTE   EOT
 BYTE   Cs3  v066
 BYTE   Bn3
 BYTE   W06
//  #04 //038   ----------------------------------------
 BYTE   PATT
  POIN2 Label_01005F11
//  #04 //039   ----------------------------------------
 BYTE   W90
 BYTE   EOT
 BYTE   Ds3  v068
 BYTE   Bn3
 BYTE   W06
//  #04 //040   ----------------------------------------
Label_01005F91:
 BYTE   N42  Bn3  v056
 BYTE   N42  Ds4
 BYTE   N42  Fs4
 BYTE   W48
 BYTE   An3
 BYTE   N42  Cs4
 BYTE   N42  En4
 BYTE   W48
 BYTE   PEND 
//  #04 //041   ----------------------------------------
 BYTE   N90  An3
 BYTE   N90  Cs4
 BYTE   N90  En4
 BYTE   N90  An4
 BYTE   W96
//  #04 //042   ----------------------------------------
 BYTE   W96
//  #04 //043   ----------------------------------------
 BYTE   W96
//  #04 //044   ----------------------------------------
 BYTE   W96
//  #04 //045   ----------------------------------------
 BYTE   W96
//  #04 //046   ----------------------------------------
 BYTE   W96
//  #04 //047   ----------------------------------------
 BYTE   W96
//  #04 //048   ----------------------------------------
 BYTE   W96
//  #04 //049   ----------------------------------------
 BYTE   W96
//  #04 //050   ----------------------------------------
 BYTE   W96
//  #04 //051   ----------------------------------------
 BYTE   PATT
  POIN2 Label_01005E99
//  #04 //052   ----------------------------------------
 BYTE   N90  En3  v056
 BYTE   N90  An3
 BYTE   N90  Cs4
 BYTE   W96
//  #04 //053   ----------------------------------------
 BYTE   PATT
  POIN2 Label_01005EA8
//  #04 //054   ----------------------------------------
 BYTE   PATT
  POIN2 Label_01005EB1
//  #04 //055   ----------------------------------------
 BYTE   PATT
  POIN2 Label_01005E99
//  #04 //056   ----------------------------------------
 BYTE   N90  En3  v056
 BYTE   N90  An3
 BYTE   N90  Cs4
 BYTE   W96
//  #04 //057   ----------------------------------------
 BYTE   PATT
  POIN2 Label_01005EA8
//  #04 //058   ----------------------------------------
 BYTE   PATT
  POIN2 Label_01005EB1
//  #04 //059   ----------------------------------------
 BYTE   PATT
  POIN2 Label_01005E99
//  #04 //060   ----------------------------------------
 BYTE   N90  En3  v056
 BYTE   N90  An3
 BYTE   N90  Cs4
 BYTE   W96
//  #04 //061   ----------------------------------------
 BYTE   PATT
  POIN2 Label_01005EA8
//  #04 //062   ----------------------------------------
 BYTE   PATT
  POIN2 Label_01005EB1
//  #04 //063   ----------------------------------------
 BYTE   PATT
  POIN2 Label_01005E99
//  #04 //064   ----------------------------------------
 BYTE   PATT
  POIN2 Label_01005EED
//  #04 //065   ----------------------------------------
 BYTE   PATT
  POIN2 Label_01005EF6
//  #04 //066   ----------------------------------------
 BYTE   PATT
  POIN2 Label_01005F06
//  #04 //067   ----------------------------------------
 BYTE   W96
//  #04 //068   ----------------------------------------
 BYTE   PATT
  POIN2 Label_01005F11
//  #04 //069   ----------------------------------------
 BYTE   W90
 BYTE   EOT
 BYTE   Ds3  v068
 BYTE   Bn3
 BYTE   W06
//  #04 //070   ----------------------------------------
 BYTE   PATT
  POIN2 Label_01005F2E
//  #04 //071   ----------------------------------------
 BYTE   W90
 BYTE   EOT
 BYTE   Cs3  v066
 BYTE   Bn3
 BYTE   W06
//  #04 //072   ----------------------------------------
 BYTE   PATT
  POIN2 Label_01005F11
//  #04 //073   ----------------------------------------
 BYTE   W90
 BYTE   EOT
 BYTE   Ds3  v068
 BYTE   Bn3
 BYTE   W06
//  #04 //074   ----------------------------------------
 BYTE   PATT
  POIN2 Label_01005F56
//  #04 //075   ----------------------------------------
 BYTE   PATT
  POIN2 Label_01005F66
//  #04 //076   ----------------------------------------
 BYTE   PATT
  POIN2 Label_01005F11
//  #04 //077   ----------------------------------------
 BYTE   W90
 BYTE   EOT
 BYTE   Ds3  v068
 BYTE   Bn3
 BYTE   W06
//  #04 //078   ----------------------------------------
 BYTE   PATT
  POIN2 Label_01005F2E
//  #04 //079   ----------------------------------------
 BYTE   W90
 BYTE   EOT
 BYTE   Cs3  v066
 BYTE   Bn3
 BYTE   W06
//  #04 //080   ----------------------------------------
 BYTE   PATT
  POIN2 Label_01005F11
//  #04 //081   ----------------------------------------
 BYTE   W90
 BYTE   EOT
 BYTE   Ds3  v068
 BYTE   Bn3
 BYTE   W06
//  #04 //082   ----------------------------------------
 BYTE   PATT
  POIN2 Label_01005F91
//  #04 //083   ----------------------------------------
 BYTE   N90  An3  v056
 BYTE   N90  Cs4
 BYTE   N90  En4
 BYTE   N90  An4
 BYTE   W92
 BYTE   W03
 BYTE   GoTo
  POIN2 Label_01005E86
 BYTE   FINE

//**************** Track 5 (Midi-Chn.4) ****************//

SonicRResortIsland_005:
//  #05 //000   ----------------------------------------
 BYTE   KEYSH   SonicRResortIsland_key+0
Label_01006082:
 BYTE   VOICE   50
 BYTE   MODT 0
 BYTE   LFOS 44
 BYTE   VOL   55*SonicRResortIsland_mvl/mxv
 BYTE   PAN   c_v+0
 BYTE   VOL   55*SonicRResortIsland_mvl/mxv
 BYTE   W96
//  #05 //001   ----------------------------------------
 BYTE   W96
//  #05 //002   ----------------------------------------
 BYTE   W96
//  #05 //003   ----------------------------------------
 BYTE   W96
//  #05 //004   ----------------------------------------
 BYTE   W96
//  #05 //005   ----------------------------------------
 BYTE   W96
//  #05 //006   ----------------------------------------
 BYTE   W96
//  #05 //007   ----------------------------------------
Label_01006095:
 BYTE   W72
 BYTE   VOL   25*SonicRResortIsland_mvl/mxv
 BYTE   N05  Bn3  v100
 BYTE   N05  Ds4
 BYTE   W01
 BYTE   VOL   26*SonicRResortIsland_mvl/mxv
 BYTE   W01
 BYTE   VOL   26*SonicRResortIsland_mvl/mxv
 BYTE   W01
 BYTE   VOL   28*SonicRResortIsland_mvl/mxv
 BYTE   W01
 BYTE   VOL   29*SonicRResortIsland_mvl/mxv
 BYTE   W01
 BYTE   VOL   30*SonicRResortIsland_mvl/mxv
 BYTE   W01
 BYTE   VOL   32*SonicRResortIsland_mvl/mxv
 BYTE   N05  As3
 BYTE   N05  Cs4
 BYTE   W01
 BYTE   VOL   32*SonicRResortIsland_mvl/mxv
 BYTE   W01
 BYTE   VOL   34*SonicRResortIsland_mvl/mxv
 BYTE   W01
 BYTE   VOL   36*SonicRResortIsland_mvl/mxv
 BYTE   W01
 BYTE   VOL   36*SonicRResortIsland_mvl/mxv
 BYTE   W01
 BYTE   VOL   37*SonicRResortIsland_mvl/mxv
 BYTE   W01
 BYTE   VOL   39*SonicRResortIsland_mvl/mxv
 BYTE   N05  Fs3
 BYTE   N05  Bn3
 BYTE   W01
 BYTE   VOL   41*SonicRResortIsland_mvl/mxv
 BYTE   W01
 BYTE   VOL   41*SonicRResortIsland_mvl/mxv
 BYTE   W01
 BYTE   VOL   43*SonicRResortIsland_mvl/mxv
 BYTE   W01
 BYTE   VOL   44*SonicRResortIsland_mvl/mxv
 BYTE   W01
 BYTE   VOL   45*SonicRResortIsland_mvl/mxv
 BYTE   W01
 BYTE   VOL   48*SonicRResortIsland_mvl/mxv
 BYTE   N05  Ds3
 BYTE   N05  Gs3
 BYTE   W01
 BYTE   VOL   48*SonicRResortIsland_mvl/mxv
 BYTE   W01
 BYTE   VOL   49*SonicRResortIsland_mvl/mxv
 BYTE   W01
 BYTE   VOL   51*SonicRResortIsland_mvl/mxv
 BYTE   W01
 BYTE   VOL   53*SonicRResortIsland_mvl/mxv
 BYTE   W01
 BYTE   VOL   53*SonicRResortIsland_mvl/mxv
 BYTE   W01
 BYTE   PEND 
//  #05 //008   ----------------------------------------
Label_010060DD:
 BYTE   VOL   53*SonicRResortIsland_mvl/mxv
 BYTE   N90  Fn3  v100
 BYTE   N90  Gs3
 BYTE   N90  Cs4
 BYTE   N90  Fn4
 BYTE   W01
 BYTE   VOL   53*SonicRResortIsland_mvl/mxv
 BYTE   W01
 BYTE   VOL   51*SonicRResortIsland_mvl/mxv
 BYTE   W01
 BYTE   VOL   50*SonicRResortIsland_mvl/mxv
 BYTE   W01
 BYTE   VOL   49*SonicRResortIsland_mvl/mxv
 BYTE   W01
 BYTE   VOL   48*SonicRResortIsland_mvl/mxv
 BYTE   W01
 BYTE   VOL   48*SonicRResortIsland_mvl/mxv
 BYTE   W01
 BYTE   VOL   46*SonicRResortIsland_mvl/mxv
 BYTE   W01
 BYTE   VOL   45*SonicRResortIsland_mvl/mxv
 BYTE   W01
 BYTE   VOL   44*SonicRResortIsland_mvl/mxv
 BYTE   W01
 BYTE   VOL   43*SonicRResortIsland_mvl/mxv
 BYTE   W01
 BYTE   VOL   43*SonicRResortIsland_mvl/mxv
 BYTE   W01
 BYTE   VOL   41*SonicRResortIsland_mvl/mxv
 BYTE   W01
 BYTE   VOL   41*SonicRResortIsland_mvl/mxv
 BYTE   W01
 BYTE   VOL   39*SonicRResortIsland_mvl/mxv
 BYTE   W01
 BYTE   VOL   38*SonicRResortIsland_mvl/mxv
 BYTE   W01
 BYTE   VOL   37*SonicRResortIsland_mvl/mxv
 BYTE   W01
 BYTE   VOL   36*SonicRResortIsland_mvl/mxv
 BYTE   W01
 BYTE   VOL   34*SonicRResortIsland_mvl/mxv
 BYTE   W01
 BYTE   VOL   34*SonicRResortIsland_mvl/mxv
 BYTE   W01
 BYTE   VOL   32*SonicRResortIsland_mvl/mxv
 BYTE   W01
 BYTE   VOL   32*SonicRResortIsland_mvl/mxv
 BYTE   W01
 BYTE   VOL   31*SonicRResortIsland_mvl/mxv
 BYTE   W01
 BYTE   VOL   30*SonicRResortIsland_mvl/mxv
 BYTE   W01
 BYTE   VOL   29*SonicRResortIsland_mvl/mxv
 BYTE   W01
 BYTE   VOL   28*SonicRResortIsland_mvl/mxv
 BYTE   W01
 BYTE   VOL   27*SonicRResortIsland_mvl/mxv
 BYTE   W01
 BYTE   VOL   26*SonicRResortIsland_mvl/mxv
 BYTE   W01
 BYTE   VOL   26*SonicRResortIsland_mvl/mxv
 BYTE   W01
 BYTE   VOL   25*SonicRResortIsland_mvl/mxv
 BYTE   W01
 BYTE   VOL   24*SonicRResortIsland_mvl/mxv
 BYTE   W01
 BYTE   VOL   23*SonicRResortIsland_mvl/mxv
 BYTE   W01
 BYTE   VOL   22*SonicRResortIsland_mvl/mxv
 BYTE   W01
 BYTE   VOL   21*SonicRResortIsland_mvl/mxv
 BYTE   W01
 BYTE   VOL   20*SonicRResortIsland_mvl/mxv
 BYTE   W01
 BYTE   VOL   19*SonicRResortIsland_mvl/mxv
 BYTE   W01
 BYTE   VOL   18*SonicRResortIsland_mvl/mxv
 BYTE   W01
 BYTE   VOL   17*SonicRResortIsland_mvl/mxv
 BYTE   W01
 BYTE   VOL   16*SonicRResortIsland_mvl/mxv
 BYTE   W01
 BYTE   VOL   15*SonicRResortIsland_mvl/mxv
 BYTE   W01
 BYTE   VOL   15*SonicRResortIsland_mvl/mxv
 BYTE   W01
 BYTE   VOL   14*SonicRResortIsland_mvl/mxv
 BYTE   W01
 BYTE   VOL   13*SonicRResortIsland_mvl/mxv
 BYTE   W01
 BYTE   VOL   12*SonicRResortIsland_mvl/mxv
 BYTE   W01
 BYTE   VOL   12*SonicRResortIsland_mvl/mxv
 BYTE   W01
 BYTE   VOL   11*SonicRResortIsland_mvl/mxv
 BYTE   W01
 BYTE   VOL   10*SonicRResortIsland_mvl/mxv
 BYTE   W01
 BYTE   VOL   9*SonicRResortIsland_mvl/mxv
 BYTE   W01
 BYTE   VOL   9*SonicRResortIsland_mvl/mxv
 BYTE   W01
 BYTE   VOL   8*SonicRResortIsland_mvl/mxv
 BYTE   W01
 BYTE   VOL   7*SonicRResortIsland_mvl/mxv
 BYTE   W01
 BYTE   VOL   5*SonicRResortIsland_mvl/mxv
 BYTE   W01
 BYTE   VOL   5*SonicRResortIsland_mvl/mxv
 BYTE   W01
 BYTE   VOL   4*SonicRResortIsland_mvl/mxv
 BYTE   W01
 BYTE   VOL   3*SonicRResortIsland_mvl/mxv
 BYTE   W01
 BYTE   VOL   3*SonicRResortIsland_mvl/mxv
 BYTE   W01
 BYTE   VOL   2*SonicRResortIsland_mvl/mxv
 BYTE   W01
 BYTE   VOL   2*SonicRResortIsland_mvl/mxv
 BYTE   W01
 BYTE   VOL   1*SonicRResortIsland_mvl/mxv
 BYTE   W01
 BYTE   VOL   0*SonicRResortIsland_mvl/mxv
 BYTE   W01
 BYTE   VOL   0*SonicRResortIsland_mvl/mxv
 BYTE   W01
 BYTE   VOL   0*SonicRResortIsland_mvl/mxv
 BYTE   W01
 BYTE   VOL   0*SonicRResortIsland_mvl/mxv
 BYTE   W01
 BYTE   VOL   0*SonicRResortIsland_mvl/mxv
 BYTE   W01
 BYTE   VOL   0*SonicRResortIsland_mvl/mxv
 BYTE   W01
 BYTE   VOL   0*SonicRResortIsland_mvl/mxv
 BYTE   W01
 BYTE   VOL   0*SonicRResortIsland_mvl/mxv
 BYTE   W01
 BYTE   VOL   0*SonicRResortIsland_mvl/mxv
 BYTE   W01
 BYTE   VOL   0*SonicRResortIsland_mvl/mxv
 BYTE   W01
 BYTE   VOL   0*SonicRResortIsland_mvl/mxv
 BYTE   W01
 BYTE   VOL   0*SonicRResortIsland_mvl/mxv
 BYTE   W01
 BYTE   VOL   0*SonicRResortIsland_mvl/mxv
 BYTE   W01
 BYTE   VOL   0*SonicRResortIsland_mvl/mxv
 BYTE   W01
 BYTE   VOL   0*SonicRResortIsland_mvl/mxv
 BYTE   W01
 BYTE   VOL   0*SonicRResortIsland_mvl/mxv
 BYTE   W01
 BYTE   VOL   0*SonicRResortIsland_mvl/mxv
 BYTE   W01
 BYTE   VOL   0*SonicRResortIsland_mvl/mxv
 BYTE   W01
 BYTE   VOL   0*SonicRResortIsland_mvl/mxv
 BYTE   W01
 BYTE   VOL   0*SonicRResortIsland_mvl/mxv
 BYTE   W01
 BYTE   VOL   0*SonicRResortIsland_mvl/mxv
 BYTE   W01
 BYTE   VOL   0*SonicRResortIsland_mvl/mxv
 BYTE   W01
 BYTE   VOL   0*SonicRResortIsland_mvl/mxv
 BYTE   W01
 BYTE   VOL   0*SonicRResortIsland_mvl/mxv
 BYTE   W01
 BYTE   VOL   0*SonicRResortIsland_mvl/mxv
 BYTE   W01
 BYTE   VOL   0*SonicRResortIsland_mvl/mxv
 BYTE   W01
 BYTE   VOL   0*SonicRResortIsland_mvl/mxv
 BYTE   W01
 BYTE   VOL   0*SonicRResortIsland_mvl/mxv
 BYTE   W01
 BYTE   VOL   0*SonicRResortIsland_mvl/mxv
 BYTE   W01
 BYTE   VOL   0*SonicRResortIsland_mvl/mxv
 BYTE   W01
 BYTE   VOL   0*SonicRResortIsland_mvl/mxv
 BYTE   W01
 BYTE   VOL   0*SonicRResortIsland_mvl/mxv
 BYTE   W01
 BYTE   VOL   0*SonicRResortIsland_mvl/mxv
 BYTE   W01
 BYTE   VOL   0*SonicRResortIsland_mvl/mxv
 BYTE   W01
 BYTE   VOL   0*SonicRResortIsland_mvl/mxv
 BYTE   W01
 BYTE   VOL   0*SonicRResortIsland_mvl/mxv
 BYTE   W01
 BYTE   VOL   0*SonicRResortIsland_mvl/mxv
 BYTE   W01
 BYTE   PEND 
//  #05 //009   ----------------------------------------
Label_010061A9:
 BYTE   VOL   0*SonicRResortIsland_mvl/mxv
 BYTE   W01
 BYTE   VOL   0*SonicRResortIsland_mvl/mxv
 BYTE   W01
 BYTE   VOL   0*SonicRResortIsland_mvl/mxv
 BYTE   W01
 BYTE   VOL   0*SonicRResortIsland_mvl/mxv
 BYTE   W01
 BYTE   VOL   0*SonicRResortIsland_mvl/mxv
 BYTE   W01
 BYTE   VOL   0*SonicRResortIsland_mvl/mxv
 BYTE   W01
 BYTE   VOL   0*SonicRResortIsland_mvl/mxv
 BYTE   W01
 BYTE   VOL   0*SonicRResortIsland_mvl/mxv
 BYTE   W01
 BYTE   VOL   0*SonicRResortIsland_mvl/mxv
 BYTE   W01
 BYTE   VOL   0*SonicRResortIsland_mvl/mxv
 BYTE   W01
 BYTE   VOL   0*SonicRResortIsland_mvl/mxv
 BYTE   W01
 BYTE   VOL   0*SonicRResortIsland_mvl/mxv
 BYTE   W01
 BYTE   VOL   0*SonicRResortIsland_mvl/mxv
 BYTE   W01
 BYTE   VOL   0*SonicRResortIsland_mvl/mxv
 BYTE   W01
 BYTE   VOL   0*SonicRResortIsland_mvl/mxv
 BYTE   W01
 BYTE   VOL   0*SonicRResortIsland_mvl/mxv
 BYTE   W01
 BYTE   VOL   0*SonicRResortIsland_mvl/mxv
 BYTE   W01
 BYTE   VOL   0*SonicRResortIsland_mvl/mxv
 BYTE   W01
 BYTE   VOL   0*SonicRResortIsland_mvl/mxv
 BYTE   W01
 BYTE   VOL   0*SonicRResortIsland_mvl/mxv
 BYTE   W01
 BYTE   VOL   0*SonicRResortIsland_mvl/mxv
 BYTE   W01
 BYTE   VOL   0*SonicRResortIsland_mvl/mxv
 BYTE   W01
 BYTE   VOL   0*SonicRResortIsland_mvl/mxv
 BYTE   W01
 BYTE   VOL   0*SonicRResortIsland_mvl/mxv
 BYTE   W01
 BYTE   VOL   0*SonicRResortIsland_mvl/mxv
 BYTE   W01
 BYTE   VOL   0*SonicRResortIsland_mvl/mxv
 BYTE   W01
 BYTE   VOL   0*SonicRResortIsland_mvl/mxv
 BYTE   W01
 BYTE   VOL   0*SonicRResortIsland_mvl/mxv
 BYTE   W01
 BYTE   VOL   0*SonicRResortIsland_mvl/mxv
 BYTE   W01
 BYTE   VOL   0*SonicRResortIsland_mvl/mxv
 BYTE   W01
 BYTE   VOL   0*SonicRResortIsland_mvl/mxv
 BYTE   W01
 BYTE   VOL   0*SonicRResortIsland_mvl/mxv
 BYTE   W02
 BYTE   VOL   0*SonicRResortIsland_mvl/mxv
 BYTE   W01
 BYTE   VOL   0*SonicRResortIsland_mvl/mxv
 BYTE   W01
 BYTE   VOL   0*SonicRResortIsland_mvl/mxv
 BYTE   W01
 BYTE   VOL   0*SonicRResortIsland_mvl/mxv
 BYTE   W01
 BYTE   VOL   0*SonicRResortIsland_mvl/mxv
 BYTE   W01
 BYTE   VOL   0*SonicRResortIsland_mvl/mxv
 BYTE   W01
 BYTE   VOL   0*SonicRResortIsland_mvl/mxv
 BYTE   W01
 BYTE   VOL   0*SonicRResortIsland_mvl/mxv
 BYTE   W02
 BYTE   VOL   0*SonicRResortIsland_mvl/mxv
 BYTE   W01
 BYTE   VOL   0*SonicRResortIsland_mvl/mxv
 BYTE   W01
 BYTE   VOL   0*SonicRResortIsland_mvl/mxv
 BYTE   W01
 BYTE   VOL   0*SonicRResortIsland_mvl/mxv
 BYTE   W01
 BYTE   VOL   0*SonicRResortIsland_mvl/mxv
 BYTE   W01
 BYTE   VOL   0*SonicRResortIsland_mvl/mxv
 BYTE   W01
 BYTE   VOL   0*SonicRResortIsland_mvl/mxv
 BYTE   W01
 BYTE   VOL   0*SonicRResortIsland_mvl/mxv
 BYTE   W02
 BYTE   VOL   0*SonicRResortIsland_mvl/mxv
 BYTE   W01
 BYTE   VOL   0*SonicRResortIsland_mvl/mxv
 BYTE   W01
 BYTE   VOL   0*SonicRResortIsland_mvl/mxv
 BYTE   W01
 BYTE   VOL   0*SonicRResortIsland_mvl/mxv
 BYTE   W01
 BYTE   VOL   0*SonicRResortIsland_mvl/mxv
 BYTE   W01
 BYTE   VOL   0*SonicRResortIsland_mvl/mxv
 BYTE   W01
 BYTE   VOL   0*SonicRResortIsland_mvl/mxv
 BYTE   W01
 BYTE   VOL   0*SonicRResortIsland_mvl/mxv
 BYTE   W02
 BYTE   VOL   0*SonicRResortIsland_mvl/mxv
 BYTE   W01
 BYTE   VOL   0*SonicRResortIsland_mvl/mxv
 BYTE   W01
 BYTE   VOL   0*SonicRResortIsland_mvl/mxv
 BYTE   W01
 BYTE   VOL   0*SonicRResortIsland_mvl/mxv
 BYTE   W01
 BYTE   VOL   0*SonicRResortIsland_mvl/mxv
 BYTE   W01
 BYTE   VOL   0*SonicRResortIsland_mvl/mxv
 BYTE   W01
 BYTE   VOL   0*SonicRResortIsland_mvl/mxv
 BYTE   W01
 BYTE   VOL   0*SonicRResortIsland_mvl/mxv
 BYTE   W02
 BYTE   VOL   0*SonicRResortIsland_mvl/mxv
 BYTE   W01
 BYTE   VOL   0*SonicRResortIsland_mvl/mxv
 BYTE   W01
 BYTE   VOL   0*SonicRResortIsland_mvl/mxv
 BYTE   W01
 BYTE   VOL   0*SonicRResortIsland_mvl/mxv
 BYTE   W01
 BYTE   VOL   0*SonicRResortIsland_mvl/mxv
 BYTE   W01
 BYTE   VOL   0*SonicRResortIsland_mvl/mxv
 BYTE   W01
 BYTE   VOL   0*SonicRResortIsland_mvl/mxv
 BYTE   W01
 BYTE   VOL   0*SonicRResortIsland_mvl/mxv
 BYTE   W02
 BYTE   VOL   0*SonicRResortIsland_mvl/mxv
 BYTE   W01
 BYTE   VOL   0*SonicRResortIsland_mvl/mxv
 BYTE   W01
 BYTE   VOL   0*SonicRResortIsland_mvl/mxv
 BYTE   W01
 BYTE   VOL   0*SonicRResortIsland_mvl/mxv
 BYTE   W01
 BYTE   VOL   0*SonicRResortIsland_mvl/mxv
 BYTE   W01
 BYTE   VOL   0*SonicRResortIsland_mvl/mxv
 BYTE   W01
 BYTE   VOL   0*SonicRResortIsland_mvl/mxv
 BYTE   W01
 BYTE   VOL   0*SonicRResortIsland_mvl/mxv
 BYTE   W02
 BYTE   VOL   0*SonicRResortIsland_mvl/mxv
 BYTE   W01
 BYTE   VOL   0*SonicRResortIsland_mvl/mxv
 BYTE   W01
 BYTE   VOL   0*SonicRResortIsland_mvl/mxv
 BYTE   W01
 BYTE   VOL   0*SonicRResortIsland_mvl/mxv
 BYTE   W01
 BYTE   VOL   0*SonicRResortIsland_mvl/mxv
 BYTE   W01
 BYTE   VOL   0*SonicRResortIsland_mvl/mxv
 BYTE   W01
 BYTE   VOL   0*SonicRResortIsland_mvl/mxv
 BYTE   W01
 BYTE   VOL   0*SonicRResortIsland_mvl/mxv
 BYTE   W02
 BYTE   PEND 
//  #05 //010   ----------------------------------------
 BYTE   Cs0
 BYTE   W96
//  #05 //011   ----------------------------------------
 BYTE   W96
//  #05 //012   ----------------------------------------
 BYTE   W96
//  #05 //013   ----------------------------------------
 BYTE   W96
//  #05 //014   ----------------------------------------
 BYTE   W96
//  #05 //015   ----------------------------------------
 BYTE   W96
//  #05 //016   ----------------------------------------
 BYTE   W96
//  #05 //017   ----------------------------------------
 BYTE   W96
//  #05 //018   ----------------------------------------
 BYTE   W96
//  #05 //019   ----------------------------------------
 BYTE   W96
//  #05 //020   ----------------------------------------
 BYTE   W96
//  #05 //021   ----------------------------------------
 BYTE   W96
//  #05 //022   ----------------------------------------
 BYTE   W96
//  #05 //023   ----------------------------------------
 BYTE   W96
//  #05 //024   ----------------------------------------
 BYTE   W96
//  #05 //025   ----------------------------------------
Label_0100626B:
 BYTE   W48
 BYTE   N02  Fs2  v100
 BYTE   N02  Bn2
 BYTE   W03
 BYTE   Gs2
 BYTE   N02  Cs3
 BYTE   W03
 BYTE   An2
 BYTE   N02  Ds3
 BYTE   W03
 BYTE   As2
 BYTE   N02  En3
 BYTE   W03
 BYTE   Bn2
 BYTE   N02  Fs3
 BYTE   W03
 BYTE   Cs3
 BYTE   N02  Gs3
 BYTE   W03
 BYTE   Ds3
 BYTE   N02  An3
 BYTE   W03
 BYTE   En3
 BYTE   N02  As3
 BYTE   W03
 BYTE   Fs3
 BYTE   N02  Bn3
 BYTE   W03
 BYTE   Gs3
 BYTE   N02  Cs4
 BYTE   W03
 BYTE   An3
 BYTE   N02  Ds4
 BYTE   W03
 BYTE   As3
 BYTE   N02  En4
 BYTE   W03
 BYTE   Bn3
 BYTE   N02  Fs4
 BYTE   W03
 BYTE   Cs4
 BYTE   N02  Gs4
 BYTE   W03
 BYTE   Ds4
 BYTE   N02  An4
 BYTE   W03
 BYTE   En4
 BYTE   N02  As4
 BYTE   W03
 BYTE   PEND 
//  #05 //026   ----------------------------------------
Label_010062AF:
 BYTE   N90  Fs3  v100
 BYTE   N90  Bn3
 BYTE   N90  Fs4
 BYTE   N90  Bn4
 BYTE   W96
 BYTE   PEND 
//  #05 //027   ----------------------------------------
 BYTE   W96
//  #05 //028   ----------------------------------------
 BYTE   W96
//  #05 //029   ----------------------------------------
 BYTE   W96
//  #05 //030   ----------------------------------------
 BYTE   W96
//  #05 //031   ----------------------------------------
 BYTE   W96
//  #05 //032   ----------------------------------------
 BYTE   W96
//  #05 //033   ----------------------------------------
 BYTE   W96
//  #05 //034   ----------------------------------------
 BYTE   W96
//  #05 //035   ----------------------------------------
 BYTE   W96
//  #05 //036   ----------------------------------------
 BYTE   W96
//  #05 //037   ----------------------------------------
 BYTE   W96
//  #05 //038   ----------------------------------------
 BYTE   W96
//  #05 //039   ----------------------------------------
 BYTE   W96
//  #05 //040   ----------------------------------------
 BYTE   W96
//  #05 //041   ----------------------------------------
 BYTE   W96
//  #05 //042   ----------------------------------------
 BYTE   W96
//  #05 //043   ----------------------------------------
 BYTE   W96
//  #05 //044   ----------------------------------------
 BYTE   W96
//  #05 //045   ----------------------------------------
 BYTE   W96
//  #05 //046   ----------------------------------------
 BYTE   W96
//  #05 //047   ----------------------------------------
 BYTE   W96
//  #05 //048   ----------------------------------------
 BYTE   W96
//  #05 //049   ----------------------------------------
 BYTE   PATT
  POIN2 Label_01006095
//  #05 //050   ----------------------------------------
 BYTE   PATT
  POIN2 Label_010060DD
//  #05 //051   ----------------------------------------
 BYTE   PATT
  POIN2 Label_010061A9
//  #05 //052   ----------------------------------------
 BYTE   VOL   0*SonicRResortIsland_mvl/mxv
 BYTE   W96
//  #05 //053   ----------------------------------------
 BYTE   W96
//  #05 //054   ----------------------------------------
 BYTE   W96
//  #05 //055   ----------------------------------------
 BYTE   W96
//  #05 //056   ----------------------------------------
 BYTE   W96
//  #05 //057   ----------------------------------------
 BYTE   W96
//  #05 //058   ----------------------------------------
 BYTE   W96
//  #05 //059   ----------------------------------------
 BYTE   W96
//  #05 //060   ----------------------------------------
 BYTE   W96
//  #05 //061   ----------------------------------------
 BYTE   W96
//  #05 //062   ----------------------------------------
 BYTE   W96
//  #05 //063   ----------------------------------------
 BYTE   W96
//  #05 //064   ----------------------------------------
 BYTE   W96
//  #05 //065   ----------------------------------------
 BYTE   W96
//  #05 //066   ----------------------------------------
 BYTE   W96
//  #05 //067   ----------------------------------------
 BYTE   PATT
  POIN2 Label_0100626B
//  #05 //068   ----------------------------------------
 BYTE   PATT
  POIN2 Label_010062AF
//  #05 //069   ----------------------------------------
 BYTE   W96
//  #05 //070   ----------------------------------------
 BYTE   W96
//  #05 //071   ----------------------------------------
 BYTE   W96
//  #05 //072   ----------------------------------------
 BYTE   W96
//  #05 //073   ----------------------------------------
 BYTE   W96
//  #05 //074   ----------------------------------------
 BYTE   W96
//  #05 //075   ----------------------------------------
 BYTE   W96
//  #05 //076   ----------------------------------------
 BYTE   W96
//  #05 //077   ----------------------------------------
 BYTE   W96
//  #05 //078   ----------------------------------------
 BYTE   W96
//  #05 //079   ----------------------------------------
 BYTE   W96
//  #05 //080   ----------------------------------------
 BYTE   W96
//  #05 //081   ----------------------------------------
 BYTE   W96
//  #05 //082   ----------------------------------------
 BYTE   W96
//  #05 //083   ----------------------------------------
 BYTE   W92
 BYTE   W03
 BYTE   GoTo
  POIN2 Label_01006082
 BYTE   FINE

//**************** Track 6 (Midi-Chn.5) ****************//

SonicRResortIsland_006:
//  #06 //000   ----------------------------------------
 BYTE   KEYSH   SonicRResortIsland_key+0
Label_010065CA:
 BYTE   VOICE   38
 BYTE   MODT 0
 BYTE   LFOS 44
 BYTE   VOL   75*SonicRResortIsland_mvl/mxv
 BYTE   PAN   c_v+0
 BYTE   W96
//  #06 //001   ----------------------------------------
 BYTE   W96
//  #06 //002   ----------------------------------------
 BYTE   W96
//  #06 //003   ----------------------------------------
 BYTE   W96
//  #06 //004   ----------------------------------------
 BYTE   W96
//  #06 //005   ----------------------------------------
 BYTE   W96
//  #06 //006   ----------------------------------------
 BYTE   W96
//  #06 //007   ----------------------------------------
 BYTE   W96
//  #06 //008   ----------------------------------------
 BYTE   W96
//  #06 //009   ----------------------------------------
Label_010065DD:
 BYTE   N20  Fs2  v100
 BYTE   W24
 BYTE   N17
 BYTE   W18
 BYTE   N17
 BYTE   W18
 BYTE   N20
 BYTE   W24
 BYTE   N11  Cs2
 BYTE   W12
 BYTE   PEND 
//  #06 //010   ----------------------------------------
Label_010065EB:
 BYTE   N20  Bn1  v100
 BYTE   W24
 BYTE   N17
 BYTE   W18
 BYTE   N17
 BYTE   W18
 BYTE   N20
 BYTE   W24
 BYTE   N11  Ds2
 BYTE   W12
 BYTE   PEND 
//  #06 //011   ----------------------------------------
Label_010065F9:
 BYTE   N20  En2  v100
 BYTE   W24
 BYTE   N17
 BYTE   W18
 BYTE   N17
 BYTE   W18
 BYTE   N20
 BYTE   W24
 BYTE   N11
 BYTE   W12
 BYTE   PEND 
//  #06 //012   ----------------------------------------
Label_01006606:
 BYTE   N20  Cs2  v100
 BYTE   W24
 BYTE   N17
 BYTE   W18
 BYTE   N17
 BYTE   W18
 BYTE   N20
 BYTE   W24
 BYTE   N11
 BYTE   W12
 BYTE   PEND 
//  #06 //013   ----------------------------------------
 BYTE   PATT
  POIN2 Label_010065DD
//  #06 //014   ----------------------------------------
 BYTE   PATT
  POIN2 Label_010065EB
//  #06 //015   ----------------------------------------
 BYTE   PATT
  POIN2 Label_010065F9
//  #06 //016   ----------------------------------------
 BYTE   PATT
  POIN2 Label_01006606
//  #06 //017   ----------------------------------------
 BYTE   PATT
  POIN2 Label_010065DD
//  #06 //018   ----------------------------------------
 BYTE   PATT
  POIN2 Label_010065EB
//  #06 //019   ----------------------------------------
 BYTE   PATT
  POIN2 Label_010065F9
//  #06 //020   ----------------------------------------
 BYTE   PATT
  POIN2 Label_01006606
//  #06 //021   ----------------------------------------
Label_0100663B:
 BYTE   N20  Fs2  v100
 BYTE   W24
 BYTE   N17
 BYTE   W18
 BYTE   N17
 BYTE   W18
 BYTE   N20
 BYTE   W24
 BYTE   N11  Gs2
 BYTE   W12
 BYTE   PEND 
//  #06 //022   ----------------------------------------
Label_01006649:
 BYTE   N20  As2  v100
 BYTE   W24
 BYTE   N17
 BYTE   W18
 BYTE   N17
 BYTE   W18
 BYTE   N20
 BYTE   W24
 BYTE   N11
 BYTE   W12
 BYTE   PEND 
//  #06 //023   ----------------------------------------
Label_01006656:
 BYTE   N20  Bn1  v100
 BYTE   W24
 BYTE   N17
 BYTE   W18
 BYTE   N17
 BYTE   W18
 BYTE   N20
 BYTE   W24
 BYTE   N11
 BYTE   W12
 BYTE   PEND 
//  #06 //024   ----------------------------------------
 BYTE   PATT
  POIN2 Label_01006606
//  #06 //025   ----------------------------------------
Label_01006668:
 BYTE   N20  Cs2  v100
 BYTE   W24
 BYTE   N17
 BYTE   W18
 BYTE   N17
 BYTE   W18
 BYTE   N20  Cn2
 BYTE   W24
 BYTE   N11
 BYTE   W12
 BYTE   PEND 
//  #06 //026   ----------------------------------------
Label_01006676:
 BYTE   N11  En2  v100
 BYTE   W12
 BYTE   N05
 BYTE   W06
 BYTE   N05
 BYTE   W06
 BYTE   N11
 BYTE   W12
 BYTE   N05
 BYTE   W06
 BYTE   N05
 BYTE   W06
 BYTE   N11  Fs2
 BYTE   W12
 BYTE   N05
 BYTE   W06
 BYTE   N05
 BYTE   W06
 BYTE   N11
 BYTE   W12
 BYTE   N05  Gs2
 BYTE   W06
 BYTE   N05
 BYTE   W06
 BYTE   PEND 
//  #06 //027   ----------------------------------------
Label_01006693:
 BYTE   N11  Gs2  v100
 BYTE   W12
 BYTE   N05
 BYTE   W06
 BYTE   N05
 BYTE   W06
 BYTE   N11
 BYTE   W12
 BYTE   N05
 BYTE   W06
 BYTE   N05
 BYTE   W06
 BYTE   N11
 BYTE   W12
 BYTE   N05
 BYTE   W06
 BYTE   N05
 BYTE   W06
 BYTE   N11
 BYTE   W12
 BYTE   N05
 BYTE   W06
 BYTE   N05
 BYTE   W06
 BYTE   PEND 
//  #06 //028   ----------------------------------------
Label_010066AE:
 BYTE   N11  En2  v100
 BYTE   W12
 BYTE   N05
 BYTE   W06
 BYTE   N05
 BYTE   W06
 BYTE   N11
 BYTE   W12
 BYTE   N05
 BYTE   W06
 BYTE   N05
 BYTE   W06
 BYTE   N11  Fs2
 BYTE   W12
 BYTE   N05
 BYTE   W06
 BYTE   N05
 BYTE   W06
 BYTE   N11
 BYTE   W12
 BYTE   N05
 BYTE   W06
 BYTE   N05
 BYTE   W06
 BYTE   PEND 
//  #06 //029   ----------------------------------------
Label_010066CA:
 BYTE   N11  Fs2  v100
 BYTE   W12
 BYTE   N05
 BYTE   W06
 BYTE   N05
 BYTE   W06
 BYTE   N11
 BYTE   W12
 BYTE   N05
 BYTE   W06
 BYTE   N05
 BYTE   W06
 BYTE   N11
 BYTE   W12
 BYTE   N05
 BYTE   W06
 BYTE   N05
 BYTE   W06
 BYTE   N11
 BYTE   W12
 BYTE   N05
 BYTE   W06
 BYTE   N05
 BYTE   W06
 BYTE   PEND 
//  #06 //030   ----------------------------------------
 BYTE   PATT
  POIN2 Label_01006676
//  #06 //031   ----------------------------------------
 BYTE   PATT
  POIN2 Label_01006693
//  #06 //032   ----------------------------------------
Label_010066EF:
 BYTE   N11  En2  v100
 BYTE   W12
 BYTE   N05
 BYTE   W06
 BYTE   N05
 BYTE   W06
 BYTE   N11
 BYTE   W12
 BYTE   N05
 BYTE   W06
 BYTE   N05
 BYTE   W06
 BYTE   N11
 BYTE   W12
 BYTE   N05
 BYTE   W06
 BYTE   N05
 BYTE   W06
 BYTE   N11
 BYTE   W12
 BYTE   N05  Gs2
 BYTE   W06
 BYTE   N05
 BYTE   W06
 BYTE   PEND 
//  #06 //033   ----------------------------------------
Label_0100670B:
 BYTE   N11  Gs2  v100
 BYTE   W12
 BYTE   N05
 BYTE   W06
 BYTE   N05
 BYTE   W06
 BYTE   N11
 BYTE   W12
 BYTE   N05
 BYTE   W06
 BYTE   N05
 BYTE   W06
 BYTE   N11
 BYTE   W12
 BYTE   N05  Fs2
 BYTE   W06
 BYTE   N05
 BYTE   W06
 BYTE   N11
 BYTE   W12
 BYTE   N05
 BYTE   W06
 BYTE   N05
 BYTE   W06
 BYTE   PEND 
//  #06 //034   ----------------------------------------
 BYTE   PATT
  POIN2 Label_01006676
//  #06 //035   ----------------------------------------
 BYTE   PATT
  POIN2 Label_01006693
//  #06 //036   ----------------------------------------
 BYTE   PATT
  POIN2 Label_010066AE
//  #06 //037   ----------------------------------------
 BYTE   PATT
  POIN2 Label_010066CA
//  #06 //038   ----------------------------------------
 BYTE   PATT
  POIN2 Label_01006676
//  #06 //039   ----------------------------------------
 BYTE   PATT
  POIN2 Label_01006693
//  #06 //040   ----------------------------------------
Label_01006745:
 BYTE   N11  Bn1  v100
 BYTE   W12
 BYTE   N05
 BYTE   W06
 BYTE   N05
 BYTE   W06
 BYTE   N11
 BYTE   W12
 BYTE   N05
 BYTE   W06
 BYTE   N05
 BYTE   W06
 BYTE   N11  An1
 BYTE   W12
 BYTE   N05
 BYTE   W06
 BYTE   N05
 BYTE   W06
 BYTE   N11
 BYTE   W12
 BYTE   N05
 BYTE   W06
 BYTE   N05
 BYTE   W06
 BYTE   PEND 
//  #06 //041   ----------------------------------------
 BYTE   N11
 BYTE   W12
 BYTE   N05
 BYTE   W06
 BYTE   N05
 BYTE   W06
 BYTE   N11
 BYTE   W12
 BYTE   N05
 BYTE   W06
 BYTE   N05
 BYTE   W06
 BYTE   N11
 BYTE   W12
 BYTE   N05
 BYTE   W06
 BYTE   N05
 BYTE   W06
 BYTE   N11
 BYTE   W12
 BYTE   N05
 BYTE   W06
 BYTE   N05
 BYTE   W06
//  #06 //042   ----------------------------------------
 BYTE   W96
//  #06 //043   ----------------------------------------
 BYTE   W96
//  #06 //044   ----------------------------------------
 BYTE   W96
//  #06 //045   ----------------------------------------
 BYTE   W96
//  #06 //046   ----------------------------------------
 BYTE   W96
//  #06 //047   ----------------------------------------
 BYTE   W96
//  #06 //048   ----------------------------------------
 BYTE   W96
//  #06 //049   ----------------------------------------
 BYTE   W96
//  #06 //050   ----------------------------------------
 BYTE   W96
//  #06 //051   ----------------------------------------
 BYTE   PATT
  POIN2 Label_010065DD
//  #06 //052   ----------------------------------------
 BYTE   PATT
  POIN2 Label_010065EB
//  #06 //053   ----------------------------------------
 BYTE   PATT
  POIN2 Label_010065F9
//  #06 //054   ----------------------------------------
 BYTE   PATT
  POIN2 Label_01006606
//  #06 //055   ----------------------------------------
 BYTE   PATT
  POIN2 Label_010065DD
//  #06 //056   ----------------------------------------
 BYTE   PATT
  POIN2 Label_010065EB
//  #06 //057   ----------------------------------------
 BYTE   PATT
  POIN2 Label_010065F9
//  #06 //058   ----------------------------------------
 BYTE   PATT
  POIN2 Label_01006606
//  #06 //059   ----------------------------------------
 BYTE   PATT
  POIN2 Label_010065DD
//  #06 //060   ----------------------------------------
 BYTE   PATT
  POIN2 Label_010065EB
//  #06 //061   ----------------------------------------
 BYTE   PATT
  POIN2 Label_010065F9
//  #06 //062   ----------------------------------------
 BYTE   PATT
  POIN2 Label_01006606
//  #06 //063   ----------------------------------------
 BYTE   PATT
  POIN2 Label_0100663B
//  #06 //064   ----------------------------------------
 BYTE   PATT
  POIN2 Label_01006649
//  #06 //065   ----------------------------------------
 BYTE   PATT
  POIN2 Label_01006656
//  #06 //066   ----------------------------------------
 BYTE   PATT
  POIN2 Label_01006606
//  #06 //067   ----------------------------------------
 BYTE   PATT
  POIN2 Label_01006668
//  #06 //068   ----------------------------------------
 BYTE   PATT
  POIN2 Label_01006676
//  #06 //069   ----------------------------------------
 BYTE   PATT
  POIN2 Label_01006693
//  #06 //070   ----------------------------------------
 BYTE   PATT
  POIN2 Label_010066AE
//  #06 //071   ----------------------------------------
 BYTE   PATT
  POIN2 Label_010066CA
//  #06 //072   ----------------------------------------
 BYTE   PATT
  POIN2 Label_01006676
//  #06 //073   ----------------------------------------
 BYTE   PATT
  POIN2 Label_01006693
//  #06 //074   ----------------------------------------
 BYTE   PATT
  POIN2 Label_010066EF
//  #06 //075   ----------------------------------------
 BYTE   PATT
  POIN2 Label_0100670B
//  #06 //076   ----------------------------------------
 BYTE   PATT
  POIN2 Label_01006676
//  #06 //077   ----------------------------------------
 BYTE   PATT
  POIN2 Label_01006693
//  #06 //078   ----------------------------------------
 BYTE   PATT
  POIN2 Label_010066AE
//  #06 //079   ----------------------------------------
 BYTE   PATT
  POIN2 Label_010066CA
//  #06 //080   ----------------------------------------
 BYTE   PATT
  POIN2 Label_01006676
//  #06 //081   ----------------------------------------
 BYTE   PATT
  POIN2 Label_01006693
//  #06 //082   ----------------------------------------
 BYTE   PATT
  POIN2 Label_01006745
//  #06 //083   ----------------------------------------
 BYTE   N11  An1  v100
 BYTE   W12
 BYTE   N05
 BYTE   W06
 BYTE   N05
 BYTE   W06
 BYTE   N11
 BYTE   W12
 BYTE   N05
 BYTE   W06
 BYTE   N05
 BYTE   W06
 BYTE   N11
 BYTE   W12
 BYTE   N05
 BYTE   W06
 BYTE   N05
 BYTE   W06
 BYTE   N11
 BYTE   W12
 BYTE   N05
 BYTE   W06
 BYTE   N05
 BYTE   W05
 BYTE   GoTo
  POIN2 Label_010065CA
 BYTE   FINE

//**************** Track 7 (Midi-Chn.6) ****************//

SonicRResortIsland_007:
//  #07 //000   ----------------------------------------
 BYTE   KEYSH   SonicRResortIsland_key+0
Label_01006856:
 BYTE   VOICE   124
 BYTE   MODT 0
 BYTE   LFOS 44
 BYTE   PAN   c_v+0
 BYTE   VOL   55*SonicRResortIsland_mvl/mxv
 BYTE   PAN   c_v+0
 BYTE   N20  Cs2  v100
 BYTE   W96
//  #07 //001   ----------------------------------------
 BYTE   W96
//  #07 //002   ----------------------------------------
 BYTE   W96
//  #07 //003   ----------------------------------------
 BYTE   W48
 BYTE   N42  Fn2
 BYTE   W48
//  #07 //004   ----------------------------------------
 BYTE   N20  Cn1
 BYTE   N11  As1
 BYTE   N11  Cs2
 BYTE   W12
 BYTE   Fs1
 BYTE   W12
 BYTE   N20  Cn1
 BYTE   N11  As1
 BYTE   W12
 BYTE   Fs1
 BYTE   W12
 BYTE   N20  Cn1
 BYTE   N11  As1
 BYTE   W12
 BYTE   Fs1
 BYTE   W12
 BYTE   N20  Cn1
 BYTE   N11  As1
 BYTE   W12
 BYTE   Fs1
 BYTE   W12
//  #07 //005   ----------------------------------------
Label_0100688A:
 BYTE   N20  Cn1  v100
 BYTE   N11  As1
 BYTE   W12
 BYTE   Fs1
 BYTE   W12
 BYTE   N20  Cn1
 BYTE   N11  As1
 BYTE   W12
 BYTE   Fs1
 BYTE   W12
 BYTE   N20  Cn1
 BYTE   N11  As1
 BYTE   W12
 BYTE   Fs1
 BYTE   W12
 BYTE   N20  Cn1
 BYTE   N11  As1
 BYTE   W12
 BYTE   Fs1
 BYTE   W12
 BYTE   PEND 
//  #07 //006   ----------------------------------------
 BYTE   PATT
  POIN2 Label_0100688A
//  #07 //007   ----------------------------------------
 BYTE   PATT
  POIN2 Label_0100688A
//  #07 //008   ----------------------------------------
 BYTE   N90  Cn1  v100
 BYTE   N90  As1
 BYTE   W96
//  #07 //009   ----------------------------------------
Label_010068B8:
 BYTE   N11  Cn1  v100
 BYTE   N11  As1
 BYTE   W12
 BYTE   Cn1
 BYTE   N11  Fs1
 BYTE   W12
 BYTE   Dn1
 BYTE   N11  As1
 BYTE   W12
 BYTE   Cn1
 BYTE   N11  Fs1
 BYTE   W12
 BYTE   Cn1
 BYTE   N11  As1
 BYTE   W12
 BYTE   Cn1
 BYTE   N11  Fs1
 BYTE   W12
 BYTE   Dn1
 BYTE   N11  As1
 BYTE   W12
 BYTE   Cn1
 BYTE   N11  Fs1
 BYTE   W12
 BYTE   PEND 
//  #07 //010   ----------------------------------------
 BYTE   PATT
  POIN2 Label_010068B8
//  #07 //011   ----------------------------------------
 BYTE   PATT
  POIN2 Label_010068B8
//  #07 //012   ----------------------------------------
 BYTE   PATT
  POIN2 Label_010068B8
//  #07 //013   ----------------------------------------
 BYTE   PATT
  POIN2 Label_010068B8
//  #07 //014   ----------------------------------------
 BYTE   PATT
  POIN2 Label_010068B8
//  #07 //015   ----------------------------------------
 BYTE   PATT
  POIN2 Label_010068B8
//  #07 //016   ----------------------------------------
 BYTE   PATT
  POIN2 Label_010068B8
//  #07 //017   ----------------------------------------
Label_010068FE:
 BYTE   N11  Cn1  v100
 BYTE   N11  As1
 BYTE   N11  Cs2
 BYTE   W12
 BYTE   Cn1
 BYTE   N11  Fs1
 BYTE   W12
 BYTE   Dn1
 BYTE   N11  As1
 BYTE   W12
 BYTE   Cn1
 BYTE   N11  Fs1
 BYTE   W12
 BYTE   Cn1
 BYTE   N11  As1
 BYTE   W12
 BYTE   Cn1
 BYTE   N11  Fs1
 BYTE   W12
 BYTE   Dn1
 BYTE   N11  As1
 BYTE   W12
 BYTE   Cn1
 BYTE   N11  Fs1
 BYTE   W12
 BYTE   PEND 
//  #07 //018   ----------------------------------------
 BYTE   PATT
  POIN2 Label_010068B8
//  #07 //019   ----------------------------------------
 BYTE   PATT
  POIN2 Label_010068B8
//  #07 //020   ----------------------------------------
 BYTE   PATT
  POIN2 Label_010068B8
//  #07 //021   ----------------------------------------
 BYTE   PATT
  POIN2 Label_010068B8
//  #07 //022   ----------------------------------------
 BYTE   PATT
  POIN2 Label_010068B8
//  #07 //023   ----------------------------------------
 BYTE   PATT
  POIN2 Label_010068B8
//  #07 //024   ----------------------------------------
 BYTE   PATT
  POIN2 Label_010068B8
//  #07 //025   ----------------------------------------
Label_01006946:
 BYTE   N20  Dn1  v100
 BYTE   N11  As1
 BYTE   W12
 BYTE   Fs1
 BYTE   W12
 BYTE   N20  Dn1
 BYTE   N11  As1
 BYTE   W12
 BYTE   Fs1
 BYTE   W12
 BYTE   N20  Dn1
 BYTE   N11  As1
 BYTE   W12
 BYTE   N11
 BYTE   W12
 BYTE   Dn1
 BYTE   N11  As1
 BYTE   W12
 BYTE   N05  Dn1
 BYTE   N11  As1
 BYTE   W06
 BYTE   N05  Dn1
 BYTE   W06
 BYTE   PEND 
//  #07 //026   ----------------------------------------
 BYTE   PATT
  POIN2 Label_010068FE
//  #07 //027   ----------------------------------------
 BYTE   PATT
  POIN2 Label_010068B8
//  #07 //028   ----------------------------------------
 BYTE   PATT
  POIN2 Label_010068B8
//  #07 //029   ----------------------------------------
 BYTE   PATT
  POIN2 Label_010068B8
//  #07 //030   ----------------------------------------
 BYTE   PATT
  POIN2 Label_010068B8
//  #07 //031   ----------------------------------------
 BYTE   PATT
  POIN2 Label_010068B8
//  #07 //032   ----------------------------------------
 BYTE   PATT
  POIN2 Label_010068B8
//  #07 //033   ----------------------------------------
 BYTE   PATT
  POIN2 Label_010068B8
//  #07 //034   ----------------------------------------
 BYTE   PATT
  POIN2 Label_010068B8
//  #07 //035   ----------------------------------------
 BYTE   PATT
  POIN2 Label_010068B8
//  #07 //036   ----------------------------------------
 BYTE   PATT
  POIN2 Label_010068B8
//  #07 //037   ----------------------------------------
 BYTE   PATT
  POIN2 Label_010068B8
//  #07 //038   ----------------------------------------
 BYTE   PATT
  POIN2 Label_010068B8
//  #07 //039   ----------------------------------------
 BYTE   PATT
  POIN2 Label_010068B8
//  #07 //040   ----------------------------------------
 BYTE   PATT
  POIN2 Label_010068B8
//  #07 //041   ----------------------------------------
 BYTE   PATT
  POIN2 Label_010068B8
//  #07 //042   ----------------------------------------
 BYTE   PATT
  POIN2 Label_010068FE
//  #07 //043   ----------------------------------------
 BYTE   PATT
  POIN2 Label_010068B8
//  #07 //044   ----------------------------------------
 BYTE   PATT
  POIN2 Label_010068B8
//  #07 //045   ----------------------------------------
 BYTE   PATT
  POIN2 Label_010068B8
//  #07 //046   ----------------------------------------
 BYTE   PATT
  POIN2 Label_010068FE
//  #07 //047   ----------------------------------------
 BYTE   PATT
  POIN2 Label_010068B8
//  #07 //048   ----------------------------------------
 BYTE   PATT
  POIN2 Label_010068B8
//  #07 //049   ----------------------------------------
 BYTE   PATT
  POIN2 Label_010068B8
//  #07 //050   ----------------------------------------
 BYTE   N11  Dn1  v100
 BYTE   N90  As1
 BYTE   W96
//  #07 //051   ----------------------------------------
 BYTE   PATT
  POIN2 Label_010068B8
//  #07 //052   ----------------------------------------
 BYTE   PATT
  POIN2 Label_010068B8
//  #07 //053   ----------------------------------------
 BYTE   PATT
  POIN2 Label_010068B8
//  #07 //054   ----------------------------------------
 BYTE   PATT
  POIN2 Label_010068B8
//  #07 //055   ----------------------------------------
 BYTE   PATT
  POIN2 Label_010068B8
//  #07 //056   ----------------------------------------
 BYTE   PATT
  POIN2 Label_010068B8
//  #07 //057   ----------------------------------------
 BYTE   PATT
  POIN2 Label_010068B8
//  #07 //058   ----------------------------------------
 BYTE   PATT
  POIN2 Label_010068B8
//  #07 //059   ----------------------------------------
 BYTE   PATT
  POIN2 Label_010068FE
//  #07 //060   ----------------------------------------
 BYTE   PATT
  POIN2 Label_010068B8
//  #07 //061   ----------------------------------------
 BYTE   PATT
  POIN2 Label_010068B8
//  #07 //062   ----------------------------------------
 BYTE   PATT
  POIN2 Label_010068B8
//  #07 //063   ----------------------------------------
 BYTE   PATT
  POIN2 Label_010068B8
//  #07 //064   ----------------------------------------
 BYTE   PATT
  POIN2 Label_010068B8
//  #07 //065   ----------------------------------------
 BYTE   PATT
  POIN2 Label_010068B8
//  #07 //066   ----------------------------------------
 BYTE   PATT
  POIN2 Label_010068B8
//  #07 //067   ----------------------------------------
 BYTE   PATT
  POIN2 Label_01006946
//  #07 //068   ----------------------------------------
 BYTE   PATT
  POIN2 Label_010068FE
//  #07 //069   ----------------------------------------
 BYTE   PATT
  POIN2 Label_010068B8
//  #07 //070   ----------------------------------------
 BYTE   PATT
  POIN2 Label_010068B8
//  #07 //071   ----------------------------------------
 BYTE   PATT
  POIN2 Label_010068B8
//  #07 //072   ----------------------------------------
 BYTE   PATT
  POIN2 Label_010068B8
//  #07 //073   ----------------------------------------
 BYTE   PATT
  POIN2 Label_010068B8
//  #07 //074   ----------------------------------------
 BYTE   PATT
  POIN2 Label_010068B8
//  #07 //075   ----------------------------------------
 BYTE   PATT
  POIN2 Label_010068B8
//  #07 //076   ----------------------------------------
 BYTE   PATT
  POIN2 Label_010068B8
//  #07 //077   ----------------------------------------
 BYTE   PATT
  POIN2 Label_010068B8
//  #07 //078   ----------------------------------------
 BYTE   PATT
  POIN2 Label_010068B8
//  #07 //079   ----------------------------------------
 BYTE   PATT
  POIN2 Label_010068B8
//  #07 //080   ----------------------------------------
 BYTE   PATT
  POIN2 Label_010068B8
//  #07 //081   ----------------------------------------
 BYTE   PATT
  POIN2 Label_010068B8
//  #07 //082   ----------------------------------------
 BYTE   PATT
  POIN2 Label_010068B8
//  #07 //083   ----------------------------------------
 BYTE   N11  Cn1  v100
 BYTE   N11  As1
 BYTE   W12
 BYTE   Cn1
 BYTE   N11  Fs1
 BYTE   W12
 BYTE   Dn1
 BYTE   N11  As1
 BYTE   W12
 BYTE   Cn1
 BYTE   N11  Fs1
 BYTE   W12
 BYTE   Cn1
 BYTE   N11  As1
 BYTE   W12
 BYTE   Cn1
 BYTE   N11  Fs1
 BYTE   W12
 BYTE   Dn1
 BYTE   N11  As1
 BYTE   W12
 BYTE   Cn1
 BYTE   N11  Fs1
 BYTE   W11
 BYTE   GoTo
  POIN2 Label_01006856
 BYTE   FINE

//******************************************************//
	ALIGN 4

SonicRResortIsland:
	BYTE	7	// NumTrks
	BYTE	0	// NumBlks
	BYTE	SonicRResortIsland_pri	// Priority
	BYTE	SonicRResortIsland_rev	// Reverb.
    
	POIN2	SonicRResortIsland_grp
    
	POIN2	SonicRResortIsland_001
	POIN2	SonicRResortIsland_002
	POIN2	SonicRResortIsland_003
	POIN2	SonicRResortIsland_004
	POIN2	SonicRResortIsland_005
	POIN2	SonicRResortIsland_006
	POIN2	SonicRResortIsland_007

	
