//Event file generated from Sappy .s format.
	

	#define	SuperMarioBros3FortressBoss_grp  voicegroup000
	#define	SuperMarioBros3FortressBoss_pri  0
	#define	SuperMarioBros3FortressBoss_rev  0
	#define	SuperMarioBros3FortressBoss_mvl  127
	#define	SuperMarioBros3FortressBoss_key  0
	#define	SuperMarioBros3FortressBoss_tbs  1
	#define	SuperMarioBros3FortressBoss_exg  0
	#define	SuperMarioBros3FortressBoss_cmp  1

	// .rodata
	//	SuperMarioBros3FortressBoss
	ALIGN 4


//**************** Track 1 (Midi-Chn.0) ****************//

SuperMarioBros3FortressBoss_001:
//  #01 //000   ----------------------------------------
 BYTE   KEYSH   SuperMarioBros3FortressBoss_key+0
 BYTE   TEMPO   120*SuperMarioBros3FortressBoss_tbs/2
 BYTE   VOICE   124
 BYTE   MODT 0
 BYTE   LFOS 44
 BYTE   VOL   33*SuperMarioBros3FortressBoss_mvl/mxv
 BYTE   BEND   c_v+11
 BYTE   N08  Cn1  v127
 BYTE   W08
 BYTE   BEND   c_v+0
 BYTE   W08
 BYTE   BEND   c_v+11
 BYTE   N08
 BYTE   W08
 BYTE   BEND   c_v+11
 BYTE   N07
 BYTE   W07
 BYTE   BEND   c_v+0
 BYTE   W08
 BYTE   BEND   c_v+11
 BYTE   N08
 BYTE   W08
 BYTE   BEND   c_v+11
 BYTE   N07
 BYTE   W08
 BYTE   BEND   c_v+11
 BYTE   N08
 BYTE   W08
 BYTE   BEND   c_v+11
 BYTE   N08
 BYTE   W08
 BYTE   BEND   c_v+11
 BYTE   N08
 BYTE   W08
 BYTE   BEND   c_v+11
 BYTE   N08
 BYTE   W08
 BYTE   BEND   c_v+11
 BYTE   N07
 BYTE   W08
 BYTE   BEND   c_v+11
 BYTE   N08
 BYTE   W01
//  #01 //001   ----------------------------------------
Label_0119E2C2:
 BYTE   BEND   c_v+11
 BYTE   W07
 BYTE   BEND   c_v+11
 BYTE   N08  Cn1  v127
 BYTE   W08
 BYTE   BEND   c_v-6
 BYTE   N08  As1
 BYTE   W08
 BYTE   BEND   c_v+11
 BYTE   N07  Cn1
 BYTE   W08
 BYTE   BEND   c_v+11
 BYTE   N08
 BYTE   W08
 BYTE   BEND   c_v+11
 BYTE   N08
 BYTE   W08
 BYTE   BEND   c_v-6
 BYTE   N08  As1
 BYTE   W08
 BYTE   BEND   c_v+11
 BYTE   N07  Cn1
 BYTE   W08
 BYTE   BEND   c_v+11
 BYTE   N08
 BYTE   W08
 BYTE   BEND   c_v+11
 BYTE   N08
 BYTE   W08
 BYTE   BEND   c_v-6
 BYTE   N08  As1
 BYTE   W08
 BYTE   BEND   c_v+11
 BYTE   N07  Cn1
 BYTE   W08
 BYTE   BEND   c_v+11
 BYTE   N08
 BYTE   W01
//  #01 //002   ----------------------------------------
 BYTE   W07
 BYTE   BEND   c_v+11
 BYTE   N08
 BYTE   W08
 BYTE   BEND   c_v-6
 BYTE   N08  As1
 BYTE   W08
 BYTE   BEND   c_v+11
 BYTE   N07  Cn1
 BYTE   W08
 BYTE   BEND   c_v+11
 BYTE   N08
 BYTE   W08
 BYTE   BEND   c_v+11
 BYTE   N08
 BYTE   W08
 BYTE   BEND   c_v-6
 BYTE   N07  As1
 BYTE   W08
 BYTE   BEND   c_v+11
 BYTE   N08  Cn1
 BYTE   W08
 BYTE   BEND   c_v+11
 BYTE   N08
 BYTE   W08
 BYTE   BEND   c_v+11
 BYTE   N07
 BYTE   W08
 BYTE   BEND   c_v-6
 BYTE   N08  As1
 BYTE   W08
 BYTE   BEND   c_v+11
 BYTE   N08  Cn1
 BYTE   W08
 BYTE   BEND   c_v+11
 BYTE   N08
 BYTE   W01
//  #01 //003   ----------------------------------------
 BYTE   W07
 BYTE   BEND   c_v+11
 BYTE   N08
 BYTE   W08
 BYTE   BEND   c_v-6
 BYTE   N07  As1
 BYTE   W08
 BYTE   BEND   c_v+11
 BYTE   N08  Cn1
 BYTE   W08
 BYTE   BEND   c_v+11
 BYTE   N08
 BYTE   W08
 BYTE   BEND   c_v+11
 BYTE   N08
 BYTE   W08
 BYTE   BEND   c_v-6
 BYTE   N07  As1
 BYTE   W08
 BYTE   BEND   c_v+11
 BYTE   N08  Cn1
 BYTE   W08
 BYTE   BEND   c_v+11
 BYTE   N08
 BYTE   W08
 BYTE   BEND   c_v+11
 BYTE   N08
 BYTE   W08
 BYTE   BEND   c_v-6
 BYTE   N07  As1
 BYTE   W08
 BYTE   BEND   c_v+11
 BYTE   N08  Cn1
 BYTE   W08
 BYTE   BEND   c_v+11
 BYTE   N08
 BYTE   W01
//  #01 //004   ----------------------------------------
 BYTE   W07
 BYTE   BEND   c_v+11
 BYTE   N07
 BYTE   W08
 BYTE   BEND   c_v-6
 BYTE   N08  As1
 BYTE   W08
 BYTE   BEND   c_v+11
 BYTE   N08  Cn1
 BYTE   W08
 BYTE   BEND   c_v+11
 BYTE   N07
 BYTE   W08
 BYTE   BEND   c_v+11
 BYTE   N08
 BYTE   W08
 BYTE   BEND   c_v-6
 BYTE   N08  As1
 BYTE   W08
 BYTE   BEND   c_v+11
 BYTE   N08  Cn1
 BYTE   W08
 BYTE   BEND   c_v+11
 BYTE   N08
 BYTE   W08
 BYTE   BEND   c_v+11
 BYTE   N07
 BYTE   W08
 BYTE   BEND   c_v-6
 BYTE   N08  As1
 BYTE   W08
 BYTE   BEND   c_v+11
 BYTE   N08  Cn1
 BYTE   W08
 BYTE   BEND   c_v+11
 BYTE   N08
 BYTE   W01
//  #01 //005   ----------------------------------------
 BYTE   W07
 BYTE   BEND   c_v+11
 BYTE   N08
 BYTE   W08
 BYTE   BEND   c_v-6
 BYTE   N07  As1
 BYTE   W08
 BYTE   BEND   c_v+11
 BYTE   N08  Cn1
 BYTE   W08
 BYTE   BEND   c_v+11
 BYTE   N08
 BYTE   W08
 BYTE   BEND   c_v+11
 BYTE   N07
 BYTE   W08
 BYTE   BEND   c_v-6
 BYTE   N08  As1
 BYTE   W08
 BYTE   BEND   c_v+11
 BYTE   N08  Cn1
 BYTE   W08
 BYTE   BEND   c_v+11
 BYTE   N07
 BYTE   W08
 BYTE   BEND   c_v+11
 BYTE   N08
 BYTE   W08
 BYTE   BEND   c_v-6
 BYTE   N08  As1
 BYTE   W08
 BYTE   BEND   c_v+11
 BYTE   N08  Cn1
 BYTE   W08
 BYTE   BEND   c_v+11
 BYTE   N08
 BYTE   W01
//  #01 //006   ----------------------------------------
 BYTE   W07
 BYTE   BEND   c_v+11
 BYTE   N07
 BYTE   W08
 BYTE   BEND   c_v-6
 BYTE   N08  As1
 BYTE   W08
 BYTE   BEND   c_v+11
 BYTE   N08  Cn1
 BYTE   W08
 BYTE   BEND   c_v+11
 BYTE   N08
 BYTE   W08
 BYTE   BEND   c_v+11
 BYTE   N07
 BYTE   W08
 BYTE   BEND   c_v-6
 BYTE   N08  As1
 BYTE   W08
 BYTE   BEND   c_v+11
 BYTE   N08  Cn1
 BYTE   W08
 BYTE   BEND   c_v+11
 BYTE   N07
 BYTE   W07
 BYTE   BEND   c_v+11
 BYTE   N08
 BYTE   W08
 BYTE   BEND   c_v-6
 BYTE   N08  As1
 BYTE   W08
 BYTE   BEND   c_v+11
 BYTE   N08  Cn1
 BYTE   W08
 BYTE   BEND   c_v+11
 BYTE   N07
 BYTE   W02
//  #01 //007   ----------------------------------------
 BYTE   W06
 BYTE   BEND   c_v+11
 BYTE   N08
 BYTE   W08
 BYTE   BEND   c_v-6
 BYTE   N08  As1
 BYTE   W08
 BYTE   BEND   c_v+11
 BYTE   N07  Cn1
 BYTE   W08
 BYTE   BEND   c_v+11
 BYTE   N08
 BYTE   W08
 BYTE   BEND   c_v+11
 BYTE   N08
 BYTE   W08
 BYTE   BEND   c_v-6
 BYTE   N08  As1
 BYTE   W08
 BYTE   BEND   c_v+11
 BYTE   N08  Cn1
 BYTE   W08
 BYTE   BEND   c_v+11
 BYTE   N07
 BYTE   W08
 BYTE   BEND   c_v+11
 BYTE   N08
 BYTE   W08
 BYTE   BEND   c_v-6
 BYTE   N08  As1
 BYTE   W08
 BYTE   BEND   c_v+11
 BYTE   N07  Cn1
 BYTE   W08
 BYTE   BEND   c_v+11
 BYTE   N08
 BYTE   W02
//  #01 //008   ----------------------------------------
Label_0119E446:
 BYTE   W06
 BYTE   BEND   c_v+11
 BYTE   N08  Cn1  v127
 BYTE   W08
 BYTE   BEND   c_v-6
 BYTE   N08  As1
 BYTE   W08
 BYTE   BEND   c_v+11
 BYTE   N07  Cn1
 BYTE   W08
 BYTE   BEND   c_v+11
 BYTE   N08
 BYTE   W08
 BYTE   BEND   c_v+11
 BYTE   N08
 BYTE   W08
 BYTE   BEND   c_v-6
 BYTE   N08  As1
 BYTE   W08
 BYTE   BEND   c_v+11
 BYTE   N07  Cn1
 BYTE   W08
 BYTE   BEND   c_v+11
 BYTE   N08
 BYTE   W08
 BYTE   BEND   c_v+11
 BYTE   N08
 BYTE   W08
 BYTE   BEND   c_v-6
 BYTE   N08  As1
 BYTE   W08
 BYTE   BEND   c_v+11
 BYTE   N07  Cn1
 BYTE   W08
 BYTE   BEND   c_v+11
 BYTE   N08
 BYTE   W02
 BYTE   PEND 
//  #01 //009   ----------------------------------------
 BYTE   PATT
  POIN2 Label_0119E446
//  #01 //010   ----------------------------------------
 BYTE   W06
 BYTE   BEND   c_v+11
 BYTE   N08  Cn1  v127
 BYTE   W08
 BYTE   BEND   c_v-6
 BYTE   N07  As1
 BYTE   W08
 BYTE   BEND   c_v+11
 BYTE   N08  Cn1
 BYTE   W08
 BYTE   BEND   c_v+11
 BYTE   N08
 BYTE   W08
 BYTE   BEND   c_v+11
 BYTE   N08
 BYTE   W08
 BYTE   BEND   c_v-6
 BYTE   N07  As1
 BYTE   W08
 BYTE   BEND   c_v+11
 BYTE   N08  Cn1
 BYTE   W08
 BYTE   BEND   c_v+11
 BYTE   N08
 BYTE   W08
 BYTE   BEND   c_v+11
 BYTE   N07
 BYTE   W08
 BYTE   BEND   c_v-6
 BYTE   N08  As1
 BYTE   W08
 BYTE   BEND   c_v+11
 BYTE   N08  Cn1
 BYTE   W08
 BYTE   BEND   c_v+11
 BYTE   N07
 BYTE   W02
//  #01 //011   ----------------------------------------
 BYTE   W06
 BYTE   BEND   c_v+11
 BYTE   N08
 BYTE   W08
 BYTE   BEND   c_v-6
 BYTE   N08  As1
 BYTE   W08
 BYTE   BEND   c_v+11
 BYTE   N08  Cn1
 BYTE   W08
 BYTE   BEND   c_v+11
 BYTE   N08
 BYTE   W08
 BYTE   BEND   c_v+11
 BYTE   N07
 BYTE   W08
 BYTE   BEND   c_v-6
 BYTE   N08  As1
 BYTE   W08
 BYTE   BEND   c_v+11
 BYTE   N08  Cn1
 BYTE   W08
 BYTE   BEND   c_v+11
 BYTE   N08
 BYTE   W08
 BYTE   BEND   c_v+11
 BYTE   N07
 BYTE   W08
 BYTE   BEND   c_v-6
 BYTE   N08  As1
 BYTE   W08
 BYTE   BEND   c_v+11
 BYTE   N08  Cn1
 BYTE   W08
 BYTE   BEND   c_v+11
 BYTE   N08
 BYTE   W02
//  #01 //012   ----------------------------------------
 BYTE   W06
 BYTE   BEND   c_v+11
 BYTE   N07
 BYTE   W08
 BYTE   BEND   c_v-6
 BYTE   N08  As1
 BYTE   W08
 BYTE   BEND   c_v+11
 BYTE   N08  Cn1
 BYTE   W08
 BYTE   BEND   c_v+11
 BYTE   N07
 BYTE   W08
 BYTE   BEND   c_v+11
 BYTE   N08
 BYTE   W08
 BYTE   BEND   c_v-6
 BYTE   N08  As1
 BYTE   W08
 BYTE   BEND   c_v+11
 BYTE   N07  Cn1
 BYTE   W08
 BYTE   BEND   c_v+11
 BYTE   N08
 BYTE   W08
 BYTE   BEND   c_v+11
 BYTE   N08
 BYTE   W08
 BYTE   BEND   c_v-6
 BYTE   N08  As1
 BYTE   W08
 BYTE   BEND   c_v+11
 BYTE   N08  Cn1
 BYTE   W08
 BYTE   BEND   c_v+11
 BYTE   N07
 BYTE   W02
//  #01 //013   ----------------------------------------
 BYTE   W05
 BYTE   BEND   c_v+11
 BYTE   N08
 BYTE   W08
 BYTE   BEND   c_v-6
 BYTE   N08  As1
 BYTE   W08
 BYTE   BEND   c_v+11
 BYTE   N08  Cn1
 BYTE   W08
 BYTE   BEND   c_v+11
 BYTE   N07
 BYTE   W08
 BYTE   BEND   c_v+11
 BYTE   N08
 BYTE   W08
 BYTE   BEND   c_v-6
 BYTE   N08  As1
 BYTE   W08
 BYTE   BEND   c_v+11
 BYTE   N08  Cn1
 BYTE   W08
 BYTE   BEND   c_v+11
 BYTE   N07
 BYTE   W08
 BYTE   BEND   c_v+11
 BYTE   N08
 BYTE   W08
 BYTE   BEND   c_v-6
 BYTE   N08  As1
 BYTE   W08
 BYTE   BEND   c_v+11
 BYTE   N07  Cn1
 BYTE   W08
 BYTE   BEND   c_v+11
 BYTE   N08
 BYTE   W03
//  #01 //014   ----------------------------------------
 BYTE   W05
 BYTE   BEND   c_v+11
 BYTE   N08
 BYTE   W08
 BYTE   BEND   c_v-6
 BYTE   N08  As1
 BYTE   W08
 BYTE   BEND   c_v+11
 BYTE   N07  Cn1
 BYTE   W08
 BYTE   BEND   c_v+11
 BYTE   N08
 BYTE   W08
 BYTE   BEND   c_v+11
 BYTE   N08
 BYTE   W08
 BYTE   BEND   c_v-6
 BYTE   N08  As1
 BYTE   W08
 BYTE   BEND   c_v+11
 BYTE   N07  Cn1
 BYTE   W08
 BYTE   BEND   c_v+11
 BYTE   N08
 BYTE   W08
 BYTE   BEND   c_v+11
 BYTE   N08
 BYTE   W08
 BYTE   BEND   c_v-6
 BYTE   N08  As1
 BYTE   W08
 BYTE   BEND   c_v+11
 BYTE   N07  Cn1
 BYTE   W08
 BYTE   BEND   c_v+11
 BYTE   N08
 BYTE   W03
//  #01 //015   ----------------------------------------
 BYTE   W05
 BYTE   BEND   c_v+11
 BYTE   N08
 BYTE   W08
 BYTE   BEND   c_v-6
 BYTE   N08  As1
 BYTE   W08
 BYTE   BEND   c_v+11
 BYTE   N07  Cn1
 BYTE   W08
 BYTE   BEND   c_v+11
 BYTE   N08
 BYTE   W08
 BYTE   BEND   c_v+11
 BYTE   N08
 BYTE   W08
 BYTE   BEND   c_v-6
 BYTE   N07  As1
 BYTE   W08
 BYTE   BEND   c_v+11
 BYTE   N08  Cn1
 BYTE   W08
 BYTE   BEND   c_v+11
 BYTE   N08
 BYTE   W08
 BYTE   BEND   c_v+11
 BYTE   N08
 BYTE   W08
 BYTE   BEND   c_v-6
 BYTE   N07  As1
 BYTE   W08
 BYTE   BEND   c_v+11
 BYTE   N08  Cn1
 BYTE   W08
 BYTE   BEND   c_v+11
 BYTE   N08
 BYTE   W03
//  #01 //016   ----------------------------------------
 BYTE   W05
 BYTE   BEND   c_v+11
 BYTE   N07
 BYTE   W08
 BYTE   BEND   c_v-6
 BYTE   N08  As1
 BYTE   W08
 BYTE   BEND   c_v+11
 BYTE   N08  Cn1
 BYTE   W08
 BYTE   BEND   c_v+11
 BYTE   N08
 BYTE   W08
 BYTE   BEND   c_v+11
 BYTE   N08
 BYTE   W08
 BYTE   BEND   c_v-6
 BYTE   N07  As1
 BYTE   W08
 BYTE   BEND   c_v+11
 BYTE   N08  Cn1
 BYTE   W08
 BYTE   BEND   c_v+11
 BYTE   N08
 BYTE   W08
 BYTE   BEND   c_v+11
 BYTE   N08
 BYTE   W08
 BYTE   BEND   c_v-6
 BYTE   N07  As1
 BYTE   W08
 BYTE   BEND   c_v+11
 BYTE   N08  Cn1
 BYTE   W08
 BYTE   BEND   c_v+11
 BYTE   N08
 BYTE   W03
//  #01 //017   ----------------------------------------
 BYTE   W05
 BYTE   BEND   c_v+11
 BYTE   N08
 BYTE   W08
 BYTE   BEND   c_v-6
 BYTE   N07  As1
 BYTE   W08
 BYTE   BEND   c_v+11
 BYTE   N08  Cn1
 BYTE   W08
 BYTE   BEND   c_v+11
 BYTE   N08
 BYTE   W08
 BYTE   BEND   c_v+11
 BYTE   N07
 BYTE   W08
 BYTE   BEND   c_v-6
 BYTE   N08  As1
 BYTE   W08
 BYTE   BEND   c_v+11
 BYTE   N08  Cn1
 BYTE   W08
 BYTE   BEND   c_v+11
 BYTE   N08
 BYTE   W08
 BYTE   BEND   c_v+11
 BYTE   N07
 BYTE   W08
 BYTE   BEND   c_v-6
 BYTE   N08  As1
 BYTE   W08
 BYTE   BEND   c_v+11
 BYTE   N08  Cn1
 BYTE   W08
 BYTE   BEND   c_v+11
 BYTE   N08
 BYTE   W03
//  #01 //018   ----------------------------------------
 BYTE   W05
 BYTE   BEND   c_v+11
 BYTE   N07
 BYTE   W08
 BYTE   BEND   c_v-6
 BYTE   W08
 BYTE   GoTo
  POIN2 Label_0119E2C2
 BYTE   FINE

//**************** Track 2 (Midi-Chn.1) ****************//

SuperMarioBros3FortressBoss_002:
//  #02 //000   ----------------------------------------
 BYTE   KEYSH   SuperMarioBros3FortressBoss_key+0
 BYTE   VOICE   36
 BYTE   MODT 0
 BYTE   LFOS 44
 BYTE   VOL   65*SuperMarioBros3FortressBoss_mvl/mxv
 BYTE   BEND   c_v-1
 BYTE   N07  Cn3  v127
 BYTE   W08
 BYTE   BEND   c_v-1
 BYTE   N08  Bn2
 BYTE   W08
 BYTE   BEND   c_v-1
 BYTE   N08  As2
 BYTE   W08
 BYTE   BEND   c_v-1
 BYTE   N68  An2
 BYTE   W68
 BYTE   W03
 BYTE   BEND   c_v-1
 BYTE   N08  En1
 BYTE   W01
//  #02 //001   ----------------------------------------
Label_01194C25:
 BYTE   BEND   c_v-1
 BYTE   W07
 BYTE   BEND   c_v-1
 BYTE   N08  En2  v127
 BYTE   W08
 BYTE   BEND   c_v-1
 BYTE   N08  An2
 BYTE   W08
 BYTE   BEND   c_v-1
 BYTE   N07  En2
 BYTE   W08
 BYTE   BEND   c_v-1
 BYTE   N08  An2
 BYTE   W08
 BYTE   BEND   c_v-1
 BYTE   N15  Gs2
 BYTE   W16
 BYTE   BEND   c_v-1
 BYTE   N08  En2
 BYTE   W08
 BYTE   BEND   c_v-1
 BYTE   N16  Gn2
 BYTE   W16
 BYTE   BEND   c_v-1
 BYTE   N07  En2
 BYTE   W08
 BYTE   BEND   c_v-1
 BYTE   N16  Gn2
 BYTE   W09
//  #02 //002   ----------------------------------------
 BYTE   W07
 BYTE   BEND   c_v-1
 BYTE   N08  Fs2
 BYTE   W08
 BYTE   BEND   c_v-1
 BYTE   N07  Gn2
 BYTE   W08
 BYTE   BEND   c_v-1
 BYTE   N08  Gs2
 BYTE   W08
 BYTE   BEND   c_v-1
 BYTE   N08  En1
 BYTE   W08
 BYTE   BEND   c_v-1
 BYTE   N08  En2
 BYTE   W08
 BYTE   BEND   c_v-1
 BYTE   N07  An2
 BYTE   W08
 BYTE   BEND   c_v-1
 BYTE   N08  En2
 BYTE   W08
 BYTE   BEND   c_v-1
 BYTE   N08  An2
 BYTE   W08
 BYTE   BEND   c_v-1
 BYTE   N15  Gs2
 BYTE   W16
 BYTE   BEND   c_v-1
 BYTE   N08  En2
 BYTE   W08
 BYTE   BEND   c_v-1
 BYTE   N15  Gn2
 BYTE   W01
//  #02 //003   ----------------------------------------
 BYTE   W15
 BYTE   BEND   c_v-1
 BYTE   N08  En2
 BYTE   W08
 BYTE   BEND   c_v-1
 BYTE   N16  Gn2
 BYTE   W16
 BYTE   BEND   c_v-1
 BYTE   N07  Fs2
 BYTE   W08
 BYTE   BEND   c_v-1
 BYTE   N08  Gn2
 BYTE   W08
 BYTE   BEND   c_v-1
 BYTE   N08  Gs2
 BYTE   W08
 BYTE   BEND   c_v-1
 BYTE   N08  En1
 BYTE   W08
 BYTE   BEND   c_v-1
 BYTE   N07  En2
 BYTE   W08
 BYTE   BEND   c_v-1
 BYTE   N08  An2
 BYTE   W08
 BYTE   BEND   c_v-1
 BYTE   N08  En2
 BYTE   W08
 BYTE   BEND   c_v-1
 BYTE   N08  An2
 BYTE   W01
//  #02 //004   ----------------------------------------
 BYTE   W07
 BYTE   BEND   c_v-1
 BYTE   N15  Gs2
 BYTE   W16
 BYTE   BEND   c_v-1
 BYTE   N08  En2
 BYTE   W08
 BYTE   BEND   c_v-1
 BYTE   N15  Gn2
 BYTE   W16
 BYTE   BEND   c_v-1
 BYTE   N08  En2
 BYTE   W08
 BYTE   BEND   c_v-1
 BYTE   N15  Gn2
 BYTE   W16
 BYTE   BEND   c_v-1
 BYTE   N08  Fs2
 BYTE   W08
 BYTE   BEND   c_v-1
 BYTE   N08  Gn2
 BYTE   W08
 BYTE   BEND   c_v-1
 BYTE   N08  Gs2
 BYTE   W08
 BYTE   BEND   c_v-1
 BYTE   N07  En1
 BYTE   W01
//  #02 //005   ----------------------------------------
 BYTE   W07
 BYTE   BEND   c_v-1
 BYTE   N08  En2
 BYTE   W08
 BYTE   BEND   c_v-1
 BYTE   N08  An2
 BYTE   W08
 BYTE   BEND   c_v-1
 BYTE   N08  En2
 BYTE   W08
 BYTE   BEND   c_v-1
 BYTE   N07  An2
 BYTE   W08
 BYTE   BEND   c_v-1
 BYTE   N16  Gs2
 BYTE   W16
 BYTE   BEND   c_v-1
 BYTE   N08  En2
 BYTE   W08
 BYTE   BEND   c_v-1
 BYTE   N15  Gn2
 BYTE   W16
 BYTE   BEND   c_v-1
 BYTE   N08  En2
 BYTE   W08
 BYTE   BEND   c_v-1
 BYTE   N15  Gn2
 BYTE   W09
//  #02 //006   ----------------------------------------
 BYTE   W07
 BYTE   BEND   c_v-1
 BYTE   N08  Fs2
 BYTE   W08
 BYTE   BEND   c_v-1
 BYTE   N08  Gn2
 BYTE   W08
 BYTE   BEND   c_v-1
 BYTE   N08  Gs2
 BYTE   W08
 BYTE   BEND   c_v-1
 BYTE   N07  En1
 BYTE   W08
 BYTE   BEND   c_v-1
 BYTE   N08  En2
 BYTE   W08
 BYTE   BEND   c_v-1
 BYTE   N08  An2
 BYTE   W08
 BYTE   BEND   c_v-1
 BYTE   N07  En2
 BYTE   W07
 BYTE   BEND   c_v-1
 BYTE   N08  An2
 BYTE   W08
 BYTE   BEND   c_v-1
 BYTE   N16  Gs2
 BYTE   W16
 BYTE   BEND   c_v-1
 BYTE   N07  En2
 BYTE   W08
 BYTE   BEND   c_v-1
 BYTE   N16  Gn2
 BYTE   W02
//  #02 //007   ----------------------------------------
 BYTE   W14
 BYTE   BEND   c_v-1
 BYTE   N08  En2
 BYTE   W08
 BYTE   BEND   c_v-1
 BYTE   N15  Gn2
 BYTE   W16
 BYTE   BEND   c_v-1
 BYTE   N08  Fs2
 BYTE   W08
 BYTE   BEND   c_v-1
 BYTE   N08  Gn2
 BYTE   W08
 BYTE   BEND   c_v-1
 BYTE   N07  Gs2
 BYTE   W08
 BYTE   BEND   c_v-1
 BYTE   N08  Fn1
 BYTE   W08
 BYTE   BEND   c_v-1
 BYTE   N08  Fn2
 BYTE   W08
 BYTE   BEND   c_v-1
 BYTE   N07  As2
 BYTE   W08
 BYTE   BEND   c_v-1
 BYTE   N08  Fn2
 BYTE   W08
 BYTE   BEND   c_v-1
 BYTE   N08  As2
 BYTE   W02
//  #02 //008   ----------------------------------------
 BYTE   W06
 BYTE   BEND   c_v-1
 BYTE   N15  An2
 BYTE   W16
 BYTE   BEND   c_v-1
 BYTE   N08  Fn2
 BYTE   W08
 BYTE   BEND   c_v-1
 BYTE   N16  Gs2
 BYTE   W16
 BYTE   BEND   c_v-1
 BYTE   N07  Fn2
 BYTE   W08
 BYTE   BEND   c_v-1
 BYTE   N16  Gs2
 BYTE   W16
 BYTE   BEND   c_v-1
 BYTE   N08  Gn2
 BYTE   W08
 BYTE   BEND   c_v-1
 BYTE   N07  Gs2
 BYTE   W08
 BYTE   BEND   c_v-1
 BYTE   N08  An2
 BYTE   W08
 BYTE   BEND   c_v-1
 BYTE   N08  Fn1
 BYTE   W02
//  #02 //009   ----------------------------------------
 BYTE   W06
 BYTE   BEND   c_v-1
 BYTE   N08  Fn2
 BYTE   W08
 BYTE   BEND   c_v-1
 BYTE   N07  As2
 BYTE   W08
 BYTE   BEND   c_v-1
 BYTE   N08  Fn2
 BYTE   W08
 BYTE   BEND   c_v-1
 BYTE   N08  As2
 BYTE   W08
 BYTE   BEND   c_v-1
 BYTE   N15  An2
 BYTE   W16
 BYTE   BEND   c_v-1
 BYTE   N08  Fn2
 BYTE   W08
 BYTE   BEND   c_v-1
 BYTE   N15  Gs2
 BYTE   W16
 BYTE   BEND   c_v-1
 BYTE   N08  Fn2
 BYTE   W08
 BYTE   BEND   c_v-1
 BYTE   N16  Gs2
 BYTE   W10
//  #02 //010   ----------------------------------------
 BYTE   W06
 BYTE   BEND   c_v-1
 BYTE   N07  Gn2
 BYTE   W08
 BYTE   BEND   c_v-1
 BYTE   N08  Gs2
 BYTE   W08
 BYTE   BEND   c_v-1
 BYTE   N08  An2
 BYTE   W08
 BYTE   BEND   c_v-1
 BYTE   N08  En1
 BYTE   W08
 BYTE   BEND   c_v-1
 BYTE   N07  En2
 BYTE   W08
 BYTE   BEND   c_v-1
 BYTE   N08  An2
 BYTE   W08
 BYTE   BEND   c_v-1
 BYTE   N08  En2
 BYTE   W08
 BYTE   BEND   c_v-1
 BYTE   N08  An2
 BYTE   W08
 BYTE   BEND   c_v-1
 BYTE   N15  Gs2
 BYTE   W16
 BYTE   BEND   c_v-1
 BYTE   N08  En2
 BYTE   W08
 BYTE   BEND   c_v-1
 BYTE   N15  Gn2
 BYTE   W02
//  #02 //011   ----------------------------------------
 BYTE   W14
 BYTE   BEND   c_v-1
 BYTE   N08  En2
 BYTE   W08
 BYTE   BEND   c_v-1
 BYTE   N15  Gn2
 BYTE   W16
 BYTE   BEND   c_v-1
 BYTE   N08  Fs2
 BYTE   W08
 BYTE   BEND   c_v-1
 BYTE   N08  Gn2
 BYTE   W08
 BYTE   BEND   c_v-1
 BYTE   N08  Gs2
 BYTE   W08
 BYTE   BEND   c_v-1
 BYTE   N07  En1
 BYTE   W08
 BYTE   BEND   c_v-1
 BYTE   N08  En2
 BYTE   W08
 BYTE   BEND   c_v-1
 BYTE   N08  An2
 BYTE   W08
 BYTE   BEND   c_v-1
 BYTE   N08  En2
 BYTE   W08
 BYTE   BEND   c_v-1
 BYTE   N07  An2
 BYTE   W02
//  #02 //012   ----------------------------------------
 BYTE   W06
 BYTE   BEND   c_v-1
 BYTE   N16  Gs2
 BYTE   W16
 BYTE   BEND   c_v-1
 BYTE   N08  En2
 BYTE   W08
 BYTE   BEND   c_v-1
 BYTE   N15  Gn2
 BYTE   W16
 BYTE   BEND   c_v-1
 BYTE   N08  En2
 BYTE   W08
 BYTE   BEND   c_v-1
 BYTE   N15  Gn2
 BYTE   W16
 BYTE   BEND   c_v-1
 BYTE   N08  Fs2
 BYTE   W08
 BYTE   BEND   c_v-1
 BYTE   N08  Gn2
 BYTE   W08
 BYTE   BEND   c_v-1
 BYTE   N08  Gs2
 BYTE   W08
 BYTE   BEND   c_v-1
 BYTE   N07  En1
 BYTE   W02
//  #02 //013   ----------------------------------------
 BYTE   W05
 BYTE   BEND   c_v-1
 BYTE   N08  En2
 BYTE   W08
 BYTE   BEND   c_v-1
 BYTE   N08  An2
 BYTE   W08
 BYTE   BEND   c_v-1
 BYTE   N07  En2
 BYTE   W08
 BYTE   BEND   c_v-1
 BYTE   N08  An2
 BYTE   W08
 BYTE   BEND   c_v-1
 BYTE   N16  Gs2
 BYTE   W16
 BYTE   BEND   c_v-1
 BYTE   N07  En2
 BYTE   W08
 BYTE   BEND   c_v-1
 BYTE   N16  Gn2
 BYTE   W16
 BYTE   BEND   c_v-1
 BYTE   N08  En2
 BYTE   W08
 BYTE   BEND   c_v-1
 BYTE   N15  Gn2
 BYTE   W11
//  #02 //014   ----------------------------------------
 BYTE   W05
 BYTE   BEND   c_v-1
 BYTE   N08  Fs2
 BYTE   W08
 BYTE   BEND   c_v-1
 BYTE   N08  Gn2
 BYTE   W08
 BYTE   BEND   c_v-1
 BYTE   N07  Gs2
 BYTE   W08
 BYTE   BEND   c_v-1
 BYTE   N08  En1
 BYTE   W08
 BYTE   BEND   c_v-1
 BYTE   N08  En2
 BYTE   W08
 BYTE   BEND   c_v-1
 BYTE   N07  An2
 BYTE   W08
 BYTE   BEND   c_v-1
 BYTE   N08  En2
 BYTE   W08
 BYTE   BEND   c_v-1
 BYTE   N08  An2
 BYTE   W08
 BYTE   BEND   c_v-1
 BYTE   N15  Gs2
 BYTE   W16
 BYTE   BEND   c_v-1
 BYTE   N08  En2
 BYTE   W08
 BYTE   BEND   c_v-1
 BYTE   N16  Gn2
 BYTE   W03
//  #02 //015   ----------------------------------------
 BYTE   W13
 BYTE   BEND   c_v-1
 BYTE   N07  En2
 BYTE   W08
 BYTE   BEND   c_v-1
 BYTE   N16  Gn2
 BYTE   W16
 BYTE   BEND   c_v-1
 BYTE   N08  Fs2
 BYTE   W08
 BYTE   BEND   c_v-1
 BYTE   N07  Gn2
 BYTE   W08
 BYTE   BEND   c_v-1
 BYTE   N08  Gs2
 BYTE   W08
 BYTE   BEND   c_v-1
 BYTE   N08  Fn1
 BYTE   W08
 BYTE   BEND   c_v-1
 BYTE   N08  Fn2
 BYTE   W08
 BYTE   BEND   c_v-1
 BYTE   N07  As2
 BYTE   W08
 BYTE   BEND   c_v-1
 BYTE   N08  Fn2
 BYTE   W08
 BYTE   BEND   c_v-1
 BYTE   N08  As2
 BYTE   W03
//  #02 //016   ----------------------------------------
 BYTE   W05
 BYTE   BEND   c_v-1
 BYTE   N15  An2
 BYTE   W16
 BYTE   BEND   c_v-1
 BYTE   N08  Fn2
 BYTE   W08
 BYTE   BEND   c_v-1
 BYTE   N15  Gs2
 BYTE   W16
 BYTE   BEND   c_v-1
 BYTE   N08  Fn2
 BYTE   W08
 BYTE   BEND   c_v-1
 BYTE   N16  Gs2
 BYTE   W16
 BYTE   BEND   c_v-1
 BYTE   N07  Gn2
 BYTE   W08
 BYTE   BEND   c_v-1
 BYTE   N08  Gs2
 BYTE   W08
 BYTE   BEND   c_v-1
 BYTE   N08  An2
 BYTE   W08
 BYTE   BEND   c_v-1
 BYTE   N08  Fn1
 BYTE   W03
//  #02 //017   ----------------------------------------
 BYTE   W05
 BYTE   BEND   c_v-1
 BYTE   N07  Fn2
 BYTE   W08
 BYTE   BEND   c_v-1
 BYTE   N08  As2
 BYTE   W08
 BYTE   BEND   c_v-1
 BYTE   N08  Fn2
 BYTE   W08
 BYTE   BEND   c_v-1
 BYTE   N08  As2
 BYTE   W08
 BYTE   BEND   c_v-1
 BYTE   N15  An2
 BYTE   W16
 BYTE   BEND   c_v-1
 BYTE   N08  Fn2
 BYTE   W08
 BYTE   BEND   c_v-1
 BYTE   N15  Gs2
 BYTE   W16
 BYTE   BEND   c_v-1
 BYTE   N08  Fn2
 BYTE   W08
 BYTE   BEND   c_v-1
 BYTE   N15  Gs2
 BYTE   W11
//  #02 //018   ----------------------------------------
 BYTE   W05
 BYTE   BEND   c_v-1
 BYTE   N08  Gn2
 BYTE   W08
 BYTE   BEND   c_v-1
 BYTE   N08  Gs2
 BYTE   W08
 BYTE   GoTo
  POIN2 Label_01194C25
//  #02 //019   ----------------------------------------
 BYTE   BEND   c_v-1
 BYTE   FINE

//**************** Track 3 (Midi-Chn.2) ****************//

SuperMarioBros3FortressBoss_003:
//  #03 //000   ----------------------------------------
 BYTE   KEYSH   SuperMarioBros3FortressBoss_key+0
 BYTE   VOICE   29
 BYTE   MODT 0
 BYTE   LFOS 44
 BYTE   VOL   62*SuperMarioBros3FortressBoss_mvl/mxv
 BYTE   BEND   c_v+0
 BYTE   N08  An3  v127
 BYTE   W08
 BYTE   BEND   c_v+0
 BYTE   N08  Gs3
 BYTE   W08
 BYTE   BEND   c_v+0
 BYTE   N08  Gn3
 BYTE   W08
 BYTE   BEND   c_v+0
 BYTE   N68  Fs3
 BYTE   W68
 BYTE   W03
 BYTE   BEND   c_v-1
 BYTE   N08  En1
 BYTE   W01
//  #03 //001   ----------------------------------------
Label_01194FB9:
 BYTE   BEND   c_v-1
 BYTE   W07
 BYTE   BEND   c_v-1
 BYTE   N08  En2  v127
 BYTE   W08
 BYTE   BEND   c_v-1
 BYTE   N07  Dn3
 BYTE   W08
 BYTE   BEND   c_v-1
 BYTE   N08  En2
 BYTE   W08
 BYTE   BEND   c_v-1
 BYTE   N08  Dn3
 BYTE   W08
 BYTE   BEND   c_v-1
 BYTE   N15  Cs3
 BYTE   W16
 BYTE   BEND   c_v-1
 BYTE   N08  En2
 BYTE   W08
 BYTE   BEND   c_v-1
 BYTE   N15  Cn3
 BYTE   W16
 BYTE   BEND   c_v-1
 BYTE   N08  En2
 BYTE   W08
 BYTE   BEND   c_v-1
 BYTE   N16  Cn3
 BYTE   W09
//  #03 //002   ----------------------------------------
 BYTE   W07
 BYTE   BEND   c_v-1
 BYTE   N07  Bn2
 BYTE   W08
 BYTE   BEND   c_v-1
 BYTE   N08  Cn3
 BYTE   W08
 BYTE   BEND   c_v-1
 BYTE   N08  Cs3
 BYTE   W08
 BYTE   BEND   c_v-1
 BYTE   N08  En1
 BYTE   W08
 BYTE   BEND   c_v-1
 BYTE   N07  En2
 BYTE   W08
 BYTE   BEND   c_v-1
 BYTE   N08  Dn3
 BYTE   W08
 BYTE   BEND   c_v-1
 BYTE   N08  En2
 BYTE   W08
 BYTE   BEND   c_v-1
 BYTE   N08  Dn3
 BYTE   W08
 BYTE   BEND   c_v-1
 BYTE   N15  Cs3
 BYTE   W16
 BYTE   BEND   c_v-1
 BYTE   N08  En2
 BYTE   W08
 BYTE   BEND   c_v-1
 BYTE   N15  Cn3
 BYTE   W01
//  #03 //003   ----------------------------------------
 BYTE   W15
 BYTE   BEND   c_v-1
 BYTE   N08  En2
 BYTE   W08
 BYTE   BEND   c_v-1
 BYTE   N15  Cn3
 BYTE   W16
 BYTE   BEND   c_v-1
 BYTE   N08  Bn2
 BYTE   W08
 BYTE   BEND   c_v-1
 BYTE   N08  Cn3
 BYTE   W08
 BYTE   BEND   c_v-1
 BYTE   N08  Cs3
 BYTE   W08
 BYTE   BEND   c_v-1
 BYTE   N07  En1
 BYTE   W08
 BYTE   BEND   c_v-1
 BYTE   N08  En2
 BYTE   W08
 BYTE   BEND   c_v-1
 BYTE   N08  Dn3
 BYTE   W08
 BYTE   BEND   c_v-1
 BYTE   N08  En2
 BYTE   W08
 BYTE   BEND   c_v-1
 BYTE   N07  Dn3
 BYTE   W01
//  #03 //004   ----------------------------------------
 BYTE   W07
 BYTE   BEND   c_v-1
 BYTE   N16  Cs3
 BYTE   W16
 BYTE   BEND   c_v-1
 BYTE   N08  En2
 BYTE   W08
 BYTE   BEND   c_v-1
 BYTE   N15  Cn3
 BYTE   W16
 BYTE   BEND   c_v-1
 BYTE   N08  En2
 BYTE   W08
 BYTE   BEND   c_v-1
 BYTE   N15  Cn3
 BYTE   W16
 BYTE   BEND   c_v-1
 BYTE   N08  Bn2
 BYTE   W08
 BYTE   BEND   c_v-1
 BYTE   N08  Cn3
 BYTE   W08
 BYTE   BEND   c_v-1
 BYTE   N08  Cs3
 BYTE   W08
 BYTE   BEND   c_v-1
 BYTE   N07  En1
 BYTE   W01
//  #03 //005   ----------------------------------------
 BYTE   W07
 BYTE   BEND   c_v-1
 BYTE   N08  En2
 BYTE   W08
 BYTE   BEND   c_v-1
 BYTE   N08  Dn3
 BYTE   W08
 BYTE   BEND   c_v-1
 BYTE   N07  En2
 BYTE   W08
 BYTE   BEND   c_v-1
 BYTE   N08  Dn3
 BYTE   W08
 BYTE   BEND   c_v-1
 BYTE   N16  Cs3
 BYTE   W16
 BYTE   BEND   c_v-1
 BYTE   N07  En2
 BYTE   W08
 BYTE   BEND   c_v-1
 BYTE   N16  Cn3
 BYTE   W16
 BYTE   BEND   c_v-1
 BYTE   N08  En2
 BYTE   W08
 BYTE   BEND   c_v-1
 BYTE   N15  Cn3
 BYTE   W09
//  #03 //006   ----------------------------------------
 BYTE   W07
 BYTE   BEND   c_v-1
 BYTE   N08  Bn2
 BYTE   W08
 BYTE   BEND   c_v-1
 BYTE   N08  Cn3
 BYTE   W08
 BYTE   BEND   c_v-1
 BYTE   N07  Cs3
 BYTE   W08
 BYTE   BEND   c_v-1
 BYTE   N08  En1
 BYTE   W08
 BYTE   BEND   c_v-1
 BYTE   N08  En2
 BYTE   W08
 BYTE   BEND   c_v-1
 BYTE   N07  Dn3
 BYTE   W07
 BYTE   BEND   c_v-1
 BYTE   N08  En2
 BYTE   W08
 BYTE   BEND   c_v-1
 BYTE   N08  Dn3
 BYTE   W08
 BYTE   BEND   c_v-1
 BYTE   N15  Cs3
 BYTE   W16
 BYTE   BEND   c_v-1
 BYTE   N08  En2
 BYTE   W08
 BYTE   BEND   c_v-1
 BYTE   N16  Cn3
 BYTE   W02
//  #03 //007   ----------------------------------------
 BYTE   W14
 BYTE   BEND   c_v-1
 BYTE   N07  En2
 BYTE   W08
 BYTE   BEND   c_v-1
 BYTE   N16  Cn3
 BYTE   W16
 BYTE   BEND   c_v-1
 BYTE   N08  Bn2
 BYTE   W08
 BYTE   BEND   c_v-1
 BYTE   N07  Cn3
 BYTE   W08
 BYTE   BEND   c_v-1
 BYTE   N08  Cs3
 BYTE   W08
 BYTE   BEND   c_v-1
 BYTE   N08  Fn1
 BYTE   W08
 BYTE   BEND   c_v-1
 BYTE   N08  Fn2
 BYTE   W08
 BYTE   BEND   c_v-1
 BYTE   N07  Ds3
 BYTE   W08
 BYTE   BEND   c_v-1
 BYTE   N08  Fn2
 BYTE   W08
 BYTE   BEND   c_v-1
 BYTE   N08  Ds3
 BYTE   W02
//  #03 //008   ----------------------------------------
 BYTE   W06
 BYTE   BEND   c_v-1
 BYTE   N15  Dn3
 BYTE   W16
 BYTE   BEND   c_v-1
 BYTE   N08  Fn2
 BYTE   W08
 BYTE   BEND   c_v-1
 BYTE   N15  Cs3
 BYTE   W16
 BYTE   BEND   c_v-1
 BYTE   N08  Fn2
 BYTE   W08
 BYTE   BEND   c_v-1
 BYTE   N16  Cs3
 BYTE   W16
 BYTE   BEND   c_v-1
 BYTE   N07  Cn3
 BYTE   W08
 BYTE   BEND   c_v-1
 BYTE   N08  Cs3
 BYTE   W08
 BYTE   BEND   c_v-1
 BYTE   N08  Dn3
 BYTE   W08
 BYTE   BEND   c_v-1
 BYTE   N08  Fn1
 BYTE   W02
//  #03 //009   ----------------------------------------
 BYTE   W06
 BYTE   BEND   c_v-1
 BYTE   N07  Fn2
 BYTE   W08
 BYTE   BEND   c_v-1
 BYTE   N08  Ds3
 BYTE   W08
 BYTE   BEND   c_v-1
 BYTE   N08  Fn2
 BYTE   W08
 BYTE   BEND   c_v-1
 BYTE   N08  Ds3
 BYTE   W08
 BYTE   BEND   c_v-1
 BYTE   N15  Dn3
 BYTE   W16
 BYTE   BEND   c_v-1
 BYTE   N08  Fn2
 BYTE   W08
 BYTE   BEND   c_v-1
 BYTE   N15  Cs3
 BYTE   W16
 BYTE   BEND   c_v-1
 BYTE   N08  Fn2
 BYTE   W08
 BYTE   BEND   c_v-1
 BYTE   N15  Cs3
 BYTE   W10
//  #03 //010   ----------------------------------------
 BYTE   W06
 BYTE   BEND   c_v-1
 BYTE   N08  Cn3
 BYTE   W08
 BYTE   BEND   c_v-1
 BYTE   N08  Cs3
 BYTE   W08
 BYTE   BEND   c_v-1
 BYTE   N08  Dn3
 BYTE   W08
 BYTE   BEND   c_v-1
 BYTE   N07  En1
 BYTE   W08
 BYTE   BEND   c_v-1
 BYTE   N08  En2
 BYTE   W08
 BYTE   BEND   c_v-1
 BYTE   N08  Dn3
 BYTE   W08
 BYTE   BEND   c_v-1
 BYTE   N08  En2
 BYTE   W08
 BYTE   BEND   c_v-1
 BYTE   N07  Dn3
 BYTE   W08
 BYTE   BEND   c_v-1
 BYTE   N16  Cs3
 BYTE   W16
 BYTE   BEND   c_v-1
 BYTE   N08  En2
 BYTE   W08
 BYTE   BEND   c_v-1
 BYTE   N15  Cn3
 BYTE   W02
//  #03 //011   ----------------------------------------
 BYTE   W14
 BYTE   BEND   c_v-1
 BYTE   N08  En2
 BYTE   W08
 BYTE   BEND   c_v-1
 BYTE   N15  Cn3
 BYTE   W16
 BYTE   BEND   c_v-1
 BYTE   N08  Bn2
 BYTE   W08
 BYTE   BEND   c_v-1
 BYTE   N08  Cn3
 BYTE   W08
 BYTE   BEND   c_v-1
 BYTE   N07  Cs3
 BYTE   W08
 BYTE   BEND   c_v-1
 BYTE   N08  En1
 BYTE   W08
 BYTE   BEND   c_v-1
 BYTE   N08  En2
 BYTE   W08
 BYTE   BEND   c_v-1
 BYTE   N08  Dn3
 BYTE   W08
 BYTE   BEND   c_v-1
 BYTE   N07  En2
 BYTE   W08
 BYTE   BEND   c_v-1
 BYTE   N08  Dn3
 BYTE   W02
//  #03 //012   ----------------------------------------
 BYTE   W06
 BYTE   BEND   c_v-1
 BYTE   N16  Cs3
 BYTE   W16
 BYTE   BEND   c_v-1
 BYTE   N07  En2
 BYTE   W08
 BYTE   BEND   c_v-1
 BYTE   N16  Cn3
 BYTE   W16
 BYTE   BEND   c_v-1
 BYTE   N08  En2
 BYTE   W08
 BYTE   BEND   c_v-1
 BYTE   N15  Cn3
 BYTE   W16
 BYTE   BEND   c_v-1
 BYTE   N08  Bn2
 BYTE   W08
 BYTE   BEND   c_v-1
 BYTE   N08  Cn3
 BYTE   W08
 BYTE   BEND   c_v-1
 BYTE   N07  Cs3
 BYTE   W07
 BYTE   BEND   c_v-1
 BYTE   N08  En1
 BYTE   W03
//  #03 //013   ----------------------------------------
 BYTE   W05
 BYTE   BEND   c_v-1
 BYTE   N08  En2
 BYTE   W08
 BYTE   BEND   c_v-1
 BYTE   N07  Dn3
 BYTE   W08
 BYTE   BEND   c_v-1
 BYTE   N08  En2
 BYTE   W08
 BYTE   BEND   c_v-1
 BYTE   N08  Dn3
 BYTE   W08
 BYTE   BEND   c_v-1
 BYTE   N15  Cs3
 BYTE   W16
 BYTE   BEND   c_v-1
 BYTE   N08  En2
 BYTE   W08
 BYTE   BEND   c_v-1
 BYTE   N16  Cn3
 BYTE   W16
 BYTE   BEND   c_v-1
 BYTE   N07  En2
 BYTE   W08
 BYTE   BEND   c_v-1
 BYTE   N16  Cn3
 BYTE   W11
//  #03 //014   ----------------------------------------
 BYTE   W05
 BYTE   BEND   c_v-1
 BYTE   N08  Bn2
 BYTE   W08
 BYTE   BEND   c_v-1
 BYTE   N07  Cn3
 BYTE   W08
 BYTE   BEND   c_v-1
 BYTE   N08  Cs3
 BYTE   W08
 BYTE   BEND   c_v-1
 BYTE   N08  En1
 BYTE   W08
 BYTE   BEND   c_v-1
 BYTE   N08  En2
 BYTE   W08
 BYTE   BEND   c_v-1
 BYTE   N07  Dn3
 BYTE   W08
 BYTE   BEND   c_v-1
 BYTE   N08  En2
 BYTE   W08
 BYTE   BEND   c_v-1
 BYTE   N08  Dn3
 BYTE   W08
 BYTE   BEND   c_v-1
 BYTE   N15  Cs3
 BYTE   W16
 BYTE   BEND   c_v-1
 BYTE   N08  En2
 BYTE   W08
 BYTE   BEND   c_v-1
 BYTE   N15  Cn3
 BYTE   W03
//  #03 //015   ----------------------------------------
 BYTE   W13
 BYTE   BEND   c_v-1
 BYTE   N08  En2
 BYTE   W08
 BYTE   BEND   c_v-1
 BYTE   N16  Cn3
 BYTE   W16
 BYTE   BEND   c_v-1
 BYTE   N07  Bn2
 BYTE   W08
 BYTE   BEND   c_v-1
 BYTE   N08  Cn3
 BYTE   W08
 BYTE   BEND   c_v-1
 BYTE   N08  Cs3
 BYTE   W08
 BYTE   BEND   c_v-1
 BYTE   N08  Fn1
 BYTE   W08
 BYTE   BEND   c_v-1
 BYTE   N07  Fn2
 BYTE   W08
 BYTE   BEND   c_v-1
 BYTE   N08  Ds3
 BYTE   W08
 BYTE   BEND   c_v-1
 BYTE   N08  Fn2
 BYTE   W08
 BYTE   BEND   c_v-1
 BYTE   N08  Ds3
 BYTE   W03
//  #03 //016   ----------------------------------------
 BYTE   W05
 BYTE   BEND   c_v-1
 BYTE   N15  Dn3
 BYTE   W16
 BYTE   BEND   c_v-1
 BYTE   N08  Fn2
 BYTE   W08
 BYTE   BEND   c_v-1
 BYTE   N15  Cs3
 BYTE   W16
 BYTE   BEND   c_v-1
 BYTE   N08  Fn2
 BYTE   W08
 BYTE   BEND   c_v-1
 BYTE   N15  Cs3
 BYTE   W16
 BYTE   BEND   c_v-1
 BYTE   N08  Cn3
 BYTE   W08
 BYTE   BEND   c_v-1
 BYTE   N08  Cs3
 BYTE   W08
 BYTE   BEND   c_v-1
 BYTE   N08  Dn3
 BYTE   W08
 BYTE   BEND   c_v-1
 BYTE   N07  Fn1
 BYTE   W03
//  #03 //017   ----------------------------------------
 BYTE   W05
 BYTE   BEND   c_v-1
 BYTE   N08  Fn2
 BYTE   W08
 BYTE   BEND   c_v-1
 BYTE   N08  Ds3
 BYTE   W08
 BYTE   BEND   c_v-1
 BYTE   N08  Fn2
 BYTE   W08
 BYTE   BEND   c_v-1
 BYTE   N07  Ds3
 BYTE   W08
 BYTE   BEND   c_v-1
 BYTE   N16  Dn3
 BYTE   W16
 BYTE   BEND   c_v-1
 BYTE   N08  Fn2
 BYTE   W08
 BYTE   BEND   c_v-1
 BYTE   N15  Cs3
 BYTE   W16
 BYTE   BEND   c_v-1
 BYTE   N08  Fn2
 BYTE   W08
 BYTE   BEND   c_v-1
 BYTE   N15  Cs3
 BYTE   W11
//  #03 //018   ----------------------------------------
 BYTE   W05
 BYTE   BEND   c_v-1
 BYTE   N08  Cn3
 BYTE   W08
 BYTE   BEND   c_v-1
 BYTE   N08  Cs3
 BYTE   W08
 BYTE   GoTo
  POIN2 Label_01194FB9
//  #03 //019   ----------------------------------------
 BYTE   BEND   c_v-1
 BYTE   FINE

//**************** Track 4 (Midi-Chn.3) ****************//

SuperMarioBros3FortressBoss_004:
//  #04 //000   ----------------------------------------
 BYTE   KEYSH   SuperMarioBros3FortressBoss_key+0
 BYTE   VOICE   29
 BYTE   MODT 0
 BYTE   LFOS 44
 BYTE   VOL   68*SuperMarioBros3FortressBoss_mvl/mxv
 BYTE   BEND   c_v+0
 BYTE   N07  Fs2  v127
 BYTE   W08
 BYTE   BEND   c_v+0
 BYTE   N08  Fn2
 BYTE   W08
 BYTE   BEND   c_v+0
 BYTE   N08  En2
 BYTE   W08
 BYTE   BEND   c_v-1
 BYTE   N60  Ds2
 BYTE   W68
 BYTE   W03
 BYTE   BEND   c_v-1
 BYTE   W01
//  #04 //001   ----------------------------------------
Label_011985B7:
 BYTE   BEND   c_v-1
 BYTE   W96
//  #04 //002   ----------------------------------------
 BYTE   W30
 BYTE   W01
 BYTE   BEND   c_v-1
 BYTE   W16
 BYTE   BEND   c_v+1
 BYTE   N60  Bn3  v127
 BYTE   W48
 BYTE   W01
//  #04 //003   ----------------------------------------
 BYTE   W30
 BYTE   W01
 BYTE   BEND   c_v+4
 BYTE   N04  As3
 BYTE   W04
 BYTE   BEND   c_v+0
 BYTE   N04  An3
 BYTE   W04
 BYTE   BEND   c_v+2
 BYTE   N08  Gn3
 BYTE   W08
 BYTE   BEND   c_v+0
 BYTE   N07  An3
 BYTE   W08
 BYTE   BEND   c_v+2
 BYTE   N08  En3
 BYTE   W16
 BYTE   BEND   c_v+2
 BYTE   N08  Gn3
 BYTE   W16
 BYTE   BEND   c_v+1
 BYTE   N08  Dn3
 BYTE   W09
//  #04 //004   ----------------------------------------
 BYTE   W07
 BYTE   BEND   c_v+1
 BYTE   N07  Bn2
 BYTE   W08
 BYTE   BEND   c_v+1
 BYTE   N08  Dn3
 BYTE   W08
 BYTE   BEND   c_v+2
 BYTE   N08  En3
 BYTE   W72
 BYTE   BEND   c_v+2
 BYTE   W01
//  #04 //005   ----------------------------------------
 BYTE   W15
 BYTE   BEND   c_v+1
 BYTE   N60  Bn3
 BYTE   W80
 BYTE   BEND   c_v+4
 BYTE   N03  As3
 BYTE   N01  Bn3
 BYTE   W01
//  #04 //006   ----------------------------------------
 BYTE   W03
 BYTE   BEND   c_v+0
 BYTE   N04  An3
 BYTE   W04
 BYTE   BEND   c_v+2
 BYTE   N07  Gn3
 BYTE   W08
 BYTE   BEND   c_v+0
 BYTE   N08  An3
 BYTE   W08
 BYTE   BEND   c_v+2
 BYTE   N08  En3
 BYTE   W16
 BYTE   BEND   c_v+2
 BYTE   N08  Gn3
 BYTE   W16
 BYTE   BEND   c_v+1
 BYTE   N08  Dn3
 BYTE   W15
 BYTE   BEND   c_v+1
 BYTE   N08  Bn2
 BYTE   W08
 BYTE   BEND   c_v+1
 BYTE   N08  Dn3
 BYTE   W08
 BYTE   BEND   c_v+2
 BYTE   N08  En3
 BYTE   W10
//  #04 //007   ----------------------------------------
 BYTE   W60
 BYTE   W02
 BYTE   BEND   c_v+2
 BYTE   W16
 BYTE   BEND   c_v+4
 BYTE   N60  Cn4
 BYTE   W18
//  #04 //008   ----------------------------------------
 BYTE   W60
 BYTE   W02
 BYTE   BEND   c_v+4
 BYTE   W08
 BYTE   BEND   c_v+1
 BYTE   N08  Bn3
 BYTE   W08
 BYTE   BEND   c_v+4
 BYTE   N08  Cn4
 BYTE   W08
 BYTE   BEND   c_v+0
 BYTE   N07  Fn4
 BYTE   W08
 BYTE   BEND   c_v+5
 BYTE   N08  Ds4
 BYTE   W02
//  #04 //009   ----------------------------------------
 BYTE   W06
 BYTE   BEND   c_v+1
 BYTE   N08  Bn3
 BYTE   W08
 BYTE   BEND   c_v+4
 BYTE   N08  As3
 BYTE   W08
 BYTE   BEND   c_v+2
 BYTE   N07  Gs3
 BYTE   W08
 BYTE   BEND   c_v+4
 BYTE   N04  As3
 BYTE   W04
 BYTE   BEND   c_v+1
 BYTE   N04  Bn3
 BYTE   W04
 BYTE   BEND   c_v+4
 BYTE   N04  As3
 BYTE   W04
 BYTE   BEND   c_v+2
 BYTE   N04  Gs3
 BYTE   W04
 BYTE   BEND   c_v+4
 BYTE   N07  As3
 BYTE   W08
 BYTE   BEND   c_v+0
 BYTE   N08  Fn3
 BYTE   W08
 BYTE   BEND   c_v+2
 BYTE   N08  Gs3
 BYTE   W08
 BYTE   BEND   c_v+0
 BYTE   N08  Fn3
 BYTE   W08
 BYTE   BEND   c_v+2
 BYTE   N07  Ds3
 BYTE   W08
 BYTE   BEND   c_v+0
 BYTE   N08  Fn3
 BYTE   W10
//  #04 //010   ----------------------------------------
 BYTE   W30
 BYTE   BEND   c_v+0
 BYTE   W16
 BYTE   BEND   c_v+1
 BYTE   N01
 BYTE   N60  Bn3
 BYTE   W48
 BYTE   W02
//  #04 //011   ----------------------------------------
 BYTE   W30
 BYTE   BEND   c_v+4
 BYTE   N03  As3
 BYTE   W04
 BYTE   BEND   c_v+0
 BYTE   N04  An3
 BYTE   W04
 BYTE   BEND   c_v+2
 BYTE   N07  Gn3
 BYTE   W08
 BYTE   BEND   c_v+0
 BYTE   N08  An3
 BYTE   W08
 BYTE   BEND   c_v+2
 BYTE   N08  En3
 BYTE   W16
 BYTE   BEND   c_v+2
 BYTE   N07  Gn3
 BYTE   W16
 BYTE   BEND   c_v+1
 BYTE   N08  Dn3
 BYTE   W10
//  #04 //012   ----------------------------------------
 BYTE   W06
 BYTE   BEND   c_v+1
 BYTE   N07  Bn2
 BYTE   W08
 BYTE   BEND   c_v+1
 BYTE   N08  Dn3
 BYTE   W08
 BYTE   BEND   c_v+2
 BYTE   N08  En3
 BYTE   W72
 BYTE   BEND   c_v+2
 BYTE   W02
//  #04 //013   ----------------------------------------
 BYTE   W13
 BYTE   BEND   c_v+1
 BYTE   N60  Bn3
 BYTE   W80
 BYTE   BEND   c_v+4
 BYTE   N04  As3
 BYTE   W03
//  #04 //014   ----------------------------------------
 BYTE   W01
 BYTE   BEND   c_v+0
 BYTE   N04  An3
 BYTE   W04
 BYTE   BEND   c_v+2
 BYTE   N08  Gn3
 BYTE   W08
 BYTE   BEND   c_v+0
 BYTE   N08  An3
 BYTE   W08
 BYTE   BEND   c_v+2
 BYTE   N07  En3
 BYTE   W16
 BYTE   BEND   c_v+2
 BYTE   N08  Gn3
 BYTE   W16
 BYTE   BEND   c_v+1
 BYTE   N07  Dn3
 BYTE   W16
 BYTE   BEND   c_v+1
 BYTE   N08  Bn2
 BYTE   W08
 BYTE   BEND   c_v+1
 BYTE   N08  Dn3
 BYTE   W08
 BYTE   BEND   c_v+2
 BYTE   N07  En3
 BYTE   W11
//  #04 //015   ----------------------------------------
 BYTE   W60
 BYTE   W01
 BYTE   BEND   c_v+2
 BYTE   W16
 BYTE   BEND   c_v+4
 BYTE   N60  Cn4
 BYTE   W19
//  #04 //016   ----------------------------------------
 BYTE   W60
 BYTE   W01
 BYTE   BEND   c_v+4
 BYTE   W08
 BYTE   BEND   c_v+1
 BYTE   N08  Bn3
 BYTE   W08
 BYTE   BEND   c_v+4
 BYTE   N07  Cn4
 BYTE   W08
 BYTE   BEND   c_v+0
 BYTE   N08  Fn4
 BYTE   W08
 BYTE   BEND   c_v+5
 BYTE   N08  Ds4
 BYTE   W03
//  #04 //017   ----------------------------------------
 BYTE   W05
 BYTE   BEND   c_v+1
 BYTE   N08  Bn3
 BYTE   W08
 BYTE   BEND   c_v+4
 BYTE   N07  As3
 BYTE   W08
 BYTE   BEND   c_v+2
 BYTE   N08  Gs3
 BYTE   W08
 BYTE   BEND   c_v+4
 BYTE   N04  As3
 BYTE   W04
 BYTE   BEND   c_v+1
 BYTE   N04  Bn3
 BYTE   W04
 BYTE   BEND   c_v+4
 BYTE   N03  As3
 BYTE   W04
 BYTE   BEND   c_v+2
 BYTE   N04  Gs3
 BYTE   W04
 BYTE   BEND   c_v+4
 BYTE   N08  As3
 BYTE   W08
 BYTE   BEND   c_v+0
 BYTE   N08  Fn3
 BYTE   W08
 BYTE   BEND   c_v+2
 BYTE   N07  Gs3
 BYTE   W08
 BYTE   BEND   c_v+0
 BYTE   N08  Fn3
 BYTE   W08
 BYTE   BEND   c_v+2
 BYTE   N08  Ds3
 BYTE   W08
 BYTE   BEND   c_v+0
 BYTE   N08  Fn3
 BYTE   W11
//  #04 //018   ----------------------------------------
 BYTE   W21
 BYTE   GoTo
  POIN2 Label_011985B7
 BYTE   FINE

//******************************************************//
	ALIGN 4

SuperMarioBros3FortressBoss:
	BYTE	4	// NumTrks
	BYTE	0	// NumBlks
	BYTE	SuperMarioBros3FortressBoss_pri	// Priority
	BYTE	SuperMarioBros3FortressBoss_rev	// Reverb.
    
	POIN2	SuperMarioBros3FortressBoss_grp
    
	POIN2	SuperMarioBros3FortressBoss_001
	POIN2	SuperMarioBros3FortressBoss_002
	POIN2	SuperMarioBros3FortressBoss_003
	POIN2	SuperMarioBros3FortressBoss_004

	
