//Event file generated from Sappy .s format.
	

	#define	WreckingCrewGoldenHammer_grp  voicegroup000
	#define	WreckingCrewGoldenHammer_pri  0
	#define	WreckingCrewGoldenHammer_rev  0
	#define	WreckingCrewGoldenHammer_mvl  127
	#define	WreckingCrewGoldenHammer_key  0
	#define	WreckingCrewGoldenHammer_tbs  1
	#define	WreckingCrewGoldenHammer_exg  0
	#define	WreckingCrewGoldenHammer_cmp  1

	// .rodata
	//	WreckingCrewGoldenHammer
	ALIGN 4


//**************** Track 1 (Midi-Chn.0) ****************//

WreckingCrewGoldenHammer_001:
//  #01 //000   ----------------------------------------
 BYTE   KEYSH   WreckingCrewGoldenHammer_key+0
Label_01195A66:
 BYTE   TEMPO   120*WreckingCrewGoldenHammer_tbs/2
 BYTE   VOICE   36
 BYTE   MODT 0
 BYTE   LFOS 44
 BYTE   VOL   68*WreckingCrewGoldenHammer_mvl/mxv
 BYTE   BEND   c_v-1
 BYTE   N19  An2  v127
 BYTE   W19
 BYTE   BEND   c_v-1
 BYTE   N09
 BYTE   W09
 BYTE   BEND   c_v-1
 BYTE   N09  En2
 BYTE   W10
 BYTE   BEND   c_v-1
 BYTE   N19  Gn2
 BYTE   W19
 BYTE   BEND   c_v-1
 BYTE   N09
 BYTE   W10
 BYTE   BEND   c_v-1
 BYTE   N09  Dn2
 BYTE   W09
 BYTE   BEND   c_v-1
 BYTE   N19  Fs2
 BYTE   W19
 BYTE   BEND   c_v-1
 BYTE   N19
 BYTE   W01
//  #01 //001   ----------------------------------------
 BYTE   W28
 BYTE   BEND   c_v-1
 BYTE   N09  As2
 BYTE   W10
 BYTE   BEND   c_v-1
 BYTE   N09
 BYTE   W19
 BYTE   BEND   c_v-1
 BYTE   N19  An2
 BYTE   W19
 BYTE   BEND   c_v-1
 BYTE   N19
 BYTE   W19
 BYTE   BEND   c_v-1
 BYTE   N19  Gn2
 BYTE   W01
//  #01 //002   ----------------------------------------
 BYTE   W18
 BYTE   BEND   c_v-1
 BYTE   N19
 BYTE   W28
 BYTE   W01
 BYTE   BEND   c_v-1
 BYTE   N09  Bn2
 BYTE   W10
 BYTE   BEND   c_v-1
 BYTE   N09
 BYTE   W19
 BYTE   BEND   c_v-1
 BYTE   N19
 BYTE   W19
 BYTE   BEND   c_v-1
 BYTE   N19
 BYTE   W01
//  #01 //003   ----------------------------------------
 BYTE   W18
 BYTE   BEND   c_v-1
 BYTE   N09  En2
 BYTE   W19
 BYTE   BEND   c_v-1
 BYTE   N09
 BYTE   W10
 BYTE   BEND   c_v-1
 BYTE   N09  Gs2
 BYTE   W10
 BYTE   BEND   c_v-1
 BYTE   N19  Bn2
 BYTE   W19
 BYTE   BEND   c_v-1
 BYTE   N19  Gs2
 BYTE   W19
 BYTE   BEND   c_v-1
 BYTE   N09  An2
 BYTE   W01
//  #01 //004   ----------------------------------------
 BYTE   W09
 BYTE   BEND   c_v-1
 BYTE   N09
 BYTE   W09
 BYTE   BEND   c_v-1
 BYTE   N09  Gs2
 BYTE   W19
 BYTE   BEND   c_v-1
 BYTE   N19  Fs2
 BYTE   W19
 BYTE   BEND   c_v-1
 BYTE   N19  Bn2
 BYTE   W20
 BYTE   BEND   c_v-1
 BYTE   N09  En2
 BYTE   W19
 BYTE   BEND   c_v-1
 BYTE   N09
 BYTE   W01
//  #01 //005   ----------------------------------------
 BYTE   W08
 BYTE   BEND   c_v-1
 BYTE   N09  Gs2
 BYTE   W10
 BYTE   BEND   c_v-1
 BYTE   N19  Bn2
 BYTE   W19
 BYTE   BEND   c_v-1
 BYTE   N19  Gs2
 BYTE   W19
 BYTE   BEND   c_v-1
 BYTE   N09  An2
 BYTE   W10
 BYTE   BEND   c_v-1
 BYTE   N09
 BYTE   W09
 BYTE   BEND   c_v-1
 BYTE   N09  Gs2
 BYTE   W20
 BYTE   BEND   c_v-1
 BYTE   N19  Fs2
 BYTE   W01
//  #01 //006   ----------------------------------------
 BYTE   W18
 BYTE   BEND   c_v-1
 BYTE   N19  Bn2
 BYTE   W19
 BYTE   BEND   c_v-1
 BYTE   N09  En2
 BYTE   W10
 BYTE   BEND   c_v-1
 BYTE   N09
 BYTE   W09
 BYTE   BEND   c_v-1
 BYTE   N09  Gs2
 BYTE   W19
 BYTE   BEND   c_v-1
 BYTE   N09  Bn2
 BYTE   W19
 BYTE   BEND   c_v-1
 BYTE   N09  Gs2
 BYTE   W02
//  #01 //007   ----------------------------------------
 BYTE   W18
 BYTE   BEND   c_v-1
 BYTE   N12  Fs2
 BYTE   W12
 BYTE   BEND   c_v-1
 BYTE   N12
 BYTE   W13
 BYTE   BEND   c_v-1
 BYTE   N12  An2
 BYTE   W13
 BYTE   BEND   c_v-1
 BYTE   N09  Cs3
 BYTE   W10
 BYTE   BEND   c_v-1
 BYTE   N09
 BYTE   W09
 BYTE   BEND   c_v-1
 BYTE   N09  Bn2
 BYTE   W19
 BYTE   BEND   c_v-1
 BYTE   N09  Gs2
 BYTE   W02
//  #01 //008   ----------------------------------------
 BYTE   W08
 BYTE   BEND   c_v-1
 BYTE   N09
 BYTE   W09
 BYTE   BEND   c_v-1
 BYTE   N09  Bn2
 BYTE   W20
 BYTE   BEND   c_v-1
 BYTE   N09  Ds3
 BYTE   W19
 BYTE   BEND   c_v-1
 BYTE   N09  Bn2
 BYTE   W19
 BYTE   BEND   c_v-1
 BYTE   N09  An2
 BYTE   W10
 BYTE   BEND   c_v-1
 BYTE   N09
 BYTE   W09
 BYTE   BEND   c_v-1
 BYTE   N09  Gs2
 BYTE   W02
//  #01 //009   ----------------------------------------
 BYTE   W17
 BYTE   BEND   c_v-1
 BYTE   N09  Fs2
 BYTE   W10
 BYTE   BEND   c_v-1
 BYTE   N09
 BYTE   W09
 BYTE   BEND   c_v-1
 BYTE   N09  Bn2
 BYTE   W20
 BYTE   BEND   c_v-1
 BYTE   N09  En2
 BYTE   W09
 BYTE   BEND   c_v-1
 BYTE   N09
 BYTE   W10
 BYTE   BEND   c_v-1
 BYTE   N09  Gs2
 BYTE   W19
 BYTE   BEND   c_v-1
 BYTE   N09  Bn2
 BYTE   W02
//  #01 //010   ----------------------------------------
 BYTE   W17
 BYTE   BEND   c_v-1
 BYTE   N09  Gs2
 BYTE   W19
 BYTE   BEND   c_v-1
 BYTE   N12  Fs2
 BYTE   W13
 BYTE   BEND   c_v-1
 BYTE   N12
 BYTE   W13
 BYTE   BEND   c_v-1
 BYTE   N12  An2
 BYTE   W13
 BYTE   BEND   c_v-1
 BYTE   N09  Cs3
 BYTE   W09
 BYTE   BEND   c_v-1
 BYTE   N09
 BYTE   W10
 BYTE   BEND   c_v-1
 BYTE   N09  Bn2
 BYTE   W02
//  #01 //011   ----------------------------------------
 BYTE   W17
 BYTE   BEND   c_v-1
 BYTE   N09  Gs2
 BYTE   W10
 BYTE   BEND   c_v-1
 BYTE   N09
 BYTE   W09
 BYTE   BEND   c_v-1
 BYTE   N09  Bn2
 BYTE   W19
 BYTE   BEND   c_v-1
 BYTE   N09  Ds3
 BYTE   W19
 BYTE   BEND   c_v-1
 BYTE   N09  Bn2
 BYTE   W20
 BYTE   BEND   c_v-1
 BYTE   N09  An2
 BYTE   W02
//  #01 //012   ----------------------------------------
 BYTE   W07
 BYTE   BEND   c_v-1
 BYTE   N09
 BYTE   W10
 BYTE   BEND   c_v-1
 BYTE   N09  Gs2
 BYTE   W19
 BYTE   BEND   c_v-1
 BYTE   N09  Fs2
 BYTE   W10
 BYTE   BEND   c_v-1
 BYTE   N09
 BYTE   W09
 BYTE   BEND   c_v-1
 BYTE   N09  Bn2
 BYTE   W19
 BYTE   BEND   c_v-1
 BYTE   N09  En2
 BYTE   W10
 BYTE   BEND   c_v-1
 BYTE   N09
 BYTE   W10
 BYTE   BEND   c_v-1
 BYTE   N09  Gs2
 BYTE   W02
//  #01 //013   ----------------------------------------
 BYTE   W17
 BYTE   BEND   c_v-1
 BYTE   N09  Bn2
 BYTE   W19
 BYTE   BEND   c_v-1
 BYTE   N09  Gs2
 BYTE   W19
 BYTE   BEND   c_v-1
 BYTE   N12  Fs2
 BYTE   W13
 BYTE   BEND   c_v-1
 BYTE   N12
 BYTE   W13
 BYTE   BEND   c_v-1
 BYTE   N12  An2
 BYTE   W12
 BYTE   BEND   c_v-1
 BYTE   N09  Cs3
 BYTE   W03
//  #01 //014   ----------------------------------------
 BYTE   W07
 BYTE   BEND   c_v-1
 BYTE   N09
 BYTE   W10
 BYTE   BEND   c_v-1
 BYTE   N09  Bn2
 BYTE   W19
 BYTE   BEND   c_v-1
 BYTE   N09  Gs2
 BYTE   W09
 BYTE   BEND   c_v-1
 BYTE   N09
 BYTE   W10
 BYTE   BEND   c_v-1
 BYTE   N09  Bn2
 BYTE   W19
 BYTE   BEND   c_v-1
 BYTE   N09  Ds3
 BYTE   W19
 BYTE   BEND   c_v-1
 BYTE   N09  Bn2
 BYTE   W03
//  #01 //015   ----------------------------------------
 BYTE   W16
 BYTE   BEND   c_v-1
 BYTE   N09  An2
 BYTE   W10
 BYTE   BEND   c_v-1
 BYTE   N09
 BYTE   W10
 BYTE   BEND   c_v-1
 BYTE   N09  Gs2
 BYTE   W19
 BYTE   BEND   c_v-1
 BYTE   N09  Fs2
 BYTE   W09
 BYTE   BEND   c_v-1
 BYTE   N09
 BYTE   W10
 BYTE   BEND   c_v-1
 BYTE   N09  Bn2
 BYTE   W19
 BYTE   BEND   c_v-1
 BYTE   N09  En2
 BYTE   W03
//  #01 //016   ----------------------------------------
 BYTE   W07
 BYTE   BEND   c_v-1
 BYTE   N09
 BYTE   W09
 BYTE   BEND   c_v-1
 BYTE   N09  Gs2
 BYTE   W19
 BYTE   BEND   c_v-1
 BYTE   N09  Bn2
 BYTE   W20
 BYTE   BEND   c_v-1
 BYTE   N09  Gs2
 BYTE   W19
 BYTE   BEND   c_v-1
 BYTE   N12  Fs2
 BYTE   W12
 BYTE   BEND   c_v-1
 BYTE   N12
 BYTE   W10
//  #01 //017   ----------------------------------------
 BYTE   W03
 BYTE   BEND   c_v-1
 BYTE   N12  An2
 BYTE   W13
 BYTE   BEND   c_v-1
 BYTE   N09  Cs3
 BYTE   W10
 BYTE   BEND   c_v-1
 BYTE   N09
 BYTE   W09
 BYTE   BEND   c_v-1
 BYTE   N09  Bn2
 BYTE   W19
 BYTE   BEND   c_v-1
 BYTE   N09  Gs2
 BYTE   W10
 BYTE   BEND   c_v-1
 BYTE   N09
 BYTE   W10
 BYTE   BEND   c_v-1
 BYTE   N09  Bn2
 BYTE   W19
 BYTE   BEND   c_v-1
 BYTE   N09  Ds3
 BYTE   W03
//  #01 //018   ----------------------------------------
 BYTE   W16
 BYTE   BEND   c_v-1
 BYTE   N09  Bn2
 BYTE   W19
 BYTE   BEND   c_v-1
 BYTE   N09  An2
 BYTE   W10
 BYTE   BEND   c_v-1
 BYTE   N09
 BYTE   W09
 BYTE   BEND   c_v-1
 BYTE   N09  Gs2
 BYTE   W19
 BYTE   BEND   c_v-1
 BYTE   N09  Fs2
 BYTE   W10
 BYTE   BEND   c_v-1
 BYTE   N09
 BYTE   W10
 BYTE   BEND   c_v-1
 BYTE   N09  Bn2
 BYTE   W03
//  #01 //019   ----------------------------------------
 BYTE   W17
 BYTE   BEND   c_v-1
 BYTE   N09  En2
 BYTE   W19
 BYTE   BEND   c_v-1
 BYTE   N09
 BYTE   W09
 BYTE   BEND   c_v-1
 BYTE   N09  Gs2
 BYTE   W10
 BYTE   BEND   c_v-1
 BYTE   N19  Bn2
 BYTE   W19
 BYTE   BEND   c_v-1
 BYTE   N19  Gs2
 BYTE   W19
 BYTE   BEND   c_v-1
 BYTE   N09  An2
 BYTE   W03
//  #01 //020   ----------------------------------------
 BYTE   W07
 BYTE   BEND   c_v-1
 BYTE   N09
 BYTE   W09
 BYTE   BEND   c_v-1
 BYTE   N09  Gs2
 BYTE   W20
 BYTE   BEND   c_v-1
 BYTE   N19  Fs2
 BYTE   W19
 BYTE   BEND   c_v-1
 BYTE   N19  Bn2
 BYTE   W19
 BYTE   BEND   c_v-1
 BYTE   N09  En2
 BYTE   W19
 BYTE   BEND   c_v-1
 BYTE   N09
 BYTE   W03
//  #01 //021   ----------------------------------------
 BYTE   W07
 BYTE   BEND   c_v-1
 BYTE   N09  Gs2
 BYTE   W09
 BYTE   BEND   c_v-1
 BYTE   N19  Bn2
 BYTE   W19
 BYTE   BEND   c_v-1
 BYTE   N19  Gs2
 BYTE   W20
 BYTE   BEND   c_v-1
 BYTE   N09  An2
 BYTE   W09
 BYTE   BEND   c_v-1
 BYTE   N09
 BYTE   W10
 BYTE   BEND   c_v-1
 BYTE   N09  Gs2
 BYTE   W19
 BYTE   BEND   c_v-1
 BYTE   N19  Fs2
 BYTE   W03
//  #01 //022   ----------------------------------------
 BYTE   W16
 BYTE   BEND   c_v-1
 BYTE   N19  Bn2
 BYTE   W19
 BYTE   BEND   c_v-1
 BYTE   N09  En2
 BYTE   W10
 BYTE   BEND   c_v-1
 BYTE   N09
 BYTE   W09
 BYTE   BEND   c_v-1
 BYTE   N09  Gs2
 BYTE   W20
 BYTE   BEND   c_v-1
 BYTE   N09  Bn2
 BYTE   W19
 BYTE   BEND   c_v-1
 BYTE   N09  Gs2
 BYTE   W03
//  #01 //023   ----------------------------------------
 BYTE   W16
 BYTE   BEND   c_v-1
 BYTE   N12  Fs2
 BYTE   W13
 BYTE   BEND   c_v-1
 BYTE   N12
 BYTE   W12
 BYTE   BEND   c_v-1
 BYTE   N12  An2
 BYTE   W13
 BYTE   BEND   c_v-1
 BYTE   N09  Cs3
 BYTE   W10
 BYTE   BEND   c_v-1
 BYTE   N09
 BYTE   W09
 BYTE   BEND   c_v-1
 BYTE   N09  Bn2
 BYTE   W20
 BYTE   BEND   c_v-1
 BYTE   N09  Gs2
 BYTE   W03
//  #01 //024   ----------------------------------------
 BYTE   W06
 BYTE   BEND   c_v-1
 BYTE   N09
 BYTE   W10
 BYTE   BEND   c_v-1
 BYTE   N09  Bn2
 BYTE   W19
 BYTE   BEND   c_v-1
 BYTE   N09  Ds3
 BYTE   W19
 BYTE   BEND   c_v-1
 BYTE   N09  Bn2
 BYTE   W19
 BYTE   BEND   c_v-1
 BYTE   N09  An2
 BYTE   W10
 BYTE   BEND   c_v-1
 BYTE   N09
 BYTE   W09
 BYTE   BEND   c_v-1
 BYTE   N09  Gs2
 BYTE   W04
//  #01 //025   ----------------------------------------
 BYTE   W16
 BYTE   BEND   c_v-1
 BYTE   N09  Fs2
 BYTE   W09
 BYTE   BEND   c_v-1
 BYTE   N09
 BYTE   W10
 BYTE   BEND   c_v-1
 BYTE   N09  Bn2
 BYTE   W19
 BYTE   BEND   c_v-1
 BYTE   N09  En2
 BYTE   W10
 BYTE   BEND   c_v-1
 BYTE   N09
 BYTE   W09
 BYTE   BEND   c_v-1
 BYTE   N09  Gs2
 BYTE   W19
 BYTE   BEND   c_v-1
 BYTE   N09  Bn2
 BYTE   W04
//  #01 //026   ----------------------------------------
 BYTE   W15
 BYTE   BEND   c_v-1
 BYTE   N09  Gs2
 BYTE   W20
 BYTE   BEND   c_v-1
 BYTE   N12  Fs2
 BYTE   W12
 BYTE   BEND   c_v-1
 BYTE   N12
 BYTE   W13
 BYTE   BEND   c_v-1
 BYTE   N12  An2
 BYTE   W13
 BYTE   BEND   c_v-1
 BYTE   N09  Cs3
 BYTE   W10
 BYTE   BEND   c_v-1
 BYTE   N09
 BYTE   W09
 BYTE   BEND   c_v-1
 BYTE   N09  Bn2
 BYTE   W04
//  #01 //027   ----------------------------------------
 BYTE   W15
 BYTE   BEND   c_v-1
 BYTE   N09  Gs2
 BYTE   W10
 BYTE   BEND   c_v-1
 BYTE   N09
 BYTE   W09
 BYTE   BEND   c_v-1
 BYTE   N09  Bn2
 BYTE   W20
 BYTE   BEND   c_v-1
 BYTE   N09  Ds3
 BYTE   W19
 BYTE   BEND   c_v-1
 BYTE   N09  Bn2
 BYTE   W19
 BYTE   BEND   c_v-1
 BYTE   N09  An2
 BYTE   W04
//  #01 //028   ----------------------------------------
 BYTE   W06
 BYTE   BEND   c_v-1
 BYTE   N09
 BYTE   W09
 BYTE   BEND   c_v-1
 BYTE   N09  Gs2
 BYTE   W19
 BYTE   BEND   c_v-1
 BYTE   N09  Fs2
 BYTE   W10
 BYTE   BEND   c_v-1
 BYTE   N09
 BYTE   W09
 BYTE   BEND   c_v-1
 BYTE   N09  Bn2
 BYTE   W20
 BYTE   BEND   c_v-1
 BYTE   N09  En2
 BYTE   W09
 BYTE   BEND   c_v-1
 BYTE   N09
 BYTE   W10
 BYTE   BEND   c_v-1
 BYTE   N09  Gs2
 BYTE   W04
//  #01 //029   ----------------------------------------
 BYTE   W15
 BYTE   BEND   c_v-1
 BYTE   N09  Bn2
 BYTE   W19
 BYTE   BEND   c_v-1
 BYTE   N09  Gs2
 BYTE   W19
 BYTE   BEND   c_v-1
 BYTE   N12  Fs2
 BYTE   W13
 BYTE   BEND   c_v-1
 BYTE   N12
 BYTE   W13
 BYTE   BEND   c_v-1
 BYTE   N12  An2
 BYTE   W13
 BYTE   BEND   c_v-1
 BYTE   N09  Cs3
 BYTE   W04
//  #01 //030   ----------------------------------------
 BYTE   W05
 BYTE   BEND   c_v-1
 BYTE   N09
 BYTE   W10
 BYTE   BEND   c_v-1
 BYTE   N09  Bn2
 BYTE   W19
 BYTE   BEND   c_v-1
 BYTE   N09  Gs2
 BYTE   W10
 BYTE   BEND   c_v-1
 BYTE   N09
 BYTE   W09
 BYTE   BEND   c_v-1
 BYTE   N09  Bn2
 BYTE   W19
 BYTE   BEND   c_v-1
 BYTE   N09  Ds3
 BYTE   W19
 BYTE   BEND   c_v-1
 BYTE   N09  Bn2
 BYTE   W05
//  #01 //031   ----------------------------------------
 BYTE   W15
 BYTE   BEND   c_v-1
 BYTE   N09  An2
 BYTE   W09
 BYTE   BEND   c_v-1
 BYTE   N09
 BYTE   W10
 BYTE   BEND   c_v-1
 BYTE   N09  Gs2
 BYTE   W19
 BYTE   BEND   c_v-1
 BYTE   N09  Fs2
 BYTE   W10
 BYTE   BEND   c_v-1
 BYTE   N09
 BYTE   W09
 BYTE   BEND   c_v-1
 BYTE   N09  Bn2
 BYTE   W19
 BYTE   BEND   c_v-1
 BYTE   N09  En2
 BYTE   W05
//  #01 //032   ----------------------------------------
 BYTE   W05
 BYTE   BEND   c_v-1
 BYTE   N09
 BYTE   W09
 BYTE   BEND   c_v-1
 BYTE   N09  Gs2
 BYTE   W20
 BYTE   BEND   c_v-1
 BYTE   N09  Bn2
 BYTE   W19
 BYTE   BEND   c_v-1
 BYTE   N09  Gs2
 BYTE   W19
 BYTE   BEND   c_v-1
 BYTE   N12  Fs2
 BYTE   W13
 BYTE   BEND   c_v-1
 BYTE   N12
 BYTE   W11
//  #01 //033   ----------------------------------------
 BYTE   W02
 BYTE   BEND   c_v-1
 BYTE   N12  An2
 BYTE   W12
 BYTE   BEND   c_v-1
 BYTE   N09  Cs3
 BYTE   W10
 BYTE   BEND   c_v-1
 BYTE   N09
 BYTE   W10
 BYTE   BEND   c_v-1
 BYTE   N09  Bn2
 BYTE   W19
 BYTE   BEND   c_v-1
 BYTE   N09  Gs2
 BYTE   W09
 BYTE   BEND   c_v-1
 BYTE   N09
 BYTE   W10
 BYTE   BEND   c_v-1
 BYTE   N09  Bn2
 BYTE   W19
 BYTE   BEND   c_v-1
 BYTE   N09  Ds3
 BYTE   W05
//  #01 //034   ----------------------------------------
 BYTE   W14
 BYTE   BEND   c_v-1
 BYTE   N09  Bn2
 BYTE   W19
 BYTE   BEND   c_v-1
 BYTE   N09  An2
 BYTE   W10
 BYTE   BEND   c_v-1
 BYTE   N09
 BYTE   W10
 BYTE   BEND   c_v-1
 BYTE   N09  Gs2
 BYTE   W19
 BYTE   BEND   c_v-1
 BYTE   N09  Fs2
 BYTE   W09
 BYTE   BEND   c_v-1
 BYTE   N09
 BYTE   W10
 BYTE   BEND   c_v-1
 BYTE   N09  Bn2
 BYTE   W05
//  #01 //035   ----------------------------------------
 BYTE   W15
 BYTE   GoTo
  POIN2 Label_01195A66
//  #01 //036   ----------------------------------------
 BYTE   BEND   c_v-1
 BYTE   FINE

//**************** Track 2 (Midi-Chn.1) ****************//

WreckingCrewGoldenHammer_002:
//  #02 //000   ----------------------------------------
 BYTE   KEYSH   WreckingCrewGoldenHammer_key+0
Label_011950BE:
 BYTE   VOICE   4
 BYTE   MODT 0
 BYTE   LFOS 44
 BYTE   VOL   44*WreckingCrewGoldenHammer_mvl/mxv
 BYTE   BEND   c_v+0
 BYTE   N02  Gs3  v127
 BYTE   W02
 BYTE   BEND   c_v+0
 BYTE   N02  En3
 BYTE   W02
 BYTE   BEND   c_v+0
 BYTE   N02  Gs3
 BYTE   W03
 BYTE   BEND   c_v+0
 BYTE   N02  En3
 BYTE   W02
 BYTE   BEND   c_v+0
 BYTE   N02  Gs3
 BYTE   W03
 BYTE   BEND   c_v+0
 BYTE   N02  En3
 BYTE   W02
 BYTE   BEND   c_v+0
 BYTE   N02  Gs3
 BYTE   W02
 BYTE   BEND   c_v+0
 BYTE   N02  En3
 BYTE   W03
 BYTE   BEND   c_v+0
 BYTE   N02
 BYTE   W02
 BYTE   BEND   c_v-1
 BYTE   N02  Cs3
 BYTE   W02
 BYTE   BEND   c_v+0
 BYTE   N02  En3
 BYTE   W03
 BYTE   BEND   c_v-1
 BYTE   N02  Cs3
 BYTE   W02
 BYTE   BEND   c_v+0
 BYTE   N02  En3
 BYTE   W03
 BYTE   BEND   c_v-1
 BYTE   N02  Cs3
 BYTE   W02
 BYTE   BEND   c_v+0
 BYTE   N02  En3
 BYTE   W02
 BYTE   BEND   c_v-1
 BYTE   N02  Cs3
 BYTE   W03
 BYTE   BEND   c_v+0
 BYTE   N02  Fs3
 BYTE   W02
 BYTE   BEND   c_v-1
 BYTE   N02  Dn3
 BYTE   W03
 BYTE   BEND   c_v+0
 BYTE   N02  Fs3
 BYTE   W02
 BYTE   BEND   c_v-1
 BYTE   N02  Dn3
 BYTE   W02
 BYTE   BEND   c_v+0
 BYTE   N02  Fs3
 BYTE   W03
 BYTE   BEND   c_v-1
 BYTE   N02  Dn3
 BYTE   W02
 BYTE   BEND   c_v+0
 BYTE   N02  Fs3
 BYTE   W03
 BYTE   BEND   c_v-1
 BYTE   N02  Dn3
 BYTE   W02
 BYTE   BEND   c_v-1
 BYTE   N02
 BYTE   W02
 BYTE   BEND   c_v-1
 BYTE   N02  An2
 BYTE   W03
 BYTE   BEND   c_v-1
 BYTE   N02  Dn3
 BYTE   W02
 BYTE   BEND   c_v-1
 BYTE   N02  An2
 BYTE   W03
 BYTE   BEND   c_v-1
 BYTE   N02  Dn3
 BYTE   W02
 BYTE   BEND   c_v-1
 BYTE   N02  An2
 BYTE   W02
 BYTE   BEND   c_v-1
 BYTE   N02  Dn3
 BYTE   W03
 BYTE   BEND   c_v-1
 BYTE   N02  An2
 BYTE   W02
 BYTE   BEND   c_v+0
 BYTE   N02  En3
 BYTE   W03
 BYTE   BEND   c_v-1
 BYTE   N02  Cs3
 BYTE   W02
 BYTE   BEND   c_v+0
 BYTE   N02  En3
 BYTE   W02
 BYTE   BEND   c_v-1
 BYTE   N02  Cs3
 BYTE   W03
 BYTE   BEND   c_v+0
 BYTE   N02  En3
 BYTE   W02
 BYTE   BEND   c_v-1
 BYTE   N02  Cs3
 BYTE   W03
 BYTE   BEND   c_v+0
 BYTE   N02  En3
 BYTE   W02
 BYTE   BEND   c_v-1
 BYTE   N02  Cs3
 BYTE   W02
 BYTE   BEND   c_v-1
 BYTE   N02
 BYTE   W01
//  #02 //001   ----------------------------------------
 BYTE   W02
 BYTE   BEND   c_v-1
 BYTE   N02  An2
 BYTE   W02
 BYTE   BEND   c_v-1
 BYTE   N02  Cs3
 BYTE   W03
 BYTE   BEND   c_v-1
 BYTE   N02  An2
 BYTE   W02
 BYTE   BEND   c_v-1
 BYTE   N02  Cs3
 BYTE   W02
 BYTE   BEND   c_v-1
 BYTE   N02  An2
 BYTE   W03
 BYTE   BEND   c_v-1
 BYTE   N02  Cs3
 BYTE   W02
 BYTE   BEND   c_v-1
 BYTE   N02  An2
 BYTE   W03
 BYTE   BEND   c_v-1
 BYTE   N02  Cn3
 BYTE   W02
 BYTE   BEND   c_v-1
 BYTE   N02  Gn2
 BYTE   W02
 BYTE   BEND   c_v-1
 BYTE   N02  Cn3
 BYTE   W03
 BYTE   BEND   c_v-1
 BYTE   N02  Gn2
 BYTE   W02
 BYTE   BEND   c_v-1
 BYTE   N02  Cn3
 BYTE   W03
 BYTE   BEND   c_v-1
 BYTE   N02  Gn2
 BYTE   W02
 BYTE   BEND   c_v-1
 BYTE   N02  Cn3
 BYTE   W02
 BYTE   BEND   c_v-1
 BYTE   N02  Gn2
 BYTE   W03
 BYTE   BEND   c_v+0
 BYTE   N02  En3
 BYTE   W02
 BYTE   BEND   c_v-1
 BYTE   N02  Cn3
 BYTE   W03
 BYTE   BEND   c_v+0
 BYTE   N02  En3
 BYTE   W02
 BYTE   BEND   c_v-1
 BYTE   N02  Cn3
 BYTE   W02
 BYTE   BEND   c_v+0
 BYTE   N02  En3
 BYTE   W03
 BYTE   BEND   c_v-1
 BYTE   N02  Cn3
 BYTE   W02
 BYTE   BEND   c_v+0
 BYTE   N02  En3
 BYTE   W02
 BYTE   BEND   c_v-1
 BYTE   N02  Cn3
 BYTE   W03
 BYTE   BEND   c_v+0
 BYTE   N02  Gs3
 BYTE   W02
 BYTE   BEND   c_v+0
 BYTE   N02  En3
 BYTE   W03
 BYTE   BEND   c_v+0
 BYTE   N02  Gs3
 BYTE   W02
 BYTE   BEND   c_v+0
 BYTE   N02  En3
 BYTE   W02
 BYTE   BEND   c_v+0
 BYTE   N02  Gs3
 BYTE   W03
 BYTE   BEND   c_v+0
 BYTE   N02  En3
 BYTE   W02
 BYTE   BEND   c_v+0
 BYTE   N02  Gs3
 BYTE   W03
 BYTE   BEND   c_v+0
 BYTE   N02  En3
 BYTE   W02
 BYTE   BEND   c_v+0
 BYTE   N02
 BYTE   W02
 BYTE   BEND   c_v-1
 BYTE   N02  Cs3
 BYTE   W03
 BYTE   BEND   c_v+0
 BYTE   N02  En3
 BYTE   W02
 BYTE   BEND   c_v-1
 BYTE   N02  Cs3
 BYTE   W03
 BYTE   BEND   c_v+0
 BYTE   N02  En3
 BYTE   W02
 BYTE   BEND   c_v-1
 BYTE   N02  Cs3
 BYTE   W02
 BYTE   BEND   c_v+0
 BYTE   N02  En3
 BYTE   W03
 BYTE   BEND   c_v-1
 BYTE   N02  Cs3
 BYTE   W02
 BYTE   BEND   c_v+0
 BYTE   N02  Fs3
 BYTE   W01
//  #02 //002   ----------------------------------------
 BYTE   W02
 BYTE   BEND   c_v-1
 BYTE   N02  Dn3
 BYTE   W02
 BYTE   BEND   c_v+0
 BYTE   N02  Fs3
 BYTE   W02
 BYTE   BEND   c_v-1
 BYTE   N02  Dn3
 BYTE   W03
 BYTE   BEND   c_v+0
 BYTE   N02  Fs3
 BYTE   W02
 BYTE   BEND   c_v-1
 BYTE   N02  Dn3
 BYTE   W03
 BYTE   BEND   c_v+0
 BYTE   N02  Fs3
 BYTE   W02
 BYTE   BEND   c_v-1
 BYTE   N02  Dn3
 BYTE   W02
 BYTE   BEND   c_v-1
 BYTE   N02
 BYTE   W03
 BYTE   BEND   c_v-1
 BYTE   N02  An2
 BYTE   W02
 BYTE   BEND   c_v-1
 BYTE   N02  Dn3
 BYTE   W03
 BYTE   BEND   c_v-1
 BYTE   N02  An2
 BYTE   W02
 BYTE   BEND   c_v-1
 BYTE   N02  Dn3
 BYTE   W02
 BYTE   BEND   c_v-1
 BYTE   N02  An2
 BYTE   W03
 BYTE   BEND   c_v-1
 BYTE   N02  Dn3
 BYTE   W02
 BYTE   BEND   c_v-1
 BYTE   N02  An2
 BYTE   W03
 BYTE   BEND   c_v+0
 BYTE   N02  En3
 BYTE   W02
 BYTE   BEND   c_v-1
 BYTE   N02  An2
 BYTE   W02
 BYTE   BEND   c_v+0
 BYTE   N02  En3
 BYTE   W03
 BYTE   BEND   c_v-1
 BYTE   N02  An2
 BYTE   W02
 BYTE   BEND   c_v+0
 BYTE   N02  En3
 BYTE   W03
 BYTE   BEND   c_v-1
 BYTE   N02  An2
 BYTE   W02
 BYTE   BEND   c_v+0
 BYTE   N02  En3
 BYTE   W02
 BYTE   BEND   c_v-1
 BYTE   N02  An2
 BYTE   W03
 BYTE   BEND   c_v+0
 BYTE   N02  En3
 BYTE   W02
 BYTE   BEND   c_v-1
 BYTE   N02  An2
 BYTE   W03
 BYTE   BEND   c_v+0
 BYTE   N02  En3
 BYTE   W02
 BYTE   BEND   c_v-1
 BYTE   N02  An2
 BYTE   W02
 BYTE   BEND   c_v+0
 BYTE   N02  En3
 BYTE   W03
 BYTE   BEND   c_v-1
 BYTE   N02  An2
 BYTE   W02
 BYTE   BEND   c_v+0
 BYTE   N02  En3
 BYTE   W02
 BYTE   BEND   c_v-1
 BYTE   N02  An2
 BYTE   W03
 BYTE   BEND   c_v+0
 BYTE   N02  En3
 BYTE   W02
 BYTE   BEND   c_v-1
 BYTE   N02  An2
 BYTE   W03
 BYTE   BEND   c_v+0
 BYTE   N02  En3
 BYTE   W02
 BYTE   BEND   c_v-1
 BYTE   N02  An2
 BYTE   W02
 BYTE   BEND   c_v+0
 BYTE   N02  En3
 BYTE   W03
 BYTE   BEND   c_v-1
 BYTE   N02  An2
 BYTE   W02
 BYTE   BEND   c_v+0
 BYTE   N02  En3
 BYTE   W03
 BYTE   BEND   c_v-1
 BYTE   N02  An2
 BYTE   W02
 BYTE   BEND   c_v+0
 BYTE   N02  En3
 BYTE   W01
//  #02 //003   ----------------------------------------
 BYTE   W01
 BYTE   BEND   c_v-1
 BYTE   N02  An2
 BYTE   W03
 BYTE   BEND   c_v+0
 BYTE   N02  En3
 BYTE   W02
 BYTE   BEND   c_v-1
 BYTE   N02  An2
 BYTE   W03
 BYTE   BEND   c_v+0
 BYTE   N02  En3
 BYTE   W02
 BYTE   BEND   c_v-1
 BYTE   N02  An2
 BYTE   W02
 BYTE   BEND   c_v+0
 BYTE   N02  En3
 BYTE   W03
 BYTE   BEND   c_v-1
 BYTE   N02  An2
 BYTE   W02
 BYTE   BEND   c_v-1
 BYTE   N19  Gs2
 BYTE   W19
 BYTE   BEND   c_v-1
 BYTE   N09
 BYTE   W10
 BYTE   BEND   c_v-1
 BYTE   N09  Bn2
 BYTE   W10
 BYTE   BEND   c_v+0
 BYTE   N19  Fs3
 BYTE   W19
 BYTE   BEND   c_v+0
 BYTE   N19  En3
 BYTE   W19
 BYTE   BEND   c_v-1
 BYTE   N02  Cs3
 BYTE   W01
//  #02 //004   ----------------------------------------
 BYTE   W01
 BYTE   BEND   c_v-1
 BYTE   N02  An2
 BYTE   W03
 BYTE   BEND   c_v-1
 BYTE   N02  Cs3
 BYTE   W02
 BYTE   BEND   c_v-1
 BYTE   N02  An2
 BYTE   W02
 BYTE   BEND   c_v-1
 BYTE   N02  Cs3
 BYTE   W03
 BYTE   BEND   c_v-1
 BYTE   N02  An2
 BYTE   W02
 BYTE   BEND   c_v-1
 BYTE   N02  Cs3
 BYTE   W03
 BYTE   BEND   c_v-1
 BYTE   N02  An2
 BYTE   W02
 BYTE   BEND   c_v-1
 BYTE   N02  Ds3
 BYTE   W02
 BYTE   BEND   c_v-1
 BYTE   N02  Bn2
 BYTE   W03
 BYTE   BEND   c_v-1
 BYTE   N02  Ds3
 BYTE   W02
 BYTE   BEND   c_v-1
 BYTE   N02  Bn2
 BYTE   W03
 BYTE   BEND   c_v-1
 BYTE   N02  Ds3
 BYTE   W02
 BYTE   BEND   c_v-1
 BYTE   N02  Bn2
 BYTE   W02
 BYTE   BEND   c_v-1
 BYTE   N02  Ds3
 BYTE   W03
 BYTE   BEND   c_v-1
 BYTE   N02  Bn2
 BYTE   W02
 BYTE   BEND   c_v+0
 BYTE   N02  En3
 BYTE   W03
 BYTE   BEND   c_v-1
 BYTE   N02  Cs3
 BYTE   W02
 BYTE   BEND   c_v+0
 BYTE   N02  En3
 BYTE   W02
 BYTE   BEND   c_v-1
 BYTE   N02  Cs3
 BYTE   W03
 BYTE   BEND   c_v+0
 BYTE   N02  En3
 BYTE   W02
 BYTE   BEND   c_v-1
 BYTE   N02  Cs3
 BYTE   W03
 BYTE   BEND   c_v+0
 BYTE   N02  En3
 BYTE   W02
 BYTE   BEND   c_v-1
 BYTE   N02  Cs3
 BYTE   W02
 BYTE   BEND   c_v+0
 BYTE   N02  En3
 BYTE   W03
 BYTE   BEND   c_v-1
 BYTE   N02  An2
 BYTE   W02
 BYTE   BEND   c_v+0
 BYTE   N02  En3
 BYTE   W03
 BYTE   BEND   c_v-1
 BYTE   N02  An2
 BYTE   W02
 BYTE   BEND   c_v+0
 BYTE   N02  En3
 BYTE   W02
 BYTE   BEND   c_v-1
 BYTE   N02  An2
 BYTE   W03
 BYTE   BEND   c_v+0
 BYTE   N02  En3
 BYTE   W02
 BYTE   BEND   c_v-1
 BYTE   N02  An2
 BYTE   W03
 BYTE   BEND   c_v-1
 BYTE   N19  Gs2
 BYTE   W19
 BYTE   BEND   c_v-1
 BYTE   N09
 BYTE   W01
//  #02 //005   ----------------------------------------
 BYTE   W08
 BYTE   BEND   c_v-1
 BYTE   N09  Bn2
 BYTE   W10
 BYTE   BEND   c_v+0
 BYTE   N19  Fs3
 BYTE   W19
 BYTE   BEND   c_v+0
 BYTE   N19  En3
 BYTE   W19
 BYTE   BEND   c_v-1
 BYTE   N02  Cs3
 BYTE   W03
 BYTE   BEND   c_v-1
 BYTE   N02  An2
 BYTE   W02
 BYTE   BEND   c_v-1
 BYTE   N02  Cs3
 BYTE   W02
 BYTE   BEND   c_v-1
 BYTE   N02  An2
 BYTE   W03
 BYTE   BEND   c_v-1
 BYTE   N02  Cs3
 BYTE   W02
 BYTE   BEND   c_v-1
 BYTE   N02  An2
 BYTE   W03
 BYTE   BEND   c_v-1
 BYTE   N02  Cs3
 BYTE   W02
 BYTE   BEND   c_v-1
 BYTE   N02  An2
 BYTE   W02
 BYTE   BEND   c_v-1
 BYTE   N02  Ds3
 BYTE   W03
 BYTE   BEND   c_v-1
 BYTE   N02  Bn2
 BYTE   W02
 BYTE   BEND   c_v-1
 BYTE   N02  Ds3
 BYTE   W03
 BYTE   BEND   c_v-1
 BYTE   N02  Bn2
 BYTE   W02
 BYTE   BEND   c_v-1
 BYTE   N02  Ds3
 BYTE   W02
 BYTE   BEND   c_v-1
 BYTE   N02  Bn2
 BYTE   W03
 BYTE   BEND   c_v-1
 BYTE   N02  Ds3
 BYTE   W02
 BYTE   BEND   c_v-1
 BYTE   N02  Bn2
 BYTE   W03
 BYTE   BEND   c_v+0
 BYTE   N02  En3
 BYTE   W01
//  #02 //006   ----------------------------------------
 BYTE   W01
 BYTE   BEND   c_v-1
 BYTE   N02  Cs3
 BYTE   W02
 BYTE   BEND   c_v+0
 BYTE   N02  En3
 BYTE   W03
 BYTE   BEND   c_v-1
 BYTE   N02  Cs3
 BYTE   W02
 BYTE   BEND   c_v+0
 BYTE   N02  En3
 BYTE   W03
 BYTE   BEND   c_v-1
 BYTE   N02  Cs3
 BYTE   W02
 BYTE   BEND   c_v+0
 BYTE   N02  En3
 BYTE   W02
 BYTE   BEND   c_v-1
 BYTE   N02  Cs3
 BYTE   W03
 BYTE   BEND   c_v+0
 BYTE   N02  Fs3
 BYTE   W02
 BYTE   BEND   c_v-1
 BYTE   N02  An2
 BYTE   W03
 BYTE   BEND   c_v+0
 BYTE   N02  Fs3
 BYTE   W02
 BYTE   BEND   c_v-1
 BYTE   N02  An2
 BYTE   W02
 BYTE   BEND   c_v+0
 BYTE   N02  Fs3
 BYTE   W03
 BYTE   BEND   c_v-1
 BYTE   N02  An2
 BYTE   W02
 BYTE   BEND   c_v+0
 BYTE   N02  Fs3
 BYTE   W03
 BYTE   BEND   c_v-1
 BYTE   N02  An2
 BYTE   W02
 BYTE   BEND   c_v-1
 BYTE   N09  Fs2
 BYTE   W10
 BYTE   BEND   c_v-1
 BYTE   N19  Gs2
 BYTE   W19
 BYTE   BEND   c_v+0
 BYTE   N19  En3
 BYTE   W19
 BYTE   BEND   c_v-1
 BYTE   N09  Fs2
 BYTE   W09
 BYTE   BEND   c_v-1
 BYTE   N09  Gs2
 BYTE   W02
//  #02 //007   ----------------------------------------
 BYTE   W08
 BYTE   BEND   c_v+0
 BYTE   N09  En3
 BYTE   W10
 BYTE   BEND   c_v-1
 BYTE   N09  Gs2
 BYTE   W09
 BYTE   BEND   c_v-1
 BYTE   N19  An2
 BYTE   W19
 BYTE   BEND   c_v+0
 BYTE   N19  En3
 BYTE   W20
 BYTE   BEND   c_v-1
 BYTE   N09  Fs2
 BYTE   W09
 BYTE   BEND   c_v-1
 BYTE   N09  An2
 BYTE   W10
 BYTE   BEND   c_v+0
 BYTE   N09  En3
 BYTE   W09
 BYTE   BEND   c_v-1
 BYTE   N09  Gs2
 BYTE   W02
//  #02 //008   ----------------------------------------
 BYTE   W08
 BYTE   BEND   c_v-1
 BYTE   N19  Bn2
 BYTE   W19
 BYTE   BEND   c_v-1
 BYTE   N19  Ds3
 BYTE   W19
 BYTE   BEND   c_v-1
 BYTE   N09  Fs2
 BYTE   W10
 BYTE   BEND   c_v-1
 BYTE   N09  Bn2
 BYTE   W09
 BYTE   BEND   c_v-1
 BYTE   N09  Ds3
 BYTE   W10
 BYTE   BEND   c_v-1
 BYTE   N19  Cs3
 BYTE   W19
 BYTE   BEND   c_v-1
 BYTE   N19  Bn2
 BYTE   W02
//  #02 //009   ----------------------------------------
 BYTE   W17
 BYTE   BEND   c_v+0
 BYTE   N19  En3
 BYTE   W19
 BYTE   BEND   c_v-1
 BYTE   N19  An2
 BYTE   W20
 BYTE   BEND   c_v-1
 BYTE   N09  Fs2
 BYTE   W09
 BYTE   BEND   c_v-1
 BYTE   N19  Gs2
 BYTE   W19
 BYTE   BEND   c_v+0
 BYTE   N19  En3
 BYTE   W12
//  #02 //010   ----------------------------------------
 BYTE   W08
 BYTE   BEND   c_v-1
 BYTE   N09  Fs2
 BYTE   W09
 BYTE   BEND   c_v-1
 BYTE   N09  Gs2
 BYTE   W10
 BYTE   BEND   c_v+0
 BYTE   N09  En3
 BYTE   W09
 BYTE   BEND   c_v-1
 BYTE   N09  Gs2
 BYTE   W10
 BYTE   BEND   c_v-1
 BYTE   N19  An2
 BYTE   W19
 BYTE   BEND   c_v+0
 BYTE   N19  En3
 BYTE   W19
 BYTE   BEND   c_v-1
 BYTE   N09  Fs2
 BYTE   W10
 BYTE   BEND   c_v-1
 BYTE   N09  An2
 BYTE   W02
//  #02 //011   ----------------------------------------
 BYTE   W07
 BYTE   BEND   c_v+0
 BYTE   N09  En3
 BYTE   W10
 BYTE   BEND   c_v-1
 BYTE   N09  Gs2
 BYTE   W10
 BYTE   BEND   c_v-1
 BYTE   N19  Bn2
 BYTE   W19
 BYTE   BEND   c_v-1
 BYTE   N19  Ds3
 BYTE   W19
 BYTE   BEND   c_v-1
 BYTE   N09  Fs2
 BYTE   W09
 BYTE   BEND   c_v-1
 BYTE   N09  Bn2
 BYTE   W10
 BYTE   BEND   c_v-1
 BYTE   N09  Ds3
 BYTE   W10
 BYTE   BEND   c_v-1
 BYTE   N19  Cs3
 BYTE   W02
//  #02 //012   ----------------------------------------
 BYTE   W17
 BYTE   BEND   c_v-1
 BYTE   N19  Bn2
 BYTE   W19
 BYTE   BEND   c_v+0
 BYTE   N19  En3
 BYTE   W19
 BYTE   BEND   c_v-1
 BYTE   TIE  An2
 BYTE   W40
 BYTE   W01
//  #02 //013   ----------------------------------------
 BYTE   W96
//  #02 //014   ----------------------------------------
 BYTE   W96
//  #02 //015   ----------------------------------------
 BYTE   W16
 BYTE   EOT
 BYTE   BEND   c_v-1
 BYTE   N19  Cs3
 BYTE   W20
 BYTE   BEND   c_v+0
 BYTE   N19  En3
 BYTE   W19
 BYTE   BEND   c_v+1
 BYTE   N19  Bn3
 BYTE   W19
 BYTE   BEND   c_v-1
 BYTE   TIE  Cs3
 BYTE   W22
//  #02 //016   ----------------------------------------
 BYTE   W96
//  #02 //017   ----------------------------------------
 BYTE   W96
//  #02 //018   ----------------------------------------
 BYTE   W32
 BYTE   W03
 BYTE   EOT
 BYTE   BEND   c_v-1
 BYTE   N19
 BYTE   W19
 BYTE   BEND   c_v+0
 BYTE   N19  En3
 BYTE   W19
 BYTE   BEND   c_v+1
 BYTE   N19  Bn3
 BYTE   W20
 BYTE   BEND   c_v-1
 BYTE   N19  Cs3
 BYTE   W03
//  #02 //019   ----------------------------------------
 BYTE   W17
 BYTE   BEND   c_v-1
 BYTE   N19  Gs2
 BYTE   W19
 BYTE   BEND   c_v-1
 BYTE   N09
 BYTE   W09
 BYTE   BEND   c_v-1
 BYTE   N09  Bn2
 BYTE   W10
 BYTE   BEND   c_v+0
 BYTE   N19  Fs3
 BYTE   W19
 BYTE   BEND   c_v+0
 BYTE   N19  En3
 BYTE   W19
 BYTE   BEND   c_v-1
 BYTE   N02  Cs3
 BYTE   W03
//  #02 //020   ----------------------------------------
 BYTE   BEND   c_v-1
 BYTE   N02  An2
 BYTE   W02
 BYTE   BEND   c_v-1
 BYTE   N02  Cs3
 BYTE   W02
 BYTE   BEND   c_v-1
 BYTE   N02  An2
 BYTE   W03
 BYTE   BEND   c_v-1
 BYTE   N02  Cs3
 BYTE   W02
 BYTE   BEND   c_v-1
 BYTE   N02  An2
 BYTE   W03
 BYTE   BEND   c_v-1
 BYTE   N02  Cs3
 BYTE   W02
 BYTE   BEND   c_v-1
 BYTE   N02  An2
 BYTE   W02
 BYTE   BEND   c_v-1
 BYTE   N02  Ds3
 BYTE   W03
 BYTE   BEND   c_v-1
 BYTE   N02  Bn2
 BYTE   W02
 BYTE   BEND   c_v-1
 BYTE   N02  Ds3
 BYTE   W03
 BYTE   BEND   c_v-1
 BYTE   N02  Bn2
 BYTE   W02
 BYTE   BEND   c_v-1
 BYTE   N02  Ds3
 BYTE   W02
 BYTE   BEND   c_v-1
 BYTE   N02  Bn2
 BYTE   W03
 BYTE   BEND   c_v-1
 BYTE   N02  Ds3
 BYTE   W02
 BYTE   BEND   c_v-1
 BYTE   N02  Bn2
 BYTE   W03
 BYTE   BEND   c_v+0
 BYTE   N02  En3
 BYTE   W02
 BYTE   BEND   c_v-1
 BYTE   N02  Cs3
 BYTE   W02
 BYTE   BEND   c_v+0
 BYTE   N02  En3
 BYTE   W03
 BYTE   BEND   c_v-1
 BYTE   N02  Cs3
 BYTE   W02
 BYTE   BEND   c_v+0
 BYTE   N02  En3
 BYTE   W03
 BYTE   BEND   c_v-1
 BYTE   N02  Cs3
 BYTE   W02
 BYTE   BEND   c_v+0
 BYTE   N02  En3
 BYTE   W02
 BYTE   BEND   c_v-1
 BYTE   N02  Cs3
 BYTE   W03
 BYTE   BEND   c_v+0
 BYTE   N02  En3
 BYTE   W02
 BYTE   BEND   c_v-1
 BYTE   N02  An2
 BYTE   W02
 BYTE   BEND   c_v+0
 BYTE   N02  En3
 BYTE   W03
 BYTE   BEND   c_v-1
 BYTE   N02  An2
 BYTE   W02
 BYTE   BEND   c_v+0
 BYTE   N02  En3
 BYTE   W03
 BYTE   BEND   c_v-1
 BYTE   N02  An2
 BYTE   W02
 BYTE   BEND   c_v+0
 BYTE   N02  En3
 BYTE   W02
 BYTE   BEND   c_v-1
 BYTE   N02  An2
 BYTE   W03
 BYTE   BEND   c_v-1
 BYTE   N19  Gs2
 BYTE   W19
 BYTE   BEND   c_v-1
 BYTE   N09
 BYTE   W03
//  #02 //021   ----------------------------------------
 BYTE   W07
 BYTE   BEND   c_v-1
 BYTE   N09  Bn2
 BYTE   W09
 BYTE   BEND   c_v+0
 BYTE   N19  Fs3
 BYTE   W19
 BYTE   BEND   c_v+0
 BYTE   N19  En3
 BYTE   W20
 BYTE   BEND   c_v-1
 BYTE   N02  Cs3
 BYTE   W02
 BYTE   BEND   c_v-1
 BYTE   N02  An2
 BYTE   W02
 BYTE   BEND   c_v-1
 BYTE   N02  Cs3
 BYTE   W03
 BYTE   BEND   c_v-1
 BYTE   N02  An2
 BYTE   W02
 BYTE   BEND   c_v-1
 BYTE   N02  Cs3
 BYTE   W03
 BYTE   BEND   c_v-1
 BYTE   N02  An2
 BYTE   W02
 BYTE   BEND   c_v-1
 BYTE   N02  Cs3
 BYTE   W02
 BYTE   BEND   c_v-1
 BYTE   N02  An2
 BYTE   W03
 BYTE   BEND   c_v-1
 BYTE   N02  Ds3
 BYTE   W02
 BYTE   BEND   c_v-1
 BYTE   N02  Bn2
 BYTE   W03
 BYTE   BEND   c_v-1
 BYTE   N02  Ds3
 BYTE   W02
 BYTE   BEND   c_v-1
 BYTE   N02  Bn2
 BYTE   W02
 BYTE   BEND   c_v-1
 BYTE   N02  Ds3
 BYTE   W03
 BYTE   BEND   c_v-1
 BYTE   N02  Bn2
 BYTE   W02
 BYTE   BEND   c_v-1
 BYTE   N02  Ds3
 BYTE   W02
 BYTE   BEND   c_v-1
 BYTE   N02  Bn2
 BYTE   W03
 BYTE   BEND   c_v+0
 BYTE   N02  En3
 BYTE   W02
 BYTE   BEND   c_v-1
 BYTE   N02  Cs3
 BYTE   W01
//  #02 //022   ----------------------------------------
 BYTE   W02
 BYTE   BEND   c_v+0
 BYTE   N02  En3
 BYTE   W02
 BYTE   BEND   c_v-1
 BYTE   N02  Cs3
 BYTE   W02
 BYTE   BEND   c_v+0
 BYTE   N02  En3
 BYTE   W03
 BYTE   BEND   c_v-1
 BYTE   N02  Cs3
 BYTE   W02
 BYTE   BEND   c_v+0
 BYTE   N02  En3
 BYTE   W03
 BYTE   BEND   c_v-1
 BYTE   N02  Cs3
 BYTE   W02
 BYTE   BEND   c_v+0
 BYTE   N02  Fs3
 BYTE   W02
 BYTE   BEND   c_v-1
 BYTE   N02  An2
 BYTE   W03
 BYTE   BEND   c_v+0
 BYTE   N02  Fs3
 BYTE   W02
 BYTE   BEND   c_v-1
 BYTE   N02  An2
 BYTE   W03
 BYTE   BEND   c_v+0
 BYTE   N02  Fs3
 BYTE   W02
 BYTE   BEND   c_v-1
 BYTE   N02  An2
 BYTE   W02
 BYTE   BEND   c_v+0
 BYTE   N02  Fs3
 BYTE   W03
 BYTE   BEND   c_v-1
 BYTE   N02  An2
 BYTE   W02
 BYTE   BEND   c_v-1
 BYTE   N09  Fs2
 BYTE   W10
 BYTE   BEND   c_v-1
 BYTE   N19  Gs2
 BYTE   W19
 BYTE   BEND   c_v+0
 BYTE   N19  En3
 BYTE   W19
 BYTE   BEND   c_v-1
 BYTE   N09  Fs2
 BYTE   W10
 BYTE   BEND   c_v-1
 BYTE   N09  Gs2
 BYTE   W03
//  #02 //023   ----------------------------------------
 BYTE   W06
 BYTE   BEND   c_v+0
 BYTE   N09  En3
 BYTE   W10
 BYTE   BEND   c_v-1
 BYTE   N09  Gs2
 BYTE   W09
 BYTE   BEND   c_v-1
 BYTE   N19  An2
 BYTE   W20
 BYTE   BEND   c_v+0
 BYTE   N19  En3
 BYTE   W19
 BYTE   BEND   c_v-1
 BYTE   N09  Fs2
 BYTE   W09
 BYTE   BEND   c_v-1
 BYTE   N09  An2
 BYTE   W10
 BYTE   BEND   c_v+0
 BYTE   N09  En3
 BYTE   W10
 BYTE   BEND   c_v-1
 BYTE   N09  Gs2
 BYTE   W03
//  #02 //024   ----------------------------------------
 BYTE   W06
 BYTE   BEND   c_v-1
 BYTE   N19  Bn2
 BYTE   W19
 BYTE   BEND   c_v-1
 BYTE   N19  Ds3
 BYTE   W19
 BYTE   BEND   c_v-1
 BYTE   N09  Fs2
 BYTE   W10
 BYTE   BEND   c_v-1
 BYTE   N09  Bn2
 BYTE   W10
 BYTE   BEND   c_v-1
 BYTE   N09  Ds3
 BYTE   W09
 BYTE   BEND   c_v-1
 BYTE   N19  Cs3
 BYTE   W19
 BYTE   BEND   c_v-1
 BYTE   N19  Bn2
 BYTE   W04
//  #02 //025   ----------------------------------------
 BYTE   W16
 BYTE   BEND   c_v+0
 BYTE   N19  En3
 BYTE   W19
 BYTE   BEND   c_v-1
 BYTE   N19  An2
 BYTE   W19
 BYTE   BEND   c_v-1
 BYTE   N09  Fs2
 BYTE   W10
 BYTE   BEND   c_v-1
 BYTE   N19  Gs2
 BYTE   W19
 BYTE   BEND   c_v+0
 BYTE   N19  En3
 BYTE   W13
//  #02 //026   ----------------------------------------
 BYTE   W06
 BYTE   BEND   c_v-1
 BYTE   N09  Fs2
 BYTE   W09
 BYTE   BEND   c_v-1
 BYTE   N09  Gs2
 BYTE   W10
 BYTE   BEND   c_v+0
 BYTE   N09  En3
 BYTE   W10
 BYTE   BEND   c_v-1
 BYTE   N09  Gs2
 BYTE   W09
 BYTE   BEND   c_v-1
 BYTE   N19  An2
 BYTE   W19
 BYTE   BEND   c_v+0
 BYTE   N19  En3
 BYTE   W20
 BYTE   BEND   c_v-1
 BYTE   N09  Fs2
 BYTE   W09
 BYTE   BEND   c_v-1
 BYTE   N09  An2
 BYTE   W04
//  #02 //027   ----------------------------------------
 BYTE   W06
 BYTE   BEND   c_v+0
 BYTE   N09  En3
 BYTE   W09
 BYTE   BEND   c_v-1
 BYTE   N09  Gs2
 BYTE   W10
 BYTE   BEND   c_v-1
 BYTE   N19  Bn2
 BYTE   W19
 BYTE   BEND   c_v-1
 BYTE   N19  Ds3
 BYTE   W19
 BYTE   BEND   c_v-1
 BYTE   N09  Fs2
 BYTE   W10
 BYTE   BEND   c_v-1
 BYTE   N09  Bn2
 BYTE   W09
 BYTE   BEND   c_v-1
 BYTE   N09  Ds3
 BYTE   W10
 BYTE   BEND   c_v-1
 BYTE   N19  Cs3
 BYTE   W04
//  #02 //028   ----------------------------------------
 BYTE   W15
 BYTE   BEND   c_v-1
 BYTE   N19  Bn2
 BYTE   W19
 BYTE   BEND   c_v+0
 BYTE   N19  En3
 BYTE   W19
 BYTE   BEND   c_v-1
 BYTE   TIE  An2
 BYTE   W42
 BYTE   W01
//  #02 //029   ----------------------------------------
 BYTE   W96
//  #02 //030   ----------------------------------------
 BYTE   W96
//  #02 //031   ----------------------------------------
 BYTE   W14
 BYTE   EOT
 BYTE   W01
 BYTE   BEND   c_v-1
 BYTE   N19  Cs3
 BYTE   W19
 BYTE   BEND   c_v+0
 BYTE   N19  En3
 BYTE   W19
 BYTE   BEND   c_v+1
 BYTE   N19  Bn3
 BYTE   W19
 BYTE   BEND   c_v-1
 BYTE   TIE  Cs3
 BYTE   W24
//  #02 //032   ----------------------------------------
 BYTE   W96
//  #02 //033   ----------------------------------------
 BYTE   W96
//  #02 //034   ----------------------------------------
 BYTE   W32
 BYTE   W01
 BYTE   EOT
 BYTE   BEND   c_v-1
 BYTE   N19
 BYTE   W20
 BYTE   BEND   c_v+0
 BYTE   N19  En3
 BYTE   W19
 BYTE   BEND   c_v+1
 BYTE   N19  Bn3
 BYTE   W19
 BYTE   BEND   c_v-1
 BYTE   N19  Cs3
 BYTE   W05
//  #02 //035   ----------------------------------------
 BYTE   W15
 BYTE   GoTo
  POIN2 Label_011950BE
//  #02 //036   ----------------------------------------
 BYTE   BEND   c_v-1
 BYTE   FINE

//**************** Track 3 (Midi-Chn.2) ****************//

WreckingCrewGoldenHammer_003:
//  #03 //000   ----------------------------------------
 BYTE   KEYSH   WreckingCrewGoldenHammer_key+0
Label_01196266:
 BYTE   VOICE   121
 BYTE   MODT 0
 BYTE   LFOS 44
 BYTE   VOL   60*WreckingCrewGoldenHammer_mvl/mxv
 BYTE   BEND   c_v-6
 BYTE   N04  Cn1  v127
 BYTE   W04
 BYTE   BEND   c_v-6
 BYTE   N04
 BYTE   W05
 BYTE   BEND   c_v-6
 BYTE   N04  Gn1
 BYTE   W05
 BYTE   BEND   c_v-6
 BYTE   N04  Cn1
 BYTE   W05
 BYTE   BEND   c_v-6
 BYTE   N04
 BYTE   W04
 BYTE   BEND   c_v-6
 BYTE   N04
 BYTE   W05
 BYTE   BEND   c_v-6
 BYTE   N04  Gn1
 BYTE   W05
 BYTE   BEND   c_v-6
 BYTE   N04  Cn1
 BYTE   W05
 BYTE   BEND   c_v-6
 BYTE   N04
 BYTE   W05
 BYTE   BEND   c_v-6
 BYTE   N04
 BYTE   W04
 BYTE   BEND   c_v-6
 BYTE   N04  Gn1
 BYTE   W05
 BYTE   BEND   c_v-6
 BYTE   N04  Cn1
 BYTE   W05
 BYTE   BEND   c_v-6
 BYTE   N04
 BYTE   W05
 BYTE   BEND   c_v-6
 BYTE   N04
 BYTE   W05
 BYTE   BEND   c_v-6
 BYTE   N04  Gn1
 BYTE   W04
 BYTE   BEND   c_v-6
 BYTE   N04  Cn1
 BYTE   W05
 BYTE   BEND   c_v-6
 BYTE   N04
 BYTE   W05
 BYTE   BEND   c_v-6
 BYTE   N04
 BYTE   W05
 BYTE   BEND   c_v-6
 BYTE   N04  Gn1
 BYTE   W05
 BYTE   BEND   c_v-6
 BYTE   N04  Cn1
 BYTE   W04
 BYTE   BEND   c_v-6
 BYTE   N04
 BYTE   W01
//  #03 //001   ----------------------------------------
 BYTE   W04
 BYTE   BEND   c_v-6
 BYTE   N04
 BYTE   W05
 BYTE   BEND   c_v-6
 BYTE   N04  Gn1
 BYTE   W05
 BYTE   BEND   c_v-6
 BYTE   N04  Cn1
 BYTE   W05
 BYTE   BEND   c_v-6
 BYTE   N04
 BYTE   W04
 BYTE   BEND   c_v-6
 BYTE   N04
 BYTE   W05
 BYTE   BEND   c_v-6
 BYTE   N04  Gn1
 BYTE   W05
 BYTE   BEND   c_v-6
 BYTE   N04  Cn1
 BYTE   W05
 BYTE   BEND   c_v-6
 BYTE   N04
 BYTE   W05
 BYTE   BEND   c_v-6
 BYTE   N04
 BYTE   W04
 BYTE   BEND   c_v-6
 BYTE   N04  Gn1
 BYTE   W05
 BYTE   BEND   c_v-6
 BYTE   N04  Cn1
 BYTE   W05
 BYTE   BEND   c_v-6
 BYTE   N04
 BYTE   W05
 BYTE   BEND   c_v-6
 BYTE   N04
 BYTE   W04
 BYTE   BEND   c_v-6
 BYTE   N04  Gn1
 BYTE   W05
 BYTE   BEND   c_v-6
 BYTE   N04  Cn1
 BYTE   W05
 BYTE   BEND   c_v-6
 BYTE   N04
 BYTE   W05
 BYTE   BEND   c_v-6
 BYTE   N04
 BYTE   W05
 BYTE   BEND   c_v-6
 BYTE   N04  Gn1
 BYTE   W04
 BYTE   BEND   c_v-6
 BYTE   N04  Cn1
 BYTE   W05
 BYTE   BEND   c_v-6
 BYTE   N04
 BYTE   W01
//  #03 //002   ----------------------------------------
 BYTE   W04
 BYTE   BEND   c_v-6
 BYTE   N04
 BYTE   W05
 BYTE   BEND   c_v-6
 BYTE   N04  Gn1
 BYTE   W05
 BYTE   BEND   c_v-6
 BYTE   N04  Cn1
 BYTE   W04
 BYTE   BEND   c_v-6
 BYTE   N04
 BYTE   W05
 BYTE   BEND   c_v-6
 BYTE   N04
 BYTE   W05
 BYTE   BEND   c_v-6
 BYTE   N04  Gn1
 BYTE   W05
 BYTE   BEND   c_v-6
 BYTE   N04  Cn1
 BYTE   W05
 BYTE   BEND   c_v-6
 BYTE   N04
 BYTE   W04
 BYTE   BEND   c_v-6
 BYTE   N04
 BYTE   W05
 BYTE   BEND   c_v-6
 BYTE   N04  Gn1
 BYTE   W05
 BYTE   BEND   c_v-6
 BYTE   N04  Cn1
 BYTE   W05
 BYTE   BEND   c_v-6
 BYTE   N04
 BYTE   W05
 BYTE   BEND   c_v-6
 BYTE   N04
 BYTE   W04
 BYTE   BEND   c_v-6
 BYTE   N04  Gn1
 BYTE   W05
 BYTE   BEND   c_v-6
 BYTE   N04  Cn1
 BYTE   W05
 BYTE   BEND   c_v-6
 BYTE   N04
 BYTE   W05
 BYTE   BEND   c_v-6
 BYTE   N04
 BYTE   W04
 BYTE   BEND   c_v-6
 BYTE   N04  Gn1
 BYTE   W05
 BYTE   BEND   c_v-6
 BYTE   N04  Cn1
 BYTE   W05
 BYTE   BEND   c_v-6
 BYTE   N04
 BYTE   W01
//  #03 //003   ----------------------------------------
 BYTE   W04
 BYTE   BEND   c_v-6
 BYTE   N04
 BYTE   W05
 BYTE   BEND   c_v-6
 BYTE   N04  Gn1
 BYTE   W04
 BYTE   BEND   c_v-6
 BYTE   N04  Cn1
 BYTE   W05
 BYTE   BEND   c_v-6
 BYTE   N09
 BYTE   W10
 BYTE   BEND   c_v-6
 BYTE   N09
 BYTE   W09
 BYTE   BEND   c_v-6
 BYTE   N04
 BYTE   W05
 BYTE   BEND   c_v-6
 BYTE   N04
 BYTE   W05
 BYTE   BEND   c_v-6
 BYTE   N09
 BYTE   W10
 BYTE   BEND   c_v-6
 BYTE   N09
 BYTE   W09
 BYTE   BEND   c_v-6
 BYTE   N09
 BYTE   W10
 BYTE   BEND   c_v-6
 BYTE   N09
 BYTE   W09
 BYTE   BEND   c_v-6
 BYTE   N04
 BYTE   W05
 BYTE   BEND   c_v-6
 BYTE   N04
 BYTE   W05
 BYTE   BEND   c_v-6
 BYTE   N09
 BYTE   W01
//  #03 //004   ----------------------------------------
 BYTE   W09
 BYTE   BEND   c_v-6
 BYTE   N09
 BYTE   W09
 BYTE   BEND   c_v-6
 BYTE   N04
 BYTE   W05
 BYTE   BEND   c_v-6
 BYTE   N04
 BYTE   W05
 BYTE   BEND   c_v-6
 BYTE   N09
 BYTE   W09
 BYTE   BEND   c_v-6
 BYTE   N09
 BYTE   W10
 BYTE   BEND   c_v-6
 BYTE   N09
 BYTE   W09
 BYTE   BEND   c_v-6
 BYTE   N09
 BYTE   W10
 BYTE   BEND   c_v-6
 BYTE   N04
 BYTE   W05
 BYTE   BEND   c_v-6
 BYTE   N04
 BYTE   W05
 BYTE   BEND   c_v-6
 BYTE   N09
 BYTE   W09
 BYTE   BEND   c_v-6
 BYTE   N09
 BYTE   W10
 BYTE   BEND   c_v-6
 BYTE   N04
 BYTE   W01
//  #03 //005   ----------------------------------------
 BYTE   W04
 BYTE   BEND   c_v-6
 BYTE   N04
 BYTE   W04
 BYTE   BEND   c_v-6
 BYTE   N09
 BYTE   W10
 BYTE   BEND   c_v-6
 BYTE   N09
 BYTE   W10
 BYTE   BEND   c_v-6
 BYTE   N09
 BYTE   W09
 BYTE   BEND   c_v-6
 BYTE   N09
 BYTE   W10
 BYTE   BEND   c_v-6
 BYTE   N04
 BYTE   W04
 BYTE   BEND   c_v-6
 BYTE   N04
 BYTE   W05
 BYTE   BEND   c_v-6
 BYTE   N09
 BYTE   W10
 BYTE   BEND   c_v-6
 BYTE   N09
 BYTE   W09
 BYTE   BEND   c_v-6
 BYTE   N04
 BYTE   W05
 BYTE   BEND   c_v-6
 BYTE   N04
 BYTE   W05
 BYTE   BEND   c_v-6
 BYTE   N09
 BYTE   W10
 BYTE   BEND   c_v-6
 BYTE   N09
 BYTE   W01
//  #03 //006   ----------------------------------------
 BYTE   W08
 BYTE   BEND   c_v-6
 BYTE   N09
 BYTE   W10
 BYTE   BEND   c_v-6
 BYTE   N09
 BYTE   W09
 BYTE   BEND   c_v-6
 BYTE   N04
 BYTE   W05
 BYTE   BEND   c_v-6
 BYTE   N04
 BYTE   W05
 BYTE   BEND   c_v-6
 BYTE   N09
 BYTE   W10
 BYTE   BEND   c_v-6
 BYTE   N04
 BYTE   W04
 BYTE   BEND   c_v-6
 BYTE   N04
 BYTE   W05
 BYTE   BEND   c_v-1
 BYTE   N09  Ds1
 BYTE   W10
 BYTE   BEND   c_v-6
 BYTE   N09  Cn1
 BYTE   W09
 BYTE   BEND   c_v-6
 BYTE   N09
 BYTE   W10
 BYTE   BEND   c_v-6
 BYTE   N04
 BYTE   W05
 BYTE   BEND   c_v-6
 BYTE   N04
 BYTE   W04
 BYTE   BEND   c_v-1
 BYTE   N09  Ds1
 BYTE   W02
//  #03 //007   ----------------------------------------
 BYTE   W08
 BYTE   BEND   c_v-6
 BYTE   N09  Cn1
 BYTE   W10
 BYTE   BEND   c_v-6
 BYTE   N09
 BYTE   W09
 BYTE   BEND   c_v-6
 BYTE   N09
 BYTE   W10
 BYTE   BEND   c_v-6
 BYTE   N04
 BYTE   W05
 BYTE   BEND   c_v-6
 BYTE   N04
 BYTE   W04
 BYTE   BEND   c_v-1
 BYTE   N09  Ds1
 BYTE   W10
 BYTE   BEND   c_v-6
 BYTE   N09  Cn1
 BYTE   W10
 BYTE   BEND   c_v-1
 BYTE   N09  Ds1
 BYTE   W09
 BYTE   BEND   c_v-1
 BYTE   N09
 BYTE   W10
 BYTE   BEND   c_v-6
 BYTE   N04  Cn1
 BYTE   W04
 BYTE   BEND   c_v-6
 BYTE   N04
 BYTE   W05
 BYTE   BEND   c_v-6
 BYTE   N09
 BYTE   W02
//  #03 //008   ----------------------------------------
 BYTE   W08
 BYTE   BEND   c_v-6
 BYTE   N04
 BYTE   W05
 BYTE   BEND   c_v-6
 BYTE   N04
 BYTE   W04
 BYTE   BEND   c_v-1
 BYTE   N09  Ds1
 BYTE   W10
 BYTE   BEND   c_v-6
 BYTE   N09  Cn1
 BYTE   W10
 BYTE   BEND   c_v-6
 BYTE   N09
 BYTE   W09
 BYTE   BEND   c_v-6
 BYTE   N04
 BYTE   W05
 BYTE   BEND   c_v-6
 BYTE   N04
 BYTE   W05
 BYTE   BEND   c_v-1
 BYTE   N09  Ds1
 BYTE   W09
 BYTE   BEND   c_v-6
 BYTE   N09  Cn1
 BYTE   W10
 BYTE   BEND   c_v-6
 BYTE   N09
 BYTE   W10
 BYTE   BEND   c_v-6
 BYTE   N09
 BYTE   W09
 BYTE   BEND   c_v-6
 BYTE   N04
 BYTE   W02
//  #03 //009   ----------------------------------------
 BYTE   W03
 BYTE   BEND   c_v-6
 BYTE   N04
 BYTE   W05
 BYTE   BEND   c_v-1
 BYTE   N09  Ds1
 BYTE   W09
 BYTE   BEND   c_v-6
 BYTE   N09  Cn1
 BYTE   W10
 BYTE   BEND   c_v-1
 BYTE   N09  Ds1
 BYTE   W09
 BYTE   BEND   c_v-1
 BYTE   N09
 BYTE   W10
 BYTE   BEND   c_v-6
 BYTE   N04  Cn1
 BYTE   W05
 BYTE   BEND   c_v-6
 BYTE   N04
 BYTE   W05
 BYTE   BEND   c_v-6
 BYTE   N09
 BYTE   W09
 BYTE   BEND   c_v-6
 BYTE   N04
 BYTE   W05
 BYTE   BEND   c_v-6
 BYTE   N04
 BYTE   W05
 BYTE   BEND   c_v-1
 BYTE   N09  Ds1
 BYTE   W09
 BYTE   BEND   c_v-6
 BYTE   N09  Cn1
 BYTE   W10
 BYTE   BEND   c_v-6
 BYTE   N09
 BYTE   W02
//  #03 //010   ----------------------------------------
 BYTE   W08
 BYTE   BEND   c_v-6
 BYTE   N04
 BYTE   W04
 BYTE   BEND   c_v-6
 BYTE   N04
 BYTE   W05
 BYTE   BEND   c_v-1
 BYTE   N09  Ds1
 BYTE   W10
 BYTE   BEND   c_v-6
 BYTE   N09  Cn1
 BYTE   W09
 BYTE   BEND   c_v-6
 BYTE   N09
 BYTE   W10
 BYTE   BEND   c_v-6
 BYTE   N09
 BYTE   W09
 BYTE   BEND   c_v-6
 BYTE   N04
 BYTE   W05
 BYTE   BEND   c_v-6
 BYTE   N04
 BYTE   W05
 BYTE   BEND   c_v-1
 BYTE   N09  Ds1
 BYTE   W10
 BYTE   BEND   c_v-6
 BYTE   N09  Cn1
 BYTE   W09
 BYTE   BEND   c_v-1
 BYTE   N09  Ds1
 BYTE   W10
 BYTE   BEND   c_v-1
 BYTE   N09
 BYTE   W02
//  #03 //011   ----------------------------------------
 BYTE   W07
 BYTE   BEND   c_v-6
 BYTE   N04  Cn1
 BYTE   W05
 BYTE   BEND   c_v-6
 BYTE   N04
 BYTE   W05
 BYTE   BEND   c_v-6
 BYTE   N09
 BYTE   W10
 BYTE   BEND   c_v-6
 BYTE   N04
 BYTE   W04
 BYTE   BEND   c_v-6
 BYTE   N04
 BYTE   W05
 BYTE   BEND   c_v-1
 BYTE   N09  Ds1
 BYTE   W10
 BYTE   BEND   c_v-6
 BYTE   N09  Cn1
 BYTE   W09
 BYTE   BEND   c_v-6
 BYTE   N09
 BYTE   W10
 BYTE   BEND   c_v-6
 BYTE   N04
 BYTE   W05
 BYTE   BEND   c_v-6
 BYTE   N04
 BYTE   W04
 BYTE   BEND   c_v-1
 BYTE   N09  Ds1
 BYTE   W10
 BYTE   BEND   c_v-6
 BYTE   N09  Cn1
 BYTE   W10
 BYTE   BEND   c_v-6
 BYTE   N09
 BYTE   W02
//  #03 //012   ----------------------------------------
 BYTE   W07
 BYTE   BEND   c_v-6
 BYTE   N09
 BYTE   W10
 BYTE   BEND   c_v-6
 BYTE   N04
 BYTE   W05
 BYTE   BEND   c_v-6
 BYTE   N04
 BYTE   W04
 BYTE   BEND   c_v-1
 BYTE   N09  Ds1
 BYTE   W10
 BYTE   BEND   c_v-6
 BYTE   N09  Cn1
 BYTE   W10
 BYTE   BEND   c_v-1
 BYTE   N09  Ds1
 BYTE   W09
 BYTE   BEND   c_v-1
 BYTE   N09
 BYTE   W10
 BYTE   BEND   c_v-6
 BYTE   N04  Cn1
 BYTE   W05
 BYTE   BEND   c_v-6
 BYTE   N04
 BYTE   W04
 BYTE   BEND   c_v-6
 BYTE   N09
 BYTE   W10
 BYTE   BEND   c_v-6
 BYTE   N04
 BYTE   W05
 BYTE   BEND   c_v-6
 BYTE   N04
 BYTE   W05
 BYTE   BEND   c_v-1
 BYTE   N09  Ds1
 BYTE   W02
//  #03 //013   ----------------------------------------
 BYTE   W07
 BYTE   BEND   c_v-6
 BYTE   N09  Cn1
 BYTE   W10
 BYTE   BEND   c_v-6
 BYTE   N09
 BYTE   W09
 BYTE   BEND   c_v-6
 BYTE   N04
 BYTE   W05
 BYTE   BEND   c_v-6
 BYTE   N04
 BYTE   W05
 BYTE   BEND   c_v-1
 BYTE   N09  Ds1
 BYTE   W09
 BYTE   BEND   c_v-6
 BYTE   N09  Cn1
 BYTE   W10
 BYTE   BEND   c_v-6
 BYTE   N09
 BYTE   W10
 BYTE   BEND   c_v-6
 BYTE   N09
 BYTE   W09
 BYTE   BEND   c_v-6
 BYTE   N04
 BYTE   W05
 BYTE   BEND   c_v-6
 BYTE   N04
 BYTE   W05
 BYTE   BEND   c_v-1
 BYTE   N09  Ds1
 BYTE   W09
 BYTE   BEND   c_v-6
 BYTE   N09  Cn1
 BYTE   W03
//  #03 //014   ----------------------------------------
 BYTE   W07
 BYTE   BEND   c_v-1
 BYTE   N09  Ds1
 BYTE   W10
 BYTE   BEND   c_v-1
 BYTE   N09
 BYTE   W09
 BYTE   BEND   c_v-6
 BYTE   N04  Cn1
 BYTE   W05
 BYTE   BEND   c_v-6
 BYTE   N04
 BYTE   W05
 BYTE   BEND   c_v-6
 BYTE   N09
 BYTE   W09
 BYTE   BEND   c_v-6
 BYTE   N04
 BYTE   W05
 BYTE   BEND   c_v-6
 BYTE   N04
 BYTE   W05
 BYTE   BEND   c_v-1
 BYTE   N09  Ds1
 BYTE   W09
 BYTE   BEND   c_v-6
 BYTE   N09  Cn1
 BYTE   W10
 BYTE   BEND   c_v-6
 BYTE   N09
 BYTE   W10
 BYTE   BEND   c_v-6
 BYTE   N04
 BYTE   W04
 BYTE   BEND   c_v-6
 BYTE   N04
 BYTE   W05
 BYTE   BEND   c_v-1
 BYTE   N09  Ds1
 BYTE   W03
//  #03 //015   ----------------------------------------
 BYTE   W07
 BYTE   BEND   c_v-6
 BYTE   N09  Cn1
 BYTE   W09
 BYTE   BEND   c_v-6
 BYTE   N09
 BYTE   W10
 BYTE   BEND   c_v-6
 BYTE   N09
 BYTE   W10
 BYTE   BEND   c_v-6
 BYTE   N04
 BYTE   W04
 BYTE   BEND   c_v-6
 BYTE   N04
 BYTE   W05
 BYTE   BEND   c_v-1
 BYTE   N09  Ds1
 BYTE   W10
 BYTE   BEND   c_v-6
 BYTE   N09  Cn1
 BYTE   W09
 BYTE   BEND   c_v-1
 BYTE   N09  Ds1
 BYTE   W10
 BYTE   BEND   c_v-1
 BYTE   N09
 BYTE   W09
 BYTE   BEND   c_v-6
 BYTE   N04  Cn1
 BYTE   W05
 BYTE   BEND   c_v-6
 BYTE   N04
 BYTE   W05
 BYTE   BEND   c_v-6
 BYTE   N09
 BYTE   W03
//  #03 //016   ----------------------------------------
 BYTE   W07
 BYTE   BEND   c_v-6
 BYTE   N04
 BYTE   W04
 BYTE   BEND   c_v-6
 BYTE   N04
 BYTE   W05
 BYTE   BEND   c_v-1
 BYTE   N09  Ds1
 BYTE   W10
 BYTE   BEND   c_v-6
 BYTE   N09  Cn1
 BYTE   W09
 BYTE   BEND   c_v-6
 BYTE   N09
 BYTE   W10
 BYTE   BEND   c_v-6
 BYTE   N04
 BYTE   W05
 BYTE   BEND   c_v-6
 BYTE   N04
 BYTE   W05
 BYTE   BEND   c_v-1
 BYTE   N09  Ds1
 BYTE   W09
 BYTE   BEND   c_v-6
 BYTE   N09  Cn1
 BYTE   W10
 BYTE   BEND   c_v-6
 BYTE   N09
 BYTE   W09
 BYTE   BEND   c_v-6
 BYTE   N09
 BYTE   W10
 BYTE   BEND   c_v-6
 BYTE   N04
 BYTE   W03
//  #03 //017   ----------------------------------------
 BYTE   W02
 BYTE   BEND   c_v-6
 BYTE   N04
 BYTE   W04
 BYTE   BEND   c_v-1
 BYTE   N09  Ds1
 BYTE   W10
 BYTE   BEND   c_v-6
 BYTE   N09  Cn1
 BYTE   W10
 BYTE   BEND   c_v-1
 BYTE   N09  Ds1
 BYTE   W09
 BYTE   BEND   c_v-1
 BYTE   N09
 BYTE   W10
 BYTE   BEND   c_v-6
 BYTE   N04  Cn1
 BYTE   W05
 BYTE   BEND   c_v-6
 BYTE   N04
 BYTE   W04
 BYTE   BEND   c_v-6
 BYTE   N09
 BYTE   W10
 BYTE   BEND   c_v-6
 BYTE   N04
 BYTE   W05
 BYTE   BEND   c_v-6
 BYTE   N04
 BYTE   W05
 BYTE   BEND   c_v-1
 BYTE   N09  Ds1
 BYTE   W09
 BYTE   BEND   c_v-6
 BYTE   N09  Cn1
 BYTE   W10
 BYTE   BEND   c_v-6
 BYTE   N09
 BYTE   W03
//  #03 //018   ----------------------------------------
 BYTE   W06
 BYTE   BEND   c_v-6
 BYTE   N04
 BYTE   W05
 BYTE   BEND   c_v-6
 BYTE   N04
 BYTE   W05
 BYTE   BEND   c_v-1
 BYTE   N09  Ds1
 BYTE   W09
 BYTE   BEND   c_v-6
 BYTE   N09  Cn1
 BYTE   W10
 BYTE   BEND   c_v-6
 BYTE   N09
 BYTE   W10
 BYTE   BEND   c_v-6
 BYTE   N09
 BYTE   W09
 BYTE   BEND   c_v-6
 BYTE   N04
 BYTE   W05
 BYTE   BEND   c_v-6
 BYTE   N04
 BYTE   W05
 BYTE   BEND   c_v-1
 BYTE   N09  Ds1
 BYTE   W09
 BYTE   BEND   c_v-6
 BYTE   N09  Cn1
 BYTE   W10
 BYTE   BEND   c_v-1
 BYTE   N09  Ds1
 BYTE   W10
 BYTE   BEND   c_v-1
 BYTE   N09
 BYTE   W03
//  #03 //019   ----------------------------------------
 BYTE   W06
 BYTE   BEND   c_v-6
 BYTE   N04  Cn1
 BYTE   W05
 BYTE   BEND   c_v-6
 BYTE   N05
 BYTE   W06
 BYTE   BEND   c_v-6
 BYTE   N09
 BYTE   W09
 BYTE   BEND   c_v-6
 BYTE   N09
 BYTE   W10
 BYTE   BEND   c_v-6
 BYTE   N04
 BYTE   W04
 BYTE   BEND   c_v-6
 BYTE   N04
 BYTE   W05
 BYTE   BEND   c_v-6
 BYTE   N09
 BYTE   W10
 BYTE   BEND   c_v-6
 BYTE   N09
 BYTE   W09
 BYTE   BEND   c_v-6
 BYTE   N09
 BYTE   W10
 BYTE   BEND   c_v-6
 BYTE   N09
 BYTE   W10
 BYTE   BEND   c_v-6
 BYTE   N04
 BYTE   W04
 BYTE   BEND   c_v-6
 BYTE   N04
 BYTE   W05
 BYTE   BEND   c_v-6
 BYTE   N09
 BYTE   W03
//  #03 //020   ----------------------------------------
 BYTE   W07
 BYTE   BEND   c_v-6
 BYTE   N09
 BYTE   W09
 BYTE   BEND   c_v-6
 BYTE   N04
 BYTE   W05
 BYTE   BEND   c_v-6
 BYTE   N04
 BYTE   W05
 BYTE   BEND   c_v-6
 BYTE   N09
 BYTE   W10
 BYTE   BEND   c_v-6
 BYTE   N09
 BYTE   W09
 BYTE   BEND   c_v-6
 BYTE   N09
 BYTE   W10
 BYTE   BEND   c_v-6
 BYTE   N09
 BYTE   W09
 BYTE   BEND   c_v-6
 BYTE   N04
 BYTE   W05
 BYTE   BEND   c_v-6
 BYTE   N04
 BYTE   W05
 BYTE   BEND   c_v-6
 BYTE   N09
 BYTE   W09
 BYTE   BEND   c_v-6
 BYTE   N09
 BYTE   W10
 BYTE   BEND   c_v-6
 BYTE   N04
 BYTE   W03
//  #03 //021   ----------------------------------------
 BYTE   W02
 BYTE   BEND   c_v-6
 BYTE   N04
 BYTE   W05
 BYTE   BEND   c_v-6
 BYTE   N09
 BYTE   W09
 BYTE   BEND   c_v-6
 BYTE   N09
 BYTE   W10
 BYTE   BEND   c_v-6
 BYTE   N09
 BYTE   W09
 BYTE   BEND   c_v-6
 BYTE   N09
 BYTE   W10
 BYTE   BEND   c_v-6
 BYTE   N04
 BYTE   W05
 BYTE   BEND   c_v-6
 BYTE   N04
 BYTE   W05
 BYTE   BEND   c_v-6
 BYTE   N09
 BYTE   W09
 BYTE   BEND   c_v-6
 BYTE   N09
 BYTE   W10
 BYTE   BEND   c_v-6
 BYTE   N04
 BYTE   W05
 BYTE   BEND   c_v-6
 BYTE   N04
 BYTE   W04
 BYTE   BEND   c_v-6
 BYTE   N09
 BYTE   W10
 BYTE   BEND   c_v-6
 BYTE   N09
 BYTE   W03
//  #03 //022   ----------------------------------------
 BYTE   W06
 BYTE   BEND   c_v-6
 BYTE   N09
 BYTE   W10
 BYTE   BEND   c_v-6
 BYTE   N09
 BYTE   W10
 BYTE   BEND   c_v-6
 BYTE   N04
 BYTE   W04
 BYTE   BEND   c_v-6
 BYTE   N04
 BYTE   W05
 BYTE   BEND   c_v-6
 BYTE   N09
 BYTE   W10
 BYTE   BEND   c_v-6
 BYTE   N04
 BYTE   W05
 BYTE   BEND   c_v-6
 BYTE   N04
 BYTE   W04
 BYTE   BEND   c_v-1
 BYTE   N09  Ds1
 BYTE   W10
 BYTE   BEND   c_v-6
 BYTE   N09  Cn1
 BYTE   W10
 BYTE   BEND   c_v-6
 BYTE   N09
 BYTE   W09
 BYTE   BEND   c_v-6
 BYTE   N04
 BYTE   W05
 BYTE   BEND   c_v-6
 BYTE   N04
 BYTE   W05
 BYTE   BEND   c_v-1
 BYTE   N09  Ds1
 BYTE   W03
//  #03 //023   ----------------------------------------
 BYTE   W06
 BYTE   BEND   c_v-6
 BYTE   N09  Cn1
 BYTE   W10
 BYTE   BEND   c_v-6
 BYTE   N09
 BYTE   W09
 BYTE   BEND   c_v-6
 BYTE   N09
 BYTE   W10
 BYTE   BEND   c_v-6
 BYTE   N04
 BYTE   W05
 BYTE   BEND   c_v-6
 BYTE   N04
 BYTE   W05
 BYTE   BEND   c_v-1
 BYTE   N09  Ds1
 BYTE   W09
 BYTE   BEND   c_v-6
 BYTE   N09  Cn1
 BYTE   W10
 BYTE   BEND   c_v-1
 BYTE   N09  Ds1
 BYTE   W09
 BYTE   BEND   c_v-1
 BYTE   N09
 BYTE   W10
 BYTE   BEND   c_v-6
 BYTE   N04  Cn1
 BYTE   W05
 BYTE   BEND   c_v-6
 BYTE   N04
 BYTE   W05
 BYTE   BEND   c_v-6
 BYTE   N09
 BYTE   W03
//  #03 //024   ----------------------------------------
 BYTE   W06
 BYTE   BEND   c_v-6
 BYTE   N04
 BYTE   W05
 BYTE   BEND   c_v-6
 BYTE   N04
 BYTE   W05
 BYTE   BEND   c_v-1
 BYTE   N09  Ds1
 BYTE   W09
 BYTE   BEND   c_v-6
 BYTE   N09  Cn1
 BYTE   W10
 BYTE   BEND   c_v-6
 BYTE   N09
 BYTE   W10
 BYTE   BEND   c_v-6
 BYTE   N04
 BYTE   W04
 BYTE   BEND   c_v-6
 BYTE   N04
 BYTE   W05
 BYTE   BEND   c_v-1
 BYTE   N09  Ds1
 BYTE   W10
 BYTE   BEND   c_v-6
 BYTE   N09  Cn1
 BYTE   W09
 BYTE   BEND   c_v-6
 BYTE   N09
 BYTE   W10
 BYTE   BEND   c_v-6
 BYTE   N09
 BYTE   W09
 BYTE   BEND   c_v-6
 BYTE   N04
 BYTE   W04
//  #03 //025   ----------------------------------------
 BYTE   W01
 BYTE   BEND   c_v-6
 BYTE   N04
 BYTE   W05
 BYTE   BEND   c_v-1
 BYTE   N09  Ds1
 BYTE   W10
 BYTE   BEND   c_v-6
 BYTE   N09  Cn1
 BYTE   W09
 BYTE   BEND   c_v-1
 BYTE   N09  Ds1
 BYTE   W10
 BYTE   BEND   c_v-1
 BYTE   N09
 BYTE   W09
 BYTE   BEND   c_v-6
 BYTE   N04  Cn1
 BYTE   W05
 BYTE   BEND   c_v-6
 BYTE   N04
 BYTE   W05
 BYTE   BEND   c_v-6
 BYTE   N09
 BYTE   W10
 BYTE   BEND   c_v-6
 BYTE   N04
 BYTE   W04
 BYTE   BEND   c_v-6
 BYTE   N04
 BYTE   W05
 BYTE   BEND   c_v-1
 BYTE   N09  Ds1
 BYTE   W10
 BYTE   BEND   c_v-6
 BYTE   N09  Cn1
 BYTE   W09
 BYTE   BEND   c_v-6
 BYTE   N09
 BYTE   W04
//  #03 //026   ----------------------------------------
 BYTE   W06
 BYTE   BEND   c_v-6
 BYTE   N04
 BYTE   W05
 BYTE   BEND   c_v-6
 BYTE   N04
 BYTE   W04
 BYTE   BEND   c_v-1
 BYTE   N09  Ds1
 BYTE   W10
 BYTE   BEND   c_v-6
 BYTE   N09  Cn1
 BYTE   W10
 BYTE   BEND   c_v-6
 BYTE   N09
 BYTE   W09
 BYTE   BEND   c_v-6
 BYTE   N09
 BYTE   W10
 BYTE   BEND   c_v-6
 BYTE   N04
 BYTE   W05
 BYTE   BEND   c_v-6
 BYTE   N04
 BYTE   W04
 BYTE   BEND   c_v-1
 BYTE   N09  Ds1
 BYTE   W10
 BYTE   BEND   c_v-6
 BYTE   N09  Cn1
 BYTE   W10
 BYTE   BEND   c_v-1
 BYTE   N09  Ds1
 BYTE   W09
 BYTE   BEND   c_v-1
 BYTE   N09
 BYTE   W04
//  #03 //027   ----------------------------------------
 BYTE   W06
 BYTE   BEND   c_v-6
 BYTE   N04  Cn1
 BYTE   W04
 BYTE   BEND   c_v-6
 BYTE   N04
 BYTE   W05
 BYTE   BEND   c_v-6
 BYTE   N09
 BYTE   W10
 BYTE   BEND   c_v-6
 BYTE   N04
 BYTE   W05
 BYTE   BEND   c_v-6
 BYTE   N04
 BYTE   W04
 BYTE   BEND   c_v-1
 BYTE   N09  Ds1
 BYTE   W10
 BYTE   BEND   c_v-6
 BYTE   N09  Cn1
 BYTE   W10
 BYTE   BEND   c_v-6
 BYTE   N09
 BYTE   W09
 BYTE   BEND   c_v-6
 BYTE   N04
 BYTE   W05
 BYTE   BEND   c_v-6
 BYTE   N04
 BYTE   W05
 BYTE   BEND   c_v-1
 BYTE   N09  Ds1
 BYTE   W09
 BYTE   BEND   c_v-6
 BYTE   N09  Cn1
 BYTE   W10
 BYTE   BEND   c_v-6
 BYTE   N09
 BYTE   W04
//  #03 //028   ----------------------------------------
 BYTE   W06
 BYTE   BEND   c_v-6
 BYTE   N09
 BYTE   W09
 BYTE   BEND   c_v-6
 BYTE   N04
 BYTE   W05
 BYTE   BEND   c_v-6
 BYTE   N04
 BYTE   W05
 BYTE   BEND   c_v-1
 BYTE   N09  Ds1
 BYTE   W09
 BYTE   BEND   c_v-6
 BYTE   N09  Cn1
 BYTE   W10
 BYTE   BEND   c_v-1
 BYTE   N09  Ds1
 BYTE   W09
 BYTE   BEND   c_v-1
 BYTE   N09
 BYTE   W10
 BYTE   BEND   c_v-6
 BYTE   N04  Cn1
 BYTE   W05
 BYTE   BEND   c_v-6
 BYTE   N04
 BYTE   W05
 BYTE   BEND   c_v-6
 BYTE   N09
 BYTE   W09
 BYTE   BEND   c_v-6
 BYTE   N04
 BYTE   W05
 BYTE   BEND   c_v-6
 BYTE   N04
 BYTE   W05
 BYTE   BEND   c_v-1
 BYTE   N09  Ds1
 BYTE   W04
//  #03 //029   ----------------------------------------
 BYTE   W05
 BYTE   BEND   c_v-6
 BYTE   N09  Cn1
 BYTE   W10
 BYTE   BEND   c_v-6
 BYTE   N09
 BYTE   W10
 BYTE   BEND   c_v-6
 BYTE   N04
 BYTE   W04
 BYTE   BEND   c_v-6
 BYTE   N04
 BYTE   W05
 BYTE   BEND   c_v-1
 BYTE   N09  Ds1
 BYTE   W10
 BYTE   BEND   c_v-6
 BYTE   N09  Cn1
 BYTE   W09
 BYTE   BEND   c_v-6
 BYTE   N09
 BYTE   W10
 BYTE   BEND   c_v-6
 BYTE   N09
 BYTE   W09
 BYTE   BEND   c_v-6
 BYTE   N04
 BYTE   W05
 BYTE   BEND   c_v-6
 BYTE   N04
 BYTE   W05
 BYTE   BEND   c_v-1
 BYTE   N09  Ds1
 BYTE   W10
 BYTE   BEND   c_v-6
 BYTE   N09  Cn1
 BYTE   W04
//  #03 //030   ----------------------------------------
 BYTE   W05
 BYTE   BEND   c_v-1
 BYTE   N09  Ds1
 BYTE   W10
 BYTE   BEND   c_v-1
 BYTE   N09
 BYTE   W09
 BYTE   BEND   c_v-6
 BYTE   N04  Cn1
 BYTE   W05
 BYTE   BEND   c_v-6
 BYTE   N04
 BYTE   W05
 BYTE   BEND   c_v-6
 BYTE   N09
 BYTE   W10
 BYTE   BEND   c_v-6
 BYTE   N04
 BYTE   W04
 BYTE   BEND   c_v-6
 BYTE   N04
 BYTE   W05
 BYTE   BEND   c_v-1
 BYTE   N09  Ds1
 BYTE   W10
 BYTE   BEND   c_v-6
 BYTE   N09  Cn1
 BYTE   W09
 BYTE   BEND   c_v-6
 BYTE   N09
 BYTE   W10
 BYTE   BEND   c_v-6
 BYTE   N04
 BYTE   W05
 BYTE   BEND   c_v-6
 BYTE   N04
 BYTE   W04
 BYTE   BEND   c_v-1
 BYTE   N09  Ds1
 BYTE   W05
//  #03 //031   ----------------------------------------
 BYTE   W05
 BYTE   BEND   c_v-6
 BYTE   N09  Cn1
 BYTE   W10
 BYTE   BEND   c_v-6
 BYTE   N09
 BYTE   W09
 BYTE   BEND   c_v-6
 BYTE   N09
 BYTE   W10
 BYTE   BEND   c_v-6
 BYTE   N04
 BYTE   W05
 BYTE   BEND   c_v-6
 BYTE   N04
 BYTE   W04
 BYTE   BEND   c_v-1
 BYTE   N09  Ds1
 BYTE   W10
 BYTE   BEND   c_v-6
 BYTE   N09  Cn1
 BYTE   W10
 BYTE   BEND   c_v-1
 BYTE   N09  Ds1
 BYTE   W09
 BYTE   BEND   c_v-1
 BYTE   N09
 BYTE   W10
 BYTE   BEND   c_v-6
 BYTE   N04  Cn1
 BYTE   W05
 BYTE   BEND   c_v-6
 BYTE   N04
 BYTE   W04
 BYTE   BEND   c_v-6
 BYTE   N09
 BYTE   W05
//  #03 //032   ----------------------------------------
 BYTE   W05
 BYTE   BEND   c_v-6
 BYTE   N04
 BYTE   W05
 BYTE   BEND   c_v-6
 BYTE   N04
 BYTE   W05
 BYTE   BEND   c_v-1
 BYTE   N09  Ds1
 BYTE   W09
 BYTE   BEND   c_v-6
 BYTE   N09  Cn1
 BYTE   W10
 BYTE   BEND   c_v-6
 BYTE   N09
 BYTE   W09
 BYTE   BEND   c_v-6
 BYTE   N04
 BYTE   W05
 BYTE   BEND   c_v-6
 BYTE   N04
 BYTE   W05
 BYTE   BEND   c_v-1
 BYTE   N09  Ds1
 BYTE   W09
 BYTE   BEND   c_v-6
 BYTE   N09  Cn1
 BYTE   W10
 BYTE   BEND   c_v-6
 BYTE   N09
 BYTE   W10
 BYTE   BEND   c_v-6
 BYTE   N09
 BYTE   W09
 BYTE   BEND   c_v-6
 BYTE   N04
 BYTE   W05
//  #03 //033   ----------------------------------------
 BYTE   BEND   c_v-6
 BYTE   N04
 BYTE   W05
 BYTE   BEND   c_v-1
 BYTE   N09  Ds1
 BYTE   W09
 BYTE   BEND   c_v-6
 BYTE   N09  Cn1
 BYTE   W10
 BYTE   BEND   c_v-1
 BYTE   N09  Ds1
 BYTE   W10
 BYTE   BEND   c_v-1
 BYTE   N09
 BYTE   W09
 BYTE   BEND   c_v-6
 BYTE   N04  Cn1
 BYTE   W05
 BYTE   BEND   c_v-6
 BYTE   N04
 BYTE   W05
 BYTE   BEND   c_v-6
 BYTE   N09
 BYTE   W09
 BYTE   BEND   c_v-6
 BYTE   N04
 BYTE   W05
 BYTE   BEND   c_v-6
 BYTE   N04
 BYTE   W05
 BYTE   BEND   c_v-1
 BYTE   N09  Ds1
 BYTE   W09
 BYTE   BEND   c_v-6
 BYTE   N09  Cn1
 BYTE   W10
 BYTE   BEND   c_v-6
 BYTE   N09
 BYTE   W05
//  #03 //034   ----------------------------------------
 BYTE   W05
 BYTE   BEND   c_v-6
 BYTE   N04
 BYTE   W04
 BYTE   BEND   c_v-6
 BYTE   N04
 BYTE   W05
 BYTE   BEND   c_v-1
 BYTE   N09  Ds1
 BYTE   W10
 BYTE   BEND   c_v-6
 BYTE   N09  Cn1
 BYTE   W09
 BYTE   BEND   c_v-6
 BYTE   N09
 BYTE   W10
 BYTE   BEND   c_v-6
 BYTE   N09
 BYTE   W10
 BYTE   BEND   c_v-6
 BYTE   N04
 BYTE   W04
 BYTE   BEND   c_v-6
 BYTE   N04
 BYTE   W05
 BYTE   BEND   c_v-1
 BYTE   N09  Ds1
 BYTE   W10
 BYTE   BEND   c_v-6
 BYTE   N09  Cn1
 BYTE   W09
 BYTE   BEND   c_v-1
 BYTE   N09  Ds1
 BYTE   W10
 BYTE   BEND   c_v-1
 BYTE   N09
 BYTE   W05
//  #03 //035   ----------------------------------------
 BYTE   W04
 BYTE   BEND   c_v-6
 BYTE   N04  Cn1
 BYTE   W05
 BYTE   BEND   c_v-6
 BYTE   N05
 BYTE   W06
 BYTE   GoTo
  POIN2 Label_01196266
//  #03 //036   ----------------------------------------
 BYTE   BEND   c_v-6
 BYTE   FINE

//******************************************************//
	ALIGN 4

WreckingCrewGoldenHammer:
	BYTE	3	// NumTrks
	BYTE	0	// NumBlks
	BYTE	WreckingCrewGoldenHammer_pri	// Priority
	BYTE	WreckingCrewGoldenHammer_rev	// Reverb.
    
	POIN2	WreckingCrewGoldenHammer_grp
    
	POIN2	WreckingCrewGoldenHammer_001
	POIN2	WreckingCrewGoldenHammer_002
	POIN2	WreckingCrewGoldenHammer_003

	
